<svg width="210" height="140" viewBox="0 0 210 140" fill="none" xmlns="http://www.w3.org/2000/svg">
<path d="M116.08 35.8874C112.84 35.9022 110.201 38.4318 110.216 41.5813C110.231 44.7309 112.896 47.2367 116.136 47.2226C119.375 47.2085 122.015 44.6783 122 41.5299C121.984 38.3816 119.319 35.8739 116.078 35.8887L116.08 35.8874ZM116.124 44.9128C115.206 44.9179 114.323 44.5755 113.671 43.9619C113.018 43.3483 112.656 42.5123 112.646 41.6398C112.636 40.7673 113.001 39.9288 113.647 39.3088C114.293 38.6888 115.173 38.345 116.091 38.3354C117.01 38.3257 117.892 38.6727 118.545 39.2863C119.197 39.8999 119.559 40.7358 119.569 41.6083C119.579 43.3592 117.967 44.9044 116.124 44.9134V44.9128ZM129.204 38.557C127.51 38.5648 126.191 39.8999 126.199 41.5094L126.226 46.8968L123.648 46.9084L123.596 36.2022L126.174 36.1907L126.183 37.8696C126.183 37.8696 127.278 36.1862 129.488 36.1765L130.226 36.1727L130.238 38.5513L129.204 38.557ZM103.486 36.2935L105.438 43.6322L107.465 36.2755L110.043 36.2646L106.853 46.9913L104.349 47.0022L102.324 39.5247L100.373 47.0196L97.8681 47.0305L94.5013 36.3391L97.0051 36.3282L99.2505 43.6657L101.056 36.3102L103.486 36.2935ZM137.759 41.0391C139.521 40.0522 140.766 38.2268 140.755 36.1277L138.177 36.1393C138.187 37.9589 136.646 39.4354 134.805 39.4418L134.437 39.4431L134.396 30.9767L131.818 30.9882L131.897 46.8711L134.474 46.8602L134.449 41.8229L134.744 41.8216C135.038 41.8204 135.334 41.9591 135.409 42.1686L139.041 46.8397L142.061 46.8268L137.759 41.0391Z" fill="#2F263A"/>
<path d="M88.5334 36.0108C85.7354 36.0236 83.6077 37.7822 82.8117 40.5842C81.4759 38.631 80.4337 36.3969 79.8358 34.5105L76.8904 34.5234L76.9269 41.9399C76.9302 42.645 76.6385 43.3226 76.1162 43.8235C75.5938 44.3245 74.8834 44.6079 74.1411 44.6115C73.3989 44.6145 72.6857 44.3375 72.1584 43.8412C71.6311 43.345 71.3327 42.6701 71.329 41.965L71.2918 34.5484L68.345 34.5613L68.3815 41.9778C68.3971 45.0554 70.9854 47.4944 74.1533 47.4796C77.3212 47.4649 79.8872 45.0047 79.8723 41.9264L79.8656 40.6671C80.4594 41.7831 81.202 42.9692 82.0183 44.0159L80.2173 52.2098L83.2364 52.197L84.535 46.2434C85.7165 46.9386 87.0374 47.3518 88.5902 47.3447C91.8312 47.3299 94.4709 44.8004 94.454 41.5814C94.4417 40.0983 93.8122 38.68 92.7031 37.6363C91.594 36.5925 90.0953 36.0079 88.5341 36.0102L88.5334 36.0108ZM88.5753 44.4772C87.3972 44.4823 86.217 43.9979 85.2559 43.232L85.5447 42.1121V42.0478C85.7611 40.8566 86.4118 38.825 88.622 38.816C89.4013 38.8148 90.1496 39.106 90.704 39.6263C91.2584 40.1466 91.5741 40.8539 91.5823 41.5942C91.516 43.2037 90.1235 44.4695 88.576 44.4765L88.5753 44.4772Z" fill="#6FDA44"/>
<path fill-rule="evenodd" clip-rule="evenodd" d="M105.203 132.899C139.941 132.899 168.101 104.738 168.101 70C168.101 35.2621 139.941 7.10145 105.203 7.10145C70.465 7.10145 42.3044 35.2621 42.3044 70C42.3044 104.738 70.465 132.899 105.203 132.899ZM105.203 140C143.863 140 175.203 108.66 175.203 70C175.203 31.3401 143.863 0 105.203 0C66.543 0 35.2029 31.3401 35.2029 70C35.2029 108.66 66.543 140 105.203 140Z" fill="#84C44C"/>
<path fill-rule="evenodd" clip-rule="evenodd" d="M105.203 126.812C136.579 126.812 162.014 101.376 162.014 70C162.014 38.6238 136.579 13.1884 105.203 13.1884C73.8267 13.1884 48.3913 38.6238 48.3913 70C48.3913 101.376 73.8267 126.812 105.203 126.812ZM105.203 132.899C139.941 132.899 168.101 104.738 168.101 70C168.101 35.2621 139.941 7.10144 105.203 7.10144C70.465 7.10144 42.3044 35.2621 42.3044 70C42.3044 104.738 70.465 132.899 105.203 132.899Z" fill="#F5F5F5"/>
<rect x="35.2029" y="54.7826" width="140" height="30.4348" fill="#84C44C"/>
<rect x="21" y="54.7826" width="12.1739" height="30.4348" fill="#259FD9"/>
<rect x="177.232" y="54.7826" width="12.1739" height="30.4348" fill="#259FD9"/>
<path d="M83.1119 115.169C83.4051 115.323 83.7679 115.21 83.9223 114.917C84.0766 114.624 83.964 114.261 83.6708 114.107L83.1119 115.169ZM60.0349 92.5996C64.6594 101.335 73.3725 110.043 83.1119 115.169L83.6708 114.107C74.1348 109.088 65.6015 100.549 61.0955 92.0381L60.0349 92.5996Z" fill="#84C44C"/>
<path d="M126.787 115.169C126.493 115.323 126.131 115.21 125.976 114.917C125.822 114.624 125.935 114.261 126.228 114.107L126.787 115.169ZM149.864 92.5996C145.239 101.335 136.526 110.043 126.787 115.169L126.228 114.107C135.764 109.088 144.297 100.549 148.803 92.0381L149.864 92.5996Z" fill="#84C44C"/>
<path d="M95.288 111.408V110.463L97.718 108.168C97.91 107.994 98.051 107.838 98.141 107.7C98.231 107.562 98.291 107.436 98.321 107.322C98.357 107.208 98.375 107.103 98.375 107.007C98.375 106.755 98.288 106.563 98.114 106.431C97.946 106.293 97.697 106.224 97.367 106.224C97.103 106.224 96.857 106.275 96.629 106.377C96.407 106.479 96.218 106.638 96.062 106.854L95 106.17C95.24 105.81 95.576 105.525 96.008 105.315C96.44 105.105 96.938 105 97.502 105C97.97 105 98.378 105.078 98.726 105.234C99.08 105.384 99.353 105.597 99.545 105.873C99.743 106.149 99.842 106.479 99.842 106.863C99.842 107.067 99.815 107.271 99.761 107.475C99.713 107.673 99.611 107.883 99.455 108.105C99.305 108.327 99.083 108.576 98.789 108.852L96.773 110.751L96.494 110.22H100.049V111.408H95.288Z" fill="#3B393D"/>
<path d="M103.261 111.516C102.745 111.516 102.283 111.39 101.875 111.138C101.467 110.88 101.146 110.508 100.912 110.022C100.678 109.536 100.561 108.948 100.561 108.258C100.561 107.568 100.678 106.98 100.912 106.494C101.146 106.008 101.467 105.639 101.875 105.387C102.283 105.129 102.745 105 103.261 105C103.783 105 104.245 105.129 104.647 105.387C105.055 105.639 105.376 106.008 105.61 106.494C105.844 106.98 105.961 107.568 105.961 108.258C105.961 108.948 105.844 109.536 105.61 110.022C105.376 110.508 105.055 110.88 104.647 111.138C104.245 111.39 103.783 111.516 103.261 111.516ZM103.261 110.283C103.507 110.283 103.72 110.214 103.9 110.076C104.086 109.938 104.23 109.719 104.332 109.419C104.44 109.119 104.494 108.732 104.494 108.258C104.494 107.784 104.44 107.397 104.332 107.097C104.23 106.797 104.086 106.578 103.9 106.44C103.72 106.302 103.507 106.233 103.261 106.233C103.021 106.233 102.808 106.302 102.622 106.44C102.442 106.578 102.298 106.797 102.19 107.097C102.088 107.397 102.037 107.784 102.037 108.258C102.037 108.732 102.088 109.119 102.19 109.419C102.298 109.719 102.442 109.938 102.622 110.076C102.808 110.214 103.021 110.283 103.261 110.283Z" fill="#3B393D"/>
<path d="M107.516 111.408V105.648L108.146 106.278H106.256V105.108H108.974V111.408H107.516Z" fill="#3B393D"/>
<path d="M112.192 105C112.774 105 113.275 105.12 113.695 105.36C114.115 105.6 114.439 105.951 114.667 106.413C114.895 106.869 115.009 107.439 115.009 108.123C115.009 108.849 114.871 109.464 114.595 109.968C114.325 110.472 113.95 110.856 113.47 111.12C112.99 111.384 112.432 111.516 111.796 111.516C111.466 111.516 111.148 111.48 110.842 111.408C110.536 111.336 110.272 111.228 110.05 111.084L110.59 110.013C110.764 110.133 110.95 110.217 111.148 110.265C111.346 110.307 111.553 110.328 111.769 110.328C112.309 110.328 112.738 110.163 113.056 109.833C113.38 109.503 113.542 109.014 113.542 108.366C113.542 108.258 113.539 108.138 113.533 108.006C113.527 107.874 113.512 107.742 113.488 107.61L113.884 107.988C113.782 108.222 113.638 108.42 113.452 108.582C113.266 108.738 113.05 108.858 112.804 108.942C112.558 109.02 112.282 109.059 111.976 109.059C111.574 109.059 111.208 108.978 110.878 108.816C110.554 108.654 110.293 108.426 110.095 108.132C109.903 107.838 109.807 107.493 109.807 107.097C109.807 106.665 109.912 106.293 110.122 105.981C110.338 105.669 110.626 105.429 110.986 105.261C111.352 105.087 111.754 105 112.192 105ZM112.282 106.089C112.072 106.089 111.889 106.128 111.733 106.206C111.577 106.278 111.454 106.386 111.364 106.53C111.274 106.668 111.229 106.833 111.229 107.025C111.229 107.313 111.325 107.544 111.517 107.718C111.715 107.886 111.976 107.97 112.3 107.97C112.51 107.97 112.696 107.931 112.858 107.853C113.026 107.769 113.155 107.655 113.245 107.511C113.335 107.367 113.38 107.205 113.38 107.025C113.38 106.845 113.335 106.686 113.245 106.548C113.161 106.404 113.038 106.293 112.876 106.215C112.714 106.131 112.516 106.089 112.282 106.089Z" fill="#3B393D"/>
<path d="M55.897 76.087V66.4334H52.4493V64.4678H61.6827V66.4334H58.243V76.087H55.897Z" fill="white"/>
<path d="M62.7289 70.3487C62.7289 69.1652 62.906 68.1718 63.26 67.3687C63.5242 66.7769 63.8835 66.2458 64.3379 65.7756C64.7976 65.3053 65.2995 64.9566 65.8438 64.7294C66.5676 64.4229 67.4025 64.2697 68.3483 64.2697C70.0602 64.2697 71.4287 64.8007 72.4538 65.8628C73.4841 66.9248 73.9993 68.4016 73.9993 70.2932C73.9993 72.169 73.4894 73.6379 72.4697 74.7C71.4499 75.7567 70.0867 76.2851 68.38 76.2851C66.6522 76.2851 65.2784 75.7594 64.2586 74.7079C63.2388 73.6511 62.7289 72.1981 62.7289 70.3487ZM65.1463 70.2695C65.1463 71.5851 65.4501 72.5838 66.0577 73.2654C66.6654 73.9417 67.4368 74.2799 68.3721 74.2799C69.3073 74.2799 70.0734 73.9444 70.6705 73.2733C71.2729 72.597 71.5741 71.5851 71.5741 70.2378C71.5741 68.9062 71.2808 67.9129 70.6943 67.2577C70.1131 66.6025 69.339 66.2749 68.3721 66.2749C67.4051 66.2749 66.6258 66.6078 66.034 67.2735C65.4422 67.934 65.1463 68.9327 65.1463 70.2695Z" fill="white"/>
<path d="M75.8381 76.087V64.4678H79.6028C81.0294 64.4678 81.9594 64.526 82.3927 64.6422C83.0584 64.8166 83.6159 65.197 84.065 65.7835C84.5141 66.3647 84.7387 67.1177 84.7387 68.0423C84.7387 68.7557 84.6092 69.3554 84.3503 69.8415C84.0914 70.3276 83.7612 70.7107 83.3596 70.9907C82.9633 71.2655 82.5591 71.4478 82.147 71.5376C81.5869 71.6485 80.7758 71.704 79.7138 71.704H78.1841V76.087H75.8381ZM78.1841 66.4334V69.7305H79.4681C80.3927 69.7305 81.0109 69.6698 81.3227 69.5482C81.6344 69.4267 81.8775 69.2365 82.0519 68.9776C82.2315 68.7187 82.3213 68.4175 82.3213 68.074C82.3213 67.6513 82.1972 67.3026 81.9488 67.0279C81.7005 66.7531 81.3861 66.5814 81.0057 66.5127C80.7256 66.4598 80.1629 66.4334 79.3175 66.4334H78.1841Z" fill="white"/>
<path d="M100.757 76.087H98.2045L97.19 73.4477H92.5455L91.5865 76.087H89.0978L93.6234 64.4678H96.1042L100.757 76.087ZM96.437 71.49L94.836 67.1784L93.2668 71.49H96.437Z" fill="white"/>
<path d="M107.414 71.815V69.8573H112.471V74.486C111.979 74.9615 111.266 75.3816 110.331 75.7461C109.401 76.1054 108.458 76.2851 107.501 76.2851C106.286 76.2851 105.227 76.0315 104.323 75.5242C103.42 75.0117 102.741 74.2825 102.286 73.3367C101.832 72.3856 101.605 71.3527 101.605 70.2378C101.605 69.0278 101.858 67.9525 102.365 67.012C102.873 66.0715 103.615 65.3502 104.593 64.8483C105.338 64.4626 106.265 64.2697 107.375 64.2697C108.817 64.2697 109.942 64.5735 110.751 65.1812C111.565 65.7835 112.088 66.6184 112.32 67.6857L109.99 68.1216C109.826 67.5509 109.517 67.1018 109.063 66.7742C108.614 66.4413 108.051 66.2749 107.375 66.2749C106.349 66.2749 105.533 66.5999 104.925 67.2498C104.323 67.8997 104.022 68.864 104.022 70.1427C104.022 71.5217 104.328 72.5574 104.941 73.2495C105.554 73.9364 106.357 74.2799 107.351 74.2799C107.842 74.2799 108.334 74.1848 108.825 73.9946C109.322 73.7991 109.747 73.5639 110.101 73.2892V71.815H107.414Z" fill="white"/>
<path d="M113.993 76.087V64.4678H122.608V66.4334H116.339V69.0093H122.173V70.9669H116.339V74.1293H122.83V76.087H113.993Z" fill="white"/>
<path d="M124.194 76.087V64.4678H126.477L131.232 72.2271V64.4678H133.412V76.087H131.058L126.374 68.51V76.087H124.194Z" fill="white"/>
<path d="M143.335 71.815L145.61 72.5362C145.261 73.8043 144.68 74.7475 143.866 75.3657C143.057 75.9786 142.03 76.2851 140.783 76.2851C139.24 76.2851 137.972 75.7594 136.978 74.7079C135.985 73.6511 135.488 72.2086 135.488 70.3804C135.488 68.4466 135.988 66.946 136.986 65.8786C137.985 64.806 139.298 64.2697 140.925 64.2697C142.347 64.2697 143.501 64.6898 144.389 65.5299C144.917 66.0266 145.314 66.7399 145.578 67.6698L143.256 68.2246C143.118 67.6223 142.83 67.1467 142.392 66.798C141.958 66.4493 141.43 66.2749 140.807 66.2749C139.945 66.2749 139.245 66.584 138.706 67.2022C138.173 67.8204 137.906 68.8217 137.906 70.2061C137.906 71.675 138.17 72.7212 138.698 73.3447C139.227 73.9681 139.914 74.2799 140.759 74.2799C141.382 74.2799 141.919 74.0817 142.368 73.6855C142.817 73.2892 143.139 72.6657 143.335 71.815Z" fill="white"/>
<path d="M151.412 76.087V71.1968L147.156 64.4678H149.907L152.641 69.0648L155.32 64.4678H158.022L153.75 71.2126V76.087H151.412Z" fill="white"/>
<path d="M86.942 90.2899L87.8531 93.0938H90.8014L88.4162 94.8268L89.3273 97.6308L86.942 95.8978L84.5568 97.6308L85.4679 94.8268L83.0827 93.0938H86.031L86.942 90.2899Z" fill="#2F263A"/>
<path d="M96.0725 90.2899L96.9835 93.0938H99.9318L97.5466 94.8268L98.4577 97.6308L96.0725 95.8978L93.6873 97.6308L94.5983 94.8268L92.2131 93.0938H95.1614L96.0725 90.2899Z" fill="#2F263A"/>
<path d="M105.203 90.2899L106.114 93.0938H109.062L106.677 94.8268L107.588 97.6308L105.203 95.8978L102.818 97.6308L103.729 94.8268L101.344 93.0938H104.292L105.203 90.2899Z" fill="#2F263A"/>
<path d="M114.333 90.2899L115.244 93.0938H118.193L115.807 94.8268L116.719 97.6308L114.333 95.8978L111.948 97.6308L112.859 94.8268L110.474 93.0938H113.422L114.333 90.2899Z" fill="#2F263A"/>
<path d="M123.464 90.2899L124.375 93.0938H127.323L124.938 94.8268L125.849 97.6308L123.464 95.8978L121.079 97.6308L121.99 94.8268L119.604 93.0938H122.553L123.464 90.2899Z" fill="#2F263A"/>
</svg>
