<svg width="210" height="140" viewBox="0 0 210 140" fill="none" xmlns="http://www.w3.org/2000/svg">
<g clip-path="url(#clip0_6936_10532)">
<path fill-rule="evenodd" clip-rule="evenodd" d="M46.4088 91.37H23L31.2589 78.8665L23 65.6958H46.4088V91.37Z" fill="#6DCDA9"/>
<path fill-rule="evenodd" clip-rule="evenodd" d="M162.698 91.37H186.107L177.847 78.8665L186.107 65.6958H162.698V91.37Z" fill="#6DCDA9"/>
<path d="M35.082 83.8029L50.6376 92.4271L45.1179 78.3818H35.082V83.8029Z" fill="#5EAF91"/>
<path d="M173.874 83.8029L158.318 92.4271L163.838 78.3818H173.874V83.8029Z" fill="#5EAF91"/>
<g filter="url(#filter0_i_6936_10532)">
<path d="M167.984 35.0605V104.91L104.946 139.849L41.8779 104.91V35.0605L104.946 0.151001L167.984 35.0605Z" fill="#17313B"/>
</g>
<path fill-rule="evenodd" clip-rule="evenodd" d="M104.946 -0.0203857L168.134 34.9722V104.998L104.946 140.021L41.728 104.998V34.9722L104.946 -0.0203857ZM42.028 35.149V104.821L104.946 139.678L167.834 104.821V35.149L104.946 0.322526L42.028 35.149Z" fill="#6DCDA9"/>
<g filter="url(#filter1_i_6936_10532)">
<path d="M161.792 38.0285V101.972L104.796 133.959L47.7681 101.972V38.0285L104.796 6.04102L161.792 38.0285Z" fill="url(#paint0_radial_6936_10532)"/>
<path d="M161.792 38.0285V101.972L104.796 133.959L47.7681 101.972V38.0285L104.796 6.04102L161.792 38.0285Z" fill="url(#paint1_radial_6936_10532)"/>
</g>
<path fill-rule="evenodd" clip-rule="evenodd" d="M104.796 4.30933L163.302 37.1444V102.856L104.796 135.691L46.2578 102.856V37.1441L104.796 4.30933ZM47.7681 38.0286V101.972L104.796 133.959L161.792 101.971V38.0286L104.796 6.04105L47.7681 38.0286Z" fill="url(#paint2_linear_6936_10532)"/>
<path fill-rule="evenodd" clip-rule="evenodd" d="M35.082 83.8187C35.082 83.9021 35.1496 83.9697 35.2331 83.9697H173.874C173.957 83.9697 174.025 83.9021 174.025 83.8187V58.4466C174.025 58.3632 173.957 58.2955 173.874 58.2955H35.2331C35.1496 58.2955 35.082 58.3632 35.082 58.4466V83.8187Z" fill="#6DCDA9"/>
<path d="M94.1329 30.205H91.5654V44.2503H94.1329V30.205Z" fill="white"/>
<path d="M102.665 39.9941C102.665 42.1909 100.654 42.3556 100.076 42.3556C98.6435 42.3556 98.2855 41.065 98.2855 40.2961V34.8867H96.2471V40.2961C96.2471 41.6416 96.6603 42.7675 97.4316 43.5364C98.1201 44.1953 99.0842 44.5523 100.214 44.5523C101.095 44.5523 101.811 44.2777 102.665 43.7834V44.1679H105.007V34.8867H102.665V39.9941Z" fill="white"/>
<path d="M109.768 31.7152H107.196V34.9995H105.762V36.8058H107.196V44.2503H109.768V36.8058H111.501V34.9995H109.768V31.7152Z" fill="white"/>
<path d="M119.044 41.5373C118.496 42.0008 117.812 42.2462 117.1 42.219C115.458 42.219 114.226 41.0466 114.226 39.4652C114.226 37.8565 115.403 36.766 117.1 36.766C117.812 36.766 118.524 37.0114 119.071 37.4475L119.427 37.7475L121.015 36.2206L120.604 35.8662C119.646 35.0482 118.387 34.5847 117.073 34.5847C114.116 34.5847 111.954 36.6296 111.954 39.4652C111.954 42.3007 114.171 44.4001 117.073 44.4001C118.387 44.4275 119.646 43.964 120.632 43.1187L121.015 42.7642L119.4 41.2374L119.044 41.5373Z" fill="white"/>
<path d="M129.528 35.845C128.841 35.1879 127.853 34.8319 126.727 34.8319C125.848 34.8319 124.914 35.1057 124.255 35.5985V30.205H121.921V44.2503H124.255V39.3768C124.255 37.1865 126.123 37.0222 126.699 37.0222C128.1 37.0222 128.347 38.3091 128.347 39.0757V44.2503H130.681V39.0757C130.653 37.7068 130.324 36.5842 129.528 35.845Z" fill="white"/>
<path d="M117.013 41.2298C117.972 41.2298 118.75 40.486 118.75 39.5685C118.75 38.651 117.972 37.9072 117.013 37.9072C116.054 37.9072 115.276 38.651 115.276 39.5685C115.276 40.486 116.054 41.2298 117.013 41.2298Z" fill="#FF3D2E"/>
<path d="M88.7349 40.9897C87.8279 41.8667 86.5908 42.3874 85.2988 42.3599C82.6322 42.3599 80.708 40.3595 80.708 37.619C80.708 34.8785 82.6322 32.8505 85.2988 32.8505C86.5908 32.8505 87.8279 33.3438 88.7074 34.2208L89.0649 34.577L90.6593 33.0423L90.302 32.686C88.9825 31.3706 87.168 30.6581 85.2713 30.6581C81.3676 30.6581 78.4263 33.6452 78.4263 37.619C78.4263 41.5926 81.3676 44.5524 85.2713 44.5524C87.168 44.5524 88.9825 43.8398 90.302 42.5244L90.6593 42.1681L89.0924 40.6061L88.7349 40.9897Z" fill="white"/>
<path d="M94.8584 101.791V93.2277H98.1674V94.084H96.053V96.9383H97.6916V97.7841H96.053V101.791H94.8584ZM99.3941 101.791L101.212 93.2277H102.365L104.194 101.791H103.063L102.671 99.6341H100.927L100.515 101.791H99.3941ZM101.086 98.7778H102.513L101.794 94.9191L101.086 98.7778ZM106.12 101.791V93.2277H107.314V100.934H109.503V101.791H106.12ZM111.379 101.791V93.2277H112.573V100.934H114.762V101.791H111.379Z" fill="white"/>
<path d="M96.6011 117.95V117.376L98.1566 114.953C98.2725 114.771 98.3782 114.603 98.4738 114.447C98.5745 114.291 98.655 114.127 98.7154 113.956C98.7808 113.78 98.8136 113.578 98.8136 113.352C98.8136 113.07 98.7683 112.848 98.6777 112.687C98.5871 112.526 98.4285 112.446 98.2019 112.446C98.0106 112.446 97.8621 112.498 97.7564 112.604C97.6507 112.71 97.5778 112.848 97.5374 113.019C97.4971 113.191 97.477 113.374 97.477 113.571V113.775H96.669V113.563C96.669 113.196 96.7169 112.881 96.8125 112.619C96.9132 112.352 97.0718 112.146 97.2882 112C97.5098 111.854 97.8017 111.781 98.1642 111.781C98.6576 111.781 99.025 111.922 99.2667 112.204C99.5083 112.481 99.6291 112.866 99.6291 113.359C99.6291 113.621 99.5963 113.85 99.531 114.046C99.4705 114.243 99.3901 114.427 99.2893 114.598C99.1886 114.769 99.0779 114.945 98.9571 115.126L97.5525 117.271H99.4856V117.95H96.6011ZM102.608 118.018C102.261 118.018 101.974 117.94 101.748 117.784C101.526 117.628 101.36 117.414 101.249 117.142C101.143 116.871 101.091 116.561 101.091 116.214V113.578C101.091 113.221 101.143 112.909 101.249 112.642C101.355 112.37 101.518 112.159 101.74 112.008C101.967 111.857 102.256 111.781 102.608 111.781C102.961 111.781 103.248 111.857 103.469 112.008C103.691 112.159 103.854 112.37 103.96 112.642C104.066 112.909 104.119 113.221 104.119 113.578V116.214C104.119 116.566 104.063 116.878 103.953 117.15C103.847 117.422 103.683 117.636 103.462 117.792C103.24 117.943 102.956 118.018 102.608 118.018ZM102.608 117.354C102.8 117.354 102.943 117.298 103.039 117.188C103.14 117.077 103.208 116.936 103.243 116.765C103.283 116.589 103.303 116.407 103.303 116.221V113.571C103.303 113.374 103.285 113.191 103.25 113.019C103.215 112.843 103.147 112.702 103.046 112.597C102.951 112.491 102.805 112.438 102.608 112.438C102.412 112.438 102.264 112.491 102.163 112.597C102.062 112.702 101.994 112.843 101.959 113.019C101.924 113.191 101.906 113.374 101.906 113.571V116.221C101.906 116.407 101.924 116.589 101.959 116.765C101.999 116.936 102.07 117.077 102.17 117.188C102.276 117.298 102.422 117.354 102.608 117.354ZM105.618 117.95V117.376L107.174 114.953C107.29 114.771 107.395 114.603 107.491 114.447C107.592 114.291 107.672 114.127 107.733 113.956C107.798 113.78 107.831 113.578 107.831 113.352C107.831 113.07 107.786 112.848 107.695 112.687C107.604 112.526 107.446 112.446 107.219 112.446C107.028 112.446 106.879 112.498 106.774 112.604C106.668 112.71 106.595 112.848 106.555 113.019C106.514 113.191 106.494 113.374 106.494 113.571V113.775H105.686V113.563C105.686 113.196 105.734 112.881 105.83 112.619C105.93 112.352 106.089 112.146 106.305 112C106.527 111.854 106.819 111.781 107.181 111.781C107.675 111.781 108.042 111.922 108.284 112.204C108.526 112.481 108.646 112.866 108.646 113.359C108.646 113.621 108.614 113.85 108.548 114.046C108.488 114.243 108.407 114.427 108.307 114.598C108.206 114.769 108.095 114.945 107.974 115.126L106.57 117.271H108.503V117.95H105.618ZM111.467 118.018C111.135 118.018 110.858 117.955 110.636 117.83C110.415 117.704 110.249 117.523 110.138 117.286C110.027 117.049 109.972 116.77 109.972 116.448V116.244H110.772C110.772 116.264 110.772 116.287 110.772 116.312C110.772 116.332 110.772 116.354 110.772 116.38C110.777 116.561 110.798 116.724 110.833 116.871C110.873 117.017 110.941 117.132 111.037 117.218C111.137 117.304 111.281 117.346 111.467 117.346C111.663 117.346 111.812 117.301 111.913 117.21C112.013 117.115 112.081 116.981 112.116 116.81C112.152 116.639 112.169 116.443 112.169 116.221C112.169 115.899 112.109 115.637 111.988 115.436C111.872 115.229 111.666 115.116 111.369 115.096C111.354 115.091 111.334 115.088 111.308 115.088C111.288 115.088 111.271 115.088 111.256 115.088V114.28C111.271 114.28 111.288 114.28 111.308 114.28C111.329 114.28 111.346 114.28 111.361 114.28C111.648 114.27 111.855 114.195 111.981 114.054C112.106 113.913 112.169 113.679 112.169 113.352C112.169 113.075 112.121 112.853 112.026 112.687C111.935 112.521 111.751 112.438 111.475 112.438C111.198 112.438 111.014 112.531 110.923 112.717C110.833 112.899 110.782 113.133 110.772 113.42C110.772 113.44 110.772 113.462 110.772 113.488C110.772 113.508 110.772 113.528 110.772 113.548H109.972V113.344C109.972 113.017 110.027 112.737 110.138 112.506C110.249 112.274 110.415 112.096 110.636 111.97C110.863 111.844 111.142 111.781 111.475 111.781C111.812 111.781 112.091 111.844 112.313 111.97C112.534 112.096 112.7 112.277 112.811 112.513C112.922 112.745 112.977 113.024 112.977 113.352C112.977 113.719 112.897 114.014 112.736 114.235C112.58 114.457 112.368 114.608 112.101 114.688C112.288 114.744 112.444 114.839 112.57 114.975C112.7 115.111 112.801 115.285 112.872 115.496C112.942 115.703 112.977 115.944 112.977 116.221C112.977 116.584 112.927 116.901 112.826 117.173C112.726 117.439 112.565 117.648 112.343 117.799C112.121 117.945 111.83 118.018 111.467 118.018Z" fill="white"/>
<path d="M81.3383 78.2493C80.5168 78.2493 79.8646 78.0747 79.382 77.7255C78.8993 77.3763 78.5501 76.8834 78.3345 76.2467C78.1291 75.5997 78.0264 74.8397 78.0264 73.9668V69.7768C78.0264 68.8833 78.1291 68.1131 78.3345 67.4661C78.5399 66.8191 78.8993 66.3262 79.4128 65.9873C79.9365 65.6381 80.6554 65.4635 81.5694 65.4635C82.4218 65.4635 83.0996 65.6073 83.6028 65.8948C84.106 66.1824 84.4655 66.5983 84.6811 67.1426C84.9071 67.6766 85.02 68.3287 85.02 69.099V69.746H82.848V69.0374C82.848 68.6368 82.8172 68.2928 82.7556 68.0052C82.7042 67.7177 82.5912 67.502 82.4167 67.3583C82.2523 67.2042 81.9802 67.1272 81.6002 67.1272C81.1997 67.1272 80.907 67.2247 80.7222 67.4199C80.5476 67.615 80.4346 67.8717 80.3833 68.1901C80.3422 68.5085 80.3216 68.8576 80.3216 69.2376V74.4597C80.3216 74.8911 80.3576 75.2659 80.4295 75.5843C80.5014 75.9026 80.6349 76.1491 80.83 76.3237C81.0251 76.488 81.3024 76.5702 81.6618 76.5702C82.0315 76.5702 82.314 76.4777 82.5091 76.2929C82.7042 76.108 82.8377 75.8513 82.9096 75.5227C82.9918 75.194 83.0328 74.8038 83.0328 74.3519V73.1812H81.6926V71.7485H85.0816V78.0798H83.6182L83.4488 76.8474C83.2844 77.2582 83.0328 77.5971 82.6939 77.8642C82.3653 78.1209 81.9134 78.2493 81.3383 78.2493ZM88.3566 78.0798V65.6021H90.6365V76.5085H93.6558V78.0798H88.3566ZM99.6194 78.2493C98.7362 78.2493 98.0328 78.0849 97.509 77.7563C96.9853 77.4277 96.6104 76.9553 96.3845 76.3391C96.1586 75.7229 96.0456 74.9938 96.0456 74.1517V69.4841C96.0456 68.642 96.1586 67.9231 96.3845 67.3274C96.6104 66.7215 96.9853 66.2594 97.509 65.941C98.0328 65.6227 98.7362 65.4635 99.6194 65.4635C100.523 65.4635 101.232 65.6227 101.745 65.941C102.269 66.2594 102.644 66.7215 102.87 67.3274C103.106 67.9231 103.224 68.642 103.224 69.4841V74.1671C103.224 74.9989 103.106 75.7229 102.87 76.3391C102.644 76.945 102.269 77.4174 101.745 77.7563C101.232 78.0849 100.523 78.2493 99.6194 78.2493ZM99.6194 76.5702C99.9994 76.5702 100.277 76.488 100.451 76.3237C100.636 76.1594 100.759 75.9334 100.821 75.6459C100.883 75.3583 100.913 75.0451 100.913 74.7062V68.9603C100.913 68.6112 100.883 68.2979 100.821 68.0207C100.759 67.7434 100.636 67.5277 100.451 67.3737C100.277 67.2093 99.9994 67.1272 99.6194 67.1272C99.26 67.1272 98.9879 67.2093 98.803 67.3737C98.6181 67.5277 98.4949 67.7434 98.4333 68.0207C98.3717 68.2979 98.3409 68.6112 98.3409 68.9603V74.7062C98.3409 75.0451 98.3665 75.3583 98.4179 75.6459C98.4795 75.9334 98.6027 76.1594 98.7876 76.3237C98.9725 76.488 99.2497 76.5702 99.6194 76.5702ZM106.451 78.0798V65.6021H109.516C110.071 65.6021 110.569 65.6535 111.011 65.7562C111.463 65.8589 111.848 66.0335 112.166 66.2799C112.495 66.5161 112.746 66.8396 112.921 67.2504C113.095 67.6612 113.183 68.1798 113.183 68.8063C113.183 69.3095 113.111 69.7408 112.967 70.1003C112.834 70.4597 112.633 70.7473 112.366 70.9629C112.099 71.1683 111.765 71.307 111.365 71.3788C111.858 71.461 112.264 71.6356 112.582 71.9026C112.911 72.1593 113.152 72.4982 113.306 72.9193C113.47 73.3403 113.552 73.8487 113.552 74.4443C113.552 75.04 113.475 75.5689 113.321 76.031C113.178 76.4829 112.957 76.8629 112.659 77.1709C112.371 77.4688 112.007 77.6947 111.565 77.8487C111.134 78.0028 110.626 78.0798 110.04 78.0798H106.451ZM108.731 76.4777H109.593C110.281 76.4777 110.749 76.3134 110.995 75.9848C111.242 75.6459 111.365 75.1273 111.365 74.4289C111.365 73.9257 111.303 73.5201 111.18 73.212C111.067 72.8936 110.872 72.6574 110.595 72.5034C110.328 72.3493 109.968 72.2723 109.516 72.2723H108.731V76.4777ZM108.731 70.701H109.501C109.953 70.701 110.302 70.6343 110.549 70.5008C110.795 70.3673 110.964 70.1619 111.057 69.8846C111.16 69.6073 111.211 69.2581 111.211 68.8371C111.211 68.3955 111.134 68.0566 110.98 67.8204C110.836 67.5739 110.615 67.4096 110.317 67.3274C110.02 67.235 109.64 67.1888 109.178 67.1888H108.731V70.701ZM115.92 78.0798L118.415 65.6021H120.849L123.345 78.0798H121.234L120.741 75.1992H118.569L118.061 78.0798H115.92ZM118.8 73.7511H120.495L119.647 68.5136L118.8 73.7511ZM126.14 78.0798V65.6021H128.42V76.5085H131.439V78.0798H126.14Z" fill="white"/>
</g>
<defs>
<filter id="filter0_i_6936_10532" x="41.8779" y="0.151001" width="126.106" height="143.698" filterUnits="userSpaceOnUse" color-interpolation-filters="sRGB">
<feFlood flood-opacity="0" result="BackgroundImageFix"/>
<feBlend mode="normal" in="SourceGraphic" in2="BackgroundImageFix" result="shape"/>
<feColorMatrix in="SourceAlpha" type="matrix" values="0 0 0 0 0 0 0 0 0 0 0 0 0 0 0 0 0 0 127 0" result="hardAlpha"/>
<feOffset dy="4"/>
<feGaussianBlur stdDeviation="2"/>
<feComposite in2="hardAlpha" operator="arithmetic" k2="-1" k3="1"/>
<feColorMatrix type="matrix" values="0 0 0 0 0 0 0 0 0 0 0 0 0 0 0 0 0 0 0.1 0"/>
<feBlend mode="normal" in2="shape" result="effect1_innerShadow_6936_10532"/>
</filter>
<filter id="filter1_i_6936_10532" x="47.7681" y="6.04102" width="114.024" height="131.918" filterUnits="userSpaceOnUse" color-interpolation-filters="sRGB">
<feFlood flood-opacity="0" result="BackgroundImageFix"/>
<feBlend mode="normal" in="SourceGraphic" in2="BackgroundImageFix" result="shape"/>
<feColorMatrix in="SourceAlpha" type="matrix" values="0 0 0 0 0 0 0 0 0 0 0 0 0 0 0 0 0 0 127 0" result="hardAlpha"/>
<feOffset dy="4"/>
<feGaussianBlur stdDeviation="2"/>
<feComposite in2="hardAlpha" operator="arithmetic" k2="-1" k3="1"/>
<feColorMatrix type="matrix" values="0 0 0 0 0 0 0 0 0 0 0 0 0 0 0 0 0 0 0.07 0"/>
<feBlend mode="normal" in2="shape" result="effect1_innerShadow_6936_10532"/>
</filter>
<radialGradient id="paint0_radial_6936_10532" cx="0" cy="0" r="1" gradientUnits="userSpaceOnUse" gradientTransform="translate(159.311 6.041) rotate(131.088) scale(169.72 341.171)">
<stop stop-color="#17313B"/>
<stop offset="1" stop-color="#2E5272"/>
</radialGradient>
<radialGradient id="paint1_radial_6936_10532" cx="0" cy="0" r="1" gradientUnits="userSpaceOnUse" gradientTransform="translate(159.311 6.041) rotate(131.088) scale(169.72 341.171)">
<stop stop-color="#17313B"/>
<stop offset="1" stop-color="#2E5272"/>
</radialGradient>
<linearGradient id="paint2_linear_6936_10532" x1="52.519" y1="-166.222" x2="282.627" y2="28.1065" gradientUnits="userSpaceOnUse">
<stop stop-color="#D2AE73"/>
<stop offset="0.1231" stop-color="#BD9155"/>
<stop offset="0.3174" stop-color="#F9E2B2"/>
<stop offset="0.9689" stop-color="#BD9155"/>
</linearGradient>
<clipPath id="clip0_6936_10532">
<rect width="163.107" height="140" fill="white" transform="translate(23)"/>
</clipPath>
</defs>
</svg>
