<svg width="210" height="140" viewBox="0 0 210 140" fill="none" xmlns="http://www.w3.org/2000/svg">
<rect width="210" height="140" rx="12" fill="#2D2F2F"/>
<rect x="5" y="5" width="200" height="130" rx="9" stroke="#17BAF0" stroke-width="2"/>
<path d="M79.9341 24.1031C79.4987 24.1031 79.0634 24.0878 78.6281 24.0573C78.2004 24.0344 77.7536 23.9733 77.2878 23.874V16.1756C77.6543 16.1069 78.0553 16.0573 78.4906 16.0267C78.9259 15.9885 79.3307 15.9694 79.7049 15.9694C80.209 15.9694 80.6711 16.0076 81.0911 16.084C81.5188 16.1527 81.8854 16.2749 82.1909 16.4506C82.4964 16.6262 82.7331 16.8592 82.9011 17.1494C83.0768 17.432 83.1646 17.7833 83.1646 18.2033C83.1646 18.8372 82.8591 19.3375 82.2481 19.704C82.7522 19.895 83.0959 20.1546 83.2792 20.483C83.4625 20.8114 83.5541 21.1819 83.5541 21.5943C83.5541 22.4267 83.2486 23.053 82.6376 23.473C82.0343 23.8931 81.1331 24.1031 79.9341 24.1031ZM79.029 20.5403V22.5909C79.1589 22.6062 79.3002 22.6177 79.4529 22.6253C79.6057 22.6329 79.7737 22.6368 79.957 22.6368C80.4916 22.6368 80.9231 22.5604 81.2515 22.4076C81.5799 22.2549 81.7441 21.9723 81.7441 21.5599C81.7441 21.1933 81.6066 20.9336 81.3317 20.7809C81.0567 20.6205 80.6634 20.5403 80.1517 20.5403H79.029ZM79.029 19.1771H79.8997C80.4496 19.1771 80.8429 19.1083 81.0796 18.9709C81.3164 18.8258 81.4348 18.5966 81.4348 18.2835C81.4348 17.9628 81.3126 17.7375 81.0682 17.6076C80.8238 17.4778 80.4648 17.4129 79.9913 17.4129C79.8386 17.4129 79.6744 17.4167 79.4987 17.4243C79.3231 17.4243 79.1665 17.432 79.029 17.4472V19.1771ZM89.2119 23.7938C88.9217 23.8778 88.5475 23.9542 88.0892 24.0229C87.631 24.0993 87.1498 24.1375 86.6458 24.1375C86.1341 24.1375 85.7064 24.0687 85.3627 23.9313C85.0267 23.7938 84.7594 23.6029 84.5608 23.3585C84.3622 23.1064 84.2209 22.8086 84.1369 22.4649C84.0529 22.1212 84.0109 21.7432 84.0109 21.3308V17.9742H85.7178V21.1246C85.7178 21.6745 85.7904 22.0716 85.9355 22.316C86.0806 22.5604 86.3517 22.6826 86.7489 22.6826C86.8711 22.6826 87.0009 22.6788 87.1384 22.6711C87.2758 22.6558 87.398 22.6406 87.505 22.6253V17.9742H89.2119V23.7938ZM91.7421 22.7742C92.0552 22.7742 92.2767 22.7437 92.4066 22.6826C92.5364 22.6215 92.6013 22.5031 92.6013 22.3274C92.6013 22.19 92.5173 22.0716 92.3493 21.9723C92.1813 21.8654 91.9254 21.747 91.5817 21.6172C91.3144 21.5179 91.07 21.4148 90.8486 21.3079C90.6347 21.2009 90.4514 21.0749 90.2987 20.9298C90.1459 20.7771 90.0276 20.5976 89.9435 20.3914C89.8595 20.1852 89.8175 19.937 89.8175 19.6468C89.8175 19.0816 90.0276 18.6348 90.4476 18.3064C90.8677 17.978 91.4443 17.8138 92.1774 17.8138C92.544 17.8138 92.8953 17.8482 93.2314 17.9169C93.5674 17.978 93.8347 18.0468 94.0333 18.1231L93.7354 19.452C93.5369 19.3833 93.3192 19.3222 93.0825 19.2687C92.8533 19.2153 92.5937 19.1885 92.3035 19.1885C91.7689 19.1885 91.5015 19.3375 91.5015 19.6353C91.5015 19.704 91.513 19.7651 91.5359 19.8186C91.5588 19.8721 91.6047 19.9255 91.6734 19.979C91.7421 20.0248 91.8338 20.0783 91.9483 20.1394C92.0705 20.1928 92.2233 20.2539 92.4066 20.3227C92.7808 20.4601 93.0901 20.5976 93.3345 20.7351C93.5789 20.8649 93.7698 21.01 93.9073 21.1704C94.0524 21.3231 94.1517 21.495 94.2051 21.6859C94.2662 21.8768 94.2968 22.0983 94.2968 22.3504C94.2968 22.9461 94.0715 23.3967 93.6209 23.7021C93.1779 24.0076 92.5479 24.1604 91.7307 24.1604C91.1961 24.1604 90.7493 24.1146 90.3903 24.0229C90.039 23.9313 89.7946 23.8549 89.6572 23.7938L89.9435 22.4076C90.2338 22.5222 90.5316 22.6138 90.8371 22.6826C91.1426 22.7437 91.4443 22.7742 91.7421 22.7742ZM96.4774 24H94.7705V17.9742H96.4774V24ZM96.6378 16.2329C96.6378 16.546 96.5347 16.7942 96.3285 16.9775C96.1299 17.1532 95.8932 17.241 95.6182 17.241C95.3433 17.241 95.1027 17.1532 94.8965 16.9775C94.6979 16.7942 94.5987 16.546 94.5987 16.2329C94.5987 15.9198 94.6979 15.6754 94.8965 15.4997C95.1027 15.3164 95.3433 15.2248 95.6182 15.2248C95.8932 15.2248 96.1299 15.3164 96.3285 15.4997C96.5347 15.6754 96.6378 15.9198 96.6378 16.2329ZM97.2801 18.1804C97.5703 18.0964 97.9445 18.02 98.4027 17.9513C98.861 17.8749 99.3421 17.8367 99.8462 17.8367C100.358 17.8367 100.782 17.9055 101.118 18.0429C101.461 18.1728 101.733 18.3599 101.931 18.6043C102.13 18.8487 102.271 19.1389 102.355 19.4749C102.439 19.811 102.481 20.1852 102.481 20.5976V24H100.774V20.8038C100.774 20.2539 100.702 19.8644 100.556 19.6353C100.411 19.4062 100.14 19.2916 99.7431 19.2916C99.6209 19.2916 99.491 19.2993 99.3536 19.3145C99.2161 19.3222 99.0939 19.3336 98.987 19.3489V24H97.2801V18.1804ZM102.938 21.0329C102.938 20.4983 103.018 20.0324 103.178 19.6353C103.346 19.2305 103.564 18.8945 103.831 18.6272C104.099 18.3599 104.404 18.1575 104.748 18.02C105.099 17.8826 105.458 17.8138 105.825 17.8138C106.68 17.8138 107.356 18.0773 107.852 18.6043C108.349 19.1236 108.597 19.8912 108.597 20.9069C108.597 21.0062 108.593 21.1169 108.585 21.2391C108.578 21.3537 108.57 21.4568 108.563 21.5484H104.69C104.729 21.8998 104.893 22.1785 105.183 22.3847C105.473 22.5909 105.863 22.694 106.352 22.694C106.665 22.694 106.97 22.6673 107.268 22.6138C107.574 22.5527 107.822 22.4802 108.013 22.3962L108.242 23.7823C108.15 23.8282 108.028 23.874 107.875 23.9198C107.722 23.9656 107.551 24.0038 107.36 24.0344C107.176 24.0726 106.978 24.1031 106.764 24.126C106.55 24.1489 106.336 24.1604 106.122 24.1604C105.58 24.1604 105.107 24.0802 104.702 23.9198C104.305 23.7594 103.973 23.5418 103.705 23.2668C103.446 22.9842 103.251 22.652 103.121 22.2702C102.999 21.8883 102.938 21.4759 102.938 21.0329ZM106.947 20.3799C106.94 20.2348 106.913 20.0935 106.867 19.9561C106.829 19.8186 106.764 19.6964 106.672 19.5895C106.588 19.4826 106.478 19.3947 106.34 19.326C106.21 19.2573 106.046 19.2229 105.848 19.2229C105.657 19.2229 105.492 19.2573 105.355 19.326C105.217 19.3871 105.103 19.4711 105.011 19.578C104.92 19.685 104.847 19.811 104.794 19.9561C104.748 20.0935 104.713 20.2348 104.69 20.3799H106.947ZM110.842 22.7742C111.155 22.7742 111.377 22.7437 111.507 22.6826C111.636 22.6215 111.701 22.5031 111.701 22.3274C111.701 22.19 111.617 22.0716 111.449 21.9723C111.281 21.8654 111.025 21.747 110.682 21.6172C110.414 21.5179 110.17 21.4148 109.949 21.3079C109.735 21.2009 109.551 21.0749 109.399 20.9298C109.246 20.7771 109.128 20.5976 109.044 20.3914C108.96 20.1852 108.918 19.937 108.918 19.6468C108.918 19.0816 109.128 18.6348 109.548 18.3064C109.968 17.978 110.544 17.8138 111.277 17.8138C111.644 17.8138 111.995 17.8482 112.331 17.9169C112.667 17.978 112.935 18.0468 113.133 18.1231L112.835 19.452C112.637 19.3833 112.419 19.3222 112.182 19.2687C111.953 19.2153 111.694 19.1885 111.403 19.1885C110.869 19.1885 110.602 19.3375 110.602 19.6353C110.602 19.704 110.613 19.7651 110.636 19.8186C110.659 19.8721 110.705 19.9255 110.773 19.979C110.842 20.0248 110.934 20.0783 111.048 20.1394C111.171 20.1928 111.323 20.2539 111.507 20.3227C111.881 20.4601 112.19 20.5976 112.434 20.7351C112.679 20.8649 112.87 21.01 113.007 21.1704C113.152 21.3231 113.252 21.495 113.305 21.6859C113.366 21.8768 113.397 22.0983 113.397 22.3504C113.397 22.9461 113.171 23.3967 112.721 23.7021C112.278 24.0076 111.648 24.1604 110.831 24.1604C110.296 24.1604 109.849 24.1146 109.49 24.0229C109.139 23.9313 108.895 23.8549 108.757 23.7938L109.044 22.4076C109.334 22.5222 109.632 22.6138 109.937 22.6826C110.243 22.7437 110.544 22.7742 110.842 22.7742ZM115.6 22.7742C115.913 22.7742 116.135 22.7437 116.265 22.6826C116.395 22.6215 116.46 22.5031 116.46 22.3274C116.46 22.19 116.376 22.0716 116.208 21.9723C116.039 21.8654 115.784 21.747 115.44 21.6172C115.173 21.5179 114.928 21.4148 114.707 21.3079C114.493 21.2009 114.31 21.0749 114.157 20.9298C114.004 20.7771 113.886 20.5976 113.802 20.3914C113.718 20.1852 113.676 19.937 113.676 19.6468C113.676 19.0816 113.886 18.6348 114.306 18.3064C114.726 17.978 115.302 17.8138 116.036 17.8138C116.402 17.8138 116.754 17.8482 117.09 17.9169C117.426 17.978 117.693 18.0468 117.892 18.1231L117.594 19.452C117.395 19.3833 117.177 19.3222 116.941 19.2687C116.712 19.2153 116.452 19.1885 116.162 19.1885C115.627 19.1885 115.36 19.3375 115.36 19.6353C115.36 19.704 115.371 19.7651 115.394 19.8186C115.417 19.8721 115.463 19.9255 115.532 19.979C115.6 20.0248 115.692 20.0783 115.807 20.1394C115.929 20.1928 116.081 20.2539 116.265 20.3227C116.639 20.4601 116.948 20.5976 117.193 20.7351C117.437 20.8649 117.628 21.01 117.766 21.1704C117.911 21.3231 118.01 21.495 118.063 21.6859C118.124 21.8768 118.155 22.0983 118.155 22.3504C118.155 22.9461 117.93 23.3967 117.479 23.7021C117.036 24.0076 116.406 24.1604 115.589 24.1604C115.054 24.1604 114.607 24.1146 114.249 24.0229C113.897 23.9313 113.653 23.8549 113.515 23.7938L113.802 22.4076C114.092 22.5222 114.39 22.6138 114.695 22.6826C115.001 22.7437 115.302 22.7742 115.6 22.7742Z" fill="white"/>
<path d="M119.364 22.0983C119.364 22.5489 119.49 22.8888 119.742 23.1179C119.994 23.347 120.296 23.4616 120.647 23.4616C120.922 23.4616 121.205 23.3928 121.495 23.2554C121.785 23.1103 122.049 22.8964 122.286 22.6138C122.53 22.3236 122.729 21.9609 122.881 21.5255C123.042 21.0902 123.122 20.5785 123.122 19.9904C123.122 19.5398 122.996 19.2 122.744 18.9709C122.492 18.7417 122.19 18.6272 121.839 18.6272C121.564 18.6272 121.281 18.6997 120.991 18.8449C120.701 18.9823 120.434 19.1962 120.189 19.4864C119.952 19.769 119.754 20.1279 119.593 20.5632C119.441 20.9986 119.364 21.5103 119.364 22.0983ZM123.878 19.9332C123.878 20.6511 123.775 21.2735 123.569 21.8005C123.37 22.3274 123.11 22.7666 122.79 23.1179C122.477 23.4616 122.125 23.7174 121.736 23.8854C121.354 24.0535 120.976 24.1375 120.602 24.1375C120.334 24.1375 120.078 24.0955 119.834 24.0115C119.597 23.9274 119.387 23.8014 119.204 23.6334C119.021 23.4654 118.876 23.2592 118.769 23.0148C118.662 22.7628 118.608 22.4725 118.608 22.1441C118.608 21.4262 118.708 20.8038 118.906 20.2768C119.112 19.7499 119.372 19.3145 119.685 18.9709C120.006 18.6272 120.357 18.3713 120.739 18.2033C121.129 18.0353 121.51 17.9513 121.885 17.9513C122.152 17.9513 122.404 17.9933 122.641 18.0773C122.885 18.1613 123.099 18.2873 123.282 18.4554C123.466 18.6234 123.611 18.8334 123.718 19.0854C123.825 19.3298 123.878 19.6124 123.878 19.9332ZM124.673 22.8315C124.581 23.1981 124.489 23.5379 124.398 23.8511C124.314 24.1566 124.214 24.443 124.1 24.7103C123.993 24.9776 123.867 25.2296 123.722 25.4664C123.577 25.7031 123.405 25.936 123.206 26.1652L122.553 26.0621C122.744 25.8024 122.905 25.5618 123.034 25.3403C123.172 25.1265 123.286 24.9127 123.378 24.6988C123.47 24.485 123.55 24.2673 123.619 24.0458C123.687 23.832 123.752 23.5952 123.813 23.3356L125.234 17.4358C125.341 16.9775 125.482 16.5995 125.658 16.3016C125.841 16.0038 126.044 15.767 126.265 15.5914C126.494 15.4157 126.739 15.2935 126.998 15.2248C127.258 15.1484 127.521 15.1102 127.789 15.1102C128.048 15.1102 128.27 15.1331 128.453 15.179C128.644 15.2248 128.82 15.2783 128.98 15.3394L128.625 15.9351C128.465 15.8816 128.312 15.8396 128.167 15.809C128.029 15.7785 127.865 15.7632 127.674 15.7632C127.476 15.7632 127.292 15.79 127.124 15.8434C126.956 15.8969 126.8 15.9885 126.655 16.1184C126.517 16.2482 126.391 16.4238 126.276 16.6453C126.162 16.8592 126.063 17.1303 125.979 17.4587L125.818 18.0773H127.8L127.663 18.7188H125.658L124.673 22.8315Z" fill="white"/>
<path d="M133.064 24C132.98 23.7251 132.885 23.4425 132.778 23.1523C132.678 22.862 132.579 22.5718 132.48 22.2816H129.387C129.287 22.5718 129.184 22.862 129.077 23.1523C128.978 23.4425 128.886 23.7251 128.802 24H126.947C127.244 23.1446 127.527 22.3542 127.794 21.6286C128.062 20.9031 128.321 20.2196 128.573 19.578C128.833 18.9365 129.085 18.3293 129.329 17.7565C129.581 17.1761 129.841 16.611 130.108 16.0611H131.815C132.075 16.611 132.331 17.1761 132.583 17.7565C132.835 18.3293 133.087 18.9365 133.339 19.578C133.599 20.2196 133.862 20.9031 134.129 21.6286C134.397 22.3542 134.679 23.1446 134.977 24H133.064ZM130.922 17.8596C130.884 17.9742 130.826 18.1308 130.75 18.3293C130.674 18.5279 130.586 18.757 130.486 19.0167C130.387 19.2764 130.276 19.5628 130.154 19.8759C130.04 20.189 129.921 20.5174 129.799 20.8611H132.056C131.934 20.5174 131.815 20.189 131.701 19.8759C131.586 19.5628 131.475 19.2764 131.369 19.0167C131.269 18.757 131.181 18.5279 131.105 18.3293C131.029 18.1308 130.968 17.9742 130.922 17.8596ZM138.949 21.0329C138.949 20.506 138.831 20.0859 138.594 19.7728C138.357 19.452 138.006 19.2916 137.54 19.2916C137.387 19.2916 137.246 19.2993 137.116 19.3145C136.986 19.3222 136.879 19.3336 136.795 19.3489V22.4305C136.902 22.4993 137.04 22.5566 137.208 22.6024C137.383 22.6482 137.559 22.6711 137.735 22.6711C138.544 22.6711 138.949 22.1251 138.949 21.0329ZM140.69 20.9871C140.69 21.453 140.633 21.8768 140.518 22.2587C140.404 22.6406 140.236 22.969 140.014 23.2439C139.793 23.5189 139.518 23.7327 139.19 23.8854C138.861 24.0382 138.483 24.1146 138.055 24.1146C137.819 24.1146 137.597 24.0916 137.391 24.0458C137.185 24 136.986 23.9351 136.795 23.8511V26.1193H135.088V18.1804C135.241 18.1346 135.417 18.0926 135.615 18.0544C135.814 18.0086 136.02 17.9704 136.234 17.9398C136.455 17.9093 136.677 17.8864 136.898 17.8711C137.127 17.8482 137.345 17.8367 137.551 17.8367C138.048 17.8367 138.491 17.9131 138.88 18.0659C139.27 18.211 139.598 18.421 139.865 18.6959C140.133 18.9632 140.335 19.2916 140.473 19.6811C140.618 20.0706 140.69 20.506 140.69 20.9871ZM145.061 21.0329C145.061 20.506 144.942 20.0859 144.706 19.7728C144.469 19.452 144.118 19.2916 143.652 19.2916C143.499 19.2916 143.358 19.2993 143.228 19.3145C143.098 19.3222 142.991 19.3336 142.907 19.3489V22.4305C143.014 22.4993 143.152 22.5566 143.32 22.6024C143.495 22.6482 143.671 22.6711 143.847 22.6711C144.656 22.6711 145.061 22.1251 145.061 21.0329ZM146.802 20.9871C146.802 21.453 146.745 21.8768 146.63 22.2587C146.516 22.6406 146.348 22.969 146.126 23.2439C145.905 23.5189 145.63 23.7327 145.301 23.8854C144.973 24.0382 144.595 24.1146 144.167 24.1146C143.931 24.1146 143.709 24.0916 143.503 24.0458C143.297 24 143.098 23.9351 142.907 23.8511V26.1193H141.2V18.1804C141.353 18.1346 141.529 18.0926 141.727 18.0544C141.926 18.0086 142.132 17.9704 142.346 17.9398C142.567 17.9093 142.789 17.8864 143.01 17.8711C143.239 17.8482 143.457 17.8367 143.663 17.8367C144.16 17.8367 144.603 17.9131 144.992 18.0659C145.382 18.211 145.71 18.421 145.977 18.6959C146.245 18.9632 146.447 19.2916 146.584 19.6811C146.73 20.0706 146.802 20.506 146.802 20.9871ZM149.042 22.7742C149.355 22.7742 149.577 22.7437 149.706 22.6826C149.836 22.6215 149.901 22.5031 149.901 22.3274C149.901 22.19 149.817 22.0716 149.649 21.9723C149.481 21.8654 149.225 21.747 148.882 21.6172C148.614 21.5179 148.37 21.4148 148.148 21.3079C147.935 21.2009 147.751 21.0749 147.598 20.9298C147.446 20.7771 147.327 20.5976 147.243 20.3914C147.159 20.1852 147.117 19.937 147.117 19.6468C147.117 19.0816 147.327 18.6348 147.747 18.3064C148.167 17.978 148.744 17.8138 149.477 17.8138C149.844 17.8138 150.195 17.8482 150.531 17.9169C150.867 17.978 151.135 18.0468 151.333 18.1231L151.035 19.452C150.837 19.3833 150.619 19.3222 150.382 19.2687C150.153 19.2153 149.893 19.1885 149.603 19.1885C149.069 19.1885 148.801 19.3375 148.801 19.6353C148.801 19.704 148.813 19.7651 148.836 19.8186C148.859 19.8721 148.904 19.9255 148.973 19.979C149.042 20.0248 149.134 20.0783 149.248 20.1394C149.37 20.1928 149.523 20.2539 149.706 20.3227C150.081 20.4601 150.39 20.5976 150.634 20.7351C150.879 20.8649 151.07 21.01 151.207 21.1704C151.352 21.3231 151.451 21.495 151.505 21.6859C151.566 21.8768 151.597 22.0983 151.597 22.3504C151.597 22.9461 151.371 23.3967 150.921 23.7021C150.478 24.0076 149.848 24.1604 149.03 24.1604C148.496 24.1604 148.049 24.1146 147.69 24.0229C147.339 23.9313 147.094 23.8549 146.957 23.7938L147.243 22.4076C147.534 22.5222 147.831 22.6138 148.137 22.6826C148.442 22.7437 148.744 22.7742 149.042 22.7742Z" fill="white"/>
<rect x="57" y="11" width="3.57895" height="3.57895" fill="#00966C"/>
<rect x="57" y="15.4737" width="3.57895" height="3.57895" fill="#E51C20"/>
<rect x="57" y="19.9474" width="3.57895" height="3.57895" fill="#D0539A"/>
<rect x="57" y="24.4211" width="3.57895" height="3.57895" fill="#1CB8EC"/>
<rect x="61.4737" y="11" width="3.57895" height="3.57895" fill="#007BC3"/>
<rect x="61.4737" y="15.4737" width="3.57895" height="3.57895" fill="#0052A1"/>
<rect x="61.4737" y="19.9474" width="3.57895" height="3.57895" fill="#A8CA67"/>
<rect x="61.4737" y="24.4211" width="3.57895" height="3.57895" fill="#F28C00"/>
<rect x="65.9474" y="11" width="3.57895" height="3.57895" fill="#AFCB08"/>
<rect x="65.9474" y="15.4737" width="3.57895" height="3.57895" fill="#EBCA1C"/>
<rect x="65.9474" y="19.9474" width="3.57895" height="3.57895" fill="#5C75AB"/>
<rect x="65.9474" y="24.4211" width="3.57895" height="3.57895" fill="#96689E"/>
<rect x="70.4211" y="11" width="3.57895" height="3.57895" fill="#87BBE6"/>
<rect x="70.4211" y="15.4737" width="3.57895" height="3.57895" fill="#EE78AD"/>
<rect x="70.4211" y="19.9474" width="3.57895" height="3.57895" fill="#41AF6B"/>
<rect x="70.4211" y="24.4211" width="3.57895" height="3.57895" fill="#0087CB"/>
<rect x="49.2949" y="119.596" width="27" height="2" fill="#1CB8EC"/>
<rect x="132.295" y="119.596" width="27" height="2" fill="#1CB8EC"/>
<path fill-rule="evenodd" clip-rule="evenodd" d="M185.659 72.0186C189.088 72.3255 191.619 75.3544 191.313 78.7839L185.103 78.2283L185.659 72.0186ZM191.313 78.7839L197.522 79.3395L198.078 73.1298C194.648 72.823 191.619 75.3544 191.313 78.7839ZM189.949 84.0271C187.01 83.7641 184.84 81.1679 185.103 78.2283L191.313 78.7839L190.836 84.1065L189.949 84.0271ZM197.522 79.3396C197.259 82.2791 194.663 84.4489 191.723 84.1859L190.836 84.1065L191.313 78.784L197.522 79.3396Z" fill="#1CB7EB"/>
<path fill-rule="evenodd" clip-rule="evenodd" d="M185.732 62.8492C188.987 62.5341 191.881 64.9172 192.196 68.1719L186.303 68.7424L185.732 62.8492ZM192.196 68.1719L198.089 67.6014L197.519 61.7082C194.264 62.0233 191.881 64.9172 192.196 68.1719ZM191.843 73.3048C189.053 73.5749 186.573 71.5323 186.303 68.7425L192.196 68.172L192.685 73.2234L191.843 73.3048ZM198.089 67.6016C198.359 70.3914 196.316 72.8719 193.527 73.1419L192.685 73.2234L192.196 68.1721L198.089 67.6016Z" fill="#1CB7EB"/>
<path fill-rule="evenodd" clip-rule="evenodd" d="M184 53.8759C187.183 53.0817 190.407 55.0183 191.201 58.2012L185.438 59.6392L184 53.8759ZM191.201 58.2012L196.965 56.7633L195.527 51C192.344 51.7942 190.407 55.0183 191.201 58.2012ZM191.61 63.3466C188.882 64.0274 186.119 62.3675 185.438 59.6392L191.201 58.2013L192.434 63.1412L191.61 63.3466ZM196.965 56.7634C197.645 59.4916 195.985 62.2551 193.257 62.9359L192.434 63.1413L191.201 58.2013L196.965 56.7634Z" fill="#1CB7EB"/>
<path fill-rule="evenodd" clip-rule="evenodd" d="M181 44.8636C183.906 43.7967 187.126 45.2872 188.193 48.1928L182.932 50.1247L181 44.8636ZM188.193 48.1928L193.454 46.261L191.522 41C188.617 42.0669 187.126 45.2872 188.193 48.1928ZM189.097 52.9783C186.607 53.8928 183.846 52.6152 182.932 50.1247L188.193 48.1929L188.193 48.193L193.454 46.2611C194.368 48.7516 193.091 51.5119 190.6 52.4264L189.849 52.7024L189.849 52.7024L189.097 52.9783Z" fill="#1CB7EB"/>
<path fill-rule="evenodd" clip-rule="evenodd" d="M178 36.8891C180.446 35.539 183.524 36.4276 184.874 38.8739L180.445 41.3185L178 36.8891ZM184.874 38.8739L189.303 36.4293L186.859 32C184.412 33.3501 183.524 36.4276 184.874 38.8739ZM186.337 43.0198C184.24 44.177 181.602 43.4153 180.445 41.3186L184.874 38.874L186.969 42.6705L186.337 43.0198ZM189.303 36.4294C190.46 38.5262 189.699 41.1641 187.602 42.3214L186.969 42.6706L184.874 38.874L189.303 36.4294Z" fill="#1CB7EB"/>
<path fill-rule="evenodd" clip-rule="evenodd" d="M172.857 29.6386C175.139 28.0268 178.296 28.5704 179.908 30.8527L175.775 33.7711L172.857 29.6386ZM179.908 30.8527L184.04 27.9343L181.122 23.8018C178.84 25.4136 178.296 28.5704 179.908 30.8527ZM181.819 34.8119C179.863 36.1934 177.157 35.7275 175.775 33.7712L179.908 30.8528L182.409 34.3949L181.819 34.8119ZM184.04 27.9344C185.422 29.8907 184.956 32.5965 183 33.978L182.409 34.395L179.908 30.8528L184.04 27.9344Z" fill="#1CB7EB"/>
<path fill-rule="evenodd" clip-rule="evenodd" d="M184.308 82.2388C187.806 82.8546 190.143 86.1897 189.527 89.6882L183.193 88.5733L184.308 82.2388ZM189.527 89.6882L195.862 90.8031L196.977 84.4686C193.478 83.8529 190.143 86.1897 189.527 89.6882ZM187.667 94.9585C184.668 94.4307 182.665 91.572 183.193 88.5734L189.527 89.6882L188.572 95.1178L187.667 94.9585ZM195.862 90.8031C195.334 93.8018 192.475 95.8048 189.477 95.277L188.572 95.1178L189.527 89.6882L195.862 90.8031Z" fill="#1CB7EB"/>
<path fill-rule="evenodd" clip-rule="evenodd" d="M181.095 91.3493C184.678 92.8645 186.354 96.9972 184.839 100.58L178.352 97.8363L181.095 91.3493ZM184.839 100.58L191.326 103.323L194.069 96.8364C190.487 95.3211 186.354 96.9972 184.839 100.58ZM181.56 105.748C178.489 104.45 177.053 100.907 178.352 97.8365L184.839 100.58L182.487 106.14L181.56 105.748ZM191.326 103.323C190.027 106.394 186.485 107.831 183.414 106.532L182.487 106.14L184.839 100.58L191.326 103.323Z" fill="#1CB7EB"/>
<path fill-rule="evenodd" clip-rule="evenodd" d="M176.145 101.557C179.707 103.464 181.05 107.898 179.143 111.461L172.691 108.008L176.145 101.557ZM179.143 111.461L185.594 114.914L189.047 108.463C185.484 106.556 181.05 107.898 179.143 111.461ZM175.261 116.497C172.207 114.863 171.057 111.062 172.691 108.008L179.143 111.461L176.183 116.991L175.261 116.497ZM185.594 114.914C183.959 117.968 180.158 119.119 177.104 117.484L176.183 116.991L179.143 111.461L185.594 114.914Z" fill="#1CB7EB"/>
<path fill-rule="evenodd" clip-rule="evenodd" d="M24.9195 71.2169C21.49 71.5237 18.9586 74.5526 19.2654 77.9821L25.4751 77.4265L24.9195 71.2169ZM19.2654 77.9821L13.0558 78.5377L12.5002 72.3281C15.9297 72.0212 18.9586 74.5526 19.2654 77.9821ZM20.6288 83.2254C23.5684 82.9623 25.7382 80.3661 25.4751 77.4266L19.2655 77.9822L19.7417 83.3047L20.6288 83.2254ZM13.0558 78.5378C13.3188 81.4774 15.915 83.6471 18.8546 83.3841L19.7417 83.3048L19.2655 77.9822L13.0558 78.5378Z" fill="#1CB7EB"/>
<path fill-rule="evenodd" clip-rule="evenodd" d="M24.846 62.0474C21.5912 61.7323 18.6973 64.1154 18.3823 67.3702L24.2755 67.9407L24.846 62.0474ZM18.3823 67.3702L12.489 66.7997L13.0595 60.9064C16.3143 61.2215 18.6973 64.1154 18.3823 67.3702ZM18.7352 72.5031C21.525 72.7732 24.0055 70.7305 24.2755 67.9407L18.3823 67.3702L17.8933 72.4216L18.7352 72.5031ZM12.489 66.7998C12.219 69.5896 14.2616 72.0701 17.0514 72.3402L17.8933 72.4217L18.3823 67.3703L12.489 66.7998Z" fill="#1CB7EB"/>
<path fill-rule="evenodd" clip-rule="evenodd" d="M26.5781 53.0741C23.3951 52.28 20.171 54.2165 19.3768 57.3995L25.1401 58.8374L26.5781 53.0741ZM19.3768 57.3995L13.6136 55.9615L15.0515 50.1982C18.2345 50.9924 20.171 54.2165 19.3768 57.3995ZM18.9676 62.5449C21.6959 63.2256 24.4594 61.5657 25.1401 58.8375L19.3769 57.3995L18.1443 62.3395L18.9676 62.5449ZM13.6136 55.9616C12.9329 58.6899 14.5927 61.4534 17.321 62.1341L18.1443 62.3395L19.3768 57.3996L13.6136 55.9616Z" fill="#1CB7EB"/>
<path fill-rule="evenodd" clip-rule="evenodd" d="M29.578 44.0619C26.6725 42.995 23.4521 44.4855 22.3852 47.3911L27.6462 49.3229L29.578 44.0619ZM22.3852 47.3911L17.1242 45.4592L19.056 40.1982C21.9616 41.2651 23.4521 44.4855 22.3852 47.3911ZM21.4809 52.1766C23.9714 53.0911 26.7317 51.8135 27.6462 49.323L22.3852 47.3912L22.3852 47.3912L17.1242 45.4594C16.2097 47.9499 17.4873 50.7102 19.9778 51.6247L20.7294 51.9007L20.7294 51.9006L21.4809 52.1766Z" fill="#1CB7EB"/>
<path fill-rule="evenodd" clip-rule="evenodd" d="M32.578 36.0874C30.1318 34.7373 27.0543 35.6259 25.7042 38.0721L30.1335 40.5167L32.578 36.0874ZM25.7042 38.0721L21.2748 35.6276L23.7194 31.1982C26.1656 32.5483 27.0543 35.6259 25.7042 38.0721ZM24.2416 42.218C26.3384 43.3752 28.9763 42.6136 30.1335 40.5168L25.7042 38.0722L23.6088 41.8688L24.2416 42.218ZM21.2748 35.6277C20.1176 37.7245 20.8793 40.3624 22.976 41.5196L23.6088 41.8688L25.7041 38.0723L21.2748 35.6277Z" fill="#1CB7EB"/>
<path fill-rule="evenodd" clip-rule="evenodd" d="M37.7212 28.8369C35.4389 27.2251 32.2821 27.7686 30.6703 30.0509L34.8028 32.9694L37.7212 28.8369ZM30.6703 30.0509L26.5378 27.1325L29.4562 23C31.7386 24.6118 32.2821 27.7686 30.6703 30.0509ZM28.7591 34.0101C30.7154 35.3916 33.4212 34.9257 34.8028 32.9695L30.6703 30.051L28.1688 33.5932L28.7591 34.0101ZM26.5378 27.1326C25.1562 29.0889 25.6221 31.7947 27.5784 33.1763L28.1688 33.5932L30.6703 30.0511L26.5378 27.1326Z" fill="#1CB7EB"/>
<path fill-rule="evenodd" clip-rule="evenodd" d="M26.2702 81.4371C22.7718 82.0528 20.4349 85.388 21.0506 88.8864L27.3851 87.7715L26.2702 81.4371ZM21.0506 88.8864L14.7162 90.0013L13.6013 83.6668C17.0997 83.0511 20.4349 85.388 21.0506 88.8864ZM22.9112 94.1568C25.9098 93.629 27.9129 90.7702 27.3851 87.7716L21.0507 88.8865L22.0063 94.316L22.9112 94.1568ZM14.7162 90.0013C15.2439 93 18.1027 95.003 21.1013 94.4753L22.0063 94.316L21.0506 88.8865L14.7162 90.0013Z" fill="#1CB7EB"/>
<path fill-rule="evenodd" clip-rule="evenodd" d="M29.483 90.5475C25.9003 92.0628 24.2242 96.1954 25.7395 99.7781L32.2265 97.0346L29.483 90.5475ZM25.7395 99.7781L19.2524 102.522L16.5089 96.0346C20.0916 94.5194 24.2242 96.1954 25.7395 99.7781ZM29.0178 104.947C32.0887 103.648 33.5253 100.106 32.2265 97.0347L25.7395 99.7782L28.0911 105.339L29.0178 104.947ZM19.2524 102.522C20.5512 105.593 24.0935 107.029 27.1643 105.73L28.0911 105.339L25.7395 99.7782L19.2524 102.522Z" fill="#1CB7EB"/>
<path fill-rule="evenodd" clip-rule="evenodd" d="M34.4335 100.755C30.8706 102.662 29.5284 107.096 31.4355 110.659L37.8866 107.206L34.4335 100.755ZM31.4355 110.659L24.9844 114.112L21.5312 107.661C25.0941 105.754 29.5284 107.096 31.4355 110.659ZM35.317 115.696C38.3709 114.061 39.5214 110.26 37.8867 107.206L31.4356 110.659L34.3954 116.189L35.317 115.696ZM24.9844 114.113C26.6191 117.166 30.4199 118.317 33.4738 116.682L34.3954 116.189L31.4355 110.659L24.9844 114.113Z" fill="#1CB7EB"/>
<path d="M47.5699 67V56.208H43.3139V53.7H54.9039V56.208H50.6479V67H47.5699Z" fill="white"/>
<path d="M62.4545 67.228C61.4031 67.228 60.4278 67.057 59.5285 66.715C58.6418 66.373 57.8691 65.8917 57.2105 65.271C56.5645 64.6503 56.0578 63.922 55.6905 63.086C55.3358 62.25 55.1585 61.338 55.1585 60.35C55.1585 59.362 55.3358 58.45 55.6905 57.614C56.0578 56.778 56.5708 56.0497 57.2295 55.429C57.8881 54.8083 58.6608 54.327 59.5475 53.985C60.4341 53.643 61.3968 53.472 62.4355 53.472C63.4868 53.472 64.4495 53.643 65.3235 53.985C66.2101 54.327 66.9765 54.8083 67.6225 55.429C68.2811 56.0497 68.7941 56.778 69.1615 57.614C69.5288 58.4373 69.7125 59.3493 69.7125 60.35C69.7125 61.338 69.5288 62.2563 69.1615 63.105C68.7941 63.941 68.2811 64.6693 67.6225 65.29C66.9765 65.898 66.2101 66.373 65.3235 66.715C64.4495 67.057 63.4931 67.228 62.4545 67.228ZM62.4355 64.606C63.0308 64.606 63.5755 64.5047 64.0695 64.302C64.5761 64.0993 65.0195 63.808 65.3995 63.428C65.7795 63.048 66.0708 62.5983 66.2735 62.079C66.4888 61.5597 66.5965 60.9833 66.5965 60.35C66.5965 59.7167 66.4888 59.1403 66.2735 58.621C66.0708 58.1017 65.7795 57.652 65.3995 57.272C65.0321 56.892 64.5951 56.6007 64.0885 56.398C63.5818 56.1953 63.0308 56.094 62.4355 56.094C61.8401 56.094 61.2891 56.1953 60.7825 56.398C60.2885 56.6007 59.8515 56.892 59.4715 57.272C59.0915 57.652 58.7938 58.1017 58.5785 58.621C58.3758 59.1403 58.2745 59.7167 58.2745 60.35C58.2745 60.9707 58.3758 61.547 58.5785 62.079C58.7938 62.5983 59.0851 63.048 59.4525 63.428C59.8325 63.808 60.2758 64.0993 60.7825 64.302C61.2891 64.5047 61.8401 64.606 62.4355 64.606Z" fill="white"/>
<path d="M71.6457 67V53.7H77.4027C78.5934 53.7 79.6194 53.8963 80.4807 54.289C81.3421 54.669 82.0071 55.22 82.4757 55.942C82.9444 56.664 83.1787 57.5253 83.1787 58.526C83.1787 59.514 82.9444 60.369 82.4757 61.091C82.0071 61.813 81.3421 62.3703 80.4807 62.763C79.6194 63.143 78.5934 63.333 77.4027 63.333H73.3557L74.7237 61.946V67H71.6457ZM74.7237 62.288L73.3557 60.825H77.2317C78.1817 60.825 78.8911 60.6223 79.3597 60.217C79.8284 59.8117 80.0627 59.248 80.0627 58.526C80.0627 57.7913 79.8284 57.2213 79.3597 56.816C78.8911 56.4107 78.1817 56.208 77.2317 56.208H73.3557L74.7237 54.745V62.288Z" fill="white"/>
<path d="M89.9736 67V56.778H92.9376V67H89.9736ZM91.4556 55.353C90.9109 55.353 90.4676 55.1947 90.1256 54.878C89.7836 54.5613 89.6126 54.1687 89.6126 53.7C89.6126 53.2313 89.7836 52.8387 90.1256 52.522C90.4676 52.2053 90.9109 52.047 91.4556 52.047C92.0003 52.047 92.4436 52.199 92.7856 52.503C93.1276 52.7943 93.2986 53.1743 93.2986 53.643C93.2986 54.137 93.1276 54.5487 92.7856 54.878C92.4563 55.1947 92.0129 55.353 91.4556 55.353Z" fill="white"/>
<path d="M101.977 67.228C100.926 67.228 99.9508 67.057 99.0514 66.715C98.1648 66.373 97.3921 65.8917 96.7334 65.271C96.0874 64.6503 95.5808 63.922 95.2134 63.086C94.8588 62.25 94.6814 61.338 94.6814 60.35C94.6814 59.362 94.8588 58.45 95.2134 57.614C95.5808 56.778 96.0938 56.0497 96.7524 55.429C97.4111 54.8083 98.1838 54.327 99.0704 53.985C99.9571 53.643 100.92 53.472 101.958 53.472C103.01 53.472 103.972 53.643 104.846 53.985C105.733 54.327 106.499 54.8083 107.145 55.429C107.804 56.0497 108.317 56.778 108.684 57.614C109.052 58.4373 109.235 59.3493 109.235 60.35C109.235 61.338 109.052 62.2563 108.684 63.105C108.317 63.941 107.804 64.6693 107.145 65.29C106.499 65.898 105.733 66.373 104.846 66.715C103.972 67.057 103.016 67.228 101.977 67.228ZM101.958 64.606C102.554 64.606 103.098 64.5047 103.592 64.302C104.099 64.0993 104.542 63.808 104.922 63.428C105.302 63.048 105.594 62.5983 105.796 62.079C106.012 61.5597 106.119 60.9833 106.119 60.35C106.119 59.7167 106.012 59.1403 105.796 58.621C105.594 58.1017 105.302 57.652 104.922 57.272C104.555 56.892 104.118 56.6007 103.611 56.398C103.105 56.1953 102.554 56.094 101.958 56.094C101.363 56.094 100.812 56.1953 100.305 56.398C99.8114 56.6007 99.3744 56.892 98.9944 57.272C98.6144 57.652 98.3168 58.1017 98.1014 58.621C97.8988 59.1403 97.7974 59.7167 97.7974 60.35C97.7974 60.9707 97.8988 61.547 98.1014 62.079C98.3168 62.5983 98.6081 63.048 98.9754 63.428C99.3554 63.808 99.7988 64.0993 100.305 64.302C100.812 64.5047 101.363 64.606 101.958 64.606Z" fill="white"/>
<path d="M115.539 67.228C114.475 67.228 113.455 67.0887 112.48 66.81C111.504 66.5187 110.719 66.145 110.124 65.689L111.169 63.371C111.739 63.7763 112.41 64.112 113.183 64.378C113.968 64.6313 114.76 64.758 115.558 64.758C116.166 64.758 116.653 64.701 117.021 64.587C117.401 64.4603 117.679 64.2893 117.857 64.074C118.034 63.8587 118.123 63.6117 118.123 63.333C118.123 62.9783 117.983 62.6997 117.705 62.497C117.426 62.2817 117.059 62.1107 116.603 61.984C116.147 61.8447 115.64 61.718 115.083 61.604C114.538 61.4773 113.987 61.3253 113.43 61.148C112.885 60.9707 112.385 60.7427 111.929 60.464C111.473 60.1853 111.099 59.818 110.808 59.362C110.529 58.906 110.39 58.3233 110.39 57.614C110.39 56.854 110.592 56.1637 110.998 55.543C111.416 54.9097 112.036 54.4093 112.86 54.042C113.696 53.662 114.741 53.472 115.995 53.472C116.831 53.472 117.654 53.5733 118.465 53.776C119.275 53.966 119.991 54.2573 120.612 54.65L119.662 56.987C119.041 56.6323 118.42 56.3727 117.8 56.208C117.179 56.0307 116.571 55.942 115.976 55.942C115.38 55.942 114.893 56.0117 114.513 56.151C114.133 56.2903 113.86 56.474 113.696 56.702C113.531 56.9173 113.449 57.1707 113.449 57.462C113.449 57.804 113.588 58.0827 113.867 58.298C114.145 58.5007 114.513 58.6653 114.969 58.792C115.425 58.9187 115.925 59.0453 116.47 59.172C117.027 59.2987 117.578 59.4443 118.123 59.609C118.68 59.7737 119.187 59.9953 119.643 60.274C120.099 60.5527 120.466 60.92 120.745 61.376C121.036 61.832 121.182 62.4083 121.182 63.105C121.182 63.8523 120.973 64.5363 120.555 65.157C120.137 65.7777 119.51 66.278 118.674 66.658C117.85 67.038 116.805 67.228 115.539 67.228Z" fill="white"/>
<path d="M126.158 67L132.086 53.7H135.126L141.073 67H137.843L132.979 55.258H134.195L129.312 67H126.158ZM129.122 64.15L129.939 61.813H136.779L137.615 64.15H129.122Z" fill="white"/>
<path d="M142.073 67V53.7H147.83C149.02 53.7 150.046 53.8963 150.908 54.289C151.769 54.669 152.434 55.22 152.903 55.942C153.371 56.664 153.606 57.5253 153.606 58.526C153.606 59.514 153.371 60.369 152.903 61.091C152.434 61.813 151.769 62.3703 150.908 62.763C150.046 63.143 149.02 63.333 147.83 63.333H143.783L145.151 61.946V67H142.073ZM145.151 62.288L143.783 60.825H147.659C148.609 60.825 149.318 60.6223 149.787 60.217C150.255 59.8117 150.49 59.248 150.49 58.526C150.49 57.7913 150.255 57.2213 149.787 56.816C149.318 56.4107 148.609 56.208 147.659 56.208H143.783L145.151 54.745V62.288Z" fill="white"/>
<path d="M155.423 67V53.7H161.18C162.371 53.7 163.397 53.8963 164.258 54.289C165.119 54.669 165.784 55.22 166.253 55.942C166.722 56.664 166.956 57.5253 166.956 58.526C166.956 59.514 166.722 60.369 166.253 61.091C165.784 61.813 165.119 62.3703 164.258 62.763C163.397 63.143 162.371 63.333 161.18 63.333H157.133L158.501 61.946V67H155.423ZM158.501 62.288L157.133 60.825H161.009C161.959 60.825 162.668 60.6223 163.137 60.217C163.606 59.8117 163.84 59.248 163.84 58.526C163.84 57.7913 163.606 57.2213 163.137 56.816C162.668 56.4107 161.959 56.208 161.009 56.208H157.133L158.501 54.745V62.288Z" fill="white"/>
<path d="M47.283 86V72.7H53.325C54.769 72.7 56.042 72.9787 57.144 73.536C58.246 74.0807 59.1074 74.847 59.728 75.835C60.3487 76.823 60.659 77.9947 60.659 79.35C60.659 80.6927 60.3487 81.8643 59.728 82.865C59.1074 83.853 58.246 84.6257 57.144 85.183C56.042 85.7277 54.769 86 53.325 86H47.283ZM50.361 83.473H53.173C54.0597 83.473 54.826 83.3083 55.472 82.979C56.1307 82.637 56.6374 82.1557 56.992 81.535C57.3594 80.9143 57.543 80.186 57.543 79.35C57.543 78.5013 57.3594 77.773 56.992 77.165C56.6374 76.5443 56.1307 76.0693 55.472 75.74C54.826 75.398 54.0597 75.227 53.173 75.227H50.361V83.473Z" fill="white"/>
<path d="M65.4313 78.058H71.8343V80.452H65.4313V78.058ZM65.6593 83.53H72.8983V86H62.6003V72.7H72.6513V75.17H65.6593V83.53Z" fill="white"/>
<path d="M78.7718 86L73.0338 72.7H76.3588L81.3748 84.48H79.4178L84.5098 72.7H87.5688L81.8118 86H78.7718Z" fill="white"/>
<path d="M91.1303 78.058H97.5333V80.452H91.1303V78.058ZM91.3583 83.53H98.5973V86H88.2993V72.7H98.3503V75.17H91.3583V83.53Z" fill="white"/>
<path d="M100.666 86V72.7H103.744V83.492H110.413V86H100.666Z" fill="white"/>
<path d="M117.991 86.228C116.939 86.228 115.964 86.057 115.065 85.715C114.178 85.373 113.405 84.8917 112.747 84.271C112.101 83.6503 111.594 82.922 111.227 82.086C110.872 81.25 110.695 80.338 110.695 79.35C110.695 78.362 110.872 77.45 111.227 76.614C111.594 75.778 112.107 75.0497 112.766 74.429C113.424 73.8083 114.197 73.327 115.084 72.985C115.97 72.643 116.933 72.472 117.972 72.472C119.023 72.472 119.986 72.643 120.86 72.985C121.746 73.327 122.512 73.8083 123.159 74.429C123.817 75.0497 124.33 75.778 124.698 76.614C125.065 77.4373 125.249 78.3493 125.249 79.35C125.249 80.338 125.065 81.2563 124.698 82.105C124.33 82.941 123.817 83.6693 123.159 84.29C122.512 84.898 121.746 85.373 120.86 85.715C119.986 86.057 119.029 86.228 117.991 86.228ZM117.972 83.606C118.567 83.606 119.112 83.5047 119.606 83.302C120.112 83.0993 120.556 82.808 120.936 82.428C121.315 82.048 121.607 81.5983 121.81 81.079C122.025 80.5597 122.132 79.9833 122.132 79.35C122.132 78.7167 122.025 78.1403 121.81 77.621C121.607 77.1017 121.315 76.652 120.936 76.272C120.568 75.892 120.131 75.6007 119.625 75.398C119.118 75.1953 118.567 75.094 117.972 75.094C117.376 75.094 116.825 75.1953 116.319 75.398C115.825 75.6007 115.387 75.892 115.007 76.272C114.628 76.652 114.33 77.1017 114.115 77.621C113.912 78.1403 113.811 78.7167 113.811 79.35C113.811 79.9707 113.912 80.547 114.115 81.079C114.33 81.5983 114.621 82.048 114.989 82.428C115.368 82.808 115.812 83.0993 116.319 83.302C116.825 83.5047 117.376 83.606 117.972 83.606Z" fill="white"/>
<path d="M127.182 86V72.7H132.939C134.129 72.7 135.155 72.8963 136.017 73.289C136.878 73.669 137.543 74.22 138.012 74.942C138.48 75.664 138.715 76.5253 138.715 77.526C138.715 78.514 138.48 79.369 138.012 80.091C137.543 80.813 136.878 81.3703 136.017 81.763C135.155 82.143 134.129 82.333 132.939 82.333H128.892L130.26 80.946V86H127.182ZM130.26 81.288L128.892 79.825H132.768C133.718 79.825 134.427 79.6223 134.896 79.217C135.364 78.8117 135.599 78.248 135.599 77.526C135.599 76.7913 135.364 76.2213 134.896 75.816C134.427 75.4107 133.718 75.208 132.768 75.208H128.892L130.26 73.745V81.288Z" fill="white"/>
<path d="M143.363 78.058H149.766V80.452H143.363V78.058ZM143.591 83.53H150.83V86H140.532V72.7H150.583V75.17H143.591V83.53Z" fill="white"/>
<path d="M152.899 86V72.7H158.656C159.847 72.7 160.873 72.8963 161.734 73.289C162.596 73.669 163.261 74.22 163.729 74.942C164.198 75.664 164.432 76.5253 164.432 77.526C164.432 78.514 164.198 79.369 163.729 80.091C163.261 80.8003 162.596 81.345 161.734 81.725C160.873 82.105 159.847 82.295 158.656 82.295H154.609L155.977 80.946V86H152.899ZM161.354 86L158.029 81.174H161.316L164.679 86H161.354ZM155.977 81.288L154.609 79.844H158.485C159.435 79.844 160.145 79.6413 160.613 79.236C161.082 78.818 161.316 78.248 161.316 77.526C161.316 76.7913 161.082 76.2213 160.613 75.816C160.145 75.4107 159.435 75.208 158.485 75.208H154.609L155.977 73.745V81.288Z" fill="white"/>
<path d="M83.7643 127V125.347L89.0463 120.331C89.4896 119.913 89.8189 119.546 90.0343 119.229C90.2496 118.912 90.3889 118.621 90.4523 118.355C90.5283 118.076 90.5663 117.817 90.5663 117.576C90.5663 116.968 90.3573 116.499 89.9393 116.17C89.5213 115.828 88.9069 115.657 88.0963 115.657C87.4503 115.657 86.8613 115.771 86.3293 115.999C85.8099 116.227 85.3603 116.575 84.9803 117.044L83.2513 115.714C83.7706 115.017 84.4673 114.479 85.3413 114.099C86.2279 113.706 87.2159 113.51 88.3053 113.51C89.2679 113.51 90.1039 113.668 90.8133 113.985C91.5353 114.289 92.0863 114.726 92.4663 115.296C92.8589 115.866 93.0553 116.544 93.0553 117.329C93.0553 117.76 92.9983 118.19 92.8843 118.621C92.7703 119.039 92.5549 119.482 92.2383 119.951C91.9216 120.42 91.4593 120.945 90.8513 121.528L86.3103 125.841L85.7973 124.91H93.5683V127H83.7643Z" fill="white"/>
<path d="M100.162 127.19C99.1105 127.19 98.1605 126.924 97.3119 126.392C96.4759 125.86 95.8172 125.087 95.3359 124.074C94.8545 123.048 94.6139 121.807 94.6139 120.35C94.6139 118.893 94.8545 117.658 95.3359 116.645C95.8172 115.619 96.4759 114.84 97.3119 114.308C98.1605 113.776 99.1105 113.51 100.162 113.51C101.226 113.51 102.176 113.776 103.012 114.308C103.848 114.84 104.507 115.619 104.988 116.645C105.482 117.658 105.729 118.893 105.729 120.35C105.729 121.807 105.482 123.048 104.988 124.074C104.507 125.087 103.848 125.86 103.012 126.392C102.176 126.924 101.226 127.19 100.162 127.19ZM100.162 125.043C100.783 125.043 101.321 124.878 101.777 124.549C102.233 124.207 102.588 123.688 102.841 122.991C103.107 122.294 103.24 121.414 103.24 120.35C103.24 119.273 103.107 118.393 102.841 117.709C102.588 117.012 102.233 116.499 101.777 116.17C101.321 115.828 100.783 115.657 100.162 115.657C99.5665 115.657 99.0345 115.828 98.5659 116.17C98.1099 116.499 97.7489 117.012 97.4829 117.709C97.2295 118.393 97.1029 119.273 97.1029 120.35C97.1029 121.414 97.2295 122.294 97.4829 122.991C97.7489 123.688 98.1099 124.207 98.5659 124.549C99.0345 124.878 99.5665 125.043 100.162 125.043Z" fill="white"/>
<path d="M106.829 127V125.347L112.111 120.331C112.554 119.913 112.883 119.546 113.099 119.229C113.314 118.912 113.453 118.621 113.517 118.355C113.593 118.076 113.631 117.817 113.631 117.576C113.631 116.968 113.421 116.499 113.003 116.17C112.586 115.828 111.971 115.657 111.16 115.657C110.514 115.657 109.925 115.771 109.393 115.999C108.874 116.227 108.424 116.575 108.045 117.044L106.316 115.714C106.835 115.017 107.531 114.479 108.406 114.099C109.292 113.706 110.28 113.51 111.37 113.51C112.332 113.51 113.168 113.668 113.878 113.985C114.6 114.289 115.151 114.726 115.531 115.296C115.923 115.866 116.12 116.544 116.12 117.329C116.12 117.76 116.062 118.19 115.949 118.621C115.835 119.039 115.619 119.482 115.303 119.951C114.986 120.42 114.524 120.945 113.916 121.528L109.375 125.841L108.861 124.91H116.632V127H106.829Z" fill="white"/>
<path d="M117.507 127V125.347L122.789 120.331C123.232 119.913 123.562 119.546 123.777 119.229C123.992 118.912 124.132 118.621 124.195 118.355C124.271 118.076 124.309 117.817 124.309 117.576C124.309 116.968 124.1 116.499 123.682 116.17C123.264 115.828 122.65 115.657 121.839 115.657C121.193 115.657 120.604 115.771 120.072 115.999C119.553 116.227 119.103 116.575 118.723 117.044L116.994 115.714C117.513 115.017 118.21 114.479 119.084 114.099C119.971 113.706 120.959 113.51 122.048 113.51C123.011 113.51 123.847 113.668 124.556 113.985C125.278 114.289 125.829 114.726 126.209 115.296C126.602 115.866 126.798 116.544 126.798 117.329C126.798 117.76 126.741 118.19 126.627 118.621C126.513 119.039 126.298 119.482 125.981 119.951C125.664 120.42 125.202 120.945 124.594 121.528L120.053 125.841L119.54 124.91H127.311V127H117.507Z" fill="white"/>
</svg>
