<svg width="210" height="140" viewBox="0 0 210 140" fill="none" xmlns="http://www.w3.org/2000/svg">
<path d="M105.01 139.999C143.669 139.999 175.009 108.659 175.009 69.9993C175.009 31.3398 143.669 0 105.01 0C66.3501 0 35.0103 31.3398 35.0103 69.9993C35.0103 108.659 66.3501 139.999 105.01 139.999Z" fill="#3A7AF3"/>
<path opacity="0.66" d="M105.01 133.601C140.136 133.601 168.611 105.126 168.611 69.9993C168.611 34.873 140.136 6.39755 105.01 6.39755C69.8834 6.39755 41.4079 34.873 41.4079 69.9993C41.4079 105.126 69.8834 133.601 105.01 133.601Z" stroke="#1F5DC1" stroke-width="1.56292" stroke-miterlimit="10"/>
<path d="M105.01 133.158C139.891 133.158 168.169 104.881 168.169 69.9994C168.169 35.1176 139.891 6.84039 105.01 6.84039C70.1279 6.84039 41.8507 35.1176 41.8507 69.9994C41.8507 104.881 70.1279 133.158 105.01 133.158Z" fill="white"/>
<path d="M194.018 77.771H16L29.1207 92.706L16 107.64H194.018L180.897 92.706L194.018 77.771Z" fill="#3A7AF3"/>
<path d="M45.491 89.9982H46.9823V84.7689H49.0454V83.5538H43.4293V84.7689H45.491V89.9982Z" fill="white" stroke="#3A7AF3" stroke-width="0.260487" stroke-miterlimit="10"/>
<path d="M50.3478 89.1608C50.6643 89.4616 51.0381 89.6948 51.4705 89.8602C51.9029 90.0256 52.3744 90.1089 52.8836 90.1089C53.3929 90.1089 53.8513 90.0256 54.2785 89.8602C54.7057 89.6948 55.0769 89.4629 55.3921 89.1647C55.7086 88.8664 55.9548 88.5147 56.1332 88.1058C56.3117 87.6981 56.4002 87.254 56.4002 86.776C56.4002 86.298 56.3117 85.8474 56.1332 85.4462C55.9548 85.0438 55.7086 84.6934 55.3921 84.3925C55.0756 84.0917 54.7044 83.8585 54.2785 83.6931C53.8513 83.5277 53.3838 83.4444 52.8745 83.4444C52.3653 83.4444 51.9042 83.5277 51.4744 83.6931C51.0446 83.8585 50.6708 84.0917 50.3517 84.3925C50.0326 84.6934 49.7851 85.0464 49.6106 85.4514C49.4361 85.8565 49.3488 86.298 49.3488 86.7773C49.3488 87.2566 49.4361 87.6981 49.6106 88.1032C49.7851 88.5082 50.0313 88.8612 50.3478 89.1621V89.1608ZM51.0107 85.9385C51.1123 85.6872 51.2543 85.4684 51.4392 85.2847C51.6229 85.1011 51.8365 84.9591 52.0787 84.8614C52.321 84.7637 52.5867 84.7142 52.8745 84.7142C53.1624 84.7142 53.4294 84.7637 53.6755 84.8614C53.9204 84.9591 54.134 85.1011 54.315 85.2847C54.4961 85.4684 54.6367 85.6872 54.7383 85.9385C54.8399 86.1899 54.8907 86.4699 54.8907 86.776C54.8907 87.0821 54.8399 87.3621 54.7383 87.6135C54.6367 87.8648 54.4948 88.0836 54.3098 88.2673C54.1262 88.4509 53.9126 88.5929 53.6703 88.6906C53.4281 88.7883 53.1624 88.8378 52.8745 88.8378C52.5867 88.8378 52.3184 88.7883 52.0735 88.6906C51.8274 88.5929 51.6151 88.4509 51.434 88.2673C51.253 88.0836 51.1123 87.8635 51.0107 87.6095C50.9091 87.3543 50.8584 87.0769 50.8584 86.776C50.8584 86.4751 50.9091 86.1899 51.0107 85.9385Z" fill="white" stroke="#3A7AF3" stroke-width="0.260487" stroke-miterlimit="10"/>
<path d="M61.8066 83.8338C61.3886 83.6462 60.8923 83.5525 60.3153 83.5525H57.5255V89.9969H59.0168V88.2204H60.3153C60.8923 88.2204 61.3899 88.1266 61.8066 87.9391C62.2234 87.7515 62.5464 87.4832 62.773 87.1329C62.9997 86.7825 63.1143 86.3683 63.1143 85.8903C63.1143 85.4124 63.001 84.9878 62.773 84.6387C62.5464 84.2883 62.2234 84.02 61.8066 83.8325V83.8338ZM61.2635 86.7109C61.0369 86.9075 60.693 87.0052 60.232 87.0052H59.0168V84.7676H60.232C60.6917 84.7676 61.0356 84.8653 61.2635 85.062C61.4901 85.2587 61.6048 85.5348 61.6048 85.8903C61.6048 86.2459 61.4914 86.5129 61.2635 86.7096V86.7109Z" fill="white" stroke="#3A7AF3" stroke-width="0.260487" stroke-miterlimit="10"/>
<path d="M67.4592 89.1699C67.7718 89.4707 68.1417 89.7026 68.5689 89.8654C68.9961 90.0282 69.4571 90.1089 69.9547 90.1089C70.5199 90.1089 71.0279 90.0112 71.4785 89.8146C71.9292 89.6179 72.3082 89.3327 72.6155 88.9589L71.6582 88.0745C71.4368 88.3324 71.192 88.5239 70.9211 88.6502C70.6515 88.7765 70.3558 88.839 70.0367 88.839C69.7359 88.839 69.4597 88.7896 69.2084 88.6919C68.957 88.5942 68.7382 88.4522 68.5545 88.2686C68.3709 88.0849 68.2276 87.8661 68.126 87.6148C68.0245 87.3634 67.9737 87.0834 67.9737 86.7773C67.9737 86.4712 68.0245 86.1912 68.126 85.9398C68.2276 85.6885 68.3696 85.4697 68.5545 85.286C68.7382 85.1024 68.957 84.9604 69.2084 84.8627C69.4597 84.765 69.7359 84.7155 70.0367 84.7155C70.3558 84.7155 70.6502 84.7781 70.9211 84.9044C71.1907 85.0307 71.4368 85.2196 71.6582 85.471L72.6155 84.5866C72.3082 84.2128 71.9292 83.9289 71.4785 83.7348C71.0279 83.5407 70.5225 83.4444 69.9638 83.4444C69.4597 83.4444 68.9974 83.5251 68.5741 83.6879C68.1508 83.8507 67.7809 84.0826 67.4644 84.3834C67.1479 84.6843 66.9031 85.0372 66.7272 85.4423C66.5527 85.8474 66.4654 86.2928 66.4654 86.7773C66.4654 87.2618 66.5527 87.7072 66.7272 88.1123C66.9018 88.5174 67.1466 88.8703 67.4592 89.1712V89.1699Z" fill="white" stroke="#3A7AF3" stroke-width="0.260487" stroke-miterlimit="10"/>
<path d="M79.3634 87.1628V83.5538H77.8904V87.1081C77.8904 87.7216 77.764 88.1644 77.5127 88.434C77.2613 88.7036 76.9083 88.839 76.4538 88.839C75.9992 88.839 75.6463 88.7036 75.3949 88.434C75.1435 88.1644 75.0172 87.7216 75.0172 87.1081V83.5538H73.5259V87.1628C73.5259 88.1084 73.7838 88.8351 74.2996 89.3444C74.8153 89.8536 75.5304 90.1089 76.4447 90.1089C77.359 90.1089 78.074 89.8549 78.5898 89.3444C79.1056 88.8351 79.3634 88.1071 79.3634 87.1628Z" fill="white" stroke="#3A7AF3" stroke-width="0.260487" stroke-miterlimit="10"/>
<path d="M85.3846 89.1047C85.5878 88.8039 85.6881 88.4731 85.6881 88.111C85.6881 87.7737 85.619 87.4936 85.481 87.2735C85.3429 87.0521 85.1632 86.875 84.9418 86.7395C84.7204 86.6041 84.4768 86.4973 84.2098 86.4178C83.9428 86.3384 83.6758 86.268 83.4088 86.2055C83.1418 86.1443 82.8983 86.0831 82.6768 86.0219C82.4554 85.9607 82.2783 85.8786 82.1428 85.7783C82.0074 85.6767 81.9397 85.5439 81.9397 85.3772C81.9397 85.2365 81.98 85.1115 82.0595 85.0047C82.1389 84.8979 82.2718 84.8093 82.4554 84.7416C82.6391 84.6739 82.8761 84.64 83.164 84.64C83.4518 84.64 83.7474 84.6817 84.0483 84.7637C84.3492 84.8471 84.65 84.9747 84.9509 85.1453L85.4107 84.0122C85.1098 83.8221 84.7633 83.6788 84.37 83.5837C83.9767 83.4886 83.5781 83.4405 83.1731 83.4405C82.5648 83.4405 82.0608 83.5316 81.6583 83.7127C81.2559 83.8937 80.955 84.136 80.7558 84.4394C80.5565 84.7429 80.4562 85.0789 80.4562 85.4475C80.4562 85.7914 80.5252 86.074 80.6633 86.2941C80.8013 86.5155 80.9811 86.6926 81.2025 86.8281C81.4239 86.9635 81.6675 87.0729 81.9345 87.1589C82.2015 87.2449 82.4685 87.3165 82.7355 87.3751C83.0025 87.4337 83.246 87.4949 83.4674 87.5588C83.6888 87.6239 83.866 87.7059 84.0014 87.8075C84.1369 87.9091 84.2046 88.0459 84.2046 88.2178C84.2046 88.3532 84.1616 88.4731 84.0757 88.5773C83.9897 88.6815 83.8555 88.7635 83.6758 88.8208C83.4948 88.8794 83.2564 88.9081 82.9621 88.9081C82.5753 88.9081 82.1936 88.8456 81.8159 88.7192C81.4382 88.5929 81.1113 88.4327 80.8352 88.236L80.3286 89.3587C80.6164 89.5801 80.998 89.7586 81.4708 89.8979C81.9436 90.036 82.4372 90.105 82.953 90.105C83.5664 90.105 84.0744 90.0125 84.4768 89.8289C84.8793 89.6453 85.1814 89.4017 85.3833 89.1021L85.3846 89.1047Z" fill="white" stroke="#3A7AF3" stroke-width="0.260487" stroke-miterlimit="10"/>
<path d="M85.8912 84.7689H87.953V89.9982H89.4456V84.7689H91.5073V83.5538H85.8912V84.7689Z" fill="white" stroke="#3A7AF3" stroke-width="0.260487" stroke-miterlimit="10"/>
<path d="M98.5965 85.4449C98.4181 85.0425 98.1719 84.6921 97.8554 84.3912C97.5389 84.0904 97.1677 83.8572 96.7418 83.6918C96.3146 83.5264 95.8471 83.4431 95.3378 83.4431C94.8286 83.4431 94.3675 83.5264 93.9377 83.6918C93.5079 83.8572 93.1341 84.0904 92.815 84.3912C92.4959 84.6921 92.2484 85.0451 92.0739 85.4501C91.8994 85.8552 91.8121 86.2967 91.8121 86.776C91.8121 87.2553 91.8994 87.6968 92.0739 88.1019C92.2484 88.5069 92.4946 88.8599 92.8111 89.1608C93.1276 89.4616 93.5014 89.6948 93.9338 89.8602C94.3662 90.0256 94.8377 90.1089 95.3469 90.1089C95.8562 90.1089 96.3146 90.0256 96.7418 89.8602C97.169 89.6948 97.5402 89.4629 97.8554 89.1647C98.1719 88.8664 98.4181 88.5147 98.5965 88.1058C98.7749 87.6981 98.8635 87.254 98.8635 86.776C98.8635 86.298 98.7749 85.8474 98.5965 85.4462V85.4449ZM97.2016 87.6135C97.1 87.8648 96.958 88.0836 96.7731 88.2673C96.5894 88.4509 96.3758 88.5929 96.1336 88.6906C95.8913 88.7883 95.6256 88.8378 95.3378 88.8378C95.05 88.8378 94.7817 88.7883 94.5368 88.6906C94.2906 88.5929 94.0784 88.4509 93.8973 88.2673C93.7163 88.0836 93.5756 87.8635 93.474 87.6096C93.3724 87.3543 93.3216 87.0769 93.3216 86.776C93.3216 86.4751 93.3724 86.1899 93.474 85.9385C93.5756 85.6872 93.7176 85.4684 93.9025 85.2847C94.0862 85.1011 94.2998 84.9591 94.542 84.8614C94.7843 84.7637 95.05 84.7142 95.3378 84.7142C95.6256 84.7142 95.8926 84.7637 96.1388 84.8614C96.3837 84.9591 96.5973 85.1011 96.7783 85.2847C96.9593 85.4684 97.1 85.6872 97.2016 85.9385C97.3032 86.1899 97.354 86.4699 97.354 86.776C97.354 87.0821 97.3032 87.3621 97.2016 87.6135Z" fill="white" stroke="#3A7AF3" stroke-width="0.260487" stroke-miterlimit="10"/>
<path d="M101.386 86.2133L103.274 89.317H103.946L105.843 86.13L105.852 89.9982H107.251L107.233 83.5538H106.009L103.634 87.5548L101.221 83.5538H99.9875V89.9982H101.386V86.2133Z" fill="white" stroke="#3A7AF3" stroke-width="0.260487" stroke-miterlimit="10"/>
<path d="M115.933 89.1047C116.136 88.8039 116.237 88.4731 116.237 88.111C116.237 87.7737 116.168 87.4936 116.03 87.2735C115.892 87.0521 115.712 86.875 115.49 86.7395C115.269 86.6041 115.025 86.4973 114.758 86.4178C114.491 86.3384 114.224 86.268 113.957 86.2055C113.69 86.1443 113.447 86.0831 113.225 86.0219C113.004 85.9607 112.827 85.8786 112.691 85.7783C112.556 85.6767 112.488 85.5439 112.488 85.3772C112.488 85.2365 112.529 85.1115 112.608 85.0047C112.688 84.8979 112.82 84.8093 113.004 84.7416C113.188 84.6739 113.425 84.64 113.713 84.64C114 84.64 114.296 84.6817 114.597 84.7637C114.898 84.8471 115.199 84.9747 115.499 85.1453L115.959 84.0122C115.658 83.8221 115.312 83.6788 114.919 83.5837C114.525 83.4886 114.127 83.4405 113.722 83.4405C113.113 83.4405 112.609 83.5316 112.207 83.7127C111.804 83.8937 111.504 84.136 111.304 84.4394C111.105 84.7429 111.005 85.0789 111.005 85.4475C111.005 85.7914 111.074 86.074 111.212 86.2941C111.35 86.5155 111.53 86.6926 111.751 86.8281C111.972 86.9635 112.216 87.0729 112.483 87.1589C112.75 87.2449 113.017 87.3165 113.284 87.3751C113.551 87.4337 113.795 87.4949 114.016 87.5588C114.237 87.6239 114.415 87.7059 114.55 87.8075C114.685 87.9091 114.752 88.0459 114.752 88.2178C114.752 88.3532 114.709 88.4731 114.623 88.5773C114.537 88.6815 114.403 88.7635 114.222 88.8208C114.041 88.8794 113.802 88.9081 113.508 88.9081C113.121 88.9081 112.74 88.8456 112.362 88.7192C111.984 88.5929 111.657 88.4327 111.381 88.236L110.875 89.3587C111.162 89.5801 111.544 89.7586 112.017 89.8979C112.49 90.036 112.983 90.105 113.499 90.105C114.112 90.105 114.62 90.0125 115.023 89.8289C115.425 89.6453 115.727 89.4017 115.929 89.1021L115.933 89.1047Z" fill="white" stroke="#3A7AF3" stroke-width="0.260487" stroke-miterlimit="10"/>
<path d="M122.899 89.1647C123.215 88.8664 123.461 88.5147 123.64 88.1058C123.818 87.6981 123.907 87.254 123.907 86.776C123.907 86.298 123.818 85.8474 123.64 85.4462C123.461 85.0438 123.215 84.6934 122.899 84.3925C122.582 84.0917 122.211 83.8585 121.785 83.6931C121.358 83.5277 120.89 83.4444 120.381 83.4444C119.872 83.4444 119.411 83.5277 118.982 83.6931C118.552 83.8585 118.179 84.0917 117.859 84.3925C117.54 84.6934 117.293 85.0464 117.118 85.4514C116.944 85.8565 116.857 86.298 116.857 86.7773C116.857 87.2566 116.944 87.6981 117.118 88.1032C117.293 88.5082 117.539 88.8612 117.856 89.1621C118.172 89.4629 118.546 89.6961 118.978 89.8615C119.411 90.0269 119.882 90.1102 120.391 90.1102C120.901 90.1102 121.359 90.0269 121.786 89.8615C122.212 89.6961 122.585 89.4642 122.9 89.166L122.899 89.1647ZM120.381 88.8378C120.092 88.8378 119.825 88.7883 119.58 88.6906C119.334 88.5929 119.122 88.4509 118.941 88.2673C118.759 88.0836 118.619 87.8635 118.517 87.6095C118.416 87.3543 118.365 87.0769 118.365 86.776C118.365 86.4751 118.416 86.1899 118.517 85.9385C118.619 85.6872 118.761 85.4684 118.946 85.2847C119.129 85.1011 119.343 84.9591 119.585 84.8614C119.827 84.7637 120.093 84.7142 120.381 84.7142C120.669 84.7142 120.936 84.7637 121.182 84.8614C121.427 84.9591 121.64 85.1011 121.822 85.2847C122.003 85.4684 122.143 85.6872 122.245 85.9385C122.346 86.1899 122.397 86.4699 122.397 86.776C122.397 87.0821 122.346 87.3621 122.245 87.6135C122.143 87.8648 122.001 88.0836 121.816 88.2673C121.633 88.4509 121.419 88.5929 121.177 88.6906C120.935 88.7883 120.669 88.8378 120.381 88.8378Z" fill="white" stroke="#3A7AF3" stroke-width="0.260487" stroke-miterlimit="10"/>
<path d="M126.521 87.6499H129.505V86.453H126.521V84.7507H129.901V83.5538H125.029V89.9982H126.521V87.6499Z" fill="white" stroke="#3A7AF3" stroke-width="0.260487" stroke-miterlimit="10"/>
<path d="M132.294 89.9982H133.786V84.7689H135.847V83.5538H130.231V84.7689H132.294V89.9982Z" fill="white" stroke="#3A7AF3" stroke-width="0.260487" stroke-miterlimit="10"/>
<path d="M139.678 89.9982L141.139 85.6311L142.56 89.9982H144.162L146.27 83.5538H144.843L143.342 88.1175L141.869 83.5538H140.488L138.968 88.0836L137.515 83.5538H135.967L138.076 89.9982H139.678Z" fill="white" stroke="#3A7AF3" stroke-width="0.260487" stroke-miterlimit="10"/>
<path d="M147.568 89.9982L148.142 88.6176H151.13L151.702 89.9982H153.268L150.385 83.5538H148.912L146.04 89.9982H147.568ZM149.639 85.0177L150.66 87.4845H148.613L149.639 85.0177Z" fill="white" stroke="#3A7AF3" stroke-width="0.260487" stroke-miterlimit="10"/>
<path d="M158.208 87.9313C158.208 87.9313 158.217 87.9274 158.221 87.9261C158.637 87.7424 158.96 87.4767 159.187 87.1303C159.414 86.7838 159.528 86.3709 159.528 85.8916C159.528 85.4123 159.415 84.9891 159.187 84.64C158.96 84.2896 158.637 84.0213 158.221 83.8338C157.803 83.6462 157.306 83.5525 156.729 83.5525H153.94V89.9969H155.431V88.2022H156.729C156.753 88.2022 156.775 88.2022 156.798 88.2009L158.037 89.9982H159.648L158.208 87.9313ZM157.678 85.0633C157.904 85.26 158.019 85.5361 158.019 85.8916C158.019 86.2472 157.905 86.5168 157.678 86.7161C157.451 86.9154 157.107 87.0156 156.646 87.0156H155.431V84.7689H156.646C157.106 84.7689 157.45 84.8666 157.678 85.0633Z" fill="white" stroke="#3A7AF3" stroke-width="0.260487" stroke-miterlimit="10"/>
<path d="M165.697 88.8013H162.189V87.31H165.181V86.1495H162.189V84.7507H165.577V83.5538H160.707V89.9982H165.697V88.8013Z" fill="white" stroke="#3A7AF3" stroke-width="0.260487" stroke-miterlimit="10"/>
<path d="M42.1815 95.0022C41.6475 94.7352 41.0302 94.601 40.3308 94.601H37.4029V101.045H40.3308C41.0302 101.045 41.6475 100.913 42.1815 100.644C42.7155 100.377 43.1323 100.004 43.4332 99.5216C43.734 99.0397 43.8838 98.4732 43.8838 97.8233C43.8838 97.1733 43.7327 96.599 43.4332 96.1197C43.1323 95.6404 42.7155 95.2679 42.1815 95.0009V95.0022ZM42.1125 98.8834C41.938 99.1843 41.6918 99.4161 41.3753 99.5789C41.0588 99.7417 40.6863 99.8225 40.2565 99.8225H38.8942V95.8266H40.2565C40.6863 95.8266 41.0588 95.9074 41.3753 96.0702C41.6918 96.233 41.9367 96.4635 42.1125 96.7605C42.287 97.0587 42.3743 97.413 42.3743 97.8246C42.3743 98.2361 42.287 98.5826 42.1125 98.8834Z" fill="white" stroke="#3A7AF3" stroke-width="0.260487" stroke-miterlimit="10"/>
<path d="M46.49 98.3585H49.483V97.1981H46.49V95.7993H49.8789V94.601H45.0078V101.047H49.9974V99.8498H46.49V98.3585Z" fill="white" stroke="#3A7AF3" stroke-width="0.260487" stroke-miterlimit="10"/>
<path d="M53.8175 99.2051L51.8573 94.601H50.2462L53.0269 101.047H54.5L57.2898 94.601H55.8076L53.8175 99.2051Z" fill="white" stroke="#3A7AF3" stroke-width="0.260487" stroke-miterlimit="10"/>
<path d="M59.3059 98.3585H62.2989V97.1981H59.3059V95.7993H62.6949V94.601H57.8238V101.047H62.8147V99.8498H59.3059V98.3585Z" fill="white" stroke="#3A7AF3" stroke-width="0.260487" stroke-miterlimit="10"/>
<path d="M65.4938 94.601H64.0012V101.047H68.7252V99.8316H65.4938V94.601Z" fill="white" stroke="#3A7AF3" stroke-width="0.260487" stroke-miterlimit="10"/>
<path d="M75.0915 95.4398C74.775 95.1389 74.4038 94.9058 73.9779 94.7404C73.5507 94.575 73.0831 94.4916 72.5738 94.4916C72.0646 94.4916 71.6035 94.575 71.1737 94.7404C70.7439 94.9058 70.3701 95.1389 70.051 95.4398C69.7319 95.7407 69.4845 96.0936 69.3099 96.4987C69.1354 96.9037 69.0482 97.3453 69.0482 97.8246C69.0482 98.3039 69.1354 98.7454 69.3099 99.1504C69.4845 99.5555 69.7306 99.9085 70.0471 100.209C70.3636 100.51 70.7374 100.743 71.1698 100.909C71.6022 101.074 72.0737 101.157 72.583 101.157C73.0922 101.157 73.5507 101.074 73.9779 100.909C74.4038 100.743 74.7763 100.511 75.0915 100.213C75.4079 99.915 75.6541 99.5633 75.8325 99.1543C76.011 98.7467 76.0995 98.3026 76.0995 97.8246C76.0995 97.3466 76.011 96.8959 75.8325 96.4948C75.6541 96.0923 75.4079 95.742 75.0915 95.4411V95.4398ZM74.4376 98.662C74.336 98.9134 74.1941 99.1322 74.0091 99.3158C73.8255 99.4995 73.6119 99.6414 73.3696 99.7391C73.1274 99.8368 72.8617 99.8863 72.5738 99.8863C72.286 99.8863 72.0177 99.8368 71.7729 99.7391C71.5267 99.6414 71.3144 99.4995 71.1334 99.3158C70.9523 99.1322 70.8117 98.9121 70.7101 98.6581C70.6085 98.4028 70.5577 98.1254 70.5577 97.8246C70.5577 97.5237 70.6085 97.2385 70.7101 96.9871C70.8117 96.7357 70.9536 96.5169 71.1386 96.3333C71.3222 96.1496 71.5358 96.0077 71.7781 95.91C72.0203 95.8123 72.286 95.7628 72.5738 95.7628C72.8617 95.7628 73.1287 95.8123 73.3748 95.91C73.6197 96.0077 73.8333 96.1496 74.0143 96.3333C74.1954 96.5169 74.336 96.7357 74.4376 96.9871C74.5392 97.2385 74.59 97.5185 74.59 97.8246C74.59 98.1306 74.5392 98.4107 74.4376 98.662Z" fill="white" stroke="#3A7AF3" stroke-width="0.260487" stroke-miterlimit="10"/>
<path d="M81.5046 94.8824C81.0866 94.6948 80.5903 94.601 80.0134 94.601H77.2235V101.045H78.7148V99.2689H80.0134C80.5903 99.2689 81.0879 99.1752 81.5046 98.9876C81.9214 98.8001 82.2444 98.5318 82.471 98.1814C82.6977 97.8311 82.8123 97.4169 82.8123 96.9389C82.8123 96.4609 82.699 96.0363 82.471 95.6873C82.2444 95.3369 81.9214 95.0686 81.5046 94.881V94.8824ZM80.9615 97.7594C80.7349 97.9561 80.3911 98.0538 79.93 98.0538H78.7148V95.8162H79.93C80.3898 95.8162 80.7336 95.9139 80.9615 96.1105C81.1881 96.3072 81.3028 96.5833 81.3028 96.9389C81.3028 97.2945 81.1895 97.5615 80.9615 97.7581V97.7594Z" fill="white" stroke="#3A7AF3" stroke-width="0.260487" stroke-miterlimit="10"/>
<path d="M89.891 94.601L87.518 98.6034L85.1046 94.601H83.8699V101.047H85.27V97.2619L87.1572 100.366H87.8293L89.7269 97.1785L89.7347 101.047H91.1348L91.1166 94.601H89.891Z" fill="white" stroke="#3A7AF3" stroke-width="0.260487" stroke-miterlimit="10"/>
<path d="M94.1448 98.3585H97.1378V97.1981H94.1448V95.7993H97.5337V94.601H92.6626V101.047H97.6535V99.8498H94.1448V98.3585Z" fill="white" stroke="#3A7AF3" stroke-width="0.260487" stroke-miterlimit="10"/>
<path d="M103.279 98.5122L100.075 94.601H98.8414V101.047H100.314V97.1343L103.528 101.047H104.752V94.601H103.279V98.5122Z" fill="white" stroke="#3A7AF3" stroke-width="0.260487" stroke-miterlimit="10"/>
<path d="M105.553 95.8175H107.615V101.047H109.106V95.8175H111.169V94.601H105.553V95.8175Z" fill="white" stroke="#3A7AF3" stroke-width="0.260487" stroke-miterlimit="10"/>
<path d="M116.26 96.332C116.444 96.1483 116.663 96.0063 116.914 95.9087C117.165 95.811 117.441 95.7615 117.742 95.7615C118.061 95.7615 118.356 95.824 118.627 95.9503C118.896 96.0767 119.142 96.2655 119.364 96.5169L120.321 95.6325C120.014 95.2587 119.635 94.9748 119.184 94.7808C118.733 94.5867 118.228 94.4903 117.669 94.4903C117.167 94.4903 116.703 94.5711 116.28 94.7339C115.856 94.8967 115.486 95.1285 115.17 95.4294C114.853 95.7302 114.609 96.0832 114.433 96.4882C114.258 96.8933 114.171 97.3387 114.171 97.8232C114.171 98.3078 114.258 98.7532 114.433 99.1582C114.607 99.5633 114.852 99.9163 115.165 100.217C115.477 100.518 115.847 100.75 116.274 100.913C116.702 101.075 117.163 101.156 117.66 101.156C118.225 101.156 118.732 101.058 119.184 100.862C119.635 100.665 120.014 100.38 120.321 100.006L119.364 99.1218C119.142 99.3797 118.898 99.5711 118.627 99.6974C118.357 99.8238 118.061 99.8863 117.742 99.8863C117.441 99.8863 117.165 99.8368 116.914 99.7391C116.663 99.6414 116.444 99.4995 116.26 99.3158C116.076 99.1322 115.933 98.9134 115.832 98.662C115.73 98.4106 115.679 98.1306 115.679 97.8245C115.679 97.5185 115.73 97.2384 115.832 96.9871C115.933 96.7357 116.075 96.5169 116.26 96.3333V96.332Z" fill="white" stroke="#3A7AF3" stroke-width="0.260487" stroke-miterlimit="10"/>
<path d="M126.825 95.4398C126.509 95.1389 126.138 94.9058 125.712 94.7404C125.285 94.575 124.817 94.4916 124.308 94.4916C123.799 94.4916 123.338 94.575 122.909 94.7404C122.479 94.9058 122.105 95.1389 121.786 95.4398C121.467 95.7407 121.22 96.0936 121.045 96.4987C120.871 96.9037 120.783 97.3453 120.783 97.8246C120.783 98.3039 120.871 98.7454 121.045 99.1504C121.22 99.5555 121.466 99.9085 121.782 100.209C122.099 100.51 122.473 100.743 122.905 100.909C123.338 101.074 123.809 101.157 124.318 101.157C124.828 101.157 125.286 101.074 125.713 100.909C126.14 100.743 126.512 100.511 126.827 100.213C127.143 99.915 127.389 99.5633 127.568 99.1543C127.746 98.7467 127.835 98.3026 127.835 97.8246C127.835 97.3466 127.746 96.8959 127.568 96.4948C127.389 96.0923 127.143 95.742 126.827 95.4411L126.825 95.4398ZM126.172 98.662C126.07 98.9134 125.928 99.1322 125.743 99.3158C125.559 99.4995 125.346 99.6414 125.104 99.7391C124.861 99.8368 124.596 99.8863 124.308 99.8863C124.02 99.8863 123.752 99.8368 123.507 99.7391C123.261 99.6414 123.048 99.4995 122.867 99.3158C122.686 99.1322 122.546 98.9121 122.444 98.6581C122.342 98.4028 122.292 98.1254 122.292 97.8246C122.292 97.5237 122.342 97.2385 122.444 96.9871C122.546 96.7357 122.688 96.5169 122.873 96.3333C123.058 96.1496 123.27 96.0077 123.512 95.91C123.754 95.8123 124.02 95.7628 124.308 95.7628C124.596 95.7628 124.863 95.8123 125.109 95.91C125.354 96.0077 125.567 96.1496 125.748 96.3333C125.929 96.5169 126.07 96.7357 126.172 96.9871C126.273 97.2385 126.324 97.5185 126.324 97.8246C126.324 98.1306 126.273 98.4107 126.172 98.662Z" fill="white" stroke="#3A7AF3" stroke-width="0.260487" stroke-miterlimit="10"/>
<path d="M134.977 94.601L132.604 98.6034L130.191 94.601H128.956V101.047H130.356V97.2619L132.244 100.366H132.916L134.813 97.1785L134.821 101.047H136.221L136.203 94.601H134.977Z" fill="white" stroke="#3A7AF3" stroke-width="0.260487" stroke-miterlimit="10"/>
<path d="M142.996 95.6886C142.77 95.3382 142.447 95.0699 142.03 94.8824C141.612 94.6948 141.116 94.601 140.539 94.601H137.749V101.045H139.24V99.2689H140.539C141.116 99.2689 141.613 99.1752 142.03 98.9876C142.447 98.8001 142.77 98.5318 142.996 98.1814C143.223 97.8311 143.338 97.4169 143.338 96.9389C143.338 96.4609 143.224 96.0363 142.996 95.6873V95.6886ZM141.487 97.7594C141.26 97.9561 140.916 98.0538 140.455 98.0538H139.24V95.8162H140.455C140.915 95.8162 141.259 95.9139 141.487 96.1105C141.714 96.3072 141.828 96.5833 141.828 96.9389C141.828 97.2945 141.715 97.5615 141.487 97.7581V97.7594Z" fill="white" stroke="#3A7AF3" stroke-width="0.260487" stroke-miterlimit="10"/>
<path d="M146.1 94.601L143.228 101.045H144.756L145.33 99.6649H148.318L148.89 101.045H150.456L147.573 94.601H146.1ZM145.802 98.5331L146.828 96.0663L147.849 98.5331H145.802Z" fill="white" stroke="#3A7AF3" stroke-width="0.260487" stroke-miterlimit="10"/>
<path d="M155.565 98.5122L152.361 94.601H151.126V101.047H152.599V97.1343L155.812 101.047H157.038V94.601H155.565V98.5122Z" fill="white" stroke="#3A7AF3" stroke-width="0.260487" stroke-miterlimit="10"/>
<path d="M160.057 94.601H158.566V101.045H160.057V94.601Z" fill="white" stroke="#3A7AF3" stroke-width="0.260487" stroke-miterlimit="10"/>
<path d="M163.068 98.3585H166.06V97.1981H163.068V95.7993H166.456V94.601H161.586V101.047H166.576V99.8498H163.068V98.3585Z" fill="white" stroke="#3A7AF3" stroke-width="0.260487" stroke-miterlimit="10"/>
<path d="M172.408 98.3208C172.27 98.0994 172.09 97.9222 171.869 97.7868C171.647 97.6513 171.404 97.5445 171.137 97.4651C170.87 97.3856 170.603 97.314 170.336 97.2528C170.069 97.1916 169.825 97.1303 169.604 97.0691C169.382 97.0079 169.205 96.9259 169.07 96.8256C168.934 96.724 168.867 96.5911 168.867 96.4244C168.867 96.2838 168.907 96.1587 168.987 96.0519C169.066 95.9451 169.199 95.8566 169.382 95.7888C169.566 95.7211 169.803 95.6872 170.091 95.6872C170.379 95.6872 170.675 95.7289 170.975 95.811C171.276 95.8943 171.577 96.022 171.878 96.1926L172.338 95.0595C172.037 94.8693 171.69 94.7261 171.297 94.631C170.904 94.5359 170.505 94.4877 170.1 94.4877C169.492 94.4877 168.988 94.5789 168.585 94.7599C168.183 94.941 167.882 95.1832 167.683 95.4867C167.484 95.7901 167.383 96.1262 167.383 96.4948C167.383 96.8386 167.452 97.1212 167.59 97.3413C167.728 97.5628 167.908 97.7399 168.13 97.8753C168.351 98.0108 168.595 98.1202 168.862 98.2062C169.129 98.2921 169.396 98.3637 169.663 98.4224C169.93 98.481 170.173 98.5422 170.394 98.606C170.616 98.6711 170.793 98.7532 170.928 98.8548C171.064 98.9564 171.13 99.0931 171.13 99.265C171.13 99.4005 171.087 99.5203 171.001 99.6245C170.915 99.7287 170.783 99.8108 170.6 99.8681C170.419 99.9267 170.181 99.9553 169.887 99.9553C169.5 99.9553 169.118 99.8928 168.74 99.7665C168.363 99.6401 168.036 99.4799 167.76 99.2833L167.253 100.406C167.541 100.627 167.922 100.806 168.395 100.945C168.868 101.083 169.362 101.152 169.877 101.152C170.491 101.152 170.999 101.06 171.401 100.876C171.804 100.693 172.106 100.45 172.308 100.149C172.511 99.8485 172.611 99.5177 172.611 99.1556C172.611 98.8183 172.542 98.5383 172.404 98.3182L172.408 98.3208Z" fill="white" stroke="#3A7AF3" stroke-width="0.260487" stroke-miterlimit="10"/>
<path d="M102.707 29.7867C102.707 29.7867 101.259 29.6421 101.259 30.9159V36.6193H110.756V38.3281C110.756 38.3281 110.785 39.1681 109.887 39.1681H101.259V46.5803H111.625C111.625 46.5803 117.908 45.6243 117.965 39.1681V29.7867H102.707ZM98.9716 20.6957C92.1963 22.2886 92.0518 27.8474 92.0518 27.8474V46.6089H99.2321V29.5262C99.2321 28.0779 100.68 27.8174 100.68 27.8174H117.647L117.676 20.6944H98.9716V20.6957Z" fill="#3A7AF3"/>
<path d="M150.909 63.0926C150.452 62.5963 149.783 62.2538 148.945 62.0441C148.086 61.8539 147.552 61.682 147.305 61.5296C147 61.3395 146.866 61.0334 146.866 60.6336C146.866 60.2337 147.018 59.8899 147.323 59.6802C147.571 59.5083 147.895 59.4132 148.296 59.4132C148.697 59.4132 149.135 59.5656 149.593 59.8899C149.783 60.0227 149.975 60.1764 150.147 60.347L151.272 59.1266C151.025 58.7646 150.624 58.4403 150.052 58.1355C149.48 57.8307 148.869 57.6783 148.202 57.6783C147.324 57.6783 146.563 57.9649 145.933 58.5366C145.304 59.1279 144.98 59.8339 144.98 60.7104C144.98 61.4163 145.132 61.9686 145.437 62.3879C145.704 62.75 146.124 63.0743 146.715 63.3791C146.81 63.4169 147.516 63.6461 148.794 64.0277C149.442 64.2179 149.767 64.5617 149.767 65.0762C149.767 65.5333 149.634 65.8772 149.347 66.1246C149.08 66.3721 148.699 66.5062 148.222 66.5062C147.535 66.5062 146.944 66.2588 146.448 65.743C146.371 65.6662 146.276 65.5529 146.181 65.3992L144.846 66.5818C145.132 67.0389 145.59 67.4401 146.2 67.7826C146.811 68.1265 147.478 68.2971 148.222 68.2971C149.213 68.2971 150.034 68.0105 150.682 67.401C151.331 66.8097 151.655 66.0465 151.655 65.1126C151.655 64.2739 151.445 63.6253 150.911 63.0913L150.909 63.0926ZM142.327 58.9925C141.755 58.2488 140.897 57.8867 139.734 57.8867C138.513 57.8867 137.598 58.4012 136.949 59.4314C136.625 58.8596 136.32 58.4585 135.996 58.2488C135.614 58.0013 135.062 57.8867 134.318 57.8867C133.652 57.8867 133.06 58.116 132.544 58.5926C132.373 58.7646 132.163 59.012 131.973 59.3168V58.0196L130.199 58.3243V68.4508L132.163 68.1069V62.1196C132.163 61.471 132.277 60.937 132.507 60.5176C132.811 59.9459 133.288 59.6789 133.956 59.6789H134.146C134.623 59.6789 134.985 59.8313 135.272 60.1556C135.558 60.4799 135.691 60.937 135.691 61.5479V68.4703L137.578 68.1265V61.7003C137.578 61.3004 137.711 60.8993 137.94 60.5176C138.284 59.9641 138.779 59.6971 139.447 59.6971C140.001 59.6971 140.42 59.8495 140.705 60.136C140.991 60.4226 141.125 60.8993 141.125 61.5283V68.4312L143.012 68.1642V61.6612C143.012 60.4981 142.783 59.602 142.326 58.9912L142.327 58.9925ZM127.91 58.0013C127.281 58.0586 126.88 58.116 126.652 58.211C126.233 58.383 125.851 58.65 125.527 59.0316C125.298 59.4132 125.07 59.7753 124.841 60.1373V58.0391L123.086 58.3634V68.4508L124.973 68.146V63.4364C124.973 62.7122 125.145 62.0063 125.47 61.3577C125.756 60.8042 126.099 60.4239 126.5 60.2519C126.71 60.1373 126.9 60.0618 127.091 60.0423C127.281 60.0227 127.453 60.0045 127.645 60.0045C127.778 60.0045 127.892 60.0045 128.007 60.024L128.903 57.9649C128.865 57.9453 128.521 57.9649 127.912 58.0026L127.91 58.0013ZM118.472 58.3634V68.4325L120.36 68.1655V58.0782L118.472 58.3647V58.3634ZM119.52 54.0914L118.242 55.6739L119.463 57.2759L120.74 55.6739L119.52 54.0914ZM111.187 56.7223H116.488L116.088 54.8534H109.128V68.4495L111.187 68.1447V62.1756H115.307V60.3262H111.187V56.7223ZM104.666 54.8534V59.3728C104.551 59.24 104.456 59.1058 104.361 58.973C104.056 58.6682 103.712 58.4194 103.293 58.2293C102.721 57.9818 102.035 57.8477 101.234 57.8477C99.8416 57.8477 98.6981 58.3621 97.7447 59.4119C96.7913 60.4421 96.3146 61.7003 96.3146 63.1681C96.3146 64.6359 96.8108 65.8185 97.7642 66.8292C98.7176 67.8399 99.9002 68.3544 101.293 68.3544C101.959 68.3544 102.608 68.2215 103.219 67.935C103.619 67.7253 104 67.4778 104.344 67.1535L104.726 66.7146V68.4312L106.5 68.1642L106.557 54.5864L104.67 54.8534H104.666ZM103.77 65.6089C103.064 66.2379 102.263 66.5427 101.367 66.5427C100.471 66.5427 99.6892 66.2184 99.0979 65.5516C98.5066 64.8847 98.2018 64.0264 98.2018 62.9962C98.2018 62.0806 98.4884 61.2991 99.0601 60.67C99.671 60.0032 100.452 59.6789 101.444 59.6789C102.34 59.6789 103.121 60.0227 103.809 60.7273C104.495 61.4137 104.839 62.272 104.839 63.2827C104.839 64.1983 104.477 64.9798 103.771 65.6089H103.77ZM93.6055 59.3546C92.5949 58.3439 91.3172 57.8294 89.7347 57.8294C88.3242 57.8294 87.1025 58.3439 86.1113 59.4119C85.1202 60.4799 84.624 61.7198 84.624 63.1681C84.624 64.6164 85.1384 65.8759 86.1882 66.9061C87.2366 67.9363 88.4388 68.4508 89.8298 68.4508C91.3367 68.4508 92.5949 67.9168 93.6055 66.8683C94.6162 65.8198 95.1307 64.5799 95.1307 63.1499C95.1307 61.6247 94.6162 60.347 93.6055 59.3546ZM92.1755 65.5711C91.5269 66.2379 90.7649 66.5622 89.8676 66.5622C88.9142 66.5622 88.1132 66.2184 87.4841 65.5516C86.855 64.8847 86.5307 64.0837 86.5307 63.1486C86.5307 62.2134 86.855 61.4515 87.4841 60.7651C88.1327 60.0592 88.8946 59.7166 89.792 59.7166C90.7649 59.7166 91.5659 60.041 92.2132 60.7273C92.8619 61.3942 93.1862 62.2147 93.1862 63.1876C93.1862 64.0837 92.8619 64.8847 92.1755 65.5711ZM81.3054 59.3546C80.2947 58.3439 79.017 57.8294 77.4345 57.8294C76.024 57.8294 74.8023 58.3439 73.8111 59.4119C72.82 60.4799 72.3238 61.7198 72.3238 63.1681C72.3238 64.6164 72.8382 65.8759 73.888 66.9061C74.9365 67.9363 76.1386 68.4508 77.5296 68.4508C79.0365 68.4508 80.2947 67.9168 81.3054 66.8683C82.316 65.8198 82.8305 64.5799 82.8305 63.1499C82.8305 61.6247 82.316 60.347 81.3054 59.3546ZM79.8948 65.5711C79.2462 66.2379 78.4843 66.5622 77.5869 66.5622C76.6335 66.5622 75.8325 66.2184 75.2035 65.5516C74.5744 64.8847 74.2501 64.0837 74.2501 63.1486C74.2501 62.2134 74.5744 61.4515 75.2035 60.7651C75.8521 60.0592 76.614 59.7166 77.5114 59.7166C78.4843 59.7166 79.2853 60.041 79.9326 60.7273C80.5812 61.3942 80.9055 62.2147 80.9055 63.1876C80.9055 64.0837 80.5812 64.8847 79.8948 65.5711ZM64.8869 60.67L64.2956 62.5195H68.4334V65.4942C68.4334 65.4942 68.1469 65.7039 67.5946 66.1233C66.9278 66.5049 66.2792 66.7146 65.6501 66.7146C64.1249 66.7146 62.8655 66.2379 61.8743 65.3041C60.8832 64.3702 60.387 63.1876 60.387 61.7576C60.387 60.3275 60.8259 59.0876 61.6842 58.0391C62.5607 57.0089 63.6483 56.4944 64.9259 56.4944C65.6501 56.4944 66.2987 56.5895 66.89 56.7614C67.6715 56.9906 68.3579 57.3527 68.8736 57.8672L70.094 56.5127C69.3698 55.8458 68.492 55.3118 67.3862 54.968C66.5475 54.701 65.7269 54.5681 64.965 54.5681C63.1338 54.5681 61.5709 55.274 60.2932 56.6846C58.996 58.1147 58.3669 59.774 58.3669 61.7003C58.3669 63.6266 59.0728 65.3419 60.5029 66.6586C61.9134 67.9741 63.6873 68.6227 65.8233 68.6227C66.4524 68.6227 67.1388 68.4703 67.9215 68.146C68.4555 67.9168 69.0273 67.6315 69.6381 67.2499C69.8101 67.1549 70.0575 66.9829 70.3818 66.7732V60.6713H64.8895L64.8869 60.67Z" fill="#3A7AF3"/>
</svg>
