<svg width="210" height="140" viewBox="0 0 210 140" fill="none" xmlns="http://www.w3.org/2000/svg">
<g clip-path="url(#clip0_6936_10556)">
<path fill-rule="evenodd" clip-rule="evenodd" d="M46.4595 91.4163H23L31.2768 78.8857L23 65.6865H46.4595V91.4163Z" fill="url(#paint0_linear_6936_10556)"/>
<path fill-rule="evenodd" clip-rule="evenodd" d="M163 91.4163H186.459L178.182 78.8857L186.459 65.6865H163V91.4163Z" fill="url(#paint1_linear_6936_10556)"/>
<path d="M35.1079 83.8328L50.6971 92.4757L45.1655 78.4H35.1079V83.8328Z" fill="#D1B685"/>
<path d="M174.2 83.8328L158.611 92.4757L164.142 78.4H174.2V83.8328Z" fill="#A78557"/>
<g filter="url(#filter0_i_6936_10556)">
<path d="M168.297 34.985V104.985L105.123 140L41.9189 104.985V34.985L105.123 0L168.297 34.985Z" fill="#17313B"/>
</g>
<g filter="url(#filter1_i_6936_10556)">
<path d="M164.059 36.9759V103.327L104.898 136.519L45.7026 103.327V36.9759L104.898 3.78381L164.059 36.9759Z" fill="url(#paint2_radial_6936_10556)"/>
<path d="M164.059 36.9759V103.327L104.898 136.519L45.7026 103.327V36.9759L104.898 3.78381L164.059 36.9759Z" fill="url(#paint3_radial_6936_10556)"/>
</g>
<path fill-rule="evenodd" clip-rule="evenodd" d="M104.898 2.91614L164.816 36.5328V103.77L104.898 137.387L44.9458 103.77V36.5326L104.898 2.91614ZM46.4593 37.4192V102.884L104.898 135.651L163.303 102.884V37.4191L104.898 4.65146L46.4593 37.4192Z" fill="#6DCDA9"/>
<path fill-rule="evenodd" clip-rule="evenodd" d="M35.1079 83.8486C35.1079 83.9322 35.1757 84 35.2593 84H174.2C174.283 84 174.351 83.9322 174.351 83.8486V58.4216C174.351 58.3381 174.283 58.2703 174.2 58.2703H35.2593C35.1757 58.2703 35.1079 58.3381 35.1079 58.4216V83.8486Z" fill="url(#paint4_linear_6936_10556)"/>
<path d="M94.2864 31.6324H91.7134V45.7081H94.2864V31.6324Z" fill="white"/>
<path d="M102.837 41.4427C102.837 43.6443 100.822 43.8094 100.242 43.8094C98.8069 43.8094 98.4481 42.516 98.4481 41.7454V36.3243H96.4053V41.7454C96.4053 43.0938 96.8194 44.2222 97.5923 44.9927C98.2823 45.653 99.2486 46.0108 100.38 46.0108C101.264 46.0108 101.982 45.7357 102.837 45.2403V45.6256H105.184V36.3243H102.837V41.4427Z" fill="white"/>
<path d="M109.955 33.146H107.378V36.4374H105.94V38.2476H107.378V45.7082H109.955V38.2476H111.692V36.4374H109.955V33.146Z" fill="white"/>
<path d="M119.252 42.9892C118.703 43.4537 118.017 43.6997 117.304 43.6724C115.658 43.6724 114.423 42.4975 114.423 40.9127C114.423 39.3005 115.603 38.2076 117.304 38.2076C118.017 38.2076 118.731 38.4535 119.279 38.8906L119.636 39.1912L121.227 37.661L120.816 37.3058C119.855 36.4861 118.593 36.0216 117.276 36.0216C114.313 36.0216 112.146 38.0709 112.146 40.9127C112.146 43.7543 114.368 45.8582 117.276 45.8582C118.593 45.8856 119.855 45.4211 120.843 44.574L121.227 44.2188L119.608 42.6886L119.252 42.9892Z" fill="white"/>
<path d="M129.758 37.2847C129.07 36.6261 128.079 36.2694 126.951 36.2694C126.07 36.2694 125.135 36.5438 124.474 37.0377V31.6324H122.135V45.7081H124.474V40.8242C124.474 38.6291 126.346 38.4644 126.923 38.4644C128.327 38.4644 128.574 39.7541 128.574 40.5224V45.7081H130.914V40.5224C130.886 39.1505 130.556 38.0255 129.758 37.2847Z" fill="white"/>
<path d="M117.216 42.681C118.177 42.681 118.957 41.9356 118.957 41.0162C118.957 40.0967 118.177 39.3513 117.216 39.3513C116.255 39.3513 115.476 40.0967 115.476 41.0162C115.476 41.9356 116.255 42.681 117.216 42.681Z" fill="#FF3D2E"/>
<path d="M88.8768 42.4404C87.9678 43.3193 86.7281 43.8411 85.4333 43.8136C82.7609 43.8136 80.8325 41.8088 80.8325 39.0624C80.8325 36.3159 82.7609 34.2836 85.4333 34.2836C86.7281 34.2836 87.9678 34.7779 88.8493 35.6568L89.2075 36.0138L90.8054 34.4758L90.4473 34.1188C89.1249 32.8005 87.3066 32.0864 85.4057 32.0864C81.4936 32.0864 78.5459 35.08 78.5459 39.0624C78.5459 43.0446 81.4936 46.0107 85.4057 46.0107C87.3066 46.0107 89.1249 45.2967 90.4473 43.9784L90.8054 43.6214L89.2351 42.0559L88.8768 42.4404Z" fill="white"/>
<path d="M95.0137 102.011V93.4292H98.3298V94.2874H96.2109V97.1479H97.853V97.9955H96.2109V102.011H95.0137ZM99.5592 102.011L101.381 93.4292H102.536L104.369 102.011H103.236L102.844 99.8495H101.095L100.682 102.011H99.5592ZM101.254 98.9914H102.685L101.964 95.1243L101.254 98.9914ZM106.299 102.011V93.4292H107.497V101.153H109.69V102.011H106.299ZM111.57 102.011V93.4292H112.767V101.153H114.96V102.011H111.57Z" fill="white"/>
<path d="M94.9697 119.113V118.423L96.8404 115.508C96.9797 115.29 97.1068 115.088 97.2218 114.9C97.3429 114.712 97.4398 114.515 97.5124 114.31C97.5911 114.098 97.6305 113.856 97.6305 113.583C97.6305 113.244 97.576 112.978 97.467 112.784C97.3581 112.59 97.1673 112.493 96.8949 112.493C96.6649 112.493 96.4863 112.557 96.3591 112.684C96.232 112.811 96.1442 112.978 96.0958 113.184C96.0473 113.389 96.0231 113.61 96.0231 113.846V114.092H95.0515V113.837C95.0515 113.395 95.109 113.017 95.224 112.702C95.3451 112.381 95.5358 112.133 95.7961 111.958C96.0625 111.782 96.4136 111.694 96.8495 111.694C97.4428 111.694 97.8848 111.864 98.1753 112.203C98.4659 112.536 98.6112 112.999 98.6112 113.592C98.6112 113.907 98.5719 114.182 98.4932 114.419C98.4205 114.655 98.3237 114.876 98.2026 115.081C98.0815 115.287 97.9483 115.499 97.803 115.717L96.1139 118.296H98.4387V119.113H94.9697ZM102.194 119.195C101.776 119.195 101.431 119.101 101.159 118.914C100.892 118.726 100.693 118.469 100.559 118.142C100.432 117.815 100.369 117.443 100.369 117.025V113.856C100.369 113.426 100.432 113.05 100.559 112.729C100.687 112.403 100.883 112.148 101.15 111.967C101.422 111.785 101.77 111.694 102.194 111.694C102.618 111.694 102.963 111.785 103.229 111.967C103.496 112.148 103.692 112.403 103.82 112.729C103.947 113.05 104.01 113.426 104.01 113.856V117.025C104.01 117.449 103.944 117.824 103.81 118.151C103.683 118.478 103.487 118.735 103.22 118.923C102.954 119.104 102.612 119.195 102.194 119.195ZM102.194 118.396C102.424 118.396 102.597 118.329 102.712 118.196C102.833 118.063 102.914 117.894 102.957 117.688C103.005 117.476 103.029 117.258 103.029 117.034V113.846C103.029 113.61 103.008 113.389 102.966 113.184C102.924 112.972 102.842 112.802 102.721 112.675C102.606 112.548 102.43 112.484 102.194 112.484C101.958 112.484 101.779 112.548 101.658 112.675C101.537 112.802 101.455 112.972 101.413 113.184C101.371 113.389 101.349 113.61 101.349 113.846V117.034C101.349 117.258 101.371 117.476 101.413 117.688C101.461 117.894 101.546 118.063 101.667 118.196C101.794 118.329 101.97 118.396 102.194 118.396ZM105.814 119.113V118.423L107.684 115.508C107.824 115.29 107.951 115.088 108.066 114.9C108.187 114.712 108.284 114.515 108.356 114.31C108.435 114.098 108.475 113.856 108.475 113.583C108.475 113.244 108.42 112.978 108.311 112.784C108.202 112.59 108.011 112.493 107.739 112.493C107.509 112.493 107.33 112.557 107.203 112.684C107.076 112.811 106.988 112.978 106.94 113.184C106.891 113.389 106.867 113.61 106.867 113.846V114.092H105.895V113.837C105.895 113.395 105.953 113.017 106.068 112.702C106.189 112.381 106.38 112.133 106.64 111.958C106.906 111.782 107.258 111.694 107.694 111.694C108.287 111.694 108.729 111.864 109.019 112.203C109.31 112.536 109.455 112.999 109.455 113.592C109.455 113.907 109.416 114.182 109.337 114.419C109.265 114.655 109.168 114.876 109.047 115.081C108.926 115.287 108.792 115.499 108.647 115.717L106.958 118.296H109.283V119.113H105.814ZM112.847 119.195C112.448 119.195 112.115 119.12 111.849 118.968C111.582 118.817 111.382 118.599 111.249 118.314C111.116 118.03 111.049 117.694 111.049 117.306V117.061H112.012C112.012 117.085 112.012 117.113 112.012 117.143C112.012 117.167 112.012 117.194 112.012 117.225C112.018 117.443 112.042 117.639 112.085 117.815C112.133 117.99 112.215 118.13 112.33 118.233C112.451 118.336 112.623 118.387 112.847 118.387C113.084 118.387 113.262 118.332 113.383 118.224C113.504 118.108 113.586 117.948 113.628 117.742C113.671 117.536 113.692 117.3 113.692 117.034C113.692 116.646 113.619 116.332 113.474 116.089C113.335 115.841 113.087 115.705 112.729 115.681C112.711 115.675 112.687 115.672 112.657 115.672C112.633 115.672 112.611 115.672 112.593 115.672V114.7C112.611 114.7 112.633 114.7 112.657 114.7C112.681 114.7 112.702 114.7 112.72 114.7C113.065 114.688 113.314 114.597 113.465 114.428C113.616 114.258 113.692 113.977 113.692 113.583C113.692 113.25 113.635 112.984 113.519 112.784C113.411 112.584 113.19 112.484 112.857 112.484C112.524 112.484 112.303 112.596 112.194 112.82C112.085 113.038 112.024 113.32 112.012 113.665C112.012 113.689 112.012 113.716 112.012 113.747C112.012 113.771 112.012 113.795 112.012 113.819H111.049V113.574C111.049 113.18 111.116 112.844 111.249 112.566C111.382 112.288 111.582 112.073 111.849 111.921C112.121 111.77 112.457 111.694 112.857 111.694C113.262 111.694 113.598 111.77 113.865 111.921C114.131 112.073 114.331 112.291 114.464 112.575C114.597 112.854 114.664 113.19 114.664 113.583C114.664 114.025 114.567 114.379 114.373 114.646C114.185 114.912 113.931 115.094 113.61 115.19C113.834 115.257 114.022 115.372 114.173 115.536C114.331 115.699 114.452 115.908 114.537 116.162C114.621 116.41 114.664 116.701 114.664 117.034C114.664 117.47 114.603 117.851 114.482 118.178C114.361 118.499 114.167 118.75 113.901 118.932C113.635 119.107 113.283 119.195 112.847 119.195Z" fill="white"/>
<path d="M70.9643 78.2671C70.0483 78.2671 69.3279 78.087 68.803 77.7268C68.2884 77.3666 67.9282 76.8777 67.7223 76.2602C67.5165 75.6324 67.4136 74.912 67.4136 74.0989V69.6374C67.4136 68.7832 67.5165 68.0421 67.7223 67.4143C67.9282 66.7865 68.2884 66.3028 68.803 65.9632C69.3279 65.6236 70.0483 65.4537 70.9643 65.4537C71.8288 65.4537 72.5029 65.603 72.9866 65.9014C73.4806 66.1896 73.8306 66.6064 74.0364 67.1519C74.2422 67.6974 74.3452 68.3303 74.3452 69.0508V70.1005H72.153V69.0199C72.153 68.6699 72.1324 68.3509 72.0912 68.0627C72.0604 67.7746 71.9626 67.5481 71.7979 67.3835C71.6435 67.2085 71.3708 67.121 70.9797 67.121C70.5886 67.121 70.3004 67.2136 70.1152 67.3989C69.9402 67.5739 69.827 67.8157 69.7756 68.1245C69.7241 68.4229 69.6984 68.7626 69.6984 69.1434V74.5775C69.6984 75.0303 69.7344 75.406 69.8064 75.7045C69.8785 75.9926 70.0071 76.2139 70.1924 76.3683C70.3879 76.5124 70.6504 76.5844 70.9797 76.5844C71.3605 76.5844 71.6281 76.4969 71.7825 76.322C71.9472 76.1367 72.0501 75.8949 72.0912 75.5964C72.1324 75.2979 72.153 74.9634 72.153 74.5929V73.466H74.3452V74.4694C74.3452 75.2104 74.2474 75.8691 74.0518 76.4455C73.8563 77.0115 73.5115 77.4592 73.0175 77.7886C72.5338 78.1076 71.8494 78.2671 70.9643 78.2671ZM77.5105 78.0973V65.5927H79.7799V70.8261H82.3271V65.5927H84.6119V78.0973H82.3271V72.4471H79.7799V78.0973H77.5105ZM87.4361 78.0973L89.9371 65.5927H92.3763L94.8772 78.0973H92.7622L92.2682 75.2104H90.0915L89.582 78.0973H87.4361ZM90.323 73.7593H92.0212L91.1721 68.5104L90.323 73.7593ZM97.6477 78.0973L97.8638 65.5927H100.226L102.001 74.2533L103.854 65.5927H106.138L106.37 78.0973H104.672L104.487 69.4058L102.711 78.0973H101.337L99.5311 69.3749L99.3613 78.0973H97.6477ZM109.76 78.0973V65.5927H113.435C114.186 65.5927 114.793 65.7316 115.256 66.0095C115.73 66.2874 116.075 66.6939 116.291 67.2291C116.517 67.754 116.63 68.3921 116.63 69.1434C116.63 69.9564 116.491 70.6151 116.213 71.1194C115.936 71.6134 115.545 71.9736 115.04 72.2001C114.546 72.4265 113.96 72.5397 113.28 72.5397H112.045V78.0973H109.76ZM112.045 70.9342H112.91C113.321 70.9342 113.641 70.8776 113.867 70.7643C114.104 70.6408 114.263 70.4504 114.346 70.1932C114.438 69.9256 114.484 69.5705 114.484 69.1279C114.484 68.6751 114.448 68.3097 114.376 68.0319C114.315 67.7437 114.171 67.5327 113.944 67.3989C113.728 67.2651 113.383 67.1982 112.91 67.1982H112.045V70.9342ZM119.507 78.0973V65.5927H121.761V78.0973H119.507ZM128.637 78.2671C127.752 78.2671 127.047 78.1025 126.522 77.7731C125.997 77.4438 125.621 76.9704 125.395 76.3528C125.168 75.7353 125.055 75.0046 125.055 74.1607V69.483C125.055 68.6391 125.168 67.9186 125.395 67.3217C125.621 66.7145 125.997 66.2514 126.522 65.9323C127.047 65.6133 127.752 65.4537 128.637 65.4537C129.543 65.4537 130.253 65.6133 130.767 65.9323C131.292 66.2514 131.668 66.7145 131.894 67.3217C132.131 67.9186 132.249 68.6391 132.249 69.483V74.1761C132.249 75.0098 132.131 75.7353 131.894 76.3528C131.668 76.9601 131.292 77.4335 130.767 77.7731C130.253 78.1025 129.543 78.2671 128.637 78.2671ZM128.637 76.5844C129.018 76.5844 129.296 76.5021 129.471 76.3374C129.656 76.1727 129.779 75.9463 129.841 75.6581C129.903 75.37 129.934 75.0561 129.934 74.7164V68.9581C129.934 68.6082 129.903 68.2943 129.841 68.0164C129.779 67.7385 129.656 67.5224 129.471 67.368C129.296 67.2034 129.018 67.121 128.637 67.121C128.277 67.121 128.004 67.2034 127.819 67.368C127.633 67.5224 127.51 67.7385 127.448 68.0164C127.386 68.2943 127.356 68.6082 127.356 68.9581V74.7164C127.356 75.0561 127.381 75.37 127.433 75.6581C127.494 75.9463 127.618 76.1727 127.803 76.3374C127.988 76.5021 128.266 76.5844 128.637 76.5844ZM135.483 78.0973V65.5927H137.073L140.115 72.725V65.5927H141.998V78.0973H140.485L137.428 70.6254V78.0973H135.483Z" fill="white"/>
</g>
<defs>
<filter id="filter0_i_6936_10556" x="41.9189" y="0" width="126.378" height="144" filterUnits="userSpaceOnUse" color-interpolation-filters="sRGB">
<feFlood flood-opacity="0" result="BackgroundImageFix"/>
<feBlend mode="normal" in="SourceGraphic" in2="BackgroundImageFix" result="shape"/>
<feColorMatrix in="SourceAlpha" type="matrix" values="0 0 0 0 0 0 0 0 0 0 0 0 0 0 0 0 0 0 127 0" result="hardAlpha"/>
<feOffset dy="4"/>
<feGaussianBlur stdDeviation="2"/>
<feComposite in2="hardAlpha" operator="arithmetic" k2="-1" k3="1"/>
<feColorMatrix type="matrix" values="0 0 0 0 0 0 0 0 0 0 0 0 0 0 0 0 0 0 0.1 0"/>
<feBlend mode="normal" in2="shape" result="effect1_innerShadow_6936_10556"/>
</filter>
<filter id="filter1_i_6936_10556" x="45.7026" y="3.78381" width="118.357" height="136.735" filterUnits="userSpaceOnUse" color-interpolation-filters="sRGB">
<feFlood flood-opacity="0" result="BackgroundImageFix"/>
<feBlend mode="normal" in="SourceGraphic" in2="BackgroundImageFix" result="shape"/>
<feColorMatrix in="SourceAlpha" type="matrix" values="0 0 0 0 0 0 0 0 0 0 0 0 0 0 0 0 0 0 127 0" result="hardAlpha"/>
<feOffset dy="4"/>
<feGaussianBlur stdDeviation="2"/>
<feComposite in2="hardAlpha" operator="arithmetic" k2="-1" k3="1"/>
<feColorMatrix type="matrix" values="0 0 0 0 0 0 0 0 0 0 0 0 0 0 0 0 0 0 0.07 0"/>
<feBlend mode="normal" in2="shape" result="effect1_innerShadow_6936_10556"/>
</filter>
<linearGradient id="paint0_linear_6936_10556" x1="23.9775" y1="31.0372" x2="70.4256" y2="71.1603" gradientUnits="userSpaceOnUse">
<stop stop-color="#D2AE73"/>
<stop offset="0.1231" stop-color="#BD9155"/>
<stop offset="0.3174" stop-color="#F9E2B2"/>
<stop offset="0.9689" stop-color="#BD9155"/>
</linearGradient>
<linearGradient id="paint1_linear_6936_10556" x1="185.482" y1="31.0372" x2="139.034" y2="71.1603" gradientUnits="userSpaceOnUse">
<stop stop-color="#D2AE73"/>
<stop offset="0.1231" stop-color="#BD9155"/>
<stop offset="0.3174" stop-color="#F9E2B2"/>
<stop offset="0.9689" stop-color="#BD9155"/>
</linearGradient>
<radialGradient id="paint2_radial_6936_10556" cx="0" cy="0" r="1" gradientUnits="userSpaceOnUse" gradientTransform="translate(161.484 3.78381) rotate(131.097) scale(176.137 354.085)">
<stop stop-color="#17313B"/>
<stop offset="1" stop-color="#2E5272"/>
</radialGradient>
<radialGradient id="paint3_radial_6936_10556" cx="0" cy="0" r="1" gradientUnits="userSpaceOnUse" gradientTransform="translate(161.484 3.78381) rotate(131.097) scale(176.137 354.085)">
<stop stop-color="#17313B"/>
<stop offset="1" stop-color="#2E5272"/>
</radialGradient>
<linearGradient id="paint4_linear_6936_10556" x1="40.9097" y1="23.6209" x2="58.5513" y2="114.074" gradientUnits="userSpaceOnUse">
<stop stop-color="#D2AE73"/>
<stop offset="0.1231" stop-color="#BD9155"/>
<stop offset="0.3174" stop-color="#F9E2B2"/>
<stop offset="0.9689" stop-color="#BD9155"/>
</linearGradient>
<clipPath id="clip0_6936_10556">
<rect width="163.459" height="140" fill="white" transform="translate(23)"/>
</clipPath>
</defs>
</svg>
