<svg width="210" height="140" viewBox="0 0 210 140" fill="none" xmlns="http://www.w3.org/2000/svg">
<g clip-path="url(#clip0_6936_10498)">
<mask id="mask0_6936_10498" style="mask-type:luminance" maskUnits="userSpaceOnUse" x="15" y="-20" width="179" height="179">
<path d="M15.9736 -19.4863H193.974V158.514H15.9736V-19.4863Z" fill="white"/>
</mask>
<g mask="url(#mask0_6936_10498)">
<path d="M18.8555 64.0753H39.2508V91.4754H18.8555L27.9154 77.7756L18.8555 64.0753Z" fill="#CAE0E7"/>
<path d="M191.09 64.0753H170.695V91.4754H191.09L182.03 77.7756L191.09 64.0753Z" fill="#CAE0E7"/>
<path d="M190.36 64.0753H169.965V91.4754H190.36L181.3 77.7756L190.36 64.0753Z" fill="#CAE0E7"/>
<path d="M178.424 83.5753L169.785 87.0516V83.5699L178.424 83.5753Z" fill="#72909A"/>
<path d="M17.8564 64.0753H38.2517V91.4754H17.8564L26.9163 77.7756L17.8564 64.0753Z" fill="#CAE0E7"/>
<path d="M29.9932 83.5665L38.6325 87.042V83.5603L29.9932 83.5665Z" fill="#72909A"/>
<path d="M104.29 0.242981C66.0303 0.242981 35.0145 31.2588 35.0145 69.5187C35.0145 107.779 66.0303 138.794 104.29 138.794C142.55 138.794 173.566 107.779 173.566 69.5187C173.566 31.2588 142.55 0.242981 104.29 0.242981Z" fill="#17313B"/>
<path d="M104.322 6.714C69.6363 6.714 41.5177 34.8326 41.5177 69.5186C41.5177 104.205 69.6363 132.323 104.322 132.323C139.008 132.323 167.127 104.205 167.127 69.5186C167.127 34.8326 139.008 6.714 104.322 6.714Z" fill="#17313B"/>
<path d="M98.6212 117.488V118.383H94.7933V117.611L96.6067 115.258C96.8047 114.994 96.9569 114.765 97.0635 114.574C97.1731 114.379 97.2493 114.203 97.2919 114.048C97.3346 113.893 97.3558 113.741 97.3558 113.591C97.3558 113.384 97.3269 113.201 97.2691 113.043C97.2142 112.884 97.132 112.762 97.0224 112.674C96.9128 112.582 96.7788 112.537 96.6204 112.537C96.4225 112.537 96.2596 112.589 96.1317 112.696C96.0038 112.8 95.9094 112.944 95.8484 113.13C95.7876 113.313 95.7571 113.523 95.7571 113.76H94.6929C94.6929 113.37 94.7675 113.015 94.9167 112.696C95.0689 112.374 95.2897 112.117 95.579 111.929C95.8683 111.736 96.22 111.641 96.6341 111.641C97.0178 111.641 97.3421 111.715 97.6071 111.865C97.8751 112.014 98.0775 112.227 98.2146 112.504C98.3547 112.779 98.4247 113.103 98.4247 113.477C98.4247 113.685 98.3958 113.891 98.338 114.098C98.2831 114.302 98.2054 114.505 98.105 114.705C98.0045 114.907 97.8826 115.109 97.7395 115.313C97.5994 115.517 97.4456 115.724 97.2782 115.935L96.1271 117.488H98.6212ZM103.47 114.5V115.587C103.47 116.108 103.425 116.553 103.337 116.922C103.249 117.286 103.122 117.584 102.958 117.812C102.793 118.04 102.599 118.208 102.373 118.314C102.148 118.421 101.895 118.475 101.615 118.475C101.396 118.475 101.19 118.441 100.998 118.374C100.807 118.306 100.633 118.201 100.478 118.059C100.325 117.916 100.194 117.731 100.085 117.506C99.9752 117.278 99.8914 117.005 99.8336 116.688C99.7757 116.372 99.7468 116.005 99.7468 115.587V114.5C99.7468 113.977 99.7925 113.535 99.8838 113.176C99.9752 112.813 100.103 112.52 100.267 112.294C100.432 112.066 100.627 111.899 100.852 111.796C101.081 111.693 101.333 111.641 101.61 111.641C101.83 111.641 102.035 111.674 102.227 111.742C102.419 111.805 102.591 111.907 102.743 112.047C102.895 112.188 103.026 112.37 103.136 112.595C103.246 112.818 103.328 113.087 103.383 113.404C103.441 113.718 103.47 114.083 103.47 114.5ZM102.41 115.748V114.332C102.41 114.069 102.398 113.838 102.373 113.637C102.349 113.436 102.315 113.265 102.273 113.126C102.23 112.985 102.175 112.873 102.108 112.787C102.044 112.699 101.97 112.635 101.885 112.595C101.802 112.553 101.711 112.531 101.61 112.531C101.486 112.531 101.373 112.563 101.272 112.627C101.175 112.691 101.091 112.795 101.021 112.938C100.954 113.079 100.902 113.264 100.866 113.495C100.829 113.724 100.811 114.002 100.811 114.332V115.748C100.811 116.012 100.823 116.245 100.848 116.446C100.872 116.647 100.907 116.821 100.953 116.967C100.998 117.11 101.053 117.227 101.117 117.318C101.181 117.407 101.254 117.472 101.336 117.515C101.422 117.558 101.515 117.579 101.615 117.579C101.743 117.579 101.856 117.545 101.953 117.479C102.054 117.411 102.137 117.306 102.204 117.164C102.271 117.017 102.322 116.827 102.355 116.592C102.392 116.358 102.41 116.076 102.41 115.748ZM108.537 117.488V118.383H104.709V117.611L106.523 115.258C106.721 114.994 106.873 114.765 106.979 114.574C107.09 114.379 107.165 114.203 107.208 114.048C107.251 113.893 107.272 113.741 107.272 113.591C107.272 113.384 107.243 113.201 107.185 113.043C107.131 112.884 107.048 112.762 106.938 112.674C106.829 112.582 106.694 112.537 106.537 112.537C106.338 112.537 106.176 112.589 106.047 112.696C105.92 112.8 105.826 112.944 105.764 113.13C105.704 113.313 105.674 113.523 105.674 113.76H104.609C104.609 113.37 104.683 113.015 104.833 112.696C104.985 112.374 105.205 112.117 105.495 111.929C105.784 111.736 106.136 111.641 106.55 111.641C106.934 111.641 107.258 111.715 107.523 111.865C107.791 112.014 107.994 112.227 108.131 112.504C108.271 112.779 108.341 113.103 108.341 113.477C108.341 113.685 108.312 113.891 108.254 114.098C108.199 114.302 108.121 114.505 108.021 114.705C107.921 114.907 107.799 115.109 107.656 115.313C107.516 115.517 107.362 115.724 107.195 115.935L106.043 117.488H108.537ZM110.768 114.551H111.339C111.534 114.551 111.694 114.508 111.819 114.422C111.946 114.334 112.041 114.214 112.102 114.062C112.163 113.906 112.194 113.73 112.194 113.532C112.194 113.325 112.164 113.147 112.107 112.998C112.051 112.848 111.968 112.734 111.856 112.655C111.746 112.576 111.605 112.537 111.435 112.537C111.289 112.537 111.158 112.574 111.042 112.65C110.926 112.723 110.836 112.83 110.768 112.97C110.704 113.107 110.673 113.27 110.673 113.459H109.608C109.608 113.105 109.686 112.792 109.841 112.518C109.996 112.244 110.209 112.029 110.48 111.873C110.755 111.715 111.067 111.637 111.417 111.637C111.779 111.637 112.098 111.708 112.372 111.851C112.649 111.994 112.865 112.205 113.021 112.486C113.178 112.766 113.257 113.113 113.257 113.527C113.257 113.719 113.221 113.912 113.148 114.107C113.075 114.302 112.965 114.48 112.819 114.642C112.676 114.801 112.495 114.928 112.276 115.026C112.059 115.123 111.804 115.172 111.508 115.172H110.768V114.551ZM110.768 115.427V114.816H111.513C111.851 114.816 112.136 114.861 112.367 114.953C112.601 115.041 112.788 115.166 112.929 115.327C113.072 115.485 113.175 115.668 113.239 115.875C113.304 116.08 113.336 116.294 113.336 116.519C113.336 116.83 113.287 117.107 113.189 117.351C113.094 117.591 112.959 117.796 112.783 117.967C112.606 118.135 112.402 118.261 112.171 118.346C111.939 118.432 111.686 118.475 111.412 118.475C111.166 118.475 110.931 118.435 110.709 118.355C110.487 118.276 110.288 118.159 110.115 118.004C109.945 117.845 109.809 117.649 109.709 117.415C109.611 117.177 109.562 116.901 109.562 116.588H110.622C110.622 116.783 110.656 116.954 110.723 117.104C110.789 117.254 110.883 117.37 111.001 117.456C111.123 117.537 111.265 117.579 111.426 117.579C111.599 117.579 111.749 117.537 111.873 117.456C112.002 117.374 112.099 117.254 112.166 117.095C112.236 116.937 112.271 116.744 112.271 116.519C112.271 116.266 112.233 116.059 112.157 115.898C112.083 115.737 111.978 115.618 111.841 115.542C111.704 115.465 111.539 115.427 111.344 115.427H110.768Z" fill="white"/>
<path d="M104.291 132.341C138.987 132.341 167.114 104.214 167.114 69.5186C167.114 34.8229 138.987 6.69641 104.291 6.69641C69.5957 6.69641 41.4692 34.8229 41.4692 69.5186C41.4692 104.214 69.5957 132.341 104.291 132.341Z" fill="#224957"/>
<path d="M104.291 132.341C138.987 132.341 167.114 104.214 167.114 69.5186C167.114 34.8229 138.987 6.69641 104.291 6.69641C69.5957 6.69641 41.4692 34.8229 41.4692 69.5186C41.4692 104.214 69.5957 132.341 104.291 132.341Z" fill="url(#paint0_linear_6936_10498)" fill-opacity="0.4"/>
<path fill-rule="evenodd" clip-rule="evenodd" d="M104.291 7.67516C70.1359 7.67516 42.4477 35.3633 42.4477 69.5183C42.4477 103.673 70.1359 131.361 104.291 131.361C138.446 131.361 166.134 103.673 166.134 69.5183C166.134 35.3633 138.446 7.67516 104.291 7.67516ZM40.4897 69.5183C40.4897 34.2819 69.0545 5.71716 104.291 5.71716C139.527 5.71716 168.092 34.2819 168.092 69.5183C168.092 104.755 139.527 133.319 104.291 133.319C69.0545 133.319 40.4897 104.755 40.4897 69.5183Z" fill="#D5B17A"/>
<path d="M90.96 76.6737H88.3245V66.3549L85.7539 67.3478V65.1578L90.6816 63.1441H90.96V76.6737ZM103.023 71.0881C103.023 72.9562 102.683 74.3855 102.003 75.3752C101.328 76.3649 100.363 76.8597 99.1073 76.8597C97.8638 76.8597 96.9018 76.38 96.2213 75.4215C95.5469 74.4558 95.1974 73.0763 95.1727 71.2821V68.7305C95.1727 66.8684 95.5098 65.4455 96.1842 64.4618C96.8585 63.472 97.8267 62.9771 99.0888 62.9771C100.351 62.9771 101.319 63.4657 101.993 64.4432C102.668 65.4207 103.011 66.8158 103.023 68.6285V71.0881ZM100.388 68.3501C100.388 67.286 100.283 66.4879 100.072 65.9559C99.8621 65.4238 99.5342 65.1578 99.0888 65.1578C98.2536 65.1578 97.8205 66.1322 97.7896 68.0809V71.4494C97.7896 72.5388 97.8948 73.3487 98.1051 73.8809C98.3216 74.4131 98.6557 74.6792 99.1073 74.6792C99.5342 74.6792 99.8497 74.4318 100.054 73.937C100.264 73.4359 100.376 72.6714 100.388 71.6443V68.3501ZM113.018 71.0881C113.018 72.9562 112.678 74.3855 111.997 75.3752C111.322 76.3649 110.357 76.8597 109.102 76.8597C107.858 76.8597 106.896 76.38 106.215 75.4215C105.541 74.4558 105.192 73.0763 105.167 71.2821V68.7305C105.167 66.8684 105.504 65.4455 106.178 64.4618C106.853 63.472 107.821 62.9771 109.083 62.9771C110.345 62.9771 111.313 63.4657 111.987 64.4432C112.662 65.4207 113.005 66.8158 113.018 68.6285V71.0881ZM110.382 68.3501C110.382 67.286 110.276 66.4879 110.066 65.9559C109.856 65.4238 109.528 65.1578 109.083 65.1578C108.247 65.1578 107.815 66.1322 107.784 68.0809V71.4494C107.784 72.5388 107.889 73.3487 108.099 73.8809C108.316 74.4131 108.65 74.6792 109.102 74.6792C109.528 74.6792 109.844 74.4318 110.048 73.937C110.259 73.4359 110.37 72.6714 110.382 71.6443V68.3501ZM123.011 71.0881C123.011 72.9562 122.671 74.3855 121.991 75.3752C121.316 76.3649 120.351 76.8597 119.095 76.8597C117.852 76.8597 116.89 76.38 116.209 75.4215C115.535 74.4558 115.186 73.0763 115.161 71.2821V68.7305C115.161 66.8684 115.498 65.4455 116.173 64.4618C116.846 63.472 117.815 62.9771 119.077 62.9771C120.339 62.9771 121.307 63.4657 121.982 64.4432C122.655 65.4207 122.999 66.8158 123.011 68.6285V71.0881ZM120.376 68.3501C120.376 67.286 120.271 66.4879 120.06 65.9559C119.85 65.4238 119.523 65.1578 119.077 65.1578C118.242 65.1578 117.808 66.1322 117.777 68.0809V71.4494C117.777 72.5388 117.883 73.3487 118.093 73.8809C118.31 74.4131 118.644 74.6792 119.095 74.6792C119.523 74.6792 119.838 74.4318 120.042 73.937C120.252 73.4359 120.364 72.6714 120.376 71.6443V68.3501Z" fill="#17313B"/>
<path fill-rule="evenodd" clip-rule="evenodd" d="M90.8364 42.4999H93.4326V27.0022H90.8364V42.4999Z" fill="white"/>
<path fill-rule="evenodd" clip-rule="evenodd" d="M102.493 37.5672C102.493 39.9342 100.448 40.122 99.8405 40.122C98.3212 40.122 98.0444 38.7372 98.0444 37.9029V31.9838H95.5024V37.8899C95.5024 39.3557 95.9753 40.5657 96.8049 41.373C97.537 42.0854 98.6336 42.4761 99.8217 42.4761C100.664 42.4761 101.857 42.2204 102.493 41.6558V42.5001H105.035V31.9838H102.493V37.5672Z" fill="white"/>
<path fill-rule="evenodd" clip-rule="evenodd" d="M110.022 28.2676H107.48V31.9807H105.574V34.4554H107.48V42.5003H110.022V34.4554H111.928V31.9807H110.022V28.2676Z" fill="white"/>
<path fill-rule="evenodd" clip-rule="evenodd" d="M120.01 39.3904C119.456 39.8745 118.722 40.1445 117.918 40.1445C116.144 40.1445 114.842 38.8793 114.842 37.1421C114.842 35.4058 116.103 34.1947 117.918 34.1947C118.708 34.1947 119.456 34.4506 120.024 34.9347L120.411 35.2578L122.13 33.5886L121.7 33.2115C120.689 32.3234 119.345 31.8253 117.918 31.8253C114.732 31.8253 112.417 34.0597 112.417 37.1291C112.417 40.1845 114.787 42.4998 117.918 42.4998C119.372 42.4998 120.73 42.0018 121.727 41.0997L122.144 40.7235L120.399 39.0543L120.01 39.3904Z" fill="white"/>
<path fill-rule="evenodd" clip-rule="evenodd" d="M130.956 32.8807C130.222 32.1669 129.362 31.7754 128.173 31.7754C127.329 31.7754 126.372 32.0317 125.736 32.5974V27.0022H123.189V42.5H125.736V36.6947C125.736 34.3226 127.466 34.1333 128.075 34.1333C129.597 34.1333 129.556 35.5222 129.556 36.3572V42.5H132.102V36.3712C132.102 34.9024 131.786 33.6888 130.956 32.8807Z" fill="white"/>
<path fill-rule="evenodd" clip-rule="evenodd" d="M117.853 35.304C118.87 35.304 119.693 36.1089 119.693 37.1028C119.693 38.0967 118.87 38.9016 117.853 38.9016C116.836 38.9016 116.012 38.0967 116.012 37.1028C116.012 36.1089 116.836 35.304 117.853 35.304Z" fill="#FF3D2E"/>
<path fill-rule="evenodd" clip-rule="evenodd" d="M87.4212 38.626C86.4544 39.5977 85.1417 40.1243 83.7599 40.1243C80.9265 40.1243 78.8678 37.9511 78.8678 34.9686C78.8678 31.972 80.9265 29.7988 83.7599 29.7988C85.1269 29.7988 86.4258 30.3254 87.4074 31.2831L87.7938 31.6612L89.4939 30.0014L89.1213 29.6233C87.711 28.2064 85.804 27.4371 83.7599 27.4371C79.5862 27.4371 76.4492 30.6764 76.4492 34.9816C76.4492 39.2739 79.6 42.5 83.7599 42.5C85.8188 42.5 87.7258 41.7168 89.1351 40.2998L89.5077 39.9217L87.8223 38.2349L87.4212 38.626Z" fill="white"/>
<path d="M95.6078 110.218H89.5267V109.224L92.6271 105.116C93.0952 104.483 93.4189 103.965 93.5982 103.562C93.7825 103.153 93.8746 102.723 93.8746 102.27C93.8746 101.692 93.7401 101.224 93.4712 100.865C93.2023 100.506 92.8487 100.327 92.4104 100.327C91.8576 100.327 91.4293 100.519 91.1255 100.902C90.8267 101.281 90.6773 101.829 90.6773 102.545H89.355C89.355 101.545 89.6289 100.735 90.1767 100.117C90.7245 99.4998 91.4691 99.1919 92.4104 99.1919C93.2769 99.1919 93.9593 99.458 94.4573 99.9911C94.9553 100.519 95.2043 101.224 95.2043 102.105C95.2043 103.181 94.6441 104.454 93.5235 105.922L91.103 109.09H95.6078V110.218ZM103.358 105.579C103.358 107.182 103.124 108.383 102.656 109.179C102.188 109.972 101.453 110.368 100.452 110.368C99.4808 110.368 98.7561 109.987 98.278 109.224C97.7999 108.462 97.5509 107.317 97.531 105.788V103.92C97.531 102.332 97.765 101.146 98.2332 100.364C98.7063 99.5826 99.4409 99.1919 100.437 99.1919C101.418 99.1919 102.143 99.5621 102.611 100.304C103.084 101.047 103.333 102.17 103.358 103.674V105.579ZM102.036 103.689C102.036 102.538 101.909 101.692 101.655 101.149C101.401 100.601 100.995 100.327 100.437 100.327C99.8941 100.327 99.4956 100.596 99.2417 101.134C98.9877 101.667 98.8557 102.473 98.8458 103.554V105.796C98.8458 106.941 98.9777 107.803 99.2417 108.38C99.5056 108.953 99.909 109.239 100.452 109.239C100.99 109.239 101.386 108.968 101.64 108.425C101.894 107.882 102.026 107.053 102.036 105.937V103.689ZM111.646 110.218H105.565V109.224L108.665 105.116C109.133 104.483 109.457 103.965 109.636 103.562C109.821 103.153 109.913 102.723 109.913 102.27C109.913 101.692 109.778 101.224 109.51 100.865C109.241 100.506 108.887 100.327 108.449 100.327C107.896 100.327 107.467 100.519 107.164 100.902C106.864 101.281 106.716 101.829 106.716 102.545H105.393C105.393 101.545 105.667 100.735 106.215 100.117C106.763 99.4998 107.507 99.1919 108.449 99.1919C109.316 99.1919 109.997 99.458 110.496 99.9911C110.993 100.519 111.242 101.224 111.242 102.105C111.242 103.181 110.683 104.454 109.562 105.922L107.141 109.09H111.646V110.218ZM115.272 104.107H116.117C116.66 104.107 117.078 103.94 117.372 103.606C117.666 103.273 117.812 102.817 117.812 102.239C117.812 100.965 117.319 100.327 116.333 100.327C115.86 100.327 115.489 100.498 115.22 100.843C114.951 101.186 114.817 101.637 114.817 102.195H113.502C113.502 101.323 113.766 100.606 114.294 100.043C114.826 99.4749 115.506 99.1919 116.333 99.1919C117.189 99.1919 117.869 99.4607 118.373 99.9982C118.876 100.531 119.127 101.288 119.127 102.27C119.127 102.772 118.995 103.243 118.731 103.681C118.472 104.114 118.134 104.433 117.715 104.638C118.742 105.016 119.254 105.865 119.254 107.185C119.254 108.156 118.983 108.93 118.44 109.508C117.902 110.081 117.197 110.368 116.326 110.368C115.465 110.368 114.767 110.096 114.234 109.553C113.706 109.005 113.442 108.271 113.442 107.35H114.764C114.764 107.927 114.904 108.387 115.182 108.731C115.462 109.07 115.843 109.239 116.326 109.239C116.819 109.239 117.21 109.073 117.498 108.739C117.793 108.405 117.94 107.897 117.94 107.214C117.94 105.895 117.314 105.235 116.064 105.235H115.272V104.107Z" fill="white"/>
<path d="M29.9956 56.1655H178.429V83.5643H29.9956V56.1655Z" fill="#CAE0E7"/>
<path d="M92.4715 78.5518C90.9624 78.5518 89.621 78.1914 88.4472 77.4696C87.2903 76.7487 86.3765 75.7092 85.7058 74.351C85.0351 72.9929 84.6997 71.3411 84.6997 69.3964C84.6997 67.4514 85.0351 65.7997 85.7058 64.4416C86.3765 63.0835 87.2903 62.0439 88.4472 61.3229C89.621 60.6019 90.9624 60.2413 92.4715 60.2413C93.9638 60.2413 95.2884 60.6019 96.4454 61.3229C97.6191 62.0439 98.5413 63.0835 99.212 64.4416C99.8827 65.7997 100.218 67.4514 100.218 69.3964C100.218 71.3411 99.8827 72.9929 99.212 74.351C98.5413 75.7092 97.6191 76.7487 96.4454 77.4696C95.2884 78.1914 93.9638 78.5518 92.4715 78.5518ZM92.4715 74.4765C93.008 74.4765 93.4775 74.3092 93.88 73.9737C94.2992 73.6381 94.6261 73.1024 94.8608 72.3646C95.0955 71.6098 95.2129 70.6202 95.2129 69.3964C95.2129 68.1556 95.0955 67.1663 94.8608 66.4285C94.6261 65.6908 94.2992 65.1542 93.88 64.8189C93.4775 64.4835 93.008 64.3158 92.4715 64.3158C91.9349 64.3158 91.457 64.4835 91.0378 64.8189C90.6354 65.1542 90.3085 65.6908 90.057 66.4285C89.8222 67.1663 89.7048 68.1556 89.7048 69.3964C89.7048 70.6202 89.8222 71.6098 90.057 72.3646C90.3085 73.1024 90.6354 73.6381 91.0378 73.9737C91.457 74.3092 91.9349 74.4765 92.4715 74.4765Z" fill="url(#paint1_radial_6936_10498)"/>
<path d="M110.024 78.5518C108.515 78.5518 107.173 78.1914 105.999 77.4696C104.843 76.7487 103.929 75.7092 103.258 74.351C102.587 72.9929 102.252 71.3411 102.252 69.3964C102.252 67.4514 102.587 65.7997 103.258 64.4416C103.929 63.0835 104.843 62.0439 105.999 61.3229C107.173 60.6019 108.515 60.2413 110.024 60.2413C111.516 60.2413 112.841 60.6019 113.998 61.3229C115.171 62.0439 116.094 63.0835 116.764 64.4416C117.435 65.7997 117.771 67.4514 117.771 69.3964C117.771 71.3411 117.435 72.9929 116.764 74.351C116.094 75.7092 115.171 76.7487 113.998 77.4696C112.841 78.1914 111.516 78.5518 110.024 78.5518ZM110.024 74.4765C110.56 74.4765 111.03 74.3092 111.432 73.9737C111.851 73.6381 112.179 73.1024 112.413 72.3646C112.648 71.6098 112.765 70.6202 112.765 69.3964C112.765 68.1556 112.648 67.1663 112.413 66.4285C112.179 65.6908 111.851 65.1542 111.432 64.8189C111.03 64.4835 110.56 64.3158 110.024 64.3158C109.487 64.3158 109.009 64.4835 108.59 64.8189C108.188 65.1542 107.86 65.6908 107.609 66.4285C107.375 67.1663 107.257 68.1556 107.257 69.3964C107.257 70.6202 107.375 71.6098 107.609 72.3646C107.86 73.1024 108.188 73.6381 108.59 73.9737C109.009 74.3092 109.487 74.4765 110.024 74.4765Z" fill="url(#paint2_radial_6936_10498)"/>
<path d="M127.575 78.5518C126.067 78.5518 124.725 78.1914 123.551 77.4696C122.394 76.7487 121.48 75.7092 120.81 74.351C120.139 72.9929 119.804 71.3411 119.804 69.3964C119.804 67.4514 120.139 65.7997 120.81 64.4416C121.48 63.0835 122.394 62.0439 123.551 61.3229C124.725 60.6019 126.067 60.2413 127.575 60.2413C129.068 60.2413 130.393 60.6019 131.55 61.3229C132.723 62.0439 133.646 63.0835 134.316 64.4416C134.987 65.7997 135.323 67.4514 135.323 69.3964C135.323 71.3411 134.987 72.9929 134.316 74.351C133.646 75.7092 132.723 76.7487 131.55 77.4696C130.393 78.1914 129.068 78.5518 127.575 78.5518ZM127.575 74.4765C128.112 74.4765 128.582 74.3092 128.984 73.9737C129.403 73.6381 129.73 73.1024 129.965 72.3646C130.2 71.6098 130.317 70.6202 130.317 69.3964C130.317 68.1556 130.2 67.1663 129.965 66.4285C129.73 65.6908 129.403 65.1542 128.984 64.8189C128.582 64.4835 128.112 64.3158 127.575 64.3158C127.039 64.3158 126.561 64.4835 126.142 64.8189C125.74 65.1542 125.412 65.6908 125.162 66.4285C124.927 67.1663 124.809 68.1556 124.809 69.3964C124.809 70.6202 124.927 71.6098 125.162 72.3646C125.412 73.1024 125.74 73.6381 126.142 73.9737C126.561 74.3092 127.039 74.4765 127.575 74.4765Z" fill="url(#paint3_radial_6936_10498)"/>
<path d="M76.5401 78.4314V62.6115L78.678 64.6739H73.2705V60.8258H81.5201V78.4314H76.5401Z" fill="url(#paint4_radial_6936_10498)"/>
</g>
</g>
<defs>
<linearGradient id="paint0_linear_6936_10498" x1="17.1323" y1="139.859" x2="171.946" y2="43.482" gradientUnits="userSpaceOnUse">
<stop offset="0.412445" stop-color="white" stop-opacity="0.2"/>
<stop offset="0.668747" stop-color="white" stop-opacity="0"/>
</linearGradient>
<radialGradient id="paint1_radial_6936_10498" cx="0" cy="0" r="1" gradientUnits="userSpaceOnUse" gradientTransform="translate(99.609 61.6607) rotate(-160.257) scale(22.2104 21.988)">
<stop offset="0.665099" stop-color="#17313B"/>
<stop offset="1" stop-color="#3D7D95"/>
</radialGradient>
<radialGradient id="paint2_radial_6936_10498" cx="0" cy="0" r="1" gradientUnits="userSpaceOnUse" gradientTransform="translate(117.161 61.6607) rotate(-160.257) scale(22.2104 21.988)">
<stop offset="0.665099" stop-color="#17313B"/>
<stop offset="1" stop-color="#3D7D95"/>
</radialGradient>
<radialGradient id="paint3_radial_6936_10498" cx="0" cy="0" r="1" gradientUnits="userSpaceOnUse" gradientTransform="translate(134.713 61.6607) rotate(-160.257) scale(22.2104 21.988)">
<stop offset="0.665099" stop-color="#17313B"/>
<stop offset="1" stop-color="#3D7D95"/>
</radialGradient>
<radialGradient id="paint4_radial_6936_10498" cx="0" cy="0" r="1" gradientUnits="userSpaceOnUse" gradientTransform="translate(76.527 64.8599) rotate(157.874) scale(12.8537 16.8281)">
<stop stop-color="#17313B"/>
<stop offset="1" stop-color="#3D7D95"/>
</radialGradient>
<clipPath id="clip0_6936_10498">
<rect width="210" height="140" fill="white"/>
</clipPath>
</defs>
</svg>
