<svg width="210" height="140" viewBox="0 0 210 140" fill="none" xmlns="http://www.w3.org/2000/svg">
<rect width="210" height="140" rx="12" fill="#2D2F2F"/>
<rect x="5" y="5" width="200" height="130" rx="9" stroke="#17BAF0" stroke-width="2"/>
<path d="M79.9341 24.1031C79.4987 24.1031 79.0634 24.0878 78.6281 24.0573C78.2004 24.0344 77.7536 23.9733 77.2878 23.874V16.1756C77.6543 16.1069 78.0553 16.0573 78.4906 16.0267C78.9259 15.9885 79.3307 15.9694 79.7049 15.9694C80.209 15.9694 80.6711 16.0076 81.0911 16.084C81.5188 16.1527 81.8854 16.2749 82.1909 16.4506C82.4964 16.6262 82.7331 16.8592 82.9011 17.1494C83.0768 17.432 83.1646 17.7833 83.1646 18.2033C83.1646 18.8372 82.8591 19.3375 82.2481 19.704C82.7522 19.895 83.0959 20.1546 83.2792 20.483C83.4625 20.8114 83.5541 21.1819 83.5541 21.5943C83.5541 22.4267 83.2486 23.053 82.6376 23.473C82.0343 23.8931 81.1331 24.1031 79.9341 24.1031ZM79.029 20.5403V22.5909C79.1589 22.6062 79.3002 22.6177 79.4529 22.6253C79.6057 22.6329 79.7737 22.6368 79.957 22.6368C80.4916 22.6368 80.9231 22.5604 81.2515 22.4076C81.5799 22.2549 81.7441 21.9723 81.7441 21.5599C81.7441 21.1933 81.6066 20.9336 81.3317 20.7809C81.0567 20.6205 80.6634 20.5403 80.1517 20.5403H79.029ZM79.029 19.1771H79.8997C80.4496 19.1771 80.8429 19.1083 81.0796 18.9709C81.3164 18.8258 81.4348 18.5966 81.4348 18.2835C81.4348 17.9628 81.3126 17.7375 81.0682 17.6076C80.8238 17.4778 80.4648 17.4129 79.9913 17.4129C79.8386 17.4129 79.6744 17.4167 79.4987 17.4243C79.3231 17.4243 79.1665 17.432 79.029 17.4472V19.1771ZM89.2119 23.7938C88.9217 23.8778 88.5475 23.9542 88.0892 24.0229C87.631 24.0993 87.1498 24.1375 86.6458 24.1375C86.1341 24.1375 85.7064 24.0687 85.3627 23.9313C85.0267 23.7938 84.7594 23.6029 84.5608 23.3585C84.3622 23.1064 84.2209 22.8086 84.1369 22.4649C84.0529 22.1212 84.0109 21.7432 84.0109 21.3308V17.9742H85.7178V21.1246C85.7178 21.6745 85.7904 22.0716 85.9355 22.316C86.0806 22.5604 86.3517 22.6826 86.7489 22.6826C86.8711 22.6826 87.0009 22.6788 87.1384 22.6711C87.2758 22.6558 87.398 22.6406 87.505 22.6253V17.9742H89.2119V23.7938ZM91.7421 22.7742C92.0552 22.7742 92.2767 22.7437 92.4066 22.6826C92.5364 22.6215 92.6013 22.5031 92.6013 22.3274C92.6013 22.19 92.5173 22.0716 92.3493 21.9723C92.1813 21.8654 91.9254 21.747 91.5817 21.6172C91.3144 21.5179 91.07 21.4148 90.8486 21.3079C90.6347 21.2009 90.4514 21.0749 90.2987 20.9298C90.1459 20.7771 90.0276 20.5976 89.9435 20.3914C89.8595 20.1852 89.8175 19.937 89.8175 19.6468C89.8175 19.0816 90.0276 18.6348 90.4476 18.3064C90.8677 17.978 91.4443 17.8138 92.1774 17.8138C92.544 17.8138 92.8953 17.8482 93.2314 17.9169C93.5674 17.978 93.8347 18.0468 94.0333 18.1231L93.7354 19.452C93.5369 19.3833 93.3192 19.3222 93.0825 19.2687C92.8533 19.2153 92.5937 19.1885 92.3035 19.1885C91.7689 19.1885 91.5015 19.3375 91.5015 19.6353C91.5015 19.704 91.513 19.7651 91.5359 19.8186C91.5588 19.8721 91.6047 19.9255 91.6734 19.979C91.7421 20.0248 91.8338 20.0783 91.9483 20.1394C92.0705 20.1928 92.2233 20.2539 92.4066 20.3227C92.7808 20.4601 93.0901 20.5976 93.3345 20.7351C93.5789 20.8649 93.7698 21.01 93.9073 21.1704C94.0524 21.3231 94.1517 21.495 94.2051 21.6859C94.2662 21.8768 94.2968 22.0983 94.2968 22.3504C94.2968 22.9461 94.0715 23.3967 93.6209 23.7021C93.1779 24.0076 92.5479 24.1604 91.7307 24.1604C91.1961 24.1604 90.7493 24.1146 90.3903 24.0229C90.039 23.9313 89.7946 23.8549 89.6572 23.7938L89.9435 22.4076C90.2338 22.5222 90.5316 22.6138 90.8371 22.6826C91.1426 22.7437 91.4443 22.7742 91.7421 22.7742ZM96.4774 24H94.7705V17.9742H96.4774V24ZM96.6378 16.2329C96.6378 16.546 96.5347 16.7942 96.3285 16.9775C96.1299 17.1532 95.8932 17.241 95.6182 17.241C95.3433 17.241 95.1027 17.1532 94.8965 16.9775C94.6979 16.7942 94.5987 16.546 94.5987 16.2329C94.5987 15.9198 94.6979 15.6754 94.8965 15.4997C95.1027 15.3164 95.3433 15.2248 95.6182 15.2248C95.8932 15.2248 96.1299 15.3164 96.3285 15.4997C96.5347 15.6754 96.6378 15.9198 96.6378 16.2329ZM97.2801 18.1804C97.5703 18.0964 97.9445 18.02 98.4027 17.9513C98.861 17.8749 99.3421 17.8367 99.8462 17.8367C100.358 17.8367 100.782 17.9055 101.118 18.0429C101.461 18.1728 101.733 18.3599 101.931 18.6043C102.13 18.8487 102.271 19.1389 102.355 19.4749C102.439 19.811 102.481 20.1852 102.481 20.5976V24H100.774V20.8038C100.774 20.2539 100.702 19.8644 100.556 19.6353C100.411 19.4062 100.14 19.2916 99.7431 19.2916C99.6209 19.2916 99.491 19.2993 99.3536 19.3145C99.2161 19.3222 99.0939 19.3336 98.987 19.3489V24H97.2801V18.1804ZM102.938 21.0329C102.938 20.4983 103.018 20.0324 103.178 19.6353C103.346 19.2305 103.564 18.8945 103.831 18.6272C104.099 18.3599 104.404 18.1575 104.748 18.02C105.099 17.8826 105.458 17.8138 105.825 17.8138C106.68 17.8138 107.356 18.0773 107.852 18.6043C108.349 19.1236 108.597 19.8912 108.597 20.9069C108.597 21.0062 108.593 21.1169 108.585 21.2391C108.578 21.3537 108.57 21.4568 108.563 21.5484H104.69C104.729 21.8998 104.893 22.1785 105.183 22.3847C105.473 22.5909 105.863 22.694 106.352 22.694C106.665 22.694 106.97 22.6673 107.268 22.6138C107.574 22.5527 107.822 22.4802 108.013 22.3962L108.242 23.7823C108.15 23.8282 108.028 23.874 107.875 23.9198C107.722 23.9656 107.551 24.0038 107.36 24.0344C107.176 24.0726 106.978 24.1031 106.764 24.126C106.55 24.1489 106.336 24.1604 106.122 24.1604C105.58 24.1604 105.107 24.0802 104.702 23.9198C104.305 23.7594 103.973 23.5418 103.705 23.2668C103.446 22.9842 103.251 22.652 103.121 22.2702C102.999 21.8883 102.938 21.4759 102.938 21.0329ZM106.947 20.3799C106.94 20.2348 106.913 20.0935 106.867 19.9561C106.829 19.8186 106.764 19.6964 106.672 19.5895C106.588 19.4826 106.478 19.3947 106.34 19.326C106.21 19.2573 106.046 19.2229 105.848 19.2229C105.657 19.2229 105.492 19.2573 105.355 19.326C105.217 19.3871 105.103 19.4711 105.011 19.578C104.92 19.685 104.847 19.811 104.794 19.9561C104.748 20.0935 104.713 20.2348 104.69 20.3799H106.947ZM110.842 22.7742C111.155 22.7742 111.377 22.7437 111.507 22.6826C111.636 22.6215 111.701 22.5031 111.701 22.3274C111.701 22.19 111.617 22.0716 111.449 21.9723C111.281 21.8654 111.025 21.747 110.682 21.6172C110.414 21.5179 110.17 21.4148 109.949 21.3079C109.735 21.2009 109.551 21.0749 109.399 20.9298C109.246 20.7771 109.128 20.5976 109.044 20.3914C108.96 20.1852 108.918 19.937 108.918 19.6468C108.918 19.0816 109.128 18.6348 109.548 18.3064C109.968 17.978 110.544 17.8138 111.277 17.8138C111.644 17.8138 111.995 17.8482 112.331 17.9169C112.667 17.978 112.935 18.0468 113.133 18.1231L112.835 19.452C112.637 19.3833 112.419 19.3222 112.182 19.2687C111.953 19.2153 111.694 19.1885 111.403 19.1885C110.869 19.1885 110.602 19.3375 110.602 19.6353C110.602 19.704 110.613 19.7651 110.636 19.8186C110.659 19.8721 110.705 19.9255 110.773 19.979C110.842 20.0248 110.934 20.0783 111.048 20.1394C111.171 20.1928 111.323 20.2539 111.507 20.3227C111.881 20.4601 112.19 20.5976 112.434 20.7351C112.679 20.8649 112.87 21.01 113.007 21.1704C113.152 21.3231 113.252 21.495 113.305 21.6859C113.366 21.8768 113.397 22.0983 113.397 22.3504C113.397 22.9461 113.171 23.3967 112.721 23.7021C112.278 24.0076 111.648 24.1604 110.831 24.1604C110.296 24.1604 109.849 24.1146 109.49 24.0229C109.139 23.9313 108.895 23.8549 108.757 23.7938L109.044 22.4076C109.334 22.5222 109.632 22.6138 109.937 22.6826C110.243 22.7437 110.544 22.7742 110.842 22.7742ZM115.6 22.7742C115.913 22.7742 116.135 22.7437 116.265 22.6826C116.395 22.6215 116.46 22.5031 116.46 22.3274C116.46 22.19 116.376 22.0716 116.208 21.9723C116.039 21.8654 115.784 21.747 115.44 21.6172C115.173 21.5179 114.928 21.4148 114.707 21.3079C114.493 21.2009 114.31 21.0749 114.157 20.9298C114.004 20.7771 113.886 20.5976 113.802 20.3914C113.718 20.1852 113.676 19.937 113.676 19.6468C113.676 19.0816 113.886 18.6348 114.306 18.3064C114.726 17.978 115.302 17.8138 116.036 17.8138C116.402 17.8138 116.754 17.8482 117.09 17.9169C117.426 17.978 117.693 18.0468 117.892 18.1231L117.594 19.452C117.395 19.3833 117.177 19.3222 116.941 19.2687C116.712 19.2153 116.452 19.1885 116.162 19.1885C115.627 19.1885 115.36 19.3375 115.36 19.6353C115.36 19.704 115.371 19.7651 115.394 19.8186C115.417 19.8721 115.463 19.9255 115.532 19.979C115.6 20.0248 115.692 20.0783 115.807 20.1394C115.929 20.1928 116.081 20.2539 116.265 20.3227C116.639 20.4601 116.948 20.5976 117.193 20.7351C117.437 20.8649 117.628 21.01 117.766 21.1704C117.911 21.3231 118.01 21.495 118.063 21.6859C118.124 21.8768 118.155 22.0983 118.155 22.3504C118.155 22.9461 117.93 23.3967 117.479 23.7021C117.036 24.0076 116.406 24.1604 115.589 24.1604C115.054 24.1604 114.607 24.1146 114.249 24.0229C113.897 23.9313 113.653 23.8549 113.515 23.7938L113.802 22.4076C114.092 22.5222 114.39 22.6138 114.695 22.6826C115.001 22.7437 115.302 22.7742 115.6 22.7742Z" fill="white"/>
<path d="M119.364 22.0983C119.364 22.5489 119.49 22.8888 119.742 23.1179C119.994 23.347 120.296 23.4616 120.647 23.4616C120.922 23.4616 121.205 23.3928 121.495 23.2554C121.785 23.1103 122.049 22.8964 122.285 22.6138C122.53 22.3236 122.728 21.9609 122.881 21.5255C123.041 21.0902 123.122 20.5785 123.122 19.9904C123.122 19.5398 122.996 19.2 122.744 18.9709C122.492 18.7417 122.19 18.6272 121.839 18.6272C121.564 18.6272 121.281 18.6997 120.991 18.8449C120.701 18.9823 120.433 19.1962 120.189 19.4864C119.952 19.769 119.754 20.1279 119.593 20.5632C119.44 20.9986 119.364 21.5103 119.364 22.0983ZM123.878 19.9332C123.878 20.6511 123.775 21.2735 123.568 21.8005C123.37 22.3274 123.11 22.7666 122.789 23.1179C122.476 23.4616 122.125 23.7174 121.735 23.8854C121.354 24.0535 120.976 24.1375 120.601 24.1375C120.334 24.1375 120.078 24.0955 119.834 24.0115C119.597 23.9274 119.387 23.8014 119.204 23.6334C119.02 23.4654 118.875 23.2592 118.768 23.0148C118.661 22.7628 118.608 22.4725 118.608 22.1441C118.608 21.4262 118.707 20.8038 118.906 20.2768C119.112 19.7499 119.372 19.3145 119.685 18.9709C120.006 18.6272 120.357 18.3713 120.739 18.2033C121.128 18.0353 121.51 17.9513 121.884 17.9513C122.152 17.9513 122.404 17.9933 122.64 18.0773C122.885 18.1613 123.099 18.2873 123.282 18.4554C123.465 18.6234 123.61 18.8334 123.717 19.0854C123.824 19.3298 123.878 19.6124 123.878 19.9332ZM124.672 22.8315C124.581 23.1981 124.489 23.5379 124.397 23.8511C124.313 24.1566 124.214 24.443 124.1 24.7103C123.993 24.9776 123.867 25.2296 123.722 25.4664C123.576 25.7031 123.405 25.936 123.206 26.1652L122.553 26.0621C122.744 25.8024 122.904 25.5618 123.034 25.3403C123.172 25.1265 123.286 24.9127 123.378 24.6988C123.47 24.485 123.55 24.2673 123.618 24.0458C123.687 23.832 123.752 23.5952 123.813 23.3356L125.234 17.4358C125.341 16.9775 125.482 16.5995 125.658 16.3016C125.841 16.0038 126.043 15.767 126.265 15.5914C126.494 15.4157 126.738 15.2935 126.998 15.2248C127.258 15.1484 127.521 15.1102 127.788 15.1102C128.048 15.1102 128.27 15.1331 128.453 15.179C128.644 15.2248 128.819 15.2783 128.98 15.3394L128.625 15.9351C128.464 15.8816 128.312 15.8396 128.166 15.809C128.029 15.7785 127.865 15.7632 127.674 15.7632C127.475 15.7632 127.292 15.79 127.124 15.8434C126.956 15.8969 126.799 15.9885 126.654 16.1184C126.517 16.2482 126.391 16.4238 126.276 16.6453C126.162 16.8592 126.062 17.1303 125.978 17.4587L125.818 18.0773H127.8L127.662 18.7188H125.658L124.672 22.8315Z" fill="white"/>
<path d="M133.064 24C132.98 23.7251 132.885 23.4425 132.778 23.1523C132.678 22.862 132.579 22.5718 132.48 22.2816H129.387C129.287 22.5718 129.184 22.862 129.077 23.1523C128.978 23.4425 128.886 23.7251 128.802 24H126.947C127.244 23.1446 127.527 22.3542 127.794 21.6286C128.062 20.9031 128.321 20.2196 128.573 19.578C128.833 18.9365 129.085 18.3293 129.329 17.7565C129.581 17.1761 129.841 16.611 130.108 16.0611H131.815C132.075 16.611 132.331 17.1761 132.583 17.7565C132.835 18.3293 133.087 18.9365 133.339 19.578C133.599 20.2196 133.862 20.9031 134.129 21.6286C134.397 22.3542 134.679 23.1446 134.977 24H133.064ZM130.922 17.8596C130.884 17.9742 130.826 18.1308 130.75 18.3293C130.674 18.5279 130.586 18.757 130.486 19.0167C130.387 19.2764 130.276 19.5628 130.154 19.8759C130.04 20.189 129.921 20.5174 129.799 20.8611H132.056C131.934 20.5174 131.815 20.189 131.701 19.8759C131.586 19.5628 131.475 19.2764 131.369 19.0167C131.269 18.757 131.181 18.5279 131.105 18.3293C131.029 18.1308 130.968 17.9742 130.922 17.8596ZM138.949 21.0329C138.949 20.506 138.831 20.0859 138.594 19.7728C138.357 19.452 138.006 19.2916 137.54 19.2916C137.387 19.2916 137.246 19.2993 137.116 19.3145C136.986 19.3222 136.879 19.3336 136.795 19.3489V22.4305C136.902 22.4993 137.04 22.5566 137.208 22.6024C137.383 22.6482 137.559 22.6711 137.735 22.6711C138.544 22.6711 138.949 22.1251 138.949 21.0329ZM140.69 20.9871C140.69 21.453 140.633 21.8768 140.518 22.2587C140.404 22.6406 140.236 22.969 140.014 23.2439C139.793 23.5189 139.518 23.7327 139.19 23.8854C138.861 24.0382 138.483 24.1146 138.055 24.1146C137.819 24.1146 137.597 24.0916 137.391 24.0458C137.185 24 136.986 23.9351 136.795 23.8511V26.1193H135.088V18.1804C135.241 18.1346 135.417 18.0926 135.615 18.0544C135.814 18.0086 136.02 17.9704 136.234 17.9398C136.455 17.9093 136.677 17.8864 136.898 17.8711C137.127 17.8482 137.345 17.8367 137.551 17.8367C138.048 17.8367 138.491 17.9131 138.88 18.0659C139.27 18.211 139.598 18.421 139.865 18.6959C140.133 18.9632 140.335 19.2916 140.473 19.6811C140.618 20.0706 140.69 20.506 140.69 20.9871ZM145.061 21.0329C145.061 20.506 144.942 20.0859 144.706 19.7728C144.469 19.452 144.118 19.2916 143.652 19.2916C143.499 19.2916 143.358 19.2993 143.228 19.3145C143.098 19.3222 142.991 19.3336 142.907 19.3489V22.4305C143.014 22.4993 143.152 22.5566 143.32 22.6024C143.495 22.6482 143.671 22.6711 143.847 22.6711C144.656 22.6711 145.061 22.1251 145.061 21.0329ZM146.802 20.9871C146.802 21.453 146.745 21.8768 146.63 22.2587C146.516 22.6406 146.348 22.969 146.126 23.2439C145.905 23.5189 145.63 23.7327 145.301 23.8854C144.973 24.0382 144.595 24.1146 144.167 24.1146C143.931 24.1146 143.709 24.0916 143.503 24.0458C143.297 24 143.098 23.9351 142.907 23.8511V26.1193H141.2V18.1804C141.353 18.1346 141.529 18.0926 141.727 18.0544C141.926 18.0086 142.132 17.9704 142.346 17.9398C142.567 17.9093 142.789 17.8864 143.01 17.8711C143.239 17.8482 143.457 17.8367 143.663 17.8367C144.16 17.8367 144.603 17.9131 144.992 18.0659C145.382 18.211 145.71 18.421 145.977 18.6959C146.245 18.9632 146.447 19.2916 146.584 19.6811C146.73 20.0706 146.802 20.506 146.802 20.9871ZM149.042 22.7742C149.355 22.7742 149.577 22.7437 149.706 22.6826C149.836 22.6215 149.901 22.5031 149.901 22.3274C149.901 22.19 149.817 22.0716 149.649 21.9723C149.481 21.8654 149.225 21.747 148.882 21.6172C148.614 21.5179 148.37 21.4148 148.148 21.3079C147.935 21.2009 147.751 21.0749 147.598 20.9298C147.446 20.7771 147.327 20.5976 147.243 20.3914C147.159 20.1852 147.117 19.937 147.117 19.6468C147.117 19.0816 147.327 18.6348 147.747 18.3064C148.167 17.978 148.744 17.8138 149.477 17.8138C149.844 17.8138 150.195 17.8482 150.531 17.9169C150.867 17.978 151.135 18.0468 151.333 18.1231L151.035 19.452C150.837 19.3833 150.619 19.3222 150.382 19.2687C150.153 19.2153 149.893 19.1885 149.603 19.1885C149.069 19.1885 148.801 19.3375 148.801 19.6353C148.801 19.704 148.813 19.7651 148.836 19.8186C148.859 19.8721 148.904 19.9255 148.973 19.979C149.042 20.0248 149.134 20.0783 149.248 20.1394C149.37 20.1928 149.523 20.2539 149.706 20.3227C150.081 20.4601 150.39 20.5976 150.634 20.7351C150.879 20.8649 151.07 21.01 151.207 21.1704C151.352 21.3231 151.451 21.495 151.505 21.6859C151.566 21.8768 151.597 22.0983 151.597 22.3504C151.597 22.9461 151.371 23.3967 150.921 23.7021C150.478 24.0076 149.848 24.1604 149.03 24.1604C148.496 24.1604 148.049 24.1146 147.69 24.0229C147.339 23.9313 147.094 23.8549 146.957 23.7938L147.243 22.4076C147.534 22.5222 147.831 22.6138 148.137 22.6826C148.442 22.7437 148.744 22.7742 149.042 22.7742Z" fill="white"/>
<rect x="57" y="11" width="3.57895" height="3.57895" fill="#00966C"/>
<rect x="57" y="15.4737" width="3.57895" height="3.57895" fill="#E51C20"/>
<rect x="57" y="19.9474" width="3.57895" height="3.57895" fill="#D0539A"/>
<rect x="57" y="24.4211" width="3.57895" height="3.57895" fill="#1CB8EC"/>
<rect x="61.4737" y="11" width="3.57895" height="3.57895" fill="#007BC3"/>
<rect x="61.4737" y="15.4737" width="3.57895" height="3.57895" fill="#0052A1"/>
<rect x="61.4737" y="19.9474" width="3.57895" height="3.57895" fill="#A8CA67"/>
<rect x="61.4737" y="24.4211" width="3.57895" height="3.57895" fill="#F28C00"/>
<rect x="65.9474" y="11" width="3.57895" height="3.57895" fill="#AFCB08"/>
<rect x="65.9474" y="15.4737" width="3.57895" height="3.57895" fill="#EBCA1C"/>
<rect x="65.9474" y="19.9474" width="3.57895" height="3.57895" fill="#5C75AB"/>
<rect x="65.9474" y="24.4211" width="3.57895" height="3.57895" fill="#96689E"/>
<rect x="70.4211" y="11" width="3.57895" height="3.57895" fill="#87BBE6"/>
<rect x="70.4211" y="15.4737" width="3.57895" height="3.57895" fill="#EE78AD"/>
<rect x="70.4211" y="19.9474" width="3.57895" height="3.57895" fill="#41AF6B"/>
<rect x="70.4211" y="24.4211" width="3.57895" height="3.57895" fill="#0087CB"/>
<path d="M93.2383 124.104V126.084H83.9503V124.518L88.9543 119.766C89.5183 119.226 89.8963 118.758 90.0883 118.362C90.2923 117.954 90.3943 117.552 90.3943 117.156C90.3943 116.568 90.1963 116.118 89.8003 115.806C89.4043 115.494 88.8223 115.338 88.0543 115.338C86.7703 115.338 85.7863 115.776 85.1023 116.652L83.4643 115.392C83.9563 114.732 84.6163 114.222 85.4443 113.862C86.2843 113.49 87.2203 113.304 88.2523 113.304C89.6203 113.304 90.7123 113.628 91.5283 114.276C92.3443 114.924 92.7523 115.806 92.7523 116.922C92.7523 117.606 92.6083 118.248 92.3203 118.848C92.0323 119.448 91.4803 120.132 90.6643 120.9L87.2983 124.104H93.2383Z" fill="white"/>
<path d="M99.4321 126.264C98.4241 126.264 97.5241 126.012 96.7321 125.508C95.9401 124.992 95.3161 124.248 94.8601 123.276C94.4041 122.292 94.1761 121.128 94.1761 119.784C94.1761 118.44 94.4041 117.282 94.8601 116.31C95.3161 115.326 95.9401 114.582 96.7321 114.078C97.5241 113.562 98.4241 113.304 99.4321 113.304C100.44 113.304 101.34 113.562 102.132 114.078C102.936 114.582 103.566 115.326 104.022 116.31C104.478 117.282 104.706 118.44 104.706 119.784C104.706 121.128 104.478 122.292 104.022 123.276C103.566 124.248 102.936 124.992 102.132 125.508C101.34 126.012 100.44 126.264 99.4321 126.264ZM99.4321 124.23C100.332 124.23 101.04 123.858 101.556 123.114C102.084 122.37 102.348 121.26 102.348 119.784C102.348 118.308 102.084 117.198 101.556 116.454C101.04 115.71 100.332 115.338 99.4321 115.338C98.5441 115.338 97.8361 115.71 97.3081 116.454C96.7921 117.198 96.5341 118.308 96.5341 119.784C96.5341 121.26 96.7921 122.37 97.3081 123.114C97.8361 123.858 98.5441 124.23 99.4321 124.23Z" fill="white"/>
<path d="M114.966 124.104V126.084H105.678V124.518L110.682 119.766C111.246 119.226 111.624 118.758 111.816 118.362C112.02 117.954 112.122 117.552 112.122 117.156C112.122 116.568 111.924 116.118 111.528 115.806C111.132 115.494 110.55 115.338 109.782 115.338C108.498 115.338 107.514 115.776 106.83 116.652L105.192 115.392C105.684 114.732 106.344 114.222 107.172 113.862C108.012 113.49 108.948 113.304 109.98 113.304C111.348 113.304 112.44 113.628 113.256 114.276C114.072 114.924 114.48 115.806 114.48 116.922C114.48 117.606 114.336 118.248 114.048 118.848C113.76 119.448 113.208 120.132 112.392 120.9L109.026 124.104H114.966Z" fill="white"/>
<path d="M125.082 124.104V126.084H115.794V124.518L120.798 119.766C121.362 119.226 121.74 118.758 121.932 118.362C122.136 117.954 122.238 117.552 122.238 117.156C122.238 116.568 122.04 116.118 121.644 115.806C121.248 115.494 120.666 115.338 119.898 115.338C118.614 115.338 117.63 115.776 116.946 116.652L115.308 115.392C115.8 114.732 116.46 114.222 117.288 113.862C118.128 113.49 119.064 113.304 120.096 113.304C121.464 113.304 122.556 113.628 123.372 114.276C124.188 114.924 124.596 115.806 124.596 116.922C124.596 117.606 124.452 118.248 124.164 118.848C123.876 119.448 123.324 120.132 122.508 120.9L119.142 124.104H125.082Z" fill="white"/>
<rect x="49.2949" y="119.596" width="27" height="2" fill="#1CB8EC"/>
<rect x="132.295" y="119.596" width="27" height="2" fill="#1CB8EC"/>
<path fill-rule="evenodd" clip-rule="evenodd" d="M185.659 72.0186C189.088 72.3255 191.619 75.3544 191.313 78.7839L185.103 78.2283L185.659 72.0186ZM191.313 78.7839L197.522 79.3395L198.078 73.1298C194.648 72.823 191.619 75.3544 191.313 78.7839ZM189.949 84.0271C187.01 83.7641 184.84 81.1679 185.103 78.2283L191.313 78.7839L190.836 84.1065L189.949 84.0271ZM197.522 79.3396C197.259 82.2791 194.663 84.4489 191.723 84.1859L190.836 84.1065L191.313 78.784L197.522 79.3396Z" fill="#1CB7EB"/>
<path fill-rule="evenodd" clip-rule="evenodd" d="M185.732 62.8492C188.987 62.5341 191.881 64.9172 192.196 68.1719L186.303 68.7424L185.732 62.8492ZM192.196 68.1719L198.089 67.6014L197.519 61.7082C194.264 62.0233 191.881 64.9172 192.196 68.1719ZM191.843 73.3048C189.053 73.5749 186.573 71.5323 186.303 68.7425L192.196 68.172L192.685 73.2234L191.843 73.3048ZM198.089 67.6016C198.359 70.3914 196.316 72.8719 193.527 73.1419L192.685 73.2234L192.196 68.1721L198.089 67.6016Z" fill="#1CB7EB"/>
<path fill-rule="evenodd" clip-rule="evenodd" d="M184 53.8759C187.183 53.0817 190.407 55.0183 191.201 58.2012L185.438 59.6392L184 53.8759ZM191.201 58.2012L196.965 56.7633L195.527 51C192.344 51.7942 190.407 55.0183 191.201 58.2012ZM191.61 63.3466C188.882 64.0274 186.119 62.3675 185.438 59.6392L191.201 58.2013L192.434 63.1412L191.61 63.3466ZM196.965 56.7634C197.645 59.4916 195.985 62.2551 193.257 62.9359L192.434 63.1413L191.201 58.2013L196.965 56.7634Z" fill="#1CB7EB"/>
<path fill-rule="evenodd" clip-rule="evenodd" d="M181 44.8636C183.906 43.7967 187.126 45.2872 188.193 48.1928L182.932 50.1247L181 44.8636ZM188.193 48.1928L193.454 46.261L191.522 41C188.617 42.0669 187.126 45.2872 188.193 48.1928ZM189.097 52.9783C186.607 53.8928 183.846 52.6152 182.932 50.1247L188.193 48.1929L188.193 48.193L193.454 46.2611C194.368 48.7516 193.091 51.5119 190.6 52.4264L189.849 52.7024L189.849 52.7024L189.097 52.9783Z" fill="#1CB7EB"/>
<path fill-rule="evenodd" clip-rule="evenodd" d="M178 36.8891C180.446 35.539 183.524 36.4276 184.874 38.8739L180.445 41.3185L178 36.8891ZM184.874 38.8739L189.303 36.4293L186.859 32C184.412 33.3501 183.524 36.4276 184.874 38.8739ZM186.337 43.0198C184.24 44.177 181.602 43.4153 180.445 41.3186L184.874 38.874L186.969 42.6705L186.337 43.0198ZM189.303 36.4294C190.46 38.5262 189.699 41.1641 187.602 42.3214L186.969 42.6706L184.874 38.874L189.303 36.4294Z" fill="#1CB7EB"/>
<path fill-rule="evenodd" clip-rule="evenodd" d="M172.857 29.6386C175.139 28.0268 178.296 28.5704 179.908 30.8527L175.775 33.7711L172.857 29.6386ZM179.908 30.8527L184.04 27.9343L181.122 23.8018C178.84 25.4136 178.296 28.5704 179.908 30.8527ZM181.819 34.8119C179.863 36.1934 177.157 35.7275 175.775 33.7712L179.908 30.8528L182.409 34.3949L181.819 34.8119ZM184.04 27.9344C185.422 29.8907 184.956 32.5965 183 33.978L182.409 34.395L179.908 30.8528L184.04 27.9344Z" fill="#1CB7EB"/>
<path fill-rule="evenodd" clip-rule="evenodd" d="M184.308 82.2388C187.806 82.8546 190.143 86.1897 189.527 89.6882L183.193 88.5733L184.308 82.2388ZM189.527 89.6882L195.862 90.8031L196.977 84.4686C193.478 83.8529 190.143 86.1897 189.527 89.6882ZM187.667 94.9585C184.668 94.4307 182.665 91.572 183.193 88.5734L189.527 89.6882L188.572 95.1178L187.667 94.9585ZM195.862 90.8031C195.334 93.8018 192.475 95.8048 189.477 95.277L188.572 95.1178L189.527 89.6882L195.862 90.8031Z" fill="#1CB7EB"/>
<path fill-rule="evenodd" clip-rule="evenodd" d="M181.095 91.3493C184.678 92.8645 186.354 96.9972 184.839 100.58L178.352 97.8363L181.095 91.3493ZM184.839 100.58L191.326 103.323L194.069 96.8364C190.487 95.3211 186.354 96.9972 184.839 100.58ZM181.56 105.748C178.489 104.45 177.053 100.907 178.352 97.8365L184.839 100.58L182.487 106.14L181.56 105.748ZM191.326 103.323C190.027 106.394 186.485 107.831 183.414 106.532L182.487 106.14L184.839 100.58L191.326 103.323Z" fill="#1CB7EB"/>
<path fill-rule="evenodd" clip-rule="evenodd" d="M176.145 101.557C179.707 103.464 181.05 107.898 179.143 111.461L172.691 108.008L176.145 101.557ZM179.143 111.461L185.594 114.914L189.047 108.463C185.484 106.556 181.05 107.898 179.143 111.461ZM175.261 116.497C172.207 114.863 171.057 111.062 172.691 108.008L179.143 111.461L176.183 116.991L175.261 116.497ZM185.594 114.914C183.959 117.968 180.158 119.119 177.104 117.484L176.183 116.991L179.143 111.461L185.594 114.914Z" fill="#1CB7EB"/>
<path fill-rule="evenodd" clip-rule="evenodd" d="M24.9195 71.2169C21.49 71.5237 18.9586 74.5526 19.2654 77.9821L25.4751 77.4265L24.9195 71.2169ZM19.2654 77.9821L13.0558 78.5377L12.5002 72.3281C15.9297 72.0212 18.9586 74.5526 19.2654 77.9821ZM20.6288 83.2254C23.5684 82.9623 25.7382 80.3661 25.4751 77.4266L19.2655 77.9822L19.7417 83.3047L20.6288 83.2254ZM13.0558 78.5378C13.3188 81.4774 15.915 83.6471 18.8546 83.3841L19.7417 83.3048L19.2655 77.9822L13.0558 78.5378Z" fill="#1CB7EB"/>
<path fill-rule="evenodd" clip-rule="evenodd" d="M24.846 62.0474C21.5912 61.7323 18.6973 64.1154 18.3823 67.3702L24.2755 67.9407L24.846 62.0474ZM18.3823 67.3702L12.489 66.7997L13.0595 60.9064C16.3143 61.2215 18.6973 64.1154 18.3823 67.3702ZM18.7352 72.5031C21.525 72.7732 24.0055 70.7305 24.2755 67.9407L18.3823 67.3702L17.8933 72.4216L18.7352 72.5031ZM12.489 66.7998C12.219 69.5896 14.2616 72.0701 17.0514 72.3402L17.8933 72.4217L18.3823 67.3703L12.489 66.7998Z" fill="#1CB7EB"/>
<path fill-rule="evenodd" clip-rule="evenodd" d="M26.5781 53.0741C23.3951 52.28 20.171 54.2165 19.3768 57.3995L25.1401 58.8374L26.5781 53.0741ZM19.3768 57.3995L13.6136 55.9615L15.0515 50.1982C18.2345 50.9924 20.171 54.2165 19.3768 57.3995ZM18.9676 62.5449C21.6959 63.2256 24.4594 61.5657 25.1401 58.8375L19.3769 57.3995L18.1443 62.3395L18.9676 62.5449ZM13.6136 55.9616C12.9329 58.6899 14.5927 61.4534 17.321 62.1341L18.1443 62.3395L19.3768 57.3996L13.6136 55.9616Z" fill="#1CB7EB"/>
<path fill-rule="evenodd" clip-rule="evenodd" d="M29.578 44.0619C26.6725 42.995 23.4521 44.4855 22.3852 47.3911L27.6462 49.3229L29.578 44.0619ZM22.3852 47.3911L17.1242 45.4592L19.056 40.1982C21.9616 41.2651 23.4521 44.4855 22.3852 47.3911ZM21.4809 52.1766C23.9714 53.0911 26.7317 51.8135 27.6462 49.323L22.3852 47.3912L22.3852 47.3912L17.1242 45.4594C16.2097 47.9499 17.4873 50.7102 19.9778 51.6247L20.7294 51.9007L20.7294 51.9006L21.4809 52.1766Z" fill="#1CB7EB"/>
<path fill-rule="evenodd" clip-rule="evenodd" d="M32.578 36.0874C30.1318 34.7373 27.0543 35.6259 25.7042 38.0721L30.1335 40.5167L32.578 36.0874ZM25.7042 38.0721L21.2748 35.6276L23.7194 31.1982C26.1656 32.5483 27.0543 35.6259 25.7042 38.0721ZM24.2416 42.218C26.3384 43.3752 28.9763 42.6136 30.1335 40.5168L25.7042 38.0722L23.6088 41.8688L24.2416 42.218ZM21.2748 35.6277C20.1176 37.7245 20.8793 40.3624 22.976 41.5196L23.6088 41.8688L25.7041 38.0723L21.2748 35.6277Z" fill="#1CB7EB"/>
<path fill-rule="evenodd" clip-rule="evenodd" d="M37.7212 28.8369C35.4389 27.2251 32.2821 27.7686 30.6703 30.0509L34.8028 32.9694L37.7212 28.8369ZM30.6703 30.0509L26.5378 27.1325L29.4562 23C31.7386 24.6118 32.2821 27.7686 30.6703 30.0509ZM28.7591 34.0101C30.7154 35.3916 33.4212 34.9257 34.8028 32.9695L30.6703 30.051L28.1688 33.5932L28.7591 34.0101ZM26.5378 27.1326C25.1562 29.0889 25.6221 31.7947 27.5784 33.1763L28.1688 33.5932L30.6703 30.0511L26.5378 27.1326Z" fill="#1CB7EB"/>
<path fill-rule="evenodd" clip-rule="evenodd" d="M26.2702 81.4371C22.7718 82.0528 20.4349 85.388 21.0506 88.8864L27.3851 87.7715L26.2702 81.4371ZM21.0506 88.8864L14.7162 90.0013L13.6013 83.6668C17.0997 83.0511 20.4349 85.388 21.0506 88.8864ZM22.9112 94.1568C25.9098 93.629 27.9129 90.7702 27.3851 87.7716L21.0507 88.8865L22.0063 94.316L22.9112 94.1568ZM14.7162 90.0013C15.2439 93 18.1027 95.003 21.1013 94.4753L22.0063 94.316L21.0506 88.8865L14.7162 90.0013Z" fill="#1CB7EB"/>
<path fill-rule="evenodd" clip-rule="evenodd" d="M29.483 90.5475C25.9003 92.0628 24.2242 96.1954 25.7395 99.7781L32.2265 97.0346L29.483 90.5475ZM25.7395 99.7781L19.2524 102.522L16.5089 96.0346C20.0916 94.5194 24.2242 96.1954 25.7395 99.7781ZM29.0178 104.947C32.0887 103.648 33.5253 100.106 32.2265 97.0347L25.7395 99.7782L28.0911 105.339L29.0178 104.947ZM19.2524 102.522C20.5512 105.593 24.0935 107.029 27.1643 105.73L28.0911 105.339L25.7395 99.7782L19.2524 102.522Z" fill="#1CB7EB"/>
<path fill-rule="evenodd" clip-rule="evenodd" d="M34.4335 100.755C30.8706 102.662 29.5284 107.096 31.4355 110.659L37.8866 107.206L34.4335 100.755ZM31.4355 110.659L24.9844 114.112L21.5312 107.661C25.0941 105.754 29.5284 107.096 31.4355 110.659ZM35.317 115.696C38.3709 114.061 39.5214 110.26 37.8867 107.206L31.4356 110.659L34.3954 116.189L35.317 115.696ZM24.9844 114.113C26.6191 117.166 30.4199 118.317 33.4738 116.682L34.3954 116.189L31.4355 110.659L24.9844 114.113Z" fill="#1CB7EB"/>
<path d="M90.6143 53V41.64H86.1343V39H98.3343V41.64H93.8543V53H90.6143Z" fill="white"/>
<path d="M106.282 53.24C105.176 53.24 104.149 53.06 103.202 52.7C102.269 52.34 101.456 51.8333 100.762 51.18C100.082 50.5267 99.5489 49.76 99.1623 48.88C98.7889 48 98.6023 47.04 98.6023 46C98.6023 44.96 98.7889 44 99.1623 43.12C99.5489 42.24 100.089 41.4733 100.782 40.82C101.476 40.1667 102.289 39.66 103.222 39.3C104.156 38.94 105.169 38.76 106.262 38.76C107.369 38.76 108.382 38.94 109.302 39.3C110.236 39.66 111.042 40.1667 111.722 40.82C112.416 41.4733 112.956 42.24 113.342 43.12C113.729 43.9867 113.922 44.9467 113.922 46C113.922 47.04 113.729 48.0067 113.342 48.9C112.956 49.78 112.416 50.5467 111.722 51.2C111.042 51.84 110.236 52.34 109.302 52.7C108.382 53.06 107.376 53.24 106.282 53.24ZM106.262 50.48C106.889 50.48 107.462 50.3733 107.982 50.16C108.516 49.9467 108.982 49.64 109.382 49.24C109.782 48.84 110.089 48.3667 110.302 47.82C110.529 47.2733 110.642 46.6667 110.642 46C110.642 45.3333 110.529 44.7267 110.302 44.18C110.089 43.6333 109.782 43.16 109.382 42.76C108.996 42.36 108.536 42.0533 108.002 41.84C107.469 41.6267 106.889 41.52 106.262 41.52C105.636 41.52 105.056 41.6267 104.522 41.84C104.002 42.0533 103.542 42.36 103.142 42.76C102.742 43.16 102.429 43.6333 102.202 44.18C101.989 44.7267 101.882 45.3333 101.882 46C101.882 46.6533 101.989 47.26 102.202 47.82C102.429 48.3667 102.736 48.84 103.122 49.24C103.522 49.64 103.989 49.9467 104.522 50.16C105.056 50.3733 105.636 50.48 106.262 50.48Z" fill="white"/>
<path d="M115.957 53V39H122.017C123.271 39 124.351 39.2067 125.257 39.62C126.164 40.02 126.864 40.6 127.357 41.36C127.851 42.12 128.097 43.0267 128.097 44.08C128.097 45.12 127.851 46.02 127.357 46.78C126.864 47.54 126.164 48.1267 125.257 48.54C124.351 48.94 123.271 49.14 122.017 49.14H117.757L119.197 47.68V53H115.957ZM119.197 48.04L117.757 46.5H121.837C122.837 46.5 123.584 46.2867 124.077 45.86C124.571 45.4333 124.817 44.84 124.817 44.08C124.817 43.3067 124.571 42.7067 124.077 42.28C123.584 41.8533 122.837 41.64 121.837 41.64H117.757L119.197 40.1V48.04Z" fill="white"/>
<path d="M32.9528 73L39.1928 59H42.3928L48.6528 73H45.2528L40.1328 60.64H41.4128L36.2728 73H32.9528ZM36.0728 70L36.9328 67.54H44.1328L45.0128 70H36.0728Z" fill="white"/>
<path d="M49.7053 73V59H52.3853L60.6453 69.08H59.3453V59H62.5453V73H59.8853L51.6053 62.92H52.9053V73H49.7053Z" fill="white"/>
<path d="M65.4577 73V59H71.8177C73.3377 59 74.6777 59.2933 75.8377 59.88C76.9977 60.4533 77.9043 61.26 78.5577 62.3C79.211 63.34 79.5377 64.5733 79.5377 66C79.5377 67.4133 79.211 68.6467 78.5577 69.7C77.9043 70.74 76.9977 71.5533 75.8377 72.14C74.6777 72.7133 73.3377 73 71.8177 73H65.4577ZM68.6977 70.34H71.6577C72.591 70.34 73.3977 70.1667 74.0777 69.82C74.771 69.46 75.3043 68.9533 75.6777 68.3C76.0643 67.6467 76.2577 66.88 76.2577 66C76.2577 65.1067 76.0643 64.34 75.6777 63.7C75.3043 63.0467 74.771 62.5467 74.0777 62.2C73.3977 61.84 72.591 61.66 71.6577 61.66H68.6977V70.34Z" fill="white"/>
<path d="M81.5811 73V59H87.6411C88.8944 59 89.9744 59.2067 90.8811 59.62C91.7878 60.02 92.4878 60.6 92.9811 61.36C93.4744 62.12 93.7211 63.0267 93.7211 64.08C93.7211 65.12 93.4744 66.02 92.9811 66.78C92.4878 67.5267 91.7878 68.1 90.8811 68.5C89.9744 68.9 88.8944 69.1 87.6411 69.1H83.3811L84.8211 67.68V73H81.5811ZM90.4811 73L86.9811 67.92H90.4411L93.9811 73H90.4811ZM84.8211 68.04L83.3811 66.52H87.4611C88.4611 66.52 89.2078 66.3067 89.7011 65.88C90.1944 65.44 90.4411 64.84 90.4411 64.08C90.4411 63.3067 90.1944 62.7067 89.7011 62.28C89.2078 61.8533 88.4611 61.64 87.4611 61.64H83.3811L84.8211 60.1V68.04Z" fill="white"/>
<path d="M102.688 73.24C101.581 73.24 100.555 73.06 99.6081 72.7C98.6748 72.34 97.8615 71.8333 97.1681 71.18C96.4881 70.5267 95.9548 69.76 95.5681 68.88C95.1948 68 95.0081 67.04 95.0081 66C95.0081 64.96 95.1948 64 95.5681 63.12C95.9548 62.24 96.4948 61.4733 97.1881 60.82C97.8815 60.1667 98.6948 59.66 99.6281 59.3C100.561 58.94 101.575 58.76 102.668 58.76C103.775 58.76 104.788 58.94 105.708 59.3C106.641 59.66 107.448 60.1667 108.128 60.82C108.821 61.4733 109.361 62.24 109.748 63.12C110.135 63.9867 110.328 64.9467 110.328 66C110.328 67.04 110.135 68.0067 109.748 68.9C109.361 69.78 108.821 70.5467 108.128 71.2C107.448 71.84 106.641 72.34 105.708 72.7C104.788 73.06 103.781 73.24 102.688 73.24ZM102.668 70.48C103.295 70.48 103.868 70.3733 104.388 70.16C104.921 69.9467 105.388 69.64 105.788 69.24C106.188 68.84 106.495 68.3667 106.708 67.82C106.935 67.2733 107.048 66.6667 107.048 66C107.048 65.3333 106.935 64.7267 106.708 64.18C106.495 63.6333 106.188 63.16 105.788 62.76C105.401 62.36 104.941 62.0533 104.408 61.84C103.875 61.6267 103.295 61.52 102.668 61.52C102.041 61.52 101.461 61.6267 100.928 61.84C100.408 62.0533 99.9481 62.36 99.5481 62.76C99.1481 63.16 98.8348 63.6333 98.6081 64.18C98.3948 64.7267 98.2881 65.3333 98.2881 66C98.2881 66.6533 98.3948 67.26 98.6081 67.82C98.8348 68.3667 99.1415 68.84 99.5281 69.24C99.9281 69.64 100.395 69.9467 100.928 70.16C101.461 70.3733 102.041 70.48 102.668 70.48Z" fill="white"/>
<path d="M112.363 73V59H115.603V73H112.363Z" fill="white"/>
<path d="M118.526 73V59H124.886C126.406 59 127.746 59.2933 128.906 59.88C130.066 60.4533 130.972 61.26 131.626 62.3C132.279 63.34 132.606 64.5733 132.606 66C132.606 67.4133 132.279 68.6467 131.626 69.7C130.972 70.74 130.066 71.5533 128.906 72.14C127.746 72.7133 126.406 73 124.886 73H118.526ZM121.766 70.34H124.726C125.659 70.34 126.466 70.1667 127.146 69.82C127.839 69.46 128.372 68.9533 128.746 68.3C129.132 67.6467 129.326 66.88 129.326 66C129.326 65.1067 129.132 64.34 128.746 63.7C128.372 63.0467 127.839 62.5467 127.146 62.2C126.466 61.84 125.659 61.66 124.726 61.66H121.766V70.34Z" fill="white"/>
<path d="M138.073 73L144.313 59H147.513L153.773 73H150.373L145.253 60.64H146.533L141.393 73H138.073ZM141.193 70L142.053 67.54H149.253L150.133 70H141.193Z" fill="white"/>
<path d="M154.826 73V59H160.886C162.139 59 163.219 59.2067 164.126 59.62C165.032 60.02 165.732 60.6 166.226 61.36C166.719 62.12 166.966 63.0267 166.966 64.08C166.966 65.12 166.719 66.02 166.226 66.78C165.732 67.54 165.032 68.1267 164.126 68.54C163.219 68.94 162.139 69.14 160.886 69.14H156.626L158.066 67.68V73H154.826ZM158.066 68.04L156.626 66.5H160.706C161.706 66.5 162.452 66.2867 162.946 65.86C163.439 65.4333 163.686 64.84 163.686 64.08C163.686 63.3067 163.439 62.7067 162.946 62.28C162.452 61.8533 161.706 61.64 160.706 61.64H156.626L158.066 60.1V68.04Z" fill="white"/>
<path d="M168.879 73V59H174.939C176.192 59 177.272 59.2067 178.179 59.62C179.085 60.02 179.785 60.6 180.279 61.36C180.772 62.12 181.019 63.0267 181.019 64.08C181.019 65.12 180.772 66.02 180.279 66.78C179.785 67.54 179.085 68.1267 178.179 68.54C177.272 68.94 176.192 69.14 174.939 69.14H170.679L172.119 67.68V73H168.879ZM172.119 68.04L170.679 66.5H174.759C175.759 66.5 176.505 66.2867 176.999 65.86C177.492 65.4333 177.739 64.84 177.739 64.08C177.739 63.3067 177.492 62.7067 176.999 62.28C176.505 61.8533 175.759 61.64 174.759 61.64H170.679L172.119 60.1V68.04Z" fill="white"/>
<path d="M46.219 93V79H52.579C54.099 79 55.439 79.2933 56.599 79.88C57.759 80.4533 58.6657 81.26 59.319 82.3C59.9723 83.34 60.299 84.5733 60.299 86C60.299 87.4133 59.9723 88.6467 59.319 89.7C58.6657 90.74 57.759 91.5533 56.599 92.14C55.439 92.7133 54.099 93 52.579 93H46.219ZM49.459 90.34H52.419C53.3523 90.34 54.159 90.1667 54.839 89.82C55.5323 89.46 56.0657 88.9533 56.439 88.3C56.8257 87.6467 57.019 86.88 57.019 86C57.019 85.1067 56.8257 84.34 56.439 83.7C56.0657 83.0467 55.5323 82.5467 54.839 82.2C54.159 81.84 53.3523 81.66 52.419 81.66H49.459V90.34Z" fill="white"/>
<path d="M65.3224 84.64H72.0624V87.16H65.3224V84.64ZM65.5624 90.4H73.1824V93H62.3424V79H72.9224V81.6H65.5624V90.4Z" fill="white"/>
<path d="M79.3651 93L73.3251 79H76.8251L82.1051 91.4H80.0451L85.4051 79H88.6251L82.5651 93H79.3651Z" fill="white"/>
<path d="M92.374 84.64H99.114V87.16H92.374V84.64ZM92.614 90.4H100.234V93H89.394V79H99.974V81.6H92.614V90.4Z" fill="white"/>
<path d="M102.412 93V79H105.652V90.36H112.672V93H102.412Z" fill="white"/>
<path d="M120.648 93.24C119.541 93.24 118.515 93.06 117.568 92.7C116.635 92.34 115.821 91.8333 115.128 91.18C114.448 90.5267 113.915 89.76 113.528 88.88C113.155 88 112.968 87.04 112.968 86C112.968 84.96 113.155 84 113.528 83.12C113.915 82.24 114.455 81.4733 115.148 80.82C115.841 80.1667 116.655 79.66 117.588 79.3C118.521 78.94 119.535 78.76 120.628 78.76C121.735 78.76 122.748 78.94 123.668 79.3C124.601 79.66 125.408 80.1667 126.088 80.82C126.781 81.4733 127.321 82.24 127.708 83.12C128.095 83.9867 128.288 84.9467 128.288 86C128.288 87.04 128.095 88.0067 127.708 88.9C127.321 89.78 126.781 90.5467 126.088 91.2C125.408 91.84 124.601 92.34 123.668 92.7C122.748 93.06 121.741 93.24 120.648 93.24ZM120.628 90.48C121.255 90.48 121.828 90.3733 122.348 90.16C122.881 89.9467 123.348 89.64 123.748 89.24C124.148 88.84 124.455 88.3667 124.668 87.82C124.895 87.2733 125.008 86.6667 125.008 86C125.008 85.3333 124.895 84.7267 124.668 84.18C124.455 83.6333 124.148 83.16 123.748 82.76C123.361 82.36 122.901 82.0533 122.368 81.84C121.835 81.6267 121.255 81.52 120.628 81.52C120.001 81.52 119.421 81.6267 118.888 81.84C118.368 82.0533 117.908 82.36 117.508 82.76C117.108 83.16 116.795 83.6333 116.568 84.18C116.355 84.7267 116.248 85.3333 116.248 86C116.248 86.6533 116.355 87.26 116.568 87.82C116.795 88.3667 117.101 88.84 117.488 89.24C117.888 89.64 118.355 89.9467 118.888 90.16C119.421 90.3733 120.001 90.48 120.628 90.48Z" fill="white"/>
<path d="M130.323 93V79H136.383C137.636 79 138.716 79.2067 139.623 79.62C140.53 80.02 141.23 80.6 141.723 81.36C142.216 82.12 142.463 83.0267 142.463 84.08C142.463 85.12 142.216 86.02 141.723 86.78C141.23 87.54 140.53 88.1267 139.623 88.54C138.716 88.94 137.636 89.14 136.383 89.14H132.123L133.563 87.68V93H130.323ZM133.563 88.04L132.123 86.5H136.203C137.203 86.5 137.95 86.2867 138.443 85.86C138.936 85.4333 139.183 84.84 139.183 84.08C139.183 83.3067 138.936 82.7067 138.443 82.28C137.95 81.8533 137.203 81.64 136.203 81.64H132.123L133.563 80.1V88.04Z" fill="white"/>
<path d="M147.356 84.64H154.096V87.16H147.356V84.64ZM147.596 90.4H155.216V93H144.376V79H154.956V81.6H147.596V90.4Z" fill="white"/>
<path d="M157.394 93V79H163.454C164.707 79 165.787 79.2067 166.694 79.62C167.601 80.02 168.301 80.6 168.794 81.36C169.287 82.12 169.534 83.0267 169.534 84.08C169.534 85.12 169.287 86.02 168.794 86.78C168.301 87.5267 167.601 88.1 166.694 88.5C165.787 88.9 164.707 89.1 163.454 89.1H159.194L160.634 87.68V93H157.394ZM166.294 93L162.794 87.92H166.254L169.794 93H166.294ZM160.634 88.04L159.194 86.52H163.274C164.274 86.52 165.021 86.3067 165.514 85.88C166.007 85.44 166.254 84.84 166.254 84.08C166.254 83.3067 166.007 82.7067 165.514 82.28C165.021 81.8533 164.274 81.64 163.274 81.64H159.194L160.634 80.1V88.04Z" fill="white"/>
</svg>
