<svg width="210" height="140" viewBox="0 0 210 140" fill="none" xmlns="http://www.w3.org/2000/svg">
<path d="M104.622 0L165.244 35V105L104.622 140L44 105V35L104.622 0Z" fill="url(#paint0_linear_3281_6220)"/>
<path d="M104.622 0L165.244 35V105L104.622 140L44 105V35L104.622 0Z" fill="url(#paint1_linear_3281_6220)"/>
<path d="M49.3323 38.0787L104.622 6.1572L159.911 38.0787V101.921L104.622 133.843L49.3323 101.921V38.0787Z" stroke="white" stroke-width="1.0566"/>
<mask id="mask0_3281_6220" style="mask-type:luminance" maskUnits="userSpaceOnUse" x="82" y="26" width="46" height="21">
<path d="M127.075 26.1509H82.1689V46.7547H127.075V26.1509Z" fill="white"/>
</mask>
<g mask="url(#mask0_3281_6220)">
<mask id="mask1_3281_6220" style="mask-type:luminance" maskUnits="userSpaceOnUse" x="95" y="25" width="18" height="12">
<path d="M112.32 25.6359H95.3839V36.9679H112.32V25.6359Z" fill="white"/>
</mask>
<g mask="url(#mask1_3281_6220)">
<path d="M100.357 26.151C100.459 26.151 100.557 26.1917 100.629 26.2641L101.029 26.6661H95.7688L95.4748 26.3708C95.3939 26.2897 95.451 26.151 95.5654 26.151H100.357Z" fill="white"/>
<path d="M96.0255 26.9236L96.5388 27.4387H101.799L101.286 26.9236H96.0255Z" fill="white"/>
<path d="M102.056 27.6963H96.7953L97.1957 28.0983C97.2681 28.1707 97.3659 28.2114 97.4681 28.2114H100.516V34.9076C100.516 35.0101 100.557 35.1083 100.629 35.1807L102.35 36.9083C102.431 36.9894 102.569 36.9318 102.569 36.8171V28.3714C102.569 28.2689 102.528 28.1707 102.456 28.0983L102.056 27.6963Z" fill="white"/>
<path d="M110.78 28.3714C110.78 28.2689 110.74 28.1707 110.667 28.0983L110.267 27.6963H104.109L103.708 28.0983C103.636 28.1707 103.595 28.2689 103.595 28.3714V36.8171C103.595 36.9318 103.733 36.9894 103.814 36.9083L105.536 35.1807C105.608 35.1083 105.648 35.0101 105.648 34.9076V32.3321V28.2114H108.728V31.0444H106.984C106.95 31.0444 106.918 31.0578 106.894 31.0821L105.648 32.3321L109.641 36.3398C109.713 36.4122 109.811 36.4529 109.913 36.4529H112.01C112.125 36.4529 112.182 36.3142 112.101 36.2331L108.856 32.9761L109.24 32.5897H108.471L108.214 32.3321H109.497L110.011 31.817H107.701L107.444 31.5595H110.267L110.667 31.1574C110.74 31.0851 110.78 30.9868 110.78 30.8843V28.3714Z" fill="white"/>
<path d="M104.878 26.9236L104.365 27.4387H110.01L109.497 26.9236H104.878Z" fill="white"/>
<path d="M105.808 26.151C105.706 26.151 105.608 26.1917 105.535 26.2641L105.135 26.6661H109.24L108.84 26.2641C108.768 26.1917 108.67 26.151 108.568 26.151H105.808Z" fill="white"/>
</g>
<path d="M127.024 44.8938C127.024 44.0231 126.524 43.6988 125.313 43.3916C124.585 43.2122 124.39 43.0672 124.39 42.8112C124.39 42.555 124.619 42.3844 125.093 42.3844C125.576 42.3844 126.126 42.5465 126.592 42.7941L126.744 41.8637C126.278 41.659 125.711 41.5393 125.101 41.5393C124.009 41.5393 123.365 42.1028 123.365 42.8881C123.365 43.7328 123.84 44.0572 124.983 44.3391C125.779 44.5266 125.999 44.6547 125.999 44.9963C125.999 45.3035 125.694 45.4913 125.161 45.4913C124.559 45.4913 123.924 45.2694 123.425 44.9535L123.281 45.8923C123.73 46.1229 124.432 46.3363 125.118 46.3363C126.355 46.3363 127.024 45.7985 127.024 44.8938Z" fill="white"/>
<path d="M122.712 46.2396V41.6038H121.59V44.7522C121.225 45.1093 120.833 45.3473 120.435 45.3473C119.978 45.3473 119.794 45.0668 119.794 44.6587V41.6038H118.671V44.9564C118.671 45.8146 119.145 46.3332 120.051 46.3332C120.686 46.3332 121.205 46.0038 121.654 45.5956L121.814 46.2396H122.712Z" fill="white"/>
<path d="M118.007 46.2396V41.6038H116.897V46.2396H118.007Z" fill="white"/>
<path d="M117.456 39.5764C117.829 39.5764 118.119 39.8482 118.119 40.2223C118.119 40.5963 117.829 40.8681 117.456 40.8681C117.083 40.8681 116.781 40.5963 116.781 40.2223C116.781 39.8482 117.083 39.5764 117.456 39.5764Z" fill="white"/>
<path d="M115.125 44.6928C114.794 45.0922 114.439 45.3473 113.982 45.3473C113.423 45.3473 113.008 44.9139 113.008 44.0044C113.008 42.9845 113.49 42.4916 114.151 42.4916C114.574 42.4916 114.82 42.5595 115.125 42.6955V44.6928ZM116.234 46.2396V39.3503L115.125 39.5434V41.7776C114.828 41.6756 114.456 41.599 113.999 41.599C112.881 41.599 111.89 42.364 111.89 44.0723C111.89 45.6191 112.703 46.3331 113.711 46.3331C114.379 46.3331 114.845 45.9932 115.193 45.6022L115.289 46.2396H116.234Z" fill="white"/>
<path d="M110.321 44.9733C109.966 45.2963 109.559 45.4918 109.136 45.4918C108.746 45.4918 108.509 45.2792 108.509 44.9477C108.509 44.5057 108.857 44.1063 110.321 43.945V44.9733ZM111.422 46.2396V43.0865C111.422 41.9987 110.83 41.5568 109.61 41.5568C108.857 41.5568 108.289 41.7097 107.73 41.9305L107.866 42.8144C108.382 42.602 108.916 42.4491 109.475 42.4491C110.008 42.4491 110.321 42.6361 110.321 43.1374V43.2819C108.357 43.4689 107.409 43.945 107.409 45.0583C107.409 45.8571 107.959 46.3331 108.78 46.3331C109.492 46.3331 109.991 46.0273 110.389 45.6448L110.491 46.2396H111.422Z" fill="white"/>
<path d="M107.226 46.0782L105.456 43.6475C106.261 43.3924 106.786 42.8265 106.786 41.9258C106.786 40.7358 105.931 40.0585 104.517 40.0585H102.569V46.2396H103.72V43.8573H104.279L106.007 46.2991L107.226 46.0782ZM105.634 41.99C105.634 42.6361 105.152 42.9882 104.364 42.9882H103.712V41.0242H104.432C105.219 41.0242 105.634 41.3698 105.634 41.99Z" fill="white"/>
<path d="M101.99 46.2396L101.854 45.3133C101.744 45.3386 101.6 45.3473 101.456 45.3473C100.999 45.3473 100.821 45.1431 100.821 44.7694V42.5051H101.992L101.799 41.6038H100.821V39.994L99.7287 40.1882V41.6038H98.9766V42.5051H99.7287V44.9564C99.7287 45.9932 100.338 46.3162 101.253 46.3162C101.591 46.3162 101.812 46.2822 101.99 46.2396Z" fill="white"/>
<path d="M98.742 44.8938C98.742 44.0231 98.2423 43.6988 97.0314 43.3916C96.3031 43.2122 96.1085 43.0672 96.1085 42.8112C96.1085 42.555 96.3369 42.3844 96.8114 42.3844C97.294 42.3844 97.8442 42.5465 98.3102 42.7941L98.4626 41.8637C97.9969 41.659 97.4295 41.5393 96.8198 41.5393C95.7273 41.5393 95.0838 42.1028 95.0838 42.8881C95.0838 43.7328 95.558 44.0572 96.7012 44.3391C97.4971 44.5266 97.7174 44.6547 97.7174 44.9963C97.7174 45.3035 97.4126 45.4913 96.879 45.4913C96.2778 45.4913 95.6591 45.2678 95.1594 44.9519L94.999 45.8923C95.4478 46.1229 96.1544 46.3363 96.8402 46.3363C98.0766 46.3363 98.742 45.7985 98.742 44.8938Z" fill="white"/>
<path d="M94.4858 46.2396V41.6038H93.3631V44.7522C92.9991 45.1093 92.6064 45.3473 92.2085 45.3473C91.7513 45.3473 91.5669 45.0668 91.5669 44.6587V41.6038H90.4443V44.9564C90.4443 45.8146 90.9184 46.3332 91.8245 46.3332C92.4597 46.3332 92.9785 46.0038 93.4273 45.5956L93.5877 46.2396H94.4858Z" fill="white"/>
<path d="M89.931 42.634L89.6745 41.5393C88.9687 41.6682 88.5434 42.0412 88.2217 42.5679L88.0067 41.6038H87.1725V46.2396H88.2632V43.5997C88.6018 43.0984 89.1774 42.6765 89.931 42.634Z" fill="white"/>
<path d="M87.8783 41.0887L87.6218 40.0585H82.1689V41.0887H84.2217V46.2396H85.3765V41.0887H87.8783Z" fill="white"/>
</g>
<path d="M62.9567 70.7925V61.1689H59.6855V58.4302H69.4992V61.1689H66.228V70.7925H62.9567ZM73.9567 71.0207C73.0312 71.0207 72.1943 70.8242 71.4463 70.4311C70.7109 70.038 70.1276 69.4738 69.6965 68.7384C69.2654 67.9903 69.0499 67.0901 69.0499 66.0377C69.0499 65.0107 69.2654 64.1295 69.6965 63.3941C70.1403 62.646 70.7109 62.0691 71.4082 61.6634C72.1056 61.2577 72.841 61.0548 73.6144 61.0548C74.5527 61.0548 75.3261 61.264 75.9347 61.6824C76.556 62.0882 77.0124 62.6397 77.3041 63.3371C77.6084 64.0344 77.7605 64.8079 77.7605 65.6574C77.7605 65.9363 77.7415 66.2089 77.7035 66.4752C77.6781 66.7288 77.6528 66.9126 77.6274 67.0267H72.207C72.3592 67.5973 72.6318 67.9967 73.0248 68.2249C73.4179 68.4405 73.8807 68.5482 74.4132 68.5482C75.0218 68.5482 75.6684 68.358 76.3531 67.9777L77.4182 69.9176C76.911 70.2726 76.3405 70.5452 75.7065 70.7354C75.0725 70.9256 74.4893 71.0207 73.9567 71.0207ZM72.169 64.8966H74.9838C74.9838 64.5289 74.8887 64.2119 74.6985 63.9457C74.521 63.6667 74.185 63.5273 73.6905 63.5273C73.3355 63.5273 73.0185 63.635 72.7395 63.8506C72.4606 64.0661 72.2704 64.4148 72.169 64.8966ZM83.8537 71.0207C82.9535 71.0207 82.142 70.8242 81.4193 70.4311C80.6966 70.038 80.1197 69.4738 79.6886 68.7384C79.2701 67.9903 79.0609 67.0901 79.0609 66.0377C79.0609 64.9854 79.2955 64.0915 79.7646 63.3561C80.2464 62.608 80.8741 62.0374 81.6475 61.6444C82.4209 61.2513 83.2578 61.0548 84.158 61.0548C84.7286 61.0548 85.2421 61.1436 85.6985 61.3211C86.1677 61.4986 86.5797 61.7395 86.9348 62.0438L85.4132 64.1359C85.2104 63.9583 85.0265 63.8379 84.8617 63.7745C84.6969 63.7111 84.5257 63.6794 84.3482 63.6794C83.7396 63.6794 83.2641 63.895 82.9218 64.326C82.5794 64.7445 82.4083 65.315 82.4083 66.0377C82.4083 66.7605 82.5858 67.3374 82.9408 67.7685C83.2958 68.1869 83.7269 68.3961 84.2341 68.3961C84.5003 68.3961 84.7603 68.339 85.0138 68.2249C85.2801 68.0981 85.5274 67.9523 85.7556 67.7875L87.0108 69.9176C86.5417 70.336 86.0218 70.6276 85.4513 70.7925C84.8807 70.9446 84.3482 71.0207 83.8537 71.0207ZM88.5263 70.7925V57.5553H91.7975V60.6364L91.6454 62.272C91.975 61.9804 92.3681 61.7078 92.8245 61.4542C93.2937 61.1879 93.8515 61.0548 94.4982 61.0548C95.5506 61.0548 96.305 61.4098 96.7614 62.1199C97.2306 62.8172 97.4651 63.7555 97.4651 64.9347V70.7925H94.1939V65.3531C94.1939 64.7445 94.1178 64.3387 93.9657 64.1359C93.8135 63.933 93.5726 63.8316 93.2429 63.8316C92.9386 63.8316 92.6851 63.8949 92.4822 64.0217C92.2793 64.1485 92.0511 64.326 91.7975 64.5543V70.7925H88.5263ZM109.033 71.0207C107.98 71.0207 107.004 70.7925 106.104 70.336C105.216 69.8669 104.5 69.1632 103.955 68.2249C103.41 67.2866 103.137 66.1138 103.137 64.7064C103.137 63.6667 103.295 62.7475 103.612 61.9487C103.942 61.1372 104.386 60.4525 104.944 59.8946C105.514 59.3368 106.155 58.9183 106.865 58.6394C107.587 58.3478 108.335 58.202 109.109 58.202C109.933 58.202 110.668 58.3668 111.315 58.6965C111.974 59.0134 112.52 59.3938 112.951 59.8376L111.239 61.9297C110.935 61.6634 110.618 61.4479 110.288 61.283C109.971 61.1055 109.603 61.0168 109.185 61.0168C108.703 61.0168 108.253 61.1626 107.835 61.4542C107.429 61.7331 107.099 62.1389 106.846 62.6714C106.605 63.2039 106.484 63.8442 106.484 64.5923C106.484 65.7461 106.725 66.64 107.207 67.274C107.701 67.8953 108.348 68.2059 109.147 68.2059C109.629 68.2059 110.054 68.0981 110.421 67.8826C110.802 67.667 111.125 67.4198 111.391 67.1408L113.103 69.1949C112.583 69.8035 111.974 70.2599 111.277 70.5642C110.58 70.8685 109.832 71.0207 109.033 71.0207ZM117.019 71.0207C116.424 71.0207 115.91 70.8876 115.479 70.6213C115.06 70.3423 114.737 69.981 114.509 69.5372C114.281 69.0934 114.167 68.6116 114.167 68.0918C114.167 67.1028 114.572 66.3294 115.384 65.7715C116.195 65.2009 117.514 64.8205 119.34 64.6303C119.264 63.971 118.82 63.6414 118.008 63.6414C117.666 63.6414 117.305 63.7111 116.924 63.8506C116.544 63.9774 116.107 64.1739 115.612 64.4402L114.471 62.31C115.143 61.9043 115.821 61.5937 116.506 61.3781C117.203 61.1626 117.92 61.0548 118.655 61.0548C119.898 61.0548 120.868 61.4098 121.565 62.1199C122.262 62.8172 122.611 63.9457 122.611 65.5052V70.7925H119.948L119.72 69.8796H119.644C119.264 70.2219 118.858 70.5008 118.427 70.7164C118.008 70.9193 117.539 71.0207 117.019 71.0207ZM118.161 68.5102C118.427 68.5102 118.649 68.4531 118.826 68.339C119.004 68.2122 119.175 68.0537 119.34 67.8636V66.5703C118.566 66.6844 118.027 66.8556 117.723 67.0838C117.432 67.312 117.286 67.5593 117.286 67.8255C117.286 68.282 117.577 68.5102 118.161 68.5102ZM124.744 70.7925V61.283H127.406L127.635 62.9186H127.711C128.066 62.272 128.484 61.8029 128.966 61.5113C129.46 61.207 129.942 61.0548 130.411 61.0548C130.703 61.0548 130.938 61.0738 131.115 61.1119C131.305 61.1372 131.464 61.1816 131.591 61.245L131.058 64.0598C130.893 64.0217 130.728 63.99 130.564 63.9647C130.399 63.9266 130.208 63.9076 129.993 63.9076C129.651 63.9076 129.289 64.0281 128.909 64.269C128.541 64.4972 128.243 64.9093 128.015 65.5052V70.7925H124.744ZM136.92 71.0207C135.994 71.0207 135.157 70.8242 134.409 70.4311C133.674 70.038 133.091 69.4738 132.66 68.7384C132.228 67.9903 132.013 67.0901 132.013 66.0377C132.013 65.0107 132.228 64.1295 132.66 63.3941C133.103 62.646 133.674 62.0691 134.371 61.6634C135.069 61.2577 135.804 61.0548 136.577 61.0548C137.516 61.0548 138.289 61.264 138.898 61.6824C139.519 62.0882 139.975 62.6397 140.267 63.3371C140.571 64.0344 140.724 64.8079 140.724 65.6574C140.724 65.9363 140.705 66.2089 140.666 66.4752C140.641 66.7288 140.616 66.9126 140.59 67.0267H135.17C135.322 67.5973 135.595 67.9967 135.988 68.2249C136.381 68.4405 136.844 68.5482 137.376 68.5482C137.985 68.5482 138.631 68.358 139.316 67.9777L140.381 69.9176C139.874 70.2726 139.303 70.5452 138.67 70.7354C138.036 70.9256 137.452 71.0207 136.92 71.0207ZM135.132 64.8966H137.947C137.947 64.5289 137.852 64.2119 137.662 63.9457C137.484 63.6667 137.148 63.5273 136.654 63.5273C136.298 63.5273 135.982 63.635 135.703 63.8506C135.424 64.0661 135.233 64.4148 135.132 64.8966ZM145.447 71.0207C144.838 71.0207 144.192 70.9002 143.507 70.6593C142.835 70.4057 142.252 70.0824 141.757 69.6894L143.203 67.6734C144.065 68.3073 144.838 68.6243 145.523 68.6243C145.866 68.6243 146.106 68.5799 146.246 68.4912C146.398 68.3897 146.474 68.2439 146.474 68.0537C146.474 67.8002 146.29 67.6036 145.923 67.4642C145.555 67.312 145.13 67.1408 144.648 66.9506C144.281 66.7985 143.913 66.6083 143.545 66.3801C143.19 66.1392 142.892 65.8349 142.651 65.4672C142.41 65.0995 142.29 64.6557 142.29 64.1359C142.29 63.1976 142.639 62.4495 143.336 61.8916C144.033 61.3337 144.94 61.0548 146.056 61.0548C146.842 61.0548 147.514 61.1879 148.072 61.4542C148.642 61.7078 149.137 61.9931 149.555 62.31L148.11 64.25C147.767 63.9964 147.431 63.7999 147.102 63.6604C146.772 63.5209 146.461 63.4512 146.17 63.4512C145.612 63.4512 145.333 63.6287 145.333 63.9837C145.333 64.2246 145.504 64.4148 145.846 64.5543C146.202 64.6811 146.614 64.8332 147.083 65.0107C147.463 65.1502 147.837 65.334 148.205 65.5623C148.585 65.7905 148.896 66.0885 149.137 66.4562C149.39 66.8239 149.517 67.293 149.517 67.8636C149.517 68.7511 149.168 69.4992 148.471 70.1078C147.786 70.7164 146.778 71.0207 145.447 71.0207Z" fill="white"/>
<path d="M90.901 89.283V88.218C91.5856 87.5671 92.19 86.9796 92.7141 86.4555C93.2466 85.923 93.6608 85.437 93.9566 84.9974C94.2525 84.5494 94.4004 84.1352 94.4004 83.7549C94.4004 83.3576 94.2948 83.0575 94.0834 82.8546C93.8806 82.6433 93.6059 82.5377 93.2593 82.5377C92.9719 82.5377 92.7099 82.6222 92.4732 82.7912C92.245 82.9518 92.0294 83.142 91.8265 83.3618L90.8122 82.3601C91.2095 81.9375 91.6152 81.6205 92.0294 81.4092C92.4436 81.1894 92.9381 81.0795 93.5129 81.0795C94.0454 81.0795 94.5103 81.1852 94.9076 81.3965C95.3049 81.6078 95.6134 81.9079 95.8332 82.2968C96.0614 82.6771 96.1755 83.1251 96.1755 83.6408C96.1755 84.0888 96.0487 84.5494 95.7951 85.0228C95.55 85.4877 95.233 85.9568 94.8442 86.4302C94.4554 86.8951 94.0412 87.3558 93.6016 87.8122C93.8045 87.7869 94.0327 87.7657 94.2863 87.7488C94.5399 87.7235 94.7597 87.7108 94.9456 87.7108H96.5686V89.283H90.901ZM101.006 89.4352C100.144 89.4352 99.4468 89.0759 98.9142 88.3574C98.3902 87.6389 98.1281 86.595 98.1281 85.2257C98.1281 83.8563 98.3902 82.8251 98.9142 82.1319C99.4468 81.4303 100.144 81.0795 101.006 81.0795C101.868 81.0795 102.562 81.4303 103.086 82.1319C103.618 82.8251 103.885 83.8563 103.885 85.2257C103.885 86.595 103.618 87.6389 103.086 88.3574C102.562 89.0759 101.868 89.4352 101.006 89.4352ZM101.006 87.9897C101.218 87.9897 101.408 87.9137 101.577 87.7615C101.746 87.6009 101.877 87.322 101.97 86.9247C102.071 86.5274 102.122 85.9611 102.122 85.2257C102.122 84.4903 102.071 83.9282 101.97 83.5393C101.877 83.1505 101.746 82.8842 101.577 82.7405C101.408 82.5968 101.218 82.525 101.006 82.525C100.803 82.525 100.617 82.5968 100.448 82.7405C100.279 82.8842 100.144 83.1505 100.043 83.5393C99.9413 83.9282 99.8905 84.4903 99.8905 85.2257C99.8905 85.9611 99.9413 86.5274 100.043 86.9247C100.144 87.322 100.279 87.6009 100.448 87.7615C100.617 87.9137 100.803 87.9897 101.006 87.9897ZM105.355 89.283V88.218C106.04 87.5671 106.644 86.9796 107.168 86.4555C107.701 85.923 108.115 85.437 108.411 84.9974C108.707 84.5494 108.854 84.1352 108.854 83.7549C108.854 83.3576 108.749 83.0575 108.538 82.8546C108.335 82.6433 108.06 82.5377 107.713 82.5377C107.426 82.5377 107.164 82.6222 106.927 82.7912C106.699 82.9518 106.483 83.142 106.281 83.3618L105.266 82.3601C105.664 81.9375 106.069 81.6205 106.483 81.4092C106.898 81.1894 107.392 81.0795 107.967 81.0795C108.499 81.0795 108.964 81.1852 109.362 81.3965C109.759 81.6078 110.067 81.9079 110.287 82.2968C110.515 82.6771 110.63 83.1251 110.63 83.6408C110.63 84.0888 110.503 84.5494 110.249 85.0228C110.004 85.4877 109.687 85.9568 109.298 86.4302C108.909 86.8951 108.495 87.3558 108.056 87.8122C108.259 87.7869 108.487 87.7657 108.74 87.7488C108.994 87.7235 109.214 87.7108 109.4 87.7108H111.023V89.283H105.355ZM115.194 89.4352C114.543 89.4352 113.985 89.3295 113.52 89.1182C113.064 88.9069 112.688 88.6322 112.392 88.294L113.254 87.1149C113.499 87.3515 113.77 87.546 114.065 87.6981C114.361 87.8503 114.678 87.9263 115.016 87.9263C115.414 87.9263 115.731 87.846 115.967 87.6854C116.204 87.5164 116.322 87.2797 116.322 86.9754C116.322 86.7387 116.263 86.5358 116.145 86.3668C116.026 86.1893 115.811 86.054 115.498 85.9611C115.185 85.8681 114.737 85.8216 114.154 85.8216V84.5029C114.881 84.5029 115.38 84.4057 115.65 84.2113C115.921 84.0084 116.056 83.7464 116.056 83.4252C116.056 83.1463 115.972 82.9307 115.802 82.7786C115.633 82.618 115.388 82.5377 115.067 82.5377C114.78 82.5377 114.518 82.6011 114.281 82.7278C114.053 82.8546 113.812 83.0279 113.558 83.2477L112.62 82.1066C112.992 81.7854 113.385 81.536 113.799 81.3585C114.213 81.1725 114.666 81.0795 115.156 81.0795C115.984 81.0795 116.652 81.274 117.159 81.6628C117.675 82.0432 117.933 82.5841 117.933 83.2857C117.933 83.6999 117.814 84.0549 117.578 84.3508C117.349 84.6466 117.02 84.8875 116.589 85.0735V85.1242C117.053 85.2595 117.434 85.4919 117.73 85.8216C118.034 86.1428 118.186 86.5654 118.186 87.0895C118.186 87.5882 118.047 88.0151 117.768 88.3701C117.497 88.7167 117.134 88.9829 116.677 89.1689C116.229 89.3464 115.735 89.4352 115.194 89.4352Z" fill="white"/>
<path d="M62.0934 85.3208H82.1689" stroke="white" stroke-width="1.0566"/>
<path d="M127.075 85.3208H147.15" stroke="white" stroke-width="1.0566"/>
<path d="M111.956 104.176C111.519 103.725 110.999 103.368 110.428 103.124C109.856 102.88 109.243 102.755 108.624 102.755C108.005 102.755 107.392 102.88 106.82 103.124C106.249 103.368 105.729 103.725 105.292 104.176L104.622 104.874L103.951 104.176C103.514 103.725 102.995 103.368 102.423 103.124C101.851 102.88 101.239 102.755 100.619 102.755C100 102.755 99.3874 102.88 98.8157 103.124C98.2441 103.368 97.7248 103.725 97.2879 104.176C95.4412 106.073 95.3282 109.276 97.6537 111.71L104.622 118.868L111.59 111.71C113.915 109.276 113.802 106.073 111.956 104.176Z" fill="white"/>
<defs>
<linearGradient id="paint0_linear_3281_6220" x1="104.622" y1="0" x2="104.622" y2="140" gradientUnits="userSpaceOnUse">
<stop stop-color="#1E50E5"/>
<stop offset="1" stop-color="#21B1FF"/>
</linearGradient>
<linearGradient id="paint1_linear_3281_6220" x1="104.622" y1="0" x2="104.622" y2="140" gradientUnits="userSpaceOnUse">
<stop stop-color="#C70C67"/>
<stop offset="1" stop-color="#FF6E9C"/>
</linearGradient>
</defs>
</svg>
