<svg width="210" height="141" viewBox="0 0 210 141" fill="none" xmlns="http://www.w3.org/2000/svg">
<path d="M170.622 35.5133L105.059 0.513306L39.0024 35.5133V105.513L105.059 140.513L170.622 105.513V35.5133Z" fill="#2D302F"/>
<path d="M170.622 35.5133L105.059 0.513306L39.0024 35.5133V105.513L105.059 140.513L170.622 105.513V35.5133Z" fill="#000302"/>
<path d="M170.622 35.5133L105.059 0.513306L39.0024 35.5133V105.513L105.059 140.513L170.622 105.513V35.5133Z" fill="url(#paint0_linear_7160_13250)"/>
<g clip-path="url(#clip0_7160_13250)">
<path d="M89.6029 95.9902C89.3417 95.9902 89.0804 95.9808 88.8191 95.9618C88.5624 95.9476 88.2943 95.9097 88.0146 95.8482V91.0754C88.2347 91.0328 88.4753 91.002 88.7366 90.9831C88.9979 90.9594 89.2408 90.9476 89.4654 90.9476C89.768 90.9476 90.0453 90.9713 90.2974 91.0186C90.5541 91.0612 90.7741 91.137 90.9575 91.2459C91.1408 91.3548 91.2829 91.4992 91.3838 91.6791C91.4892 91.8543 91.5419 92.0721 91.5419 92.3325C91.5419 92.7255 91.3586 93.0357 90.9919 93.2629C91.2944 93.3813 91.5007 93.5423 91.6107 93.7459C91.7207 93.9495 91.7757 94.1791 91.7757 94.4348C91.7757 94.9509 91.5923 95.3392 91.2256 95.5996C90.8635 95.86 90.3226 95.9902 89.6029 95.9902ZM89.0598 93.7814V95.0527C89.1377 95.0622 89.2225 95.0693 89.3142 95.074C89.4058 95.0788 89.5067 95.0811 89.6167 95.0811C89.9376 95.0811 90.1966 95.0338 90.3937 94.9391C90.5908 94.8444 90.6893 94.6692 90.6893 94.4135C90.6893 94.1862 90.6068 94.0253 90.4418 93.9306C90.2768 93.8311 90.0407 93.7814 89.7336 93.7814H89.0598ZM89.0598 92.9362H89.5823C89.9124 92.9362 90.1484 92.8936 90.2905 92.8084C90.4326 92.7184 90.5037 92.5764 90.5037 92.3823C90.5037 92.1834 90.4303 92.0437 90.2836 91.9632C90.137 91.8827 89.9215 91.8425 89.6373 91.8425C89.5457 91.8425 89.4471 91.8449 89.3417 91.8496C89.2362 91.8496 89.1423 91.8543 89.0598 91.8638V92.9362Z" fill="white"/>
<path d="M95.1715 95.7985C94.9973 95.8505 94.7727 95.8979 94.4976 95.9405C94.2226 95.9879 93.9338 96.0115 93.6313 96.0115C93.3242 96.0115 93.0675 95.9689 92.8612 95.8837C92.6595 95.7985 92.4991 95.6801 92.3799 95.5286C92.2607 95.3723 92.1759 95.1877 92.1255 94.9746C92.0751 94.7615 92.0499 94.5272 92.0499 94.2715V92.1905H93.0743V94.1436C93.0743 94.4845 93.1179 94.7308 93.205 94.8823C93.2921 95.0338 93.4548 95.1095 93.6932 95.1095C93.7665 95.1095 93.8444 95.1072 93.9269 95.1024C94.0095 95.093 94.0828 95.0835 94.147 95.074V92.1905H95.1715V95.7985Z" fill="white"/>
<path d="M96.6901 95.1664C96.878 95.1664 97.011 95.1474 97.0889 95.1095C97.1668 95.0717 97.2058 94.9983 97.2058 94.8894C97.2058 94.8041 97.1553 94.7308 97.0545 94.6692C96.9537 94.6029 96.8001 94.5295 96.5938 94.449C96.4334 94.3875 96.2867 94.3236 96.1538 94.2573C96.0254 94.191 95.9154 94.1129 95.8237 94.0229C95.7321 93.9282 95.661 93.8169 95.6106 93.6891C95.5602 93.5612 95.535 93.4074 95.535 93.2274C95.535 92.8771 95.661 92.6001 95.9131 92.3965C96.1652 92.1929 96.5113 92.0911 96.9514 92.0911C97.1714 92.0911 97.3822 92.1124 97.5839 92.155C97.7856 92.1929 97.9461 92.2355 98.0652 92.2828L97.8865 93.1067C97.7673 93.0641 97.6366 93.0262 97.4945 92.9931C97.357 92.9599 97.2012 92.9433 97.027 92.9433C96.7061 92.9433 96.5457 93.0357 96.5457 93.2203C96.5457 93.2629 96.5526 93.3008 96.5663 93.334C96.5801 93.3671 96.6076 93.4003 96.6488 93.4334C96.6901 93.4618 96.7451 93.495 96.8138 93.5328C96.8872 93.566 96.9789 93.6039 97.0889 93.6465C97.3135 93.7317 97.4991 93.8169 97.6458 93.9021C97.7925 93.9826 97.9071 94.0726 97.9896 94.172C98.0767 94.2667 98.1363 94.3733 98.1684 94.4916C98.205 94.61 98.2234 94.7473 98.2234 94.9036C98.2234 95.2729 98.0882 95.5522 97.8177 95.7416C97.5518 95.931 97.1737 96.0257 96.6832 96.0257C96.3623 96.0257 96.0942 95.9973 95.8787 95.9405C95.6679 95.8837 95.5212 95.8363 95.4387 95.7985L95.6106 94.9391C95.7848 95.0101 95.9635 95.0669 96.1469 95.1095C96.3303 95.1474 96.5113 95.1664 96.6901 95.1664Z" fill="white"/>
<path d="M99.5322 95.9263H98.5077V92.1905H99.5322V95.9263ZM99.6285 91.1109C99.6285 91.3051 99.5666 91.459 99.4428 91.5726C99.3236 91.6815 99.1815 91.736 99.0165 91.736C98.8515 91.736 98.7071 91.6815 98.5833 91.5726C98.4642 91.459 98.4046 91.3051 98.4046 91.1109C98.4046 90.9168 98.4642 90.7653 98.5833 90.6564C98.7071 90.5428 98.8515 90.4859 99.0165 90.4859C99.1815 90.4859 99.3236 90.5428 99.4428 90.6564C99.5666 90.7653 99.6285 90.9168 99.6285 91.1109Z" fill="white"/>
<path d="M100.014 92.3183C100.188 92.2663 100.413 92.2189 100.688 92.1763C100.963 92.1289 101.252 92.1053 101.554 92.1053C101.861 92.1053 102.116 92.1479 102.317 92.2331C102.524 92.3136 102.686 92.4296 102.805 92.5811C102.925 92.7326 103.009 92.9126 103.06 93.1209C103.11 93.3292 103.136 93.5612 103.136 93.8169V95.9263H102.111V93.9448C102.111 93.6039 102.067 93.3624 101.98 93.2203C101.893 93.0783 101.731 93.0073 101.492 93.0073C101.419 93.0073 101.341 93.012 101.258 93.0215C101.176 93.0262 101.103 93.0333 101.038 93.0428V95.9263H100.014V92.3183Z" fill="white"/>
<path d="M103.41 94.0868C103.41 93.7554 103.458 93.4665 103.554 93.2203C103.655 92.9694 103.786 92.761 103.946 92.5953C104.106 92.4296 104.29 92.3041 104.496 92.2189C104.707 92.1337 104.922 92.0911 105.142 92.0911C105.656 92.0911 106.061 92.2544 106.359 92.5811C106.657 92.9031 106.806 93.3789 106.806 94.0087C106.806 94.0702 106.804 94.1389 106.799 94.2147C106.795 94.2857 106.79 94.3496 106.786 94.4064H104.462C104.485 94.6242 104.583 94.797 104.757 94.9249C104.931 95.0527 105.165 95.1166 105.459 95.1166C105.647 95.1166 105.83 95.1001 106.009 95.0669C106.192 95.029 106.341 94.9841 106.456 94.932L106.593 95.7914C106.538 95.8198 106.465 95.8482 106.373 95.8766C106.281 95.905 106.178 95.9287 106.064 95.9476C105.954 95.9713 105.834 95.9902 105.706 96.0044C105.578 96.0186 105.449 96.0257 105.321 96.0257C104.996 96.0257 104.711 95.976 104.469 95.8766C104.23 95.7772 104.031 95.6422 103.87 95.4718C103.714 95.2966 103.598 95.0906 103.52 94.8539C103.446 94.6171 103.41 94.3614 103.41 94.0868ZM105.816 93.682C105.812 93.592 105.796 93.5044 105.768 93.4192C105.745 93.334 105.706 93.2582 105.651 93.1919C105.601 93.1256 105.534 93.0712 105.452 93.0286C105.374 92.986 105.275 92.9646 105.156 92.9646C105.041 92.9646 104.943 92.986 104.86 93.0286C104.778 93.0664 104.709 93.1185 104.654 93.1848C104.599 93.2511 104.556 93.3292 104.524 93.4192C104.496 93.5044 104.475 93.592 104.462 93.682H105.816Z" fill="white"/>
<path d="M108.154 95.1664C108.342 95.1664 108.475 95.1474 108.553 95.1095C108.631 95.0717 108.669 94.9983 108.669 94.8894C108.669 94.8041 108.619 94.7308 108.518 94.6692C108.417 94.6029 108.264 94.5295 108.058 94.449C107.897 94.3875 107.75 94.3236 107.617 94.2573C107.489 94.191 107.379 94.1129 107.287 94.0229C107.196 93.9282 107.125 93.8169 107.074 93.6891C107.024 93.5612 106.999 93.4074 106.999 93.2274C106.999 92.8771 107.125 92.6001 107.377 92.3965C107.629 92.1929 107.975 92.0911 108.415 92.0911C108.635 92.0911 108.846 92.1124 109.048 92.155C109.249 92.1929 109.41 92.2355 109.529 92.2828L109.35 93.1067C109.231 93.0641 109.1 93.0262 108.958 92.9931C108.821 92.9599 108.665 92.9433 108.491 92.9433C108.17 92.9433 108.009 93.0357 108.009 93.2203C108.009 93.2629 108.016 93.3008 108.03 93.334C108.044 93.3671 108.071 93.4003 108.113 93.4334C108.154 93.4618 108.209 93.495 108.278 93.5328C108.351 93.566 108.443 93.6039 108.553 93.6465C108.777 93.7317 108.963 93.8169 109.11 93.9021C109.256 93.9826 109.371 94.0726 109.453 94.172C109.54 94.2667 109.6 94.3733 109.632 94.4916C109.669 94.61 109.687 94.7473 109.687 94.9036C109.687 95.2729 109.552 95.5522 109.281 95.7416C109.016 95.931 108.637 96.0257 108.147 96.0257C107.826 96.0257 107.558 95.9973 107.342 95.9405C107.132 95.8837 106.985 95.8363 106.902 95.7985L107.074 94.9391C107.248 95.0101 107.427 95.0669 107.611 95.1095C107.794 95.1474 107.975 95.1664 108.154 95.1664Z" fill="white"/>
<path d="M111.01 95.1664C111.198 95.1664 111.331 95.1474 111.408 95.1095C111.486 95.0717 111.525 94.9983 111.525 94.8894C111.525 94.8041 111.475 94.7308 111.374 94.6692C111.273 94.6029 111.12 94.5295 110.913 94.449C110.753 94.3875 110.606 94.3236 110.473 94.2573C110.345 94.191 110.235 94.1129 110.143 94.0229C110.052 93.9282 109.981 93.8169 109.93 93.6891C109.88 93.5612 109.855 93.4074 109.855 93.2274C109.855 92.8771 109.981 92.6001 110.233 92.3965C110.485 92.1929 110.831 92.0911 111.271 92.0911C111.491 92.0911 111.702 92.1124 111.904 92.155C112.105 92.1929 112.266 92.2355 112.385 92.2828L112.206 93.1067C112.087 93.0641 111.956 93.0262 111.814 92.9931C111.677 92.9599 111.521 92.9433 111.347 92.9433C111.026 92.9433 110.865 93.0357 110.865 93.2203C110.865 93.2629 110.872 93.3008 110.886 93.334C110.9 93.3671 110.927 93.4003 110.968 93.4334C111.01 93.4618 111.065 93.495 111.133 93.5328C111.207 93.566 111.298 93.6039 111.408 93.6465C111.633 93.7317 111.819 93.8169 111.965 93.9021C112.112 93.9826 112.227 94.0726 112.309 94.172C112.396 94.2667 112.456 94.3733 112.488 94.4916C112.525 94.61 112.543 94.7473 112.543 94.9036C112.543 95.2729 112.408 95.5522 112.137 95.7416C111.871 95.931 111.493 96.0257 111.003 96.0257C110.682 96.0257 110.414 95.9973 110.198 95.9405C109.987 95.8837 109.841 95.8363 109.758 95.7985L109.93 94.9391C110.104 95.0101 110.283 95.0669 110.466 95.1095C110.65 95.1474 110.831 95.1664 111.01 95.1664Z" fill="white"/>
<path d="M113.528 94.7473C113.528 95.0267 113.603 95.2374 113.755 95.3794C113.906 95.5215 114.087 95.5925 114.298 95.5925C114.463 95.5925 114.632 95.5499 114.807 95.4646C114.981 95.3747 115.139 95.2421 115.281 95.0669C115.428 94.887 115.547 94.6621 115.639 94.3922C115.735 94.1223 115.783 93.8051 115.783 93.4405C115.783 93.1611 115.707 92.9504 115.556 92.8084C115.405 92.6663 115.224 92.5953 115.013 92.5953C114.848 92.5953 114.678 92.6403 114.504 92.7303C114.33 92.8155 114.169 92.9481 114.023 93.128C113.881 93.3032 113.762 93.5257 113.665 93.7956C113.574 94.0655 113.528 94.3827 113.528 94.7473ZM116.237 93.405C116.237 93.8501 116.175 94.2359 116.051 94.5627C115.932 94.8894 115.776 95.1616 115.584 95.3794C115.396 95.5925 115.185 95.7511 114.951 95.8553C114.722 95.9594 114.495 96.0115 114.27 96.0115C114.11 96.0115 113.956 95.9855 113.81 95.9334C113.668 95.8813 113.541 95.8032 113.431 95.699C113.321 95.5949 113.234 95.467 113.17 95.3155C113.106 95.1592 113.074 94.9793 113.074 94.7757C113.074 94.3306 113.134 93.9448 113.253 93.6181C113.376 93.2913 113.532 93.0215 113.72 92.8084C113.913 92.5953 114.124 92.4367 114.353 92.3325C114.587 92.2284 114.816 92.1763 115.04 92.1763C115.201 92.1763 115.352 92.2023 115.494 92.2544C115.641 92.3065 115.769 92.3846 115.879 92.4888C115.989 92.593 116.076 92.7232 116.141 92.8794C116.205 93.0309 116.237 93.2061 116.237 93.405Z" fill="white"/>
<path d="M116.714 95.2019C116.659 95.4291 116.604 95.6398 116.549 95.834C116.498 96.0234 116.439 96.2009 116.37 96.3666C116.306 96.5324 116.23 96.6886 116.143 96.8354C116.056 96.9822 115.953 97.1266 115.834 97.2686L115.442 97.2047C115.556 97.0437 115.653 96.8946 115.73 96.7573C115.813 96.6247 115.882 96.4921 115.937 96.3595C115.992 96.227 116.04 96.092 116.081 95.9547C116.122 95.8221 116.161 95.6753 116.198 95.5144L117.051 91.8567C117.115 91.5726 117.2 91.3382 117.305 91.1536C117.415 90.9689 117.537 90.8221 117.669 90.7132C117.807 90.6043 117.954 90.5286 118.11 90.4859C118.265 90.4386 118.424 90.4149 118.584 90.4149C118.74 90.4149 118.873 90.4291 118.983 90.4575C119.097 90.4859 119.203 90.5191 119.299 90.557L119.086 90.9263C118.99 90.8931 118.898 90.8671 118.811 90.8482C118.728 90.8292 118.63 90.8197 118.515 90.8197C118.396 90.8197 118.286 90.8363 118.185 90.8695C118.084 90.9026 117.99 90.9594 117.903 91.0399C117.821 91.1204 117.745 91.2293 117.676 91.3666C117.608 91.4992 117.548 91.6673 117.498 91.8709L117.401 92.2544H118.591L118.508 92.6521H117.305L116.714 95.2019Z" fill="white"/>
<path d="M121.4 95.9263C121.35 95.7558 121.292 95.5807 121.228 95.4007C121.169 95.2208 121.109 95.0409 121.049 94.861H119.193C119.133 95.0409 119.071 95.2208 119.007 95.4007C118.948 95.5807 118.893 95.7558 118.842 95.9263H117.728C117.907 95.396 118.077 94.9059 118.237 94.4561C118.398 94.0063 118.553 93.5825 118.705 93.1848C118.861 92.7871 119.012 92.4107 119.159 92.0555C119.31 91.6957 119.466 91.3453 119.626 91.0044H120.651C120.806 91.3453 120.96 91.6957 121.111 92.0555C121.263 92.4107 121.414 92.7871 121.565 93.1848C121.721 93.5825 121.879 94.0063 122.039 94.4561C122.2 94.9059 122.37 95.396 122.548 95.9263H121.4ZM120.114 92.1195C120.091 92.1905 120.057 92.2876 120.011 92.4107C119.965 92.5338 119.913 92.6758 119.853 92.8368C119.793 92.9978 119.727 93.1753 119.654 93.3695C119.585 93.5636 119.514 93.7672 119.44 93.9803H120.795C120.722 93.7672 120.651 93.5636 120.582 93.3695C120.513 93.1753 120.447 92.9978 120.382 92.8368C120.323 92.6758 120.27 92.5338 120.224 92.4107C120.178 92.2876 120.142 92.1905 120.114 92.1195Z" fill="white"/>
<path d="M124.932 94.0868C124.932 93.7601 124.861 93.4997 124.719 93.3055C124.577 93.1067 124.366 93.0073 124.086 93.0073C123.995 93.0073 123.91 93.012 123.832 93.0215C123.754 93.0262 123.69 93.0333 123.639 93.0428V94.9533C123.704 94.9959 123.786 95.0314 123.887 95.0598C123.992 95.0882 124.098 95.1024 124.203 95.1024C124.689 95.1024 124.932 94.7639 124.932 94.0868ZM125.977 94.0584C125.977 94.3472 125.943 94.61 125.874 94.8467C125.805 95.0835 125.705 95.2871 125.572 95.4575C125.439 95.628 125.274 95.7606 125.077 95.8553C124.879 95.95 124.653 95.9973 124.396 95.9973C124.254 95.9973 124.121 95.9831 123.997 95.9547C123.873 95.9263 123.754 95.886 123.639 95.834V97.2402H122.615V92.3183C122.707 92.2899 122.812 92.2639 122.931 92.2402C123.05 92.2118 123.174 92.1881 123.303 92.1692C123.436 92.1502 123.568 92.136 123.701 92.1266C123.839 92.1124 123.97 92.1053 124.093 92.1053C124.391 92.1053 124.657 92.1526 124.891 92.2473C125.125 92.3373 125.322 92.4675 125.482 92.6379C125.643 92.8037 125.764 93.0073 125.847 93.2487C125.934 93.4902 125.977 93.7601 125.977 94.0584Z" fill="white"/>
<path d="M128.6 94.0868C128.6 93.7601 128.529 93.4997 128.387 93.3055C128.245 93.1067 128.034 93.0073 127.755 93.0073C127.663 93.0073 127.578 93.012 127.5 93.0215C127.422 93.0262 127.358 93.0333 127.308 93.0428V94.9533C127.372 94.9959 127.454 95.0314 127.555 95.0598C127.661 95.0882 127.766 95.1024 127.872 95.1024C128.358 95.1024 128.6 94.7639 128.6 94.0868ZM129.646 94.0584C129.646 94.3472 129.611 94.61 129.542 94.8467C129.474 95.0835 129.373 95.2871 129.24 95.4575C129.107 95.628 128.942 95.7606 128.745 95.8553C128.548 95.95 128.321 95.9973 128.064 95.9973C127.922 95.9973 127.789 95.9831 127.665 95.9547C127.542 95.9263 127.422 95.886 127.308 95.834V97.2402H126.283V92.3183C126.375 92.2899 126.48 92.2639 126.6 92.2402C126.719 92.2118 126.843 92.1881 126.971 92.1692C127.104 92.1502 127.237 92.136 127.37 92.1266C127.507 92.1124 127.638 92.1053 127.762 92.1053C128.06 92.1053 128.325 92.1526 128.559 92.2473C128.793 92.3373 128.99 92.4675 129.151 92.6379C129.311 92.8037 129.432 93.0073 129.515 93.2487C129.602 93.4902 129.646 93.7601 129.646 94.0584Z" fill="white"/>
<path d="M130.99 95.1664C131.178 95.1664 131.311 95.1474 131.389 95.1095C131.467 95.0717 131.506 94.9983 131.506 94.8894C131.506 94.8041 131.455 94.7307 131.354 94.6692C131.253 94.6029 131.1 94.5295 130.894 94.449C130.733 94.3875 130.587 94.3235 130.454 94.2573C130.325 94.191 130.215 94.1128 130.124 94.0229C130.032 93.9282 129.961 93.8169 129.91 93.6891C129.86 93.5612 129.835 93.4073 129.835 93.2274C129.835 92.877 129.961 92.6001 130.213 92.3965C130.465 92.1929 130.811 92.0911 131.251 92.0911C131.471 92.0911 131.682 92.1124 131.884 92.155C132.085 92.1929 132.246 92.2355 132.365 92.2828L132.186 93.1067C132.067 93.0641 131.936 93.0262 131.794 92.993C131.657 92.9599 131.501 92.9433 131.327 92.9433C131.006 92.9433 130.845 93.0357 130.845 93.2203C130.845 93.2629 130.852 93.3008 130.866 93.334C130.88 93.3671 130.907 93.4002 130.949 93.4334C130.99 93.4618 131.045 93.4949 131.114 93.5328C131.187 93.566 131.279 93.6038 131.389 93.6465C131.613 93.7317 131.799 93.8169 131.946 93.9021C132.092 93.9826 132.207 94.0726 132.289 94.172C132.377 94.2667 132.436 94.3733 132.468 94.4916C132.505 94.61 132.523 94.7473 132.523 94.9036C132.523 95.2729 132.388 95.5522 132.118 95.7416C131.852 95.931 131.473 96.0257 130.983 96.0257C130.662 96.0257 130.394 95.9973 130.179 95.9405C129.968 95.8837 129.821 95.8363 129.739 95.7985L129.91 94.9391C130.085 95.0101 130.263 95.0669 130.447 95.1095C130.63 95.1474 130.811 95.1664 130.99 95.1664Z" fill="white"/>
<rect x="77.1035" y="87.7985" width="2.11781" height="2.18759" fill="#00966C"/>
<rect x="77.1035" y="90.533" width="2.11781" height="2.18759" fill="#E51C20"/>
<rect x="77.1035" y="93.2673" width="2.11781" height="2.18759" fill="#D0539A"/>
<rect x="77.1035" y="96.002" width="2.11781" height="2.18759" fill="#1CB8EC"/>
<rect x="79.75" y="87.7986" width="2.11781" height="2.18759" fill="#007BC3"/>
<rect x="79.75" y="90.533" width="2.11781" height="2.18759" fill="#0052A1"/>
<rect x="79.75" y="93.2673" width="2.11781" height="2.18759" fill="#A8CA67"/>
<rect x="79.75" y="96.0018" width="2.11781" height="2.18759" fill="#F28C00"/>
<rect x="82.3979" y="87.7986" width="2.11781" height="2.18759" fill="#AFCB08"/>
<rect x="82.3979" y="90.533" width="2.11781" height="2.18759" fill="#EBCA1C"/>
<rect x="82.3979" y="93.2673" width="2.11781" height="2.18759" fill="#5C75AB"/>
<rect x="82.3979" y="96.0018" width="2.11781" height="2.18759" fill="#96689E"/>
<rect x="85.0454" y="87.7986" width="2.11781" height="2.18759" fill="#87BBE6"/>
<rect x="85.0454" y="90.533" width="2.11781" height="2.18759" fill="#EE78AD"/>
<rect x="85.0454" y="93.2673" width="2.11781" height="2.18759" fill="#41AF6B"/>
<rect x="85.0454" y="96.0018" width="2.11781" height="2.18759" fill="#0087CB"/>
</g>
<path fill-rule="evenodd" clip-rule="evenodd" d="M105.059 5.70388L43.9318 38.1775V102.849L105.059 135.323L166.185 102.849V38.1775L105.059 5.70388ZM168.157 36.9922L105.059 3.47107L41.96 36.9922V104.034L105.059 137.556L168.157 104.034V36.9922Z" fill="#12B3E9"/>
<path d="M89.3006 115.873V114.491L92.8543 111.135C93.1351 110.88 93.3413 110.652 93.4729 110.45C93.6045 110.249 93.6923 110.064 93.7362 109.898C93.7888 109.731 93.8151 109.577 93.8151 109.437C93.8151 109.068 93.6879 108.788 93.4334 108.595C93.1877 108.393 92.8236 108.292 92.341 108.292C91.9549 108.292 91.5951 108.366 91.2617 108.516C90.937 108.665 90.6606 108.897 90.4325 109.213L88.8794 108.213C89.2304 107.686 89.7218 107.27 90.3535 106.962C90.9853 106.655 91.7136 106.502 92.5384 106.502C93.2228 106.502 93.8195 106.616 94.3285 106.844C94.8462 107.063 95.2454 107.375 95.5262 107.779C95.8158 108.182 95.9605 108.665 95.9605 109.226C95.9605 109.525 95.9211 109.823 95.8421 110.121C95.7719 110.411 95.6227 110.718 95.3946 111.043C95.1752 111.367 94.8505 111.732 94.4206 112.135L91.4723 114.912L91.0643 114.136H96.2633V115.873H89.3006Z" fill="white"/>
<path d="M100.828 116.031C100.074 116.031 99.3981 115.847 98.8015 115.478C98.2048 115.101 97.7353 114.557 97.3931 113.846C97.0509 113.135 96.8798 112.276 96.8798 111.266C96.8798 110.257 97.0509 109.397 97.3931 108.687C97.7353 107.976 98.2048 107.436 98.8015 107.068C99.3981 106.69 100.074 106.502 100.828 106.502C101.592 106.502 102.267 106.69 102.855 107.068C103.452 107.436 103.921 107.976 104.264 108.687C104.606 109.397 104.777 110.257 104.777 111.266C104.777 112.276 104.606 113.135 104.264 113.846C103.921 114.557 103.452 115.101 102.855 115.478C102.267 115.847 101.592 116.031 100.828 116.031ZM100.828 114.228C101.188 114.228 101.5 114.127 101.763 113.925C102.035 113.723 102.246 113.403 102.395 112.964C102.553 112.526 102.632 111.96 102.632 111.266C102.632 110.573 102.553 110.007 102.395 109.569C102.246 109.13 102.035 108.81 101.763 108.608C101.5 108.406 101.188 108.305 100.828 108.305C100.477 108.305 100.166 108.406 99.8939 108.608C99.6307 108.81 99.4201 109.13 99.2621 109.569C99.113 110.007 99.0384 110.573 99.0384 111.266C99.0384 111.96 99.113 112.526 99.2621 112.964C99.4201 113.403 99.6307 113.723 99.8939 113.925C100.166 114.127 100.477 114.228 100.828 114.228Z" fill="white"/>
<path d="M105.419 115.873V114.491L108.973 111.135C109.254 110.88 109.46 110.652 109.592 110.45C109.723 110.249 109.811 110.064 109.855 109.898C109.908 109.731 109.934 109.577 109.934 109.437C109.934 109.068 109.807 108.788 109.552 108.595C109.307 108.393 108.942 108.292 108.46 108.292C108.074 108.292 107.714 108.366 107.381 108.516C107.056 108.665 106.779 108.897 106.551 109.213L104.998 108.213C105.349 107.686 105.841 107.27 106.472 106.962C107.104 106.655 107.832 106.502 108.657 106.502C109.342 106.502 109.938 106.616 110.447 106.844C110.965 107.063 111.364 107.375 111.645 107.779C111.935 108.182 112.079 108.665 112.079 109.226C112.079 109.525 112.04 109.823 111.961 110.121C111.891 110.411 111.742 110.718 111.513 111.043C111.294 111.367 110.969 111.732 110.539 112.135L107.591 114.912L107.183 114.136H112.382V115.873H105.419Z" fill="white"/>
<path d="M115.986 116.031C115.346 116.031 114.71 115.948 114.078 115.781C113.446 115.606 112.911 115.36 112.472 115.044L113.301 113.412C113.652 113.666 114.06 113.868 114.525 114.017C114.99 114.166 115.46 114.241 115.934 114.241C116.469 114.241 116.89 114.136 117.197 113.925C117.504 113.715 117.658 113.425 117.658 113.056C117.658 112.706 117.522 112.429 117.25 112.227C116.978 112.025 116.539 111.925 115.934 111.925H114.96V110.516L117.526 107.607L117.763 108.371H112.933V106.66H119.382V108.042L116.829 110.951L115.749 110.332H116.368C117.5 110.332 118.356 110.586 118.935 111.095C119.514 111.604 119.803 112.258 119.803 113.056C119.803 113.574 119.667 114.061 119.395 114.517C119.123 114.965 118.707 115.329 118.145 115.61C117.583 115.891 116.864 116.031 115.986 116.031Z" fill="white"/>
<path d="M94.1036 27.8957V20.4197H91.1553V18.6824H99.1841V20.4197H96.2358V27.8957H94.1036Z" fill="white"/>
<path d="M104.415 28.0537C103.686 28.0537 103.011 27.9352 102.388 27.6983C101.773 27.4614 101.238 27.128 100.782 26.698C100.334 26.268 99.9834 25.7635 99.729 25.1844C99.4833 24.6052 99.3604 23.9735 99.3604 23.289C99.3604 22.6046 99.4833 21.9729 99.729 21.3937C99.9834 20.8146 100.339 20.3101 100.795 19.8801C101.251 19.4501 101.787 19.1167 102.401 18.8798C103.015 18.6429 103.682 18.5244 104.401 18.5244C105.13 18.5244 105.797 18.6429 106.402 18.8798C107.016 19.1167 107.547 19.4501 107.995 19.8801C108.451 20.3101 108.806 20.8146 109.061 21.3937C109.315 21.9641 109.442 22.5959 109.442 23.289C109.442 23.9735 109.315 24.6096 109.061 25.1975C108.806 25.7767 108.451 26.2812 107.995 26.7112C107.547 27.1323 107.016 27.4614 106.402 27.6983C105.797 27.9352 105.134 28.0537 104.415 28.0537ZM104.401 26.2373C104.814 26.2373 105.191 26.1671 105.533 26.0267C105.884 25.8863 106.191 25.6845 106.455 25.4213C106.718 25.158 106.92 24.8465 107.06 24.4868C107.209 24.127 107.284 23.7278 107.284 23.289C107.284 22.8503 107.209 22.4511 107.06 22.0913C106.92 21.7315 106.718 21.42 106.455 21.1568C106.2 20.8936 105.898 20.6918 105.547 20.5514C105.196 20.411 104.814 20.3408 104.401 20.3408C103.989 20.3408 103.607 20.411 103.256 20.5514C102.914 20.6918 102.611 20.8936 102.348 21.1568C102.085 21.42 101.879 21.7315 101.73 22.0913C101.589 22.4511 101.519 22.8503 101.519 23.289C101.519 23.719 101.589 24.1183 101.73 24.4868C101.879 24.8465 102.081 25.158 102.335 25.4213C102.598 25.6845 102.905 25.8863 103.256 26.0267C103.607 26.1671 103.989 26.2373 104.401 26.2373Z" fill="white"/>
<path d="M110.782 27.8957V18.6824H114.77C115.595 18.6824 116.305 18.8184 116.902 19.0904C117.499 19.3536 117.959 19.7353 118.284 20.2355C118.609 20.7356 118.771 21.3323 118.771 22.0255C118.771 22.7099 118.609 23.3022 118.284 23.8024C117.959 24.3025 117.499 24.6886 116.902 24.9606C116.305 25.2239 115.595 25.3555 114.77 25.3555H111.966L112.914 24.3947V27.8957H110.782ZM112.914 24.6316L111.966 23.6181H114.651C115.309 23.6181 115.801 23.4777 116.125 23.1969C116.45 22.9161 116.612 22.5257 116.612 22.0255C116.612 21.5166 116.45 21.1217 116.125 20.8409C115.801 20.5601 115.309 20.4197 114.651 20.4197H111.966L112.914 19.4063V24.6316Z" fill="white"/>
<rect x="77.2539" y="33.5956" width="55.4188" height="0.985915" fill="#12B3E9"/>
<path d="M89.9749 49.3368L94.0815 40.1234H96.1874L100.307 49.3368H98.0696L94.7001 41.2027H95.5425L92.1598 49.3368H89.9749ZM92.0282 47.3625L92.5942 45.7436H97.3325L97.9116 47.3625H92.0282Z" fill="white"/>
<path d="M101 49.3368V40.1234H104.988C105.813 40.1234 106.523 40.2594 107.12 40.5314C107.717 40.7947 108.177 41.1764 108.502 41.6765C108.827 42.1767 108.989 42.7734 108.989 43.4666C108.989 44.151 108.827 44.7433 108.502 45.2434C108.177 45.7436 107.717 46.1297 107.12 46.4017C106.523 46.6649 105.813 46.7965 104.988 46.7965H102.184L103.132 45.8357V49.3368H101ZM103.132 46.0726L102.184 45.0592H104.869C105.527 45.0592 106.019 44.9188 106.343 44.638C106.668 44.3572 106.83 43.9667 106.83 43.4666C106.83 42.9576 106.668 42.5628 106.343 42.282C106.019 42.0012 105.527 41.8608 104.869 41.8608H102.184L103.132 40.8473V46.0726Z" fill="white"/>
<path d="M110.248 49.3368V40.1234H114.236C115.061 40.1234 115.772 40.2594 116.368 40.5314C116.965 40.7947 117.426 41.1764 117.75 41.6765C118.075 42.1767 118.237 42.7734 118.237 43.4666C118.237 44.151 118.075 44.7433 117.75 45.2434C117.426 45.7436 116.965 46.1297 116.368 46.4017C115.772 46.6649 115.061 46.7965 114.236 46.7965H111.433L112.38 45.8357V49.3368H110.248ZM112.38 46.0726L111.433 45.0592H114.118C114.776 45.0592 115.267 44.9188 115.592 44.638C115.917 44.3572 116.079 43.9667 116.079 43.4666C116.079 42.9576 115.917 42.5628 115.592 42.282C115.267 42.0012 114.776 41.8608 114.118 41.8608H111.433L112.38 40.8473V46.0726Z" fill="white"/>
<path d="M53.5498 62.4988V53.2854H57.7353C58.7356 53.2854 59.6175 53.4784 60.3809 53.8645C61.1443 54.2418 61.7409 54.7727 62.1709 55.4571C62.6009 56.1415 62.8158 56.9532 62.8158 57.8921C62.8158 58.8222 62.6009 59.6338 62.1709 60.327C61.7409 61.0115 61.1443 61.5467 60.3809 61.9328C59.6175 62.3101 58.7356 62.4988 57.7353 62.4988H53.5498ZM55.682 60.7482H57.63C58.2442 60.7482 58.7751 60.6342 59.2226 60.406C59.6789 60.1691 60.0299 59.8357 60.2756 59.4057C60.53 58.9757 60.6573 58.4712 60.6573 57.8921C60.6573 57.3042 60.53 56.7996 60.2756 56.3784C60.0299 55.9485 59.6789 55.6194 59.2226 55.3913C58.7751 55.1544 58.2442 55.0359 57.63 55.0359H55.682V60.7482Z" fill="white"/>
<path d="M66.1217 56.9971H70.5573V58.6555H66.1217V56.9971ZM66.2797 60.7877H71.2944V62.4988H64.1606V53.2854H71.1233V54.9964H66.2797V60.7877Z" fill="white"/>
<path d="M75.3632 62.4988L71.3883 53.2854H73.6916L77.1664 61.4458H75.8107L79.3381 53.2854H81.4572L77.4691 62.4988H75.3632Z" fill="white"/>
<path d="M83.9243 56.9971H88.3599V58.6555H83.9243V56.9971ZM84.0823 60.7877H89.097V62.4988H81.9632V53.2854H88.9259V54.9964H84.0823V60.7877Z" fill="white"/>
<path d="M90.5303 62.4988V53.2854H92.6626V60.7614H97.2824V62.4988H90.5303Z" fill="white"/>
<path d="M102.531 62.6567C101.803 62.6567 101.127 62.5382 100.504 62.3013C99.8902 62.0644 99.3549 61.731 98.8987 61.301C98.4512 60.8711 98.1002 60.3665 97.8457 59.7874C97.6 59.2083 97.4772 58.5765 97.4772 57.8921C97.4772 57.2077 97.6 56.5759 97.8457 55.9968C98.1002 55.4176 98.4555 54.9131 98.9118 54.4831C99.3681 54.0532 99.9034 53.7197 100.518 53.4828C101.132 53.2459 101.799 53.1274 102.518 53.1274C103.246 53.1274 103.913 53.2459 104.519 53.4828C105.133 53.7197 105.664 54.0532 106.111 54.4831C106.568 54.9131 106.923 55.4176 107.178 55.9968C107.432 56.5671 107.559 57.1989 107.559 57.8921C107.559 58.5765 107.432 59.2127 107.178 59.8006C106.923 60.3797 106.568 60.8842 106.111 61.3142C105.664 61.7354 105.133 62.0644 104.519 62.3013C103.913 62.5382 103.251 62.6567 102.531 62.6567ZM102.518 60.8404C102.931 60.8404 103.308 60.7702 103.65 60.6298C104.001 60.4894 104.308 60.2876 104.571 60.0243C104.835 59.7611 105.037 59.4496 105.177 59.0898C105.326 58.7301 105.401 58.3308 105.401 57.8921C105.401 57.4533 105.326 57.0541 105.177 56.6943C105.037 56.3346 104.835 56.0231 104.571 55.7598C104.317 55.4966 104.014 55.2948 103.663 55.1544C103.312 55.014 102.931 54.9438 102.518 54.9438C102.106 54.9438 101.724 55.014 101.373 55.1544C101.031 55.2948 100.728 55.4966 100.465 55.7598C100.202 56.0231 99.9955 56.3346 99.8463 56.6943C99.7059 57.0541 99.6357 57.4533 99.6357 57.8921C99.6357 58.322 99.7059 58.7213 99.8463 59.0898C99.9955 59.4496 100.197 59.7611 100.452 60.0243C100.715 60.2876 101.022 60.4894 101.373 60.6298C101.724 60.7702 102.106 60.8404 102.518 60.8404Z" fill="white"/>
<path d="M108.898 62.4988V53.2854H112.887C113.711 53.2854 114.422 53.4214 115.019 53.6934C115.615 53.9566 116.076 54.3383 116.401 54.8385C116.725 55.3387 116.888 55.9353 116.888 56.6285C116.888 57.3129 116.725 57.9052 116.401 58.4054C116.076 58.9055 115.615 59.2916 115.019 59.5636C114.422 59.8269 113.711 59.9585 112.887 59.9585H110.083L111.031 58.9977V62.4988H108.898ZM111.031 59.2346L110.083 58.2211H112.768C113.426 58.2211 113.918 58.0807 114.242 57.7999C114.567 57.5192 114.729 57.1287 114.729 56.6285C114.729 56.1196 114.567 55.7247 114.242 55.4439C113.918 55.1632 113.426 55.0228 112.768 55.0228H110.083L111.031 54.0093V59.2346Z" fill="white"/>
<path d="M118.147 62.4988V53.2854H119.911L123.833 59.7874H122.898L126.755 53.2854H128.505L128.532 62.4988H126.531L126.518 56.3521H126.886L123.806 61.5248H122.846L119.7 56.3521H120.147V62.4988H118.147Z" fill="white"/>
<path d="M132.415 56.9971H136.851V58.6555H132.415V56.9971ZM132.573 60.7877H137.588V62.4988H130.454V53.2854H137.417V54.9964H132.573V60.7877Z" fill="white"/>
<path d="M139.021 62.4988V53.2854H140.785L146.221 59.919H145.365V53.2854H147.471V62.4988H145.721L140.272 55.8651H141.127V62.4988H139.021Z" fill="white"/>
<path d="M151.296 62.4988V55.0228H148.348V53.2854H156.377V55.0228H153.429V62.4988H151.296Z" fill="white"/>
<path d="M68.782 75.8187C68.0712 75.8187 67.4087 75.7046 66.7945 75.4765C66.1891 75.2396 65.6626 74.9061 65.2151 74.4762C64.7676 74.0462 64.4166 73.5417 64.1621 72.9625C63.9164 72.3834 63.7936 71.7472 63.7936 71.054C63.7936 70.3608 63.9164 69.7247 64.1621 69.1456C64.4166 68.5664 64.7676 68.0619 65.2151 67.6319C65.6713 67.202 66.2022 66.8729 66.8077 66.6448C67.4131 66.4079 68.0756 66.2894 68.7951 66.2894C69.5936 66.2894 70.3131 66.4298 70.9537 66.7106C71.603 66.9826 72.147 67.3862 72.5858 67.9215L71.2169 69.185C70.901 68.8253 70.5501 68.5577 70.164 68.3822C69.7779 68.1979 69.3567 68.1058 68.9004 68.1058C68.4705 68.1058 68.0756 68.176 67.7158 68.3164C67.3561 68.4568 67.0446 68.6586 66.7813 68.9218C66.5181 69.185 66.3119 69.4965 66.1627 69.8563C66.0223 70.2161 65.9521 70.6153 65.9521 71.054C65.9521 71.4928 66.0223 71.892 66.1627 72.2518C66.3119 72.6115 66.5181 72.923 66.7813 73.1863C67.0446 73.4495 67.3561 73.6513 67.7158 73.7917C68.0756 73.9321 68.4705 74.0023 68.9004 74.0023C69.3567 74.0023 69.7779 73.9146 70.164 73.7391C70.5501 73.5548 70.901 73.2784 71.2169 72.9099L72.5858 74.1734C72.147 74.7087 71.603 75.1167 70.9537 75.3975C70.3131 75.6783 69.5892 75.8187 68.782 75.8187Z" fill="white"/>
<path d="M78.0447 75.8187C77.3164 75.8187 76.6408 75.7002 76.0178 75.4633C75.4035 75.2264 74.8683 74.893 74.412 74.463C73.9645 74.033 73.6135 73.5285 73.359 72.9494C73.1133 72.3702 72.9905 71.7385 72.9905 71.054C72.9905 70.3696 73.1133 69.7378 73.359 69.1587C73.6135 68.5796 73.9689 68.0751 74.4252 67.6451C74.8814 67.2151 75.4167 66.8817 76.0309 66.6448C76.6451 66.4079 77.312 66.2894 78.0315 66.2894C78.7598 66.2894 79.4267 66.4079 80.0322 66.6448C80.6464 66.8817 81.1772 67.2151 81.6248 67.6451C82.081 68.0751 82.4364 68.5796 82.6909 69.1587C82.9453 69.7291 83.0726 70.3608 83.0726 71.054C83.0726 71.7385 82.9453 72.3746 82.6909 72.9625C82.4364 73.5417 82.081 74.0462 81.6248 74.4762C81.1772 74.8973 80.6464 75.2264 80.0322 75.4633C79.4267 75.7002 78.7642 75.8187 78.0447 75.8187ZM78.0315 74.0023C78.4439 74.0023 78.8213 73.9321 79.1635 73.7917C79.5145 73.6513 79.8216 73.4495 80.0848 73.1863C80.348 72.923 80.5499 72.6115 80.6903 72.2518C80.8394 71.892 80.914 71.4928 80.914 71.054C80.914 70.6153 80.8394 70.2161 80.6903 69.8563C80.5499 69.4965 80.348 69.185 80.0848 68.9218C79.8303 68.6586 79.5276 68.4568 79.1766 68.3164C78.8256 68.176 78.4439 68.1058 78.0315 68.1058C77.6191 68.1058 77.2374 68.176 76.8864 68.3164C76.5442 68.4568 76.2415 68.6586 75.9783 68.9218C75.715 69.185 75.5088 69.4965 75.3597 69.8563C75.2193 70.2161 75.1491 70.6153 75.1491 71.054C75.1491 71.484 75.2193 71.8832 75.3597 72.2518C75.5088 72.6115 75.7106 72.923 75.9651 73.1863C76.2283 73.4495 76.5355 73.6513 76.8864 73.7917C77.2374 73.9321 77.6191 74.0023 78.0315 74.0023Z" fill="white"/>
<path d="M84.4118 75.6607V66.4474H86.1755L90.0978 72.9494H89.1633L93.0197 66.4474H94.7703L94.7966 75.6607H92.796L92.7828 69.5141H93.1514L90.0715 74.6867H89.1106L85.9649 69.5141H86.4124V75.6607H84.4118Z" fill="white"/>
<path d="M96.7193 75.6607V66.4474H100.707C101.532 66.4474 102.243 66.5834 102.84 66.8554C103.436 67.1186 103.897 67.5003 104.222 68.0005C104.546 68.5006 104.709 69.0973 104.709 69.7905C104.709 70.4749 104.546 71.0672 104.222 71.5674C103.897 72.0675 103.436 72.4536 102.84 72.7256C102.243 72.9889 101.532 73.1205 100.707 73.1205H97.9039L98.8515 72.1597V75.6607H96.7193ZM98.8515 72.3966L97.9039 71.3831H100.589C101.247 71.3831 101.738 71.2427 102.063 70.9619C102.388 70.6811 102.55 70.2907 102.55 69.7905C102.55 69.2816 102.388 68.8867 102.063 68.6059C101.738 68.3251 101.247 68.1847 100.589 68.1847H97.9039L98.8515 67.1713V72.3966Z" fill="white"/>
<path d="M104.294 75.6607L108.401 66.4474H110.506L114.626 75.6607H112.389L109.019 67.5266H109.862L106.479 75.6607H104.294ZM106.347 73.6864L106.913 72.0675H111.652L112.231 73.6864H106.347Z" fill="white"/>
<path d="M115.319 75.6607V66.4474H117.082L122.518 73.081H121.663V66.4474H123.769V75.6607H122.018L116.569 69.0271H117.425V75.6607H115.319Z" fill="white"/>
<path d="M125.685 75.6607V66.4474H127.818V75.6607H125.685Z" fill="white"/>
<path d="M131.702 70.159H136.138V71.8174H131.702V70.159ZM131.86 73.9497H136.875V75.6607H129.741V66.4474H136.704V68.1584H131.86V73.9497Z" fill="white"/>
<path d="M141.335 75.8187C140.598 75.8187 139.892 75.7222 139.216 75.5291C138.541 75.3273 137.997 75.0684 137.584 74.7526L138.308 73.1468C138.703 73.4276 139.168 73.6601 139.703 73.8444C140.247 74.0199 140.796 74.1076 141.348 74.1076C141.77 74.1076 142.107 74.0681 142.362 73.9892C142.625 73.9014 142.818 73.783 142.941 73.6338C143.064 73.4846 143.125 73.3135 143.125 73.1205C143.125 72.8748 143.029 72.6817 142.836 72.5413C142.643 72.3922 142.388 72.2737 142.072 72.186C141.756 72.0895 141.405 72.0017 141.019 71.9227C140.642 71.835 140.26 71.7297 139.874 71.6068C139.497 71.484 139.15 71.3261 138.834 71.133C138.519 70.94 138.26 70.6855 138.058 70.3696C137.865 70.0537 137.768 69.6501 137.768 69.1587C137.768 68.6322 137.909 68.154 138.19 67.7241C138.479 67.2853 138.909 66.9387 139.479 66.6843C140.059 66.421 140.782 66.2894 141.651 66.2894C142.23 66.2894 142.801 66.3596 143.362 66.5C143.924 66.6316 144.42 66.8334 144.85 67.1055L144.191 68.7244C143.761 68.4787 143.332 68.2988 142.902 68.1847C142.472 68.0619 142.05 68.0005 141.638 68.0005C141.226 68.0005 140.888 68.0487 140.625 68.1453C140.361 68.2418 140.173 68.369 140.059 68.5269C139.944 68.6761 139.887 68.8516 139.887 69.0534C139.887 69.2903 139.984 69.4834 140.177 69.6326C140.37 69.7729 140.625 69.887 140.94 69.9748C141.256 70.0625 141.603 70.1503 141.98 70.238C142.366 70.3258 142.748 70.4267 143.125 70.5407C143.511 70.6548 143.862 70.8084 144.178 71.0014C144.494 71.1944 144.749 71.4489 144.942 71.7648C145.143 72.0807 145.244 72.4799 145.244 72.9625C145.244 73.4802 145.1 73.9541 144.81 74.384C144.52 74.814 144.086 75.1606 143.507 75.4238C142.937 75.6871 142.213 75.8187 141.335 75.8187Z" fill="white"/>
<rect x="77.2539" y="81.3605" width="55.4188" height="0.901785" fill="#12B3E9"/>
<defs>
<linearGradient id="paint0_linear_7160_13250" x1="114.425" y1="-4.41627" x2="104.812" y2="140.513" gradientUnits="userSpaceOnUse">
<stop stop-color="white" stop-opacity="0.4"/>
<stop offset="1" stop-color="white" stop-opacity="0"/>
</linearGradient>
<clipPath id="clip0_7160_13250">
<rect width="55.4188" height="10.391" fill="white" transform="translate(77.103 87.798)"/>
</clipPath>
</defs>
</svg>
