<svg width="128" height="128" viewBox="0 0 128 128" fill="none" xmlns="http://www.w3.org/2000/svg">
<path d="M61.6175 92.7216C57.6053 92.2903 55.7631 92.4238 53.2404 93.2535C53.2404 93.2535 51.3788 89.9293 54.0382 89.6633C55.7785 89.4894 57.7188 89.8623 61.1654 91.392C61.1646 91.8914 61.3066 92.1829 61.6175 92.7216Z" fill="#00395D"/>
<path d="M54.9692 85.9403C52.7848 85.3703 53.1076 89.3975 53.1076 89.3975C55.2006 88.7773 56.8725 88.9826 61.2188 90.8601C61.2552 90.6532 61.281 90.537 61.3518 90.3283C61.3518 90.3283 58.0275 86.7381 54.9692 85.9403Z" fill="#00395D"/>
<path d="M57.8944 83.2807C56.4626 82.5959 55.3283 83.974 54.7031 85.2752C59.0911 86.7379 61.6176 89.7962 61.6176 89.7962C61.6125 89.8106 61.8771 89.2827 62.0165 89.1314C61.7505 87.2698 60.1187 84.3445 57.8944 83.2807Z" fill="#00395D"/>
<path d="M62.4155 81.8181C61.1129 80.8709 58.8809 81.4759 57.8945 82.7489C59.8891 83.6797 62.0166 85.9402 62.4155 88.8655C62.8144 88.5996 63.0804 88.3337 63.6122 88.2007C64.0111 86.871 63.8782 82.8819 62.4155 81.8181Z" fill="#00395D"/>
<path d="M66.6704 81.5522C65.3633 80.8025 62.9473 81.5522 62.9473 81.5522C64.2756 83.3489 64.411 84.8908 64.144 88.2007C64.6527 88.1286 64.9439 88.1627 65.4737 88.3337C65.4737 88.3337 69.0032 82.8901 66.6704 81.5522Z" fill="#00395D"/>
<path d="M66.9363 89.3973C66.5693 88.9591 66.3329 88.7609 65.8726 88.4665C67.703 85.4899 68.266 83.5467 67.7341 82.084C67.7341 82.084 71.8972 82.3499 71.5903 84.3445C71.1882 86.9584 66.9363 89.3973 66.9363 89.3973Z" fill="#00395D"/>
<path d="M67.4686 91.2589C67.5284 90.6603 67.4659 90.342 67.2026 89.7963C70.4546 87.4398 71.7388 86.2074 71.9896 84.3445C71.9896 84.3445 75.1808 85.4082 74.383 87.2698C73.0991 90.2656 67.4686 91.2589 67.4686 91.2589Z" fill="#00395D"/>
<path d="M67.0693 92.8546C67.3297 92.3908 67.4198 92.1241 67.4682 91.6579C71.2055 90.7795 73.2378 90.0104 74.9146 87.4028C74.9146 87.4028 76.0991 89.3692 75.7124 90.5941C74.9146 93.1205 67.0693 92.8546 67.0693 92.8546Z" fill="#00395D"/>
<path fill-rule="evenodd" clip-rule="evenodd" d="M66.2715 13.3701C64.9551 12.61 63.3329 12.61 62.0165 13.3701L21.3609 36.8426C20.0444 37.6027 19.2334 39.0074 19.2334 40.5274V87.4725C19.2334 88.9929 20.0444 90.3976 21.3609 91.1576L62.0165 114.63C63.3329 115.39 64.9551 115.39 66.2715 114.63L106.927 91.1576C108.243 90.3976 109.055 88.9929 109.055 87.4725V40.5274C109.055 39.0074 108.243 37.6027 106.927 36.8426L66.2715 13.3701ZM66.2731 18.1592C64.9559 17.3979 63.3323 17.3979 62.0149 18.1592L25.3152 39.3687C23.9996 40.1291 23.1892 41.5332 23.1892 43.0528V85.4793C23.1892 86.9988 23.9996 88.403 25.3152 89.1633L62.0149 110.373C63.3323 111.134 64.9559 111.134 66.2731 110.373L102.973 89.1633C104.288 88.403 105.099 86.9988 105.099 85.4793V43.0528C105.099 41.5332 104.288 40.1291 102.973 39.3687L66.2731 18.1592Z" fill="#00395D"/>
<path d="M19.2002 98.5723H109.088L104.966 103.758L109.088 108.944H19.2002L23.8541 103.758L19.2002 98.5723Z" fill="#00395D"/>
<path d="M29.1875 104.584C29.1617 105.166 28.9981 105.607 28.6966 105.906C28.3951 106.205 27.9697 106.355 27.4204 106.355C26.8431 106.355 26.4001 106.165 26.0916 105.787C25.7854 105.406 25.6323 104.863 25.6323 104.16V103.301C25.6323 102.6 25.7913 102.06 26.1092 101.681C26.427 101.3 26.8688 101.11 27.4344 101.11C27.9907 101.11 28.4126 101.265 28.7001 101.576C28.9899 101.887 29.1547 102.333 29.1945 102.915H28.1602C28.1508 102.555 28.0947 102.307 27.9919 102.172C27.8914 102.034 27.7056 101.965 27.4344 101.965C27.1586 101.965 26.9635 102.062 26.8489 102.256C26.7344 102.448 26.6736 102.765 26.6666 103.206V104.17C26.6666 104.678 26.7227 105.026 26.8349 105.215C26.9494 105.405 27.1446 105.499 27.4204 105.499C27.6915 105.499 27.8785 105.434 27.9814 105.303C28.0842 105.17 28.1427 104.93 28.1567 104.584H29.1875Z" fill="white"/>
<path d="M32.4588 104.076H30.853V105.429H32.7533V106.285H29.8223V101.18H32.7463V102.039H30.853V103.245H32.4588V104.076Z" fill="white"/>
<path d="M34.8952 104.419H34.3833V106.285H33.3525V101.18H34.9969C35.5134 101.18 35.9119 101.314 36.1924 101.583C36.4753 101.85 36.6167 102.229 36.6167 102.722C36.6167 103.4 36.3701 103.875 35.8769 104.146L36.7709 106.235V106.285H35.663L34.8952 104.419ZM34.3833 103.56H34.9688C35.1745 103.56 35.3288 103.493 35.4316 103.357C35.5345 103.219 35.5859 103.036 35.5859 102.807C35.5859 102.295 35.386 102.039 34.9864 102.039H34.3833V103.56Z" fill="white"/>
<path d="M40.4561 102.039H39.1939V106.285H38.1596V102.039H36.9185V101.18H40.4561V102.039Z" fill="white"/>
<path d="M42.1245 106.285H41.0938V101.18H42.1245V106.285Z" fill="white"/>
<path d="M45.6238 104.202H44.0215V106.285H42.9907V101.18H45.8165V102.039H44.0215V103.347H45.6238V104.202Z" fill="white"/>
<path d="M47.482 106.285H46.4512V101.18H47.482V106.285Z" fill="white"/>
<path d="M50.9847 104.076H49.3789V105.429H51.2793V106.285H48.3481V101.18H51.2722V102.039H49.3789V103.245H50.9847V104.076Z" fill="white"/>
<path d="M51.875 106.285V101.18H53.2246C53.8209 101.18 54.2953 101.369 54.6482 101.748C55.0035 102.126 55.1846 102.645 55.1915 103.305V104.132C55.1915 104.803 55.0139 105.33 54.6586 105.713C54.3057 106.094 53.8185 106.285 53.1967 106.285H51.875ZM52.9058 102.039V105.429H53.2143C53.5579 105.429 53.7999 105.339 53.94 105.159C54.0802 104.977 54.1538 104.664 54.1608 104.22V103.332C54.1608 102.856 54.0943 102.524 53.961 102.337C53.8278 102.147 53.6009 102.048 53.2808 102.039H52.9058Z" fill="white"/>
<path d="M58.6206 104.49V106.285H57.5898V101.18H59.3288C59.8336 101.18 60.2357 101.337 60.5349 101.65C60.8364 101.963 60.9872 102.369 60.9872 102.87C60.9872 103.37 60.8388 103.765 60.542 104.055C60.245 104.345 59.8336 104.49 59.3078 104.49H58.6206ZM58.6206 103.631H59.3288C59.5251 103.631 59.6772 103.566 59.7846 103.438C59.8921 103.309 59.9458 103.122 59.9458 102.877C59.9458 102.622 59.891 102.42 59.7812 102.27C59.6714 102.118 59.524 102.041 59.3395 102.039H58.6206V103.631Z" fill="white"/>
<path d="M63.2244 104.419H62.7124V106.285H61.6816V101.18H63.3259C63.8427 101.18 64.241 101.314 64.5216 101.583C64.8043 101.85 64.9458 102.229 64.9458 102.722C64.9458 103.4 64.6993 103.875 64.2059 104.146L65.1 106.235V106.285H63.9921L63.2244 104.419ZM62.7124 103.56H63.298C63.5036 103.56 63.6578 103.493 63.7608 103.357C63.8637 103.219 63.915 103.036 63.915 102.807C63.915 102.295 63.7153 102.039 63.3156 102.039H62.7124V103.56Z" fill="white"/>
<path d="M69.2475 104.191C69.2475 104.876 69.0853 105.408 68.7603 105.787C68.4378 106.165 67.9891 106.355 67.4139 106.355C66.8413 106.355 66.3914 106.168 66.0642 105.794C65.7369 105.417 65.5709 104.892 65.5664 104.216V103.343C65.5664 102.642 65.7286 102.095 66.0536 101.702C66.3786 101.307 66.8296 101.11 67.407 101.11C67.975 101.11 68.4226 101.304 68.7497 101.692C69.0771 102.077 69.243 102.62 69.2475 103.319V104.191ZM68.2133 103.336C68.2133 102.875 68.1479 102.533 68.017 102.309C67.8862 102.084 67.6828 101.972 67.407 101.972C67.1336 101.972 66.9312 102.081 66.8004 102.298C66.6695 102.513 66.6017 102.842 66.5972 103.283V104.191C66.5972 104.638 66.6637 104.967 66.7969 105.18C66.9301 105.39 67.136 105.496 67.4139 105.496C67.6828 105.496 67.8827 105.393 68.0136 105.187C68.1444 104.979 68.2109 104.658 68.2133 104.223V103.336Z" fill="white"/>
<path d="M72.6204 104.202H71.0181V106.285H69.9873V101.18H72.8132V102.039H71.0181V103.347H72.6204V104.202Z" fill="white"/>
<path d="M76.0389 104.076H74.4331V105.429H76.3333V106.285H73.4023V101.18H76.3264V102.039H74.4331V103.245H76.0389V104.076Z" fill="white"/>
<path d="M79.0858 104.945C79.0858 104.737 79.0318 104.581 78.9244 104.475C78.8194 104.368 78.6266 104.257 78.346 104.142C77.8341 103.948 77.466 103.722 77.2415 103.462C77.0171 103.2 76.9049 102.892 76.9049 102.537C76.9049 102.107 77.057 101.762 77.3607 101.502C77.667 101.24 78.0551 101.11 78.5247 101.11C78.838 101.11 79.1172 101.176 79.3627 101.309C79.6081 101.44 79.7962 101.626 79.9273 101.867C80.0605 102.108 80.127 102.381 80.127 102.687H79.0997C79.0997 102.449 79.0483 102.268 78.9454 102.144C78.8449 102.018 78.6989 101.955 78.5072 101.955C78.3274 101.955 78.187 102.008 78.0864 102.116C77.9859 102.221 77.9356 102.364 77.9356 102.544C77.9356 102.684 77.9918 102.811 78.104 102.926C78.2162 103.038 78.4149 103.155 78.7 103.276C79.1978 103.456 79.5589 103.677 79.7834 103.939C80.0102 104.201 80.1235 104.534 80.1235 104.938C80.1235 105.382 79.9821 105.73 79.6994 105.98C79.4164 106.229 79.0319 106.355 78.5457 106.355C78.2162 106.355 77.916 106.287 77.6447 106.151C77.3737 106.016 77.161 105.822 77.0067 105.569C76.8546 105.317 76.7788 105.019 76.7788 104.675H77.813C77.813 104.97 77.8702 105.184 77.9848 105.317C78.0995 105.45 78.2864 105.517 78.5457 105.517C78.9058 105.517 79.0858 105.326 79.0858 104.945Z" fill="white"/>
<path d="M82.9633 104.945C82.9633 104.737 82.9093 104.581 82.8019 104.475C82.6968 104.368 82.504 104.257 82.2234 104.142C81.7115 103.948 81.3434 103.722 81.119 103.462C80.8945 103.2 80.7823 102.892 80.7823 102.537C80.7823 102.107 80.9344 101.762 81.2381 101.502C81.5445 101.24 81.9325 101.11 82.4021 101.11C82.7154 101.11 82.9947 101.176 83.2401 101.309C83.4856 101.44 83.6739 101.626 83.8047 101.867C83.9379 102.108 84.0044 102.381 84.0044 102.687H82.9771C82.9771 102.449 82.9258 102.268 82.8229 102.144C82.7223 102.018 82.5763 101.955 82.3846 101.955C82.2048 101.955 82.0644 102.008 81.9639 102.116C81.8634 102.221 81.8131 102.364 81.8131 102.544C81.8131 102.684 81.8692 102.811 81.9814 102.926C82.0937 103.038 82.2923 103.155 82.5774 103.276C83.0755 103.456 83.4364 103.677 83.6608 103.939C83.8877 104.201 84.001 104.534 84.001 104.938C84.001 105.382 83.8595 105.73 83.5768 105.98C83.2938 106.229 82.9093 106.355 82.4232 106.355C82.0937 106.355 81.7934 106.287 81.5221 106.151C81.2512 106.016 81.0384 105.822 80.8842 105.569C80.732 105.317 80.6562 105.019 80.6562 104.675H81.6905C81.6905 104.97 81.7477 105.184 81.8623 105.317C81.9769 105.45 82.1639 105.517 82.4232 105.517C82.7832 105.517 82.9633 105.326 82.9633 104.945Z" fill="white"/>
<path d="M85.7613 106.285H84.7305V101.18H85.7613V106.285Z" fill="white"/>
<path d="M90.221 104.191C90.221 104.876 90.0585 105.408 89.7335 105.787C89.4109 106.165 88.9623 106.355 88.3873 106.355C87.8145 106.355 87.3645 106.168 87.0374 105.794C86.7103 105.417 86.5441 104.892 86.5396 104.216V103.343C86.5396 102.642 86.702 102.095 87.0268 101.702C87.3517 101.307 87.8028 101.11 88.3801 101.11C88.9482 101.11 89.3957 101.304 89.7231 101.692C90.0502 102.077 90.2162 102.62 90.221 103.319V104.191ZM89.1867 103.336C89.1867 102.875 89.121 102.533 88.9902 102.309C88.8593 102.084 88.6559 101.972 88.3801 101.972C88.1067 101.972 87.9046 102.081 87.7738 102.298C87.6427 102.513 87.5749 102.842 87.5703 103.283V104.191C87.5703 104.638 87.6368 104.967 87.7701 105.18C87.9033 105.39 88.1091 105.496 88.3873 105.496C88.6559 105.496 88.8559 105.393 88.9867 105.187C89.1176 104.979 89.1843 104.658 89.1867 104.223V103.336Z" fill="white"/>
<path d="M94.5296 106.285H93.4988L91.9912 102.936V106.285H90.9604V101.18H91.9912L93.5026 104.532V101.18H94.5296V106.285Z" fill="white"/>
<path d="M97.8572 105.24H96.4511L96.1778 106.285H95.0874L96.6825 101.18H97.6255L99.2315 106.285H98.1306L97.8572 105.24ZM96.6756 104.381H97.6293L97.1524 102.561L96.6756 104.381Z" fill="white"/>
<path d="M100.742 105.429H102.551V106.285H99.7114V101.18H100.742V105.429Z" fill="white"/>
<path d="M53.218 73.2597H50.0493V57.5674H53.218V73.2597Z" fill="#00395D"/>
<path d="M66.0762 68.0325C65.9971 69.8215 65.4942 71.1759 64.5673 72.0955C63.6404 73.0154 62.3327 73.4752 60.6441 73.4752C58.8694 73.4752 57.5078 72.8931 56.5593 71.7291C55.6181 70.5581 55.1475 68.891 55.1475 66.7283V64.0878C55.1475 61.9321 55.636 60.2724 56.6132 59.1084C57.5904 57.9372 58.9484 57.3516 60.6873 57.3516C62.3973 57.3516 63.6943 57.8295 64.5781 58.785C65.469 59.7408 65.9756 61.113 66.0977 62.9023H62.9183C62.8895 61.7957 62.7171 61.034 62.4009 60.6173C62.092 60.1934 61.5207 59.9814 60.6873 59.9814C59.8394 59.9814 59.2394 60.2796 58.8873 60.8758C58.5353 61.4651 58.3485 62.4387 58.3269 63.7966V66.7605C58.3269 68.3197 58.4994 69.3904 58.8442 69.9725C59.1963 70.5544 59.7963 70.8454 60.6441 70.8454C61.4776 70.8454 62.0525 70.6443 62.3686 70.2419C62.6848 69.8324 62.8644 69.0957 62.9075 68.0325H66.0762Z" fill="#00395D"/>
<path d="M70.7541 67.7414V73.2597H67.5854V57.5674H72.9314C74.4834 57.5674 75.7192 58.0487 76.6388 59.0114C77.5659 59.9744 78.0292 61.2246 78.0292 62.7623C78.0292 64.2999 77.5731 65.5142 76.6604 66.4051C75.7479 67.296 74.4834 67.7414 72.8667 67.7414H70.7541ZM70.7541 65.1009H72.9314C73.5348 65.1009 74.002 64.9033 74.3323 64.5081C74.6629 64.113 74.8283 63.5383 74.8283 62.7838C74.8283 62.0006 74.6594 61.3791 74.3217 60.9193C73.984 60.452 73.5313 60.2151 72.9636 60.2079H70.7541V65.1009Z" fill="#00395D"/>
<path fill-rule="evenodd" clip-rule="evenodd" d="M63.5421 33.739C63.9143 33.5224 64.3742 33.5224 64.7464 33.739L63.5421 33.739ZM63.5421 33.739L37.5363 48.8776C37.5362 48.8776 37.5363 48.8776 37.5363 48.8776C37.168 49.092 36.9415 49.486 36.9415 49.912V80.2158C36.9415 80.6418 37.168 81.0357 37.5362 81.2502C37.5362 81.2502 37.5362 81.2502 37.5362 81.2502L50.5392 88.8194C50.8566 89.0041 50.9641 89.4111 50.7794 89.7284C50.5946 90.0458 50.1876 90.1533 49.8703 89.9685L36.8672 82.3994C36.09 81.9468 35.6118 81.1153 35.6118 80.2158V49.912C35.6118 49.0126 36.09 48.181 36.8672 47.7285L62.8731 32.5898C63.6588 32.1325 64.6297 32.1325 65.4154 32.5898L91.4214 47.7285C92.1983 48.181 92.6767 49.0125 92.6767 49.912V80.2158C92.6767 81.1153 92.1985 81.9467 91.4215 82.3993L78.4183 89.9685C78.1009 90.1533 77.6939 90.0458 77.5092 89.7284C77.3245 89.4111 77.432 89.0041 77.7493 88.8194L90.7523 81.2503C90.7522 81.2503 90.7523 81.2502 90.7523 81.2503C91.1204 81.0358 91.347 80.6418 91.347 80.2158V49.912C91.347 49.486 91.1205 49.0921 90.7524 48.8776C90.7524 48.8776 90.7525 48.8777 90.7524 48.8776L64.7464 33.739" fill="#00395D"/>
<path d="M51.9106 45.6763H52.5606V50.4605H51.9106V45.6763Z" fill="#00395D"/>
<path d="M55.8541 50.5228C55.3185 50.5353 54.9805 50.4823 54.518 50.2119C54.096 49.9651 53.8867 49.738 53.6484 49.3111C53.4043 48.8742 53.3404 48.5686 53.3375 48.0684C53.3346 47.5565 53.3878 47.2355 53.6484 46.7946C53.9016 46.3661 54.1415 46.16 54.5803 45.9247C55.0526 45.6718 55.3855 45.6276 55.9214 45.6353C56.5134 45.6436 57.0913 45.8218 57.5005 46.2664L57.283 46.4528C56.9094 46.0747 56.4482 45.8928 55.8541 45.9247C55.444 45.9467 55.2004 46.0369 54.8598 46.2664C54.5204 46.4954 54.3417 46.6845 54.1718 47.0568C54.0056 47.42 54.021 48.0684 54.021 48.0684C54.021 48.0684 54.0146 48.7128 54.1718 49.0798C54.3398 49.4734 54.5499 49.7593 54.8598 49.9324C55.1698 50.1055 55.4509 50.2002 55.8541 50.2119C56.4448 50.2292 56.9141 50.0975 57.283 49.7148L57.1899 50.0505C56.9804 50.2784 57.0913 50.2132 56.786 50.3363C56.4852 50.4547 56.2251 50.514 55.8541 50.5228Z" fill="#00395D"/>
<path fill-rule="evenodd" clip-rule="evenodd" d="M59.0537 43.3152C58.3803 48.4133 57.7934 50.0986 56.4751 51.5788C57.1953 50.9778 57.5333 50.6206 57.9662 49.9324C59.1071 49.6885 59.6302 49.4055 60.4206 48.7207C60.8615 49.5813 61.1556 50.0028 61.7875 50.6158C61.6349 51.1126 61.6766 51.4078 61.8809 51.9516C62.6367 53.9938 64.4903 52.6662 64.8631 48.7207C65.508 48.4282 66.3721 47.8772 66.5718 47.6955C66.7811 48.5497 67.1249 48.5699 68.1874 47.6955C68.7466 48.9694 70.4861 49.1867 71.9464 47.882C74.0237 47.9995 74.8749 47.3533 75.985 45.2723C74.3572 46.6472 73.5078 47.1668 72.2259 47.1674C72.3257 46.564 72.3318 46.2664 72.2259 46.1422C71.9634 45.834 71.5382 45.7632 71.2007 45.9869C70.9523 46.1518 70.9853 46.6799 71.356 47.3538C69.9894 48.2415 69.3551 48.2221 68.4049 47.478C69.1259 46.5624 69.35 46.2113 69.6785 45.2723C69.896 44.6511 69.6165 43.0044 69.0573 43.0666C68.498 43.1288 67.9948 44.0546 67.8456 44.8994C67.7523 45.4276 67.7491 46.1145 67.9076 46.8568C67.5028 47.273 66.9135 47.6333 66.8824 47.478C66.8824 47.478 66.9856 47.3767 67.0069 47.2916C67.038 47.1674 66.6962 46.515 66.6962 46.515C66.0774 47.0927 65.687 47.3472 64.9253 47.6955C64.9756 47.0368 64.8865 46.7241 64.5836 46.2355C64.5836 46.2355 64.298 47.0432 63.4651 47.5713C62.6324 48.0995 62.55 47.8649 63.2478 47.0743C63.7137 46.5461 63.9313 46.981 63.9313 46.981C63.9313 46.981 63.8472 46.6363 63.7759 46.4217C63.5584 45.7693 63.1026 46.0698 62.8438 46.3286C62.2739 46.8985 62.4595 47.5791 62.7196 48.2548C62.8749 48.6585 63.2701 48.7593 63.7759 48.3168C64.2815 47.8742 64.5836 47.478 64.5836 47.478V47.9442C63.5821 48.5476 63.0885 48.9356 62.2846 49.6837C61.6867 49.0577 61.4274 48.6556 61.104 47.8508C61.104 47.8508 62.5021 45.8938 63.6515 45.117C65.0615 44.1644 66.3824 43.47 67.8456 43.9365C66.6178 43.0094 64.6147 43.5014 63.2478 44.6199C61.8809 45.7382 60.8245 47.1674 60.8245 47.1674C60.3038 45.4675 60.081 44.4944 59.7993 42.7249L59.0537 43.3152ZM64.4283 48.9694C64.2158 50.4419 64.0126 51.09 63.2478 51.7344C62.067 52.7285 61.508 51.7344 62.3468 50.74C63.0558 49.8996 63.5385 49.5396 64.4283 48.9694ZM59.3643 45.2723C59.6315 46.3081 59.7919 46.8921 60.11 47.9442C59.5464 48.4529 59.201 48.655 58.5255 48.8449C59.0148 47.541 59.1739 46.7448 59.3643 45.2723ZM68.094 46.6703C67.9826 45.9369 68.1562 45.2103 68.6844 44.3404C69.2881 43.3461 69.7274 43.5014 69.3056 44.6511C68.9724 45.5592 68.7214 45.9933 68.094 46.6703ZM71.6978 47.0743C71.6978 47.0743 71.4494 47.0743 71.4494 46.919C71.4494 46.7634 71.9464 46.4217 71.9464 46.5773C71.9464 46.7326 71.8267 46.9302 71.6978 47.0743Z" fill="#00395D"/>
<path d="M66.9756 45.5829C66.9756 45.806 66.7948 45.9869 66.5717 45.9869C66.3488 45.9869 66.168 45.806 66.168 45.5829C66.168 45.36 66.3488 45.1792 66.5717 45.1792C66.7948 45.1792 66.9756 45.36 66.9756 45.5829Z" fill="#00395D"/>
<path d="M75.2109 47.2922H74.9912V47.2297H75.4968V47.2922H75.2771V47.9132H75.2109V47.2922Z" fill="#00395D"/>
<path d="M76.2334 47.2297V47.9132H76.1701V47.3664L75.9244 47.8262H75.893L75.6475 47.3694V47.9132H75.584V47.2297H75.6385L75.91 47.7364L76.1789 47.2297H76.2334Z" fill="#00395D"/>
</svg>
