<svg width="128" height="128" viewBox="0 0 128 128" fill="none" xmlns="http://www.w3.org/2000/svg">
<path d="M84.4141 104.017C106.168 93.2016 117.23 75.0251 121.425 51.9961C123.399 54.2167 124.262 58.5347 123.399 62.6881C121.589 71.1595 117.354 78.4795 112.131 85.2237C105.716 93.5306 97.6146 99.6579 87.8273 103.482C86.059 104.14 86.059 104.14 84.4141 104.017Z" fill="#9C0809"/>
<path d="M43.4966 103.935C41.4816 104.305 40.3712 103.606 39.1787 103.112C23.6341 96.5735 13.3122 84.9767 6.73244 69.72C4.75852 65.1965 3.56595 60.5495 4.7174 55.5736C5.00526 54.2988 5.49874 53.1473 6.44457 51.4202C8.37736 62.8524 12.0373 73.0921 18.2469 82.3037C24.5799 91.6387 32.8046 98.753 43.4966 103.935Z" fill="#9C0809"/>
<path d="M114.229 33.1616C117.395 36.2047 118.588 40.0292 118.547 44.1415C118.464 53.7644 115.668 62.7292 111.515 71.324C107.361 79.9599 101.563 87.362 93.9549 93.2427C93.4614 93.6128 93.0502 94.2707 91.7754 94.1474C100.165 86.0872 106.333 76.8756 110.075 66.1425C113.9 55.4504 114.887 44.4294 114.229 33.1616Z" fill="#386C86"/>
<path d="M13.9288 32.5859C12.1194 56.7253 18.658 77.2458 36.012 94.0241C34.8605 94.3119 34.4082 93.6128 33.9147 93.2016C22.688 84.319 15.5737 72.7222 11.7081 59.0693C10.3099 54.1345 9.11736 49.1175 9.32298 43.9359C9.48747 39.9059 10.5567 36.1225 13.9288 32.5859Z" fill="#386C86"/>
<path d="M63.9349 47.7192C76.1896 47.7192 88.4444 47.7192 100.74 47.7192C101.275 47.7192 101.851 47.7192 102.385 47.7604C102.796 47.8015 102.961 48.0893 102.961 48.4595C102.961 48.8296 102.837 49.1586 102.426 49.1997C101.892 49.2819 101.316 49.2819 100.781 49.2819C76.1896 49.2819 51.5979 49.2819 27.0063 49.2819C26.6773 49.2819 26.3072 49.2819 25.9782 49.2819C25.4024 49.2819 24.8678 49.1997 24.909 48.4183C24.9501 47.7192 25.4436 47.7192 25.937 47.7192C26.4305 47.7192 26.8829 47.7192 27.3764 47.7192C39.5488 47.7192 51.7624 47.7192 63.9349 47.7192Z" fill="#A2A2A2"/>
<path d="M26.5129 73.7913C21.2902 66.4303 18.535 58.2056 17.4657 49.4052C16.89 44.4293 16.6433 39.4534 17.5069 34.4775C18.2471 30.3652 20.0154 26.7463 23.881 24.3201C18.0004 41.2217 18.7817 57.671 26.5129 73.7913Z" fill="#9A9A9A"/>
<path d="M101.604 73.051C103.331 68.6508 105.222 64.3329 106.292 59.7271C108.882 48.4182 108.142 37.356 104.482 26.4172C104.277 25.8004 103.742 25.2247 104.071 24.3611C105.963 25.0191 106.95 26.5817 107.936 28.0622C109.623 30.6118 110.568 33.5316 110.733 36.5336C111.514 49.035 109.417 60.9196 102.961 71.8584C102.632 72.393 102.22 72.8454 101.891 73.3389C101.768 73.2155 101.686 73.1332 101.604 73.051Z" fill="#9A9A9A"/>
<path d="M63.9757 71.1594C54.1061 71.1594 44.2366 71.1594 34.367 71.1594C33.8324 71.1594 33.2567 71.1594 32.7221 71.1594C32.2697 71.1594 31.9407 70.9537 31.8996 70.4603C31.8585 69.8023 32.2286 69.6378 32.8043 69.5967C33.2155 69.5967 33.6268 69.5967 34.038 69.5967C53.9828 69.5967 73.9275 69.5967 93.8723 69.5967C94.2836 69.5967 94.6948 69.5967 95.106 69.5967C95.5584 69.5967 95.8874 69.8023 95.9285 70.3369C95.9696 70.9537 95.5995 71.1594 95.0238 71.2005C94.5303 71.2005 94.0779 71.2005 93.5845 71.2005C83.7149 71.1594 73.8453 71.1594 63.9757 71.1594Z" fill="#A2A2A2"/>
<path d="M101.85 73.3389C101.686 73.5856 101.398 73.7912 101.234 73.5445C101.028 73.2566 101.439 73.1744 101.604 73.051C101.686 73.1333 101.768 73.2155 101.85 73.3389Z" fill="#9A9A9A"/>
<path d="M23.8804 60.7552L25.1552 60.6318C25.1963 61.1253 25.3608 61.5365 25.5664 61.8655C25.772 62.1945 26.1421 62.4412 26.5945 62.6469C27.0469 62.8525 27.5815 62.9347 28.1572 62.9347C28.6507 62.9347 29.103 62.8525 29.5143 62.688C29.9255 62.5235 30.2133 62.3179 30.3778 62.0711C30.5835 61.8244 30.6657 61.5365 30.6657 61.2075C30.6657 60.8786 30.5835 60.6318 30.3778 60.3851C30.2133 60.1383 29.8844 59.9327 29.4731 59.7682C29.1853 59.6449 28.6095 59.4804 27.6637 59.2748C26.7179 59.0691 26.101 58.8224 25.6898 58.6579C25.1963 58.4112 24.8262 58.0822 24.6206 57.7121C24.3738 57.342 24.2505 56.9307 24.2505 56.4372C24.2505 55.9438 24.415 55.4503 24.7028 54.9979C24.9907 54.5456 25.4019 54.2166 25.9777 53.9699C26.5534 53.7231 27.1702 53.6409 27.8282 53.6409C28.5684 53.6409 29.2264 53.7642 29.8021 54.011C30.3778 54.2577 30.8302 54.6278 31.1181 55.0802C31.4059 55.5325 31.6115 56.0671 31.6115 56.684L30.3367 56.7662C30.2545 56.1083 30.0489 55.6559 29.6376 55.3269C29.2264 54.9979 28.6507 54.8334 27.8693 54.8334C27.0469 54.8334 26.4711 54.9979 26.101 55.2858C25.7309 55.5737 25.5253 55.9438 25.5253 56.355C25.5253 56.7251 25.6487 57.013 25.9365 57.2597C26.1833 57.5065 26.8824 57.7532 27.9516 57.9999C29.0208 58.2467 29.8021 58.4523 30.2133 58.6579C30.7891 58.9458 31.2414 59.2748 31.5293 59.686C31.8172 60.0972 31.9405 60.5907 31.9405 61.1253C31.9405 61.6599 31.776 62.1534 31.4882 62.6469C31.1592 63.1403 30.748 63.5104 30.1722 63.7572C29.5965 64.0039 28.9385 64.1684 28.2394 64.1684C27.3347 64.1684 26.5534 64.045 25.9365 63.7572C25.3197 63.5104 24.8262 63.0992 24.4972 62.5646C24.0449 62.03 23.8804 61.4132 23.8804 60.7552Z" fill="#386C86"/>
<path d="M33.75 64.0039V53.8464H37.5745C38.2324 53.8464 38.767 53.8876 39.096 53.9287C39.5895 54.0109 40.0007 54.1754 40.3297 54.4222C40.6587 54.6689 40.9466 54.9979 41.1522 55.4091C41.3578 55.8203 41.44 56.2727 41.44 56.8073C41.44 57.6709 41.1522 58.4111 40.6176 58.9868C40.083 59.6037 39.096 59.8916 37.6567 59.8916H35.1071V64.0039H33.75ZM35.1071 58.6579H37.739C38.6025 58.6579 39.2194 58.4934 39.5895 58.1644C39.9596 57.8354 40.1241 57.383 40.1241 56.8073C40.1241 56.3961 40.0007 56.026 39.7951 55.7381C39.5895 55.4502 39.3016 55.2446 38.9315 55.1213C38.7259 55.0801 38.2736 55.039 37.6978 55.039H35.1071V58.6579Z" fill="#386C86"/>
<path d="M43.2085 64.0039V53.8464H50.5284V55.039H44.5656V58.1233H50.1583V59.3158H44.5656V62.7702H50.7752V63.9628H43.2085V64.0039Z" fill="#386C86"/>
<path d="M59.8632 60.4262L61.2202 60.7552C60.9324 61.8655 60.4389 62.688 59.6987 63.2637C58.9585 63.8394 58.0949 64.1273 57.0257 64.1273C55.9153 64.1273 55.0518 63.9217 54.3527 63.4693C53.6536 63.017 53.1601 62.4001 52.79 61.5365C52.4199 60.6729 52.2554 59.7682 52.2554 58.8224C52.2554 57.7532 52.461 56.8485 52.8722 56.0671C53.2835 55.2858 53.8592 54.669 54.5994 54.2577C55.3396 53.8465 56.1621 53.6409 57.0668 53.6409C58.0949 53.6409 58.9173 53.8876 59.6164 54.4222C60.3155 54.9568 60.809 55.6559 61.0557 56.6017L59.7398 56.9307C59.4931 56.1905 59.1641 55.6559 58.7117 55.3269C58.2594 54.9979 57.6836 54.8334 57.0257 54.8334C56.2443 54.8334 55.5864 55.0391 55.0929 55.4092C54.5583 55.7793 54.1882 56.2728 53.9825 56.9307C53.7769 57.5476 53.6536 58.2055 53.6536 58.8635C53.6536 59.7271 53.7769 60.4673 54.0237 61.1253C54.2704 61.7833 54.6816 62.2356 55.1751 62.5646C55.7097 62.8936 56.2854 63.0581 56.9023 63.0581C57.6425 63.0581 58.3005 62.8525 58.794 62.4001C59.3286 61.9478 59.6576 61.2898 59.8632 60.4262Z" fill="#386C86"/>
<path d="M63.0708 64.0039V53.8464H64.4279V63.9628H63.0708V64.0039Z" fill="#386C86"/>
<path d="M65.6616 64.004L69.5683 53.8877H71.0076L75.1611 64.004H73.6395L72.447 60.9198H68.2113L67.1009 64.004H65.6616ZM68.5814 59.8506H71.9946L70.9254 57.0542C70.5964 56.1906 70.3497 55.4915 70.2263 54.9569C70.1029 55.6149 69.8973 56.2317 69.6917 56.8897L68.5814 59.8506Z" fill="#386C86"/>
<path d="M76.1479 64.0039V53.8464H77.505V62.7702H82.4809V63.9628H76.1479V64.0039Z" fill="#386C86"/>
<path d="M84.3315 64.0039V53.8464H85.6886V63.9628H84.3315V64.0039Z" fill="#386C86"/>
<path d="M87.5806 60.7552L88.8554 60.6318C88.8965 61.1253 89.061 61.5365 89.2666 61.8655C89.4722 62.1945 89.8423 62.4412 90.2947 62.6469C90.7471 62.8525 91.2817 62.9347 91.8574 62.9347C92.3509 62.9347 92.8032 62.8525 93.2144 62.688C93.6257 62.5235 93.9135 62.3179 94.078 62.0711C94.2836 61.8244 94.3659 61.5365 94.3659 61.2075C94.3659 60.8786 94.2836 60.6318 94.078 60.3851C93.9135 60.1383 93.5846 59.9327 93.1733 59.7682C92.8855 59.6449 92.3097 59.4804 91.3639 59.2748C90.4181 59.0691 89.8012 58.8224 89.39 58.6579C88.8965 58.4112 88.5264 58.0822 88.3208 57.7121C88.074 57.342 87.9507 56.9307 87.9507 56.4372C87.9507 55.9438 88.1152 55.4503 88.403 54.9979C88.6909 54.5456 89.1021 54.2166 89.6778 53.9699C90.2536 53.7231 90.8704 53.6409 91.5284 53.6409C92.2686 53.6409 92.9266 53.7642 93.5023 54.011C94.078 54.2577 94.5304 54.6278 94.8183 55.0802C95.1061 55.5325 95.3117 56.0671 95.3117 56.684L94.0369 56.7662C93.9547 56.1083 93.7491 55.6559 93.3378 55.3269C92.9266 54.9979 92.3509 54.8334 91.5695 54.8334C90.7471 54.8334 90.1713 54.9979 89.8012 55.2858C89.4311 55.5737 89.2255 55.9438 89.2255 56.355C89.2255 56.7251 89.3489 57.013 89.6367 57.2597C89.8835 57.5065 90.5826 57.7532 91.6518 57.9999C92.721 58.2467 93.5023 58.4523 93.9135 58.6579C94.4893 58.9458 94.9416 59.2748 95.2295 59.686C95.5173 60.0972 95.6407 60.5907 95.6407 61.1253C95.6407 61.6599 95.4762 62.1534 95.1884 62.6469C94.8594 63.1403 94.4481 63.5104 93.8724 63.7572C93.2967 64.0039 92.6387 64.1684 91.9396 64.1684C91.0349 64.1684 90.2536 64.045 89.6367 63.7572C89.0199 63.5104 88.5264 63.0992 88.1974 62.5646C87.7862 62.03 87.5806 61.4132 87.5806 60.7552Z" fill="#386C86"/>
<path d="M100.04 64.0039V55.039H96.7095V53.8464H104.729V55.039H101.398V63.9628H100.04V64.0039Z" fill="#386C86"/>
<path d="M51.8858 30.4475L52.9961 30.6943C52.7494 31.4756 52.3382 32.0924 51.7213 32.5037C51.1045 32.9149 50.3643 33.1205 49.5007 33.1205C48.596 33.1205 47.8557 32.956 47.28 32.627C46.7043 32.2981 46.2931 31.8457 45.9641 31.2289C45.6762 30.612 45.5117 29.9952 45.5117 29.2961C45.5117 28.5558 45.6762 27.8979 46.0052 27.3221C46.3342 26.7464 46.8277 26.3352 47.4445 26.0473C48.0614 25.7595 48.7605 25.595 49.5007 25.595C50.3643 25.595 51.0634 25.7595 51.6391 26.1296C52.2148 26.4997 52.626 27.0343 52.8317 27.6923L51.7213 27.8979C51.5157 27.3633 51.2278 26.9932 50.8577 26.7464C50.4876 26.4997 50.0353 26.3763 49.4595 26.3763C48.8016 26.3763 48.267 26.4997 47.8146 26.7875C47.3623 27.0343 47.0744 27.4044 46.9099 27.8567C46.7454 28.3091 46.6632 28.7615 46.6632 29.2549C46.6632 29.8718 46.7865 30.4064 46.9922 30.8587C47.1978 31.3111 47.5268 31.6812 47.9791 31.8868C48.4315 32.1336 48.8838 32.2158 49.4184 32.2158C50.0353 32.2158 50.5699 32.0513 51.0222 31.7635C51.4335 31.5167 51.7625 31.0644 51.8858 30.4475Z" fill="#3C3839"/>
<path d="M54.6001 32.9971V25.7183H55.7104V32.956H54.6001V32.9971Z" fill="#3C3839"/>
<path d="M57.314 30.653L58.3832 30.5708C58.4243 30.9409 58.5477 31.2287 58.7122 31.4755C58.8766 31.7222 59.1645 31.8867 59.5757 32.0512C59.9459 32.1746 60.3982 32.2568 60.8917 32.2568C61.3029 32.2568 61.7141 32.2157 62.002 32.0923C62.331 31.969 62.5777 31.8456 62.7422 31.64C62.9067 31.4344 62.989 31.2287 62.989 31.0231C62.989 30.7764 62.9067 30.6119 62.7422 30.4474C62.5777 30.2829 62.331 30.1184 61.9609 30.0362C61.7142 29.9539 61.2207 29.8306 60.4393 29.6661C59.658 29.5016 59.1234 29.3371 58.7944 29.2137C58.3832 29.0492 58.0953 28.8025 57.8897 28.5557C57.6841 28.2679 57.6018 27.98 57.6018 27.651C57.6018 27.2809 57.7252 26.9519 57.9719 26.6229C58.2187 26.294 58.5477 26.0472 59.0411 25.8827C59.4935 25.7182 60.0281 25.636 60.6038 25.636C61.2207 25.636 61.7964 25.7182 62.2488 25.8827C62.7422 26.0472 63.1123 26.294 63.3591 26.6641C63.6058 26.9931 63.7703 27.3632 63.7703 27.8155L62.7011 27.8978C62.66 27.4454 62.4544 27.0753 62.1254 26.8697C61.7964 26.6641 61.3029 26.4996 60.6449 26.4996C59.987 26.4996 59.4935 26.6229 59.1645 26.8286C58.8355 27.0342 58.7122 27.2809 58.7122 27.6099C58.7122 27.8566 58.8355 28.1034 59.0411 28.2679C59.2468 28.4324 59.8225 28.5969 60.7272 28.8025C61.6319 28.967 62.2488 29.1315 62.5777 29.2548C63.0712 29.4604 63.4413 29.7072 63.6469 29.995C63.8526 30.2829 64.0171 30.653 64.0171 31.0231C64.0171 31.3932 63.8937 31.7633 63.6469 32.1335C63.4002 32.5036 63.0301 32.7503 62.5366 32.9148C62.0431 33.1204 61.5085 33.2027 60.8917 33.2027C60.1103 33.2027 59.4935 33.1204 58.9589 32.9148C58.4243 32.7092 58.0542 32.4213 57.7252 32.0512C57.4785 31.5577 57.314 31.1465 57.314 30.653Z" fill="#3C3839"/>
<path d="M71.5841 30.4475L72.6944 30.6943C72.4476 31.4756 72.0364 32.0924 71.4196 32.5037C70.8027 32.9149 70.0625 33.1205 69.1989 33.1205C68.2942 33.1205 67.554 32.956 66.9783 32.627C66.4025 32.2981 65.9913 31.8457 65.6623 31.2289C65.3745 30.612 65.21 29.9952 65.21 29.2961C65.21 28.5558 65.3745 27.8979 65.7034 27.3221C66.0324 26.7464 66.5259 26.3352 67.1428 26.0473C67.7596 25.7595 68.4587 25.595 69.1989 25.595C70.0625 25.595 70.7616 25.7595 71.3373 26.1296C71.9131 26.4997 72.3243 27.0343 72.5299 27.6923L71.4196 27.8979C71.214 27.3633 70.9261 26.9932 70.556 26.7464C70.1859 26.4997 69.7335 26.3763 69.1578 26.3763C68.4998 26.3763 67.9652 26.4997 67.5129 26.7875C67.0605 27.0343 66.7726 27.4044 66.6082 27.8567C66.4437 28.3091 66.3614 28.7615 66.3614 29.2549C66.3614 29.8718 66.4848 30.4064 66.6904 30.8587C66.896 31.3111 67.225 31.6812 67.6774 31.8868C68.1297 32.1336 68.5821 32.2158 69.1167 32.2158C69.7335 32.2158 70.2681 32.0513 70.7205 31.7635C71.1317 31.5167 71.4196 31.0644 71.5841 30.4475Z" fill="#3C3839"/>
<path d="M73.7222 29.4606C73.7222 28.268 74.0923 27.3221 74.8325 26.6231C75.5727 25.924 76.5597 25.595 77.7522 25.595C78.5336 25.595 79.2327 25.7595 79.8495 26.0884C80.4664 26.4174 80.9599 26.8698 81.2888 27.4455C81.6178 28.0212 81.7823 28.6792 81.7823 29.3783C81.7823 30.1185 81.6178 30.7765 81.2477 31.3522C80.9187 31.9279 80.4253 32.3803 79.7673 32.6682C79.1504 32.956 78.4513 33.1205 77.7111 33.1205C76.9298 33.1205 76.1896 32.956 75.5727 32.627C74.9559 32.2981 74.4624 31.8457 74.1334 31.27C73.8867 30.6943 73.7222 30.0774 73.7222 29.4606ZM74.8736 29.4606C74.8736 30.3241 75.1615 31.0232 75.6961 31.5167C76.2307 32.0102 76.9298 32.2569 77.7522 32.2569C78.5747 32.2569 79.2738 32.0102 79.8495 31.4756C80.3841 30.9821 80.672 30.2419 80.672 29.2961C80.672 28.7203 80.5486 28.1857 80.343 27.7334C80.1374 27.281 79.7673 26.952 79.3149 26.7053C78.8626 26.4586 78.3691 26.3352 77.7934 26.3352C77.012 26.3352 76.3129 26.5819 75.7372 27.0343C75.1615 27.4866 74.8736 28.3914 74.8736 29.4606Z" fill="#3C3839"/>
<path d="M39.5489 40.7283L40.6592 40.975C40.4125 41.7564 40.0013 42.3732 39.3844 42.7844C38.7676 43.1957 38.0273 43.4013 37.1638 43.4013C36.259 43.4013 35.5188 43.2368 34.9431 42.9078C34.3674 42.5788 33.9561 42.1265 33.6272 41.5096C33.3393 40.8928 33.1748 40.2759 33.1748 39.5768C33.1748 38.8366 33.3393 38.1786 33.6683 37.6029C33.9973 37.0272 34.4907 36.616 35.1076 36.3281C35.7244 36.0402 36.4235 35.8757 37.1638 35.8757C38.0273 35.8757 38.7264 36.0402 39.3022 36.4103C39.8779 36.7804 40.2891 37.315 40.4947 37.973L39.3844 38.1786C39.1788 37.644 38.8909 37.2739 38.5208 37.0272C38.1507 36.7804 37.6984 36.6571 37.1226 36.6571C36.4647 36.6571 35.9301 36.7804 35.4777 37.0683C35.0253 37.315 34.7375 37.6852 34.573 38.1375C34.4085 38.5899 34.3263 39.0422 34.3263 39.5357C34.3263 40.1525 34.4496 40.6872 34.6552 41.1395C34.8609 41.5919 35.1898 41.962 35.6422 42.1676C36.0946 42.4143 36.5469 42.4966 37.0815 42.4966C37.6984 42.4966 38.233 42.3321 38.6853 42.0442C39.0965 41.7975 39.3844 41.3451 39.5489 40.7283Z" fill="#3C3839"/>
<path d="M42.0571 43.2778V35.999H48.1845V36.8626H43.1675V39.0833H47.8555V39.9469H43.1675V42.4142H48.349V43.2778H42.0571Z" fill="#3C3839"/>
<path d="M49.9531 43.2778V35.999H53.6953C54.4356 35.999 55.0113 36.0813 55.4225 36.2046C55.8337 36.328 56.1216 36.5747 56.3683 36.9037C56.6151 37.2327 56.7385 37.6028 56.7385 38.0141C56.7385 38.5487 56.5328 38.9599 56.1627 39.33C55.7926 39.7001 55.1758 39.9057 54.3533 39.988C54.6412 40.1113 54.8879 40.2347 55.0113 40.3581C55.3403 40.6048 55.6281 40.9338 55.9571 41.3039L57.4376 43.2778H56.0394L54.929 41.7563C54.6 41.3039 54.3533 40.9749 54.1066 40.7693C53.901 40.5226 53.6953 40.3581 53.5308 40.2758C53.3664 40.1936 53.2019 40.1113 53.0374 40.0702C52.914 40.0291 52.7084 40.0291 52.4205 40.0291H51.1046V43.2367H49.9531V43.2778ZM51.0635 39.2066H53.4486C53.9421 39.2066 54.3533 39.1655 54.6412 39.0833C54.929 39.001 55.1347 38.8365 55.2991 38.6309C55.4636 38.4253 55.5048 38.2197 55.5048 37.9729C55.5048 37.644 55.3403 37.3561 55.0524 37.1094C54.7645 36.9037 54.3122 36.7804 53.6953 36.7804H51.0223V39.2066H51.0635Z" fill="#3C3839"/>
<path d="M60.3984 43.2778V36.8626H57.6021V35.999H64.3051V36.8626H61.5088V43.2778H60.3984Z" fill="#3C3839"/>
<path d="M65.6211 43.2778V35.999H66.7314V43.2367H65.6211V43.2778Z" fill="#3C3839"/>
<path d="M68.7876 43.2778V35.999H74.5037V36.8626H69.939V39.1244H73.8869V39.988H69.939V43.2778H68.7876Z" fill="#3C3839"/>
<path d="M76.1074 43.2778V35.999H77.2177V43.2367H76.1074V43.2778Z" fill="#3C3839"/>
<path d="M79.2329 43.2778V35.999H85.3603V36.8626H80.3432V39.0833H85.0313V39.9469H80.3432V42.4142H85.5248V43.2778H79.2329Z" fill="#3C3839"/>
<path d="M87.0874 43.2778V35.999H90.0072C90.6651 35.999 91.1586 36.0401 91.5287 36.1224C92.0222 36.2046 92.4334 36.4103 92.7624 36.657C93.2148 36.986 93.5438 37.3972 93.7494 37.8907C93.955 38.3842 94.0784 38.9599 94.0784 39.6179C94.0784 40.1525 93.9961 40.646 93.8727 41.0983C93.7494 41.5507 93.5438 41.8796 93.297 42.1675C93.0503 42.4554 92.8035 42.661 92.5157 42.8255C92.2278 42.99 91.8988 43.1133 91.4876 43.1956C91.0764 43.2778 90.624 43.319 90.1305 43.319H87.0874V43.2778ZM88.1977 42.4142H90.0072C90.5829 42.4142 90.9941 42.3731 91.3231 42.2909C91.6521 42.2086 91.8988 42.0853 92.0633 41.9208C92.3101 41.674 92.5157 41.3862 92.6802 41.0161C92.8447 40.6459 92.8858 40.1525 92.8858 39.6179C92.8858 38.8777 92.7213 38.2608 92.4334 37.8496C92.1456 37.4383 91.7755 37.1505 91.3642 37.0271C91.0764 36.9449 90.5829 36.8626 89.9249 36.8626H88.1566V42.4142H88.1977Z" fill="#3C3839"/>
</svg>
