<svg width="128" height="128" viewBox="0 0 128 128" fill="none" xmlns="http://www.w3.org/2000/svg">
<path fill-rule="evenodd" clip-rule="evenodd" d="M60.7675 12.8895C60.3696 12.9328 59.3928 13.0251 58.597 13.0948C56.575 13.2719 52.7257 13.9439 51.1552 14.3942C50.8709 14.4756 50.1965 14.6644 49.6565 14.8137C48.5373 15.123 46.9627 15.6361 46.504 15.8407C46.3335 15.9169 46.0312 16.0266 45.8322 16.0846C44.1624 16.5716 39.6483 18.7852 37.1537 20.3402C36.7294 20.6047 36.3 20.8678 36.1992 20.9249C35.5279 21.3055 32.7323 23.3428 31.4654 24.3749C29.9295 25.6262 26.5481 28.9082 25.4174 30.2452C25.1339 30.5805 24.8541 30.9072 24.7954 30.9712C24.1073 31.7241 22.2161 34.2672 21.006 36.0665C19.8399 37.8005 17.4314 42.32 16.8061 43.9477C16.6965 44.2329 16.4595 44.8396 16.2792 45.2959C15.5655 47.1019 15.4748 47.3638 14.859 49.3923C14.5012 50.5714 14.2317 51.6274 13.9895 52.8004C13.8792 53.3342 13.7683 53.8045 13.7433 53.8452C13.7182 53.8859 13.6242 54.4057 13.5345 55.0002C13.4448 55.595 13.3027 56.5014 13.219 57.0147C12.4823 61.5293 12.7557 70.6233 13.7332 74.1263C13.8128 74.4115 13.9076 74.8548 13.9443 75.1115C14.1459 76.5229 15.827 81.9115 16.5812 83.5636C16.6334 83.6776 16.9549 84.401 17.296 85.171C19.2606 89.6063 22.3657 94.4172 25.5626 97.9788C27.1721 99.7718 29.6318 102.167 31.0519 103.323C31.3646 103.578 31.6437 103.81 31.6721 103.838C31.7349 103.901 32.262 104.308 33.4292 105.195C34.2325 105.805 35.2633 106.535 35.6881 106.794C35.7819 106.851 36.3932 107.23 37.047 107.636C38.9736 108.834 41.0873 109.953 43.2999 110.945C44.142 111.323 45.1009 111.72 45.1777 111.723C45.225 111.725 45.4498 111.817 45.6772 111.927C45.9045 112.037 46.1477 112.129 46.2177 112.131C46.2877 112.133 46.6366 112.248 46.9929 112.387C48.4038 112.936 51.7471 113.871 53.3257 114.157C53.7805 114.239 54.3153 114.351 54.5143 114.406C54.7133 114.461 55.3179 114.559 55.858 114.624C56.398 114.69 57.245 114.807 57.7404 114.885C60.4044 115.305 67.2287 115.305 69.8927 114.885C70.3881 114.807 71.2351 114.69 71.7752 114.625C72.3152 114.56 72.9896 114.444 73.2739 114.368C73.5581 114.292 74.0935 114.178 74.4635 114.117C75.3436 113.969 78.327 113.185 79.4754 112.798C80.911 112.315 82.5963 111.686 83.2211 111.401C83.4619 111.291 83.6895 111.201 83.7265 111.201C84.1211 111.201 88.5756 108.886 90.5861 107.636C91.2399 107.23 91.85 106.851 91.9419 106.794C92.4841 106.458 94.4264 105.051 95.128 104.487C95.444 104.232 95.8605 103.901 96.0533 103.749C98.5543 101.792 102.127 98.1154 104.333 95.2282C105.09 94.2375 107.057 91.3345 107.599 90.4082C107.766 90.123 107.958 89.7963 108.026 89.6822C108.65 88.6304 109.62 86.7528 110.116 85.6377C110.293 85.2384 110.483 84.8308 110.538 84.7321C110.592 84.6333 110.725 84.33 110.832 84.058C110.939 83.786 111.195 83.1526 111.401 82.6504C111.606 82.148 111.775 81.6883 111.775 81.6289C111.775 81.5695 111.842 81.3738 111.924 81.1939C112.175 80.6437 112.759 78.7487 113.321 76.6671C113.617 75.5662 114.017 73.6495 114.153 72.6744C114.216 72.2181 114.333 71.4714 114.412 71.0151C114.965 67.8321 114.965 60.1977 114.412 57.0147C114.333 56.5584 114.217 55.8117 114.155 55.3554C113.953 53.8828 112.845 49.3104 112.495 48.5108C112.445 48.3967 112.334 48.07 112.248 47.7848C111.937 46.7576 111.072 44.4865 110.589 43.4292C110.224 42.6325 108.639 39.4326 108.381 38.9698C108.061 38.4005 106.81 36.3351 106.683 36.1697C106.64 36.1127 106.482 35.8794 106.333 35.6512C105.955 35.0736 104.949 33.6276 104.787 33.4298C104.713 33.3398 104.337 32.8662 103.95 32.3772C103.564 31.8885 103.108 31.3124 102.938 31.0967C102.061 29.9883 99.1091 26.95 97.7344 25.7408C97.3168 25.3736 96.9215 25.0241 96.8559 24.9643C95.9931 24.1776 92.4109 21.5134 91.4246 20.9249C91.329 20.8678 90.9037 20.6047 90.4794 20.3402C88.7474 19.2607 85.272 17.4507 84.0748 17.0048C83.9895 16.9732 83.5244 16.7764 83.0412 16.5679C82.558 16.3592 81.9999 16.1414 81.8009 16.0839C81.602 16.0263 81.2996 15.9164 81.1291 15.8396C80.7265 15.6584 79.5562 15.2791 78.1317 14.8682C77.5064 14.6877 76.7622 14.4731 76.478 14.3911C74.9945 13.9628 71.0181 13.269 69.0878 13.1015C68.3204 13.0352 67.2972 12.9364 66.814 12.8825C65.7985 12.7692 61.8323 12.7738 60.7675 12.8895ZM66.0388 13.9229C68.3271 14.0634 70.9005 14.3229 71.7235 14.4964C72.1214 14.5804 72.8423 14.7165 73.3255 14.7992C75.0312 15.0906 78.6738 16.0284 79.5787 16.4087C79.6924 16.4567 80.2273 16.6475 80.7673 16.8331C82.8973 17.5651 86.911 19.4206 88.5807 20.4452C88.8595 20.6166 89.39 20.9314 89.7595 21.145C90.129 21.3586 90.943 21.8837 91.5683 22.3122C92.1936 22.7405 92.8797 23.2069 93.0928 23.3485C93.306 23.4903 93.4804 23.6446 93.4804 23.6915C93.4804 23.7384 93.5295 23.7768 93.5895 23.7768C93.6864 23.7768 95.3711 25.0695 95.9094 25.5569C96.023 25.6599 96.2323 25.8413 96.3745 25.9604C97.653 27.0306 100.585 29.9559 101.612 31.1874C101.943 31.5841 102.284 31.9891 102.369 32.0873C102.559 32.3056 102.584 32.3373 103.379 33.3697C103.731 33.826 104.08 34.2693 104.154 34.3549C104.229 34.4404 104.474 34.7904 104.699 35.1327C104.924 35.4749 105.133 35.7782 105.164 35.8068C105.269 35.904 106.159 37.3082 106.708 38.2439C107.01 38.7572 107.328 39.2926 107.414 39.4334C107.501 39.5744 107.885 40.2978 108.268 41.0408C108.866 42.2013 109.188 42.8896 109.964 44.6737C110.414 45.7076 111.155 47.6793 111.155 47.8437C111.155 47.908 111.222 48.1079 111.304 48.2878C111.45 48.6062 111.525 48.8577 112.053 50.7923C112.449 52.2416 112.9 54.2248 113.069 55.2517C113.153 55.7651 113.267 56.4417 113.322 56.7555C114.134 61.3792 113.868 69.7341 112.762 74.3855C112.674 74.7563 112.504 75.4796 112.383 75.993C112.125 77.0975 111.498 79.3277 111.364 79.6227C111.312 79.7368 111.121 80.2735 110.941 80.8153C110.64 81.7145 110.361 82.436 109.698 84.0302C109.477 84.5602 107.653 88.2451 107.439 88.5933C107.387 88.6789 106.944 89.4082 106.457 90.214C103.795 94.6106 99.2734 99.8867 96.0127 102.399C95.8422 102.531 95.6794 102.665 95.651 102.698C95.5967 102.76 93.8393 104.142 93.3187 104.532C92.4618 105.173 90.9399 106.18 89.1911 107.264C88.2508 107.846 85.3857 109.322 84.1583 109.856C83.6291 110.086 83.1032 110.317 82.9896 110.371C82.188 110.745 79.0074 111.862 77.8216 112.187C73.2261 113.442 70.3031 113.918 66.1359 114.092C62.9623 114.224 58.3763 114.027 56.7882 113.69C56.5324 113.636 55.858 113.521 55.2895 113.435C53.6916 113.194 52.3577 112.888 49.6565 112.142C48.6131 111.854 45.472 110.747 44.6508 110.378C44.4193 110.274 43.8449 110.02 43.3738 109.814C42.2229 109.311 39.3379 107.819 38.4421 107.264C36.8103 106.253 35.4542 105.36 34.3734 104.584C33.854 104.212 31.499 102.334 31.1553 102.018C30.9563 101.836 30.5377 101.459 30.2251 101.181C28.2781 99.4496 25.5941 96.5157 23.9753 94.349C23.89 94.235 23.7148 94.0045 23.5861 93.837C23.0939 93.1969 21.9479 91.5153 21.4714 90.7343C21.198 90.2863 20.8709 89.7497 20.7443 89.5417C20.6177 89.3338 20.3479 88.8604 20.1443 88.4896C19.9409 88.1189 19.7339 87.7455 19.6841 87.66C19.3828 87.1414 18.2115 84.696 17.8213 83.771C16.5218 80.6904 15.8342 78.5237 14.8913 74.5411C13.2629 67.6612 13.4844 58.5981 15.4601 51.259C15.6825 50.432 15.934 49.4812 16.0182 49.1463C16.1027 48.8113 16.2009 48.4901 16.2363 48.4325C16.2717 48.3752 16.498 47.7626 16.7396 47.0714C16.9812 46.3801 17.3267 45.4644 17.5073 45.0366C17.6882 44.6088 17.8877 44.1188 17.951 43.9477C18.0642 43.641 20.0115 39.739 20.2022 39.4365C20.4949 38.9721 21.3363 37.5493 21.3363 37.5187C21.3363 37.499 21.6776 36.9776 22.0949 36.3598C23.2411 34.6624 23.3427 34.5159 23.4856 34.3515C23.5579 34.2678 23.8856 33.841 24.213 33.4031C28.4848 27.6922 35.0486 22.2878 41.5945 19.0916C42.7302 18.537 42.9705 18.4248 44.2878 17.8334C45.0366 17.4971 47.6436 16.5174 47.7893 16.5174C47.8513 16.5174 47.9828 16.473 48.0815 16.4188C48.665 16.0984 53.0598 14.9693 54.7727 14.6996C55.3412 14.6102 55.9691 14.4946 56.168 14.443C56.5851 14.3349 59.5923 14.0352 61.336 13.9281C63.1163 13.8189 64.3209 13.8176 66.0388 13.9229ZM60.7158 16.5713C57.3776 16.7854 57.4996 16.7416 57.6825 17.6594L57.7499 17.9978L58.8094 17.9291L59.8688 17.8604L59.9357 18.9778C60.0448 20.7978 60.1993 22.8165 60.2683 23.3218L60.3329 23.7937L60.9636 23.7216C61.3104 23.6822 61.6065 23.6391 61.6212 23.6259C61.6646 23.587 61.3277 18.0302 61.2789 17.9812C61.1091 17.8106 61.5432 17.6579 62.2013 17.6568C63.2543 17.6548 63.4034 17.5985 63.4018 17.2052C63.399 16.6058 63.3 16.4124 63.0034 16.4277C62.8538 16.4354 61.8243 16.5 60.7158 16.5713ZM67.0181 16.59C67.0165 16.6356 66.9664 17.1396 66.9065 17.71C66.7088 19.5912 66.4346 23.5163 66.4956 23.5881C66.5287 23.627 66.8346 23.6736 67.1757 23.6918L67.7959 23.725L67.8623 22.999C68.0044 21.4447 68.3617 16.688 68.338 16.6688C68.2475 16.5964 67.0202 16.5231 67.0181 16.59ZM72.5651 17.5285C72.5369 17.6283 72.4842 17.8733 72.4472 18.073C72.3718 18.4844 71.8462 20.7372 71.6248 21.599C71.0292 23.9173 70.992 24.1597 71.2222 24.2274C71.7767 24.3902 72.3943 24.4177 72.4354 24.2811C72.5377 23.9399 72.8403 22.6402 72.9354 22.1336C73.0571 21.4846 72.909 21.4979 74.9103 21.9578C76.303 22.278 76.1917 22.3006 76.3087 21.6718L76.3981 21.1914L75.9214 21.0434C75.6591 20.9617 74.9909 20.7901 74.4366 20.6617C73.3118 20.4012 73.3444 20.4437 73.5503 19.507C73.694 18.8523 73.8167 18.6628 74.0397 18.7504C74.1302 18.7859 74.6692 18.9246 75.2377 19.0584C75.8061 19.192 76.4764 19.3537 76.7271 19.4173C77.2668 19.5547 77.3183 19.5153 77.4087 18.8946L77.478 18.4199L76.8229 18.2462C76.4627 18.1505 75.8656 18.0043 75.4961 17.9208C75.1266 17.8373 74.4289 17.675 73.9457 17.5604C72.8573 17.3022 72.6299 17.297 72.5651 17.5285ZM50.0182 18.4593C49.1087 18.7253 48.3441 18.9584 48.3193 18.9768C48.2632 19.0188 48.6849 20.6239 49.4035 23.1027C49.5523 23.6161 49.7699 24.4019 49.8869 24.8489C50.1288 25.7721 50.211 25.8364 50.8807 25.6277C51.4789 25.4413 51.4996 25.3417 51.1634 24.2663C51.0169 23.7973 50.8854 23.2505 50.8712 23.0509L50.8451 22.6879L51.7645 22.4564C53.0918 22.1222 53.3898 22.2855 53.6983 23.5175C53.7699 23.8027 53.914 24.182 54.019 24.3602L54.2094 24.6842L54.9045 24.475C55.7177 24.23 55.7554 24.2064 55.5339 24.082C55.4417 24.0304 55.2161 23.5323 55.0326 22.9749C54.689 21.9329 54.4099 21.5326 53.9381 21.4058L53.6867 21.3384L53.9696 20.9394C54.3466 20.4077 54.3639 19.5669 54.0104 18.9545C53.3523 17.8137 52.5608 17.7157 50.0182 18.4593ZM52.5768 19.3939C53.3523 20.095 52.9161 21.0244 51.6714 21.3236C51.3306 21.4053 50.9254 21.5225 50.7712 21.5837C50.4407 21.7146 50.4616 21.7413 50.1844 20.8362C49.8482 19.7393 49.8671 19.6641 50.5092 19.5295C50.8076 19.467 51.2378 19.348 51.4652 19.2653C51.9208 19.0991 52.2993 19.143 52.5768 19.3939ZM80.9741 19.8681C80.9741 19.9376 80.881 20.1689 80.7673 20.3815C80.6536 20.5943 80.5606 20.8139 80.5606 20.8697C80.5606 20.9251 80.4443 21.2256 80.3022 21.5375C80.1601 21.8492 80.0438 22.139 80.0438 22.1818C80.0438 22.2246 79.9547 22.4491 79.8459 22.6812C79.7369 22.9129 79.5015 23.4748 79.3229 23.9298C79.1441 24.3845 78.932 24.8979 78.8516 25.0706C78.6692 25.4618 78.3787 26.2914 78.4149 26.3176C78.5374 26.406 79.6348 26.8115 79.6583 26.777C79.7467 26.6474 80.1472 25.7654 80.1472 25.6998C80.1472 25.6575 80.2146 25.476 80.2971 25.2961C80.3795 25.1164 80.5371 24.7361 80.6474 24.4509C80.7575 24.1657 81.0668 23.3957 81.3348 22.7397C82.1655 20.7061 82.3172 20.3192 82.2911 20.2988C81.9653 20.0418 80.9741 19.7175 80.9741 19.8681ZM43.6082 20.9091C43.4268 21.0338 42.8578 21.3387 40.2508 22.7089C39.4025 23.1548 39.3501 23.2085 39.5405 23.4374C39.6247 23.5385 39.8361 23.9013 40.0103 24.2435C40.1844 24.5857 40.5007 25.1924 40.7134 25.5917C40.9258 25.9909 41.3723 26.8351 41.7054 27.4677C42.5263 29.0262 42.832 29.5543 42.8335 29.4166C42.8343 29.3531 43.0557 29.204 43.3258 29.0853C43.5958 28.9668 44.1583 28.6811 44.5756 28.4503C44.9929 28.2196 45.7836 27.7931 46.3327 27.5022C46.8818 27.2116 47.3485 26.9562 47.3699 26.9349C47.45 26.8553 46.9632 25.9546 46.8394 25.9534C46.7115 25.9523 45.2074 26.6798 45.1087 26.7905C44.9738 26.9419 43.5097 27.6173 43.4043 27.5769C43.2989 27.5362 42.5247 26.1693 42.5247 26.0239C42.5247 25.993 42.7922 25.8312 43.119 25.664C45.6529 24.3682 45.5759 24.432 45.2898 23.8707C45.1617 23.6194 45.0433 23.3923 45.0265 23.3659C45.0097 23.3394 44.9133 23.3698 44.8126 23.4328C44.5089 23.6231 42.0389 24.9176 41.9795 24.9176C41.8919 24.9176 41.4079 24.0485 41.3364 23.7631C41.2772 23.5264 41.3366 23.4701 42.0273 23.1097C44.726 21.7014 44.5728 21.8266 44.2684 21.278C43.9857 20.7685 43.8901 20.7149 43.6082 20.9091ZM85.9306 22.7193C85.7371 23.0441 85.5518 23.3335 85.5192 23.362C85.4864 23.3905 85.304 23.6938 85.1138 24.0361C84.9236 24.3783 84.5748 24.9617 84.3384 25.3324C83.1007 27.2746 82.6167 28.1652 82.7508 28.253C82.8252 28.3018 83.235 28.5535 83.6614 28.8123C84.0877 29.0713 85.0412 29.652 85.7802 30.1029C87.2849 31.0212 87.234 30.9997 87.311 30.7511C87.342 30.6513 87.4652 30.4226 87.5849 30.2432L87.8027 29.9168L87.4632 29.713C85.4851 28.5258 84.4851 27.8704 84.51 27.7775C84.5833 27.5043 85.3784 26.2697 85.482 26.2678C85.5453 26.2665 85.7081 26.3498 85.8438 26.4524C85.9794 26.5548 86.3926 26.818 86.7621 27.0371C87.1316 27.2564 87.6466 27.5629 87.9063 27.7184L88.3789 28.0016L88.5983 27.678C89.0306 27.0412 89.0598 27.0825 87.4926 26.111C86.6929 25.615 86.0386 25.1945 86.0386 25.1763C86.0386 25.1579 86.2006 24.8961 86.3988 24.5943C86.5968 24.2925 86.7769 23.9969 86.7988 23.937C86.8257 23.8647 86.9032 23.8701 87.0332 23.9539C87.5616 24.2946 89.1973 25.2857 89.2911 25.322C89.3497 25.3449 89.5086 25.4499 89.6443 25.5554C89.7799 25.6609 89.9427 25.7454 90.006 25.7433C90.1192 25.7397 90.7489 24.8292 90.6755 24.7752C90.6549 24.7599 90.4753 24.6529 90.2763 24.5372C90.0773 24.4216 89.1239 23.8466 88.1575 23.2596C87.1911 22.6726 86.3738 22.1779 86.3415 22.1603C86.3089 22.1427 86.1242 22.3941 85.9306 22.7193ZM61.336 25.7467C59.9471 25.8476 57.0903 26.2212 56.6368 26.3614C56.4642 26.4148 55.9742 26.5139 55.5479 26.5813C55.1215 26.649 54.7262 26.7402 54.6693 26.784C54.6125 26.8279 54.3102 26.9168 53.9975 26.9813C53.3414 27.1172 51.9288 27.5401 51.1035 27.8478C50.1285 28.2113 48.9981 28.657 48.6745 28.8055C45.6684 30.1856 44.1299 31.0573 41.4911 32.876C41.155 33.1081 39.6242 34.3105 39.424 34.5006C39.3387 34.5815 39.0829 34.7959 38.8555 34.9768C35.325 37.7899 31 43.5446 29.0739 47.9923C28.9011 48.3915 28.6778 48.8815 28.5781 49.0812C28.4781 49.2808 28.3367 49.6308 28.2636 49.859C28.1907 50.0871 28.0982 50.3205 28.0584 50.3775C27.9589 50.5191 26.9925 53.6056 26.7267 54.6295C25.369 59.8602 25.2272 66.214 26.3468 71.6373C26.8582 74.1146 27.592 76.6699 28.108 77.7716C28.1923 77.9515 28.2613 78.1304 28.2613 78.169C28.2613 78.4902 30.0395 82.1208 30.8899 83.5361C31.2419 84.1215 31.5966 84.7173 31.6783 84.8599C31.7602 85.0025 31.855 85.1425 31.8891 85.171C31.9233 85.1995 32.0739 85.4095 32.224 85.6377C34.2108 88.6594 38.0927 92.7385 40.8103 94.6601C40.9718 94.7742 41.2258 94.9653 41.3749 95.0846C41.6351 95.2928 42.9033 96.1548 43.6617 96.6391C44.2425 97.0101 46.1441 98.0664 46.7624 98.3614C47.0751 98.5108 47.5402 98.7345 47.796 98.859C48.0518 98.9832 48.4239 99.148 48.6229 99.2253C48.8218 99.3023 49.3335 99.5123 49.7598 99.6917C51.6642 100.493 54.683 101.364 56.7833 101.717C57.3205 101.807 57.791 101.9 57.8285 101.924C58.0809 102.08 61.7042 102.318 63.8166 102.317C67.4191 102.315 69.5323 102.065 73.2459 101.204C74.2475 100.971 76.6074 100.222 77.217 99.9427C77.3963 99.8608 77.5746 99.7936 77.6131 99.7936C77.6873 99.7936 78.8764 99.2951 79.5787 98.9697C82.4738 97.6277 83.8226 96.825 86.8616 94.636C89.5812 92.677 93.4083 88.6724 95.2375 85.871C95.4892 85.486 95.7313 85.171 95.7763 85.171C95.821 85.171 95.8577 85.122 95.8577 85.0624C95.8577 85.0025 96.028 84.6875 96.236 84.3624C96.4442 84.037 96.753 83.5376 96.9223 83.2524C97.2481 82.7036 98.7517 79.7288 98.7517 79.6333C98.7517 79.6022 98.868 79.322 99.0101 79.0101C99.1522 78.6984 99.2685 78.4166 99.2685 78.3837C99.2685 78.351 99.3587 78.1262 99.4688 77.8846C101.87 72.6116 102.679 63.725 101.382 56.8592C100.994 54.8042 99.9445 51.0664 99.5657 50.3897C99.5057 50.2824 99.3889 50.0023 99.3065 49.7675C99.2241 49.5326 99.0794 49.1538 98.9848 48.9256C98.6713 48.1699 96.8287 44.578 96.5109 44.1033C96.3391 43.8466 95.9745 43.2866 95.7006 42.8588C95.4267 42.431 95.1755 42.0577 95.1424 42.0291C95.1096 42.0006 94.9225 41.744 94.7269 41.4588C93.4326 39.5713 90.7329 36.653 88.5655 34.799C85.3815 32.0754 81.4694 29.7399 77.6666 28.2922C77.1265 28.0869 76.5684 27.868 76.4263 27.8063C75.7901 27.5299 73.216 26.8209 71.9509 26.5733C71.3935 26.4644 70.9028 26.3537 70.8602 26.3272C70.2788 25.9666 63.7713 25.5702 61.336 25.7467ZM34.1488 26.923C31.7556 28.077 31.4881 30.6798 33.5537 32.7207C35.3522 34.4977 37.8245 34.2084 38.87 32.0987C39.325 31.1799 38.9842 29.0337 38.4503 29.456C37.6193 30.113 37.5392 30.2079 37.6746 30.3715C38.171 30.9717 37.6043 32.197 36.7 32.4786C35.5772 32.8286 34.0886 31.7251 33.6271 30.2012C33.2026 28.7988 34.2741 27.6388 35.5889 28.077L36.1111 28.251L36.579 27.8587C37.1736 27.3599 37.1669 27.3015 36.4759 26.9614C35.7436 26.601 34.8475 26.5862 34.1488 26.923ZM94.1866 27.7055C94.1566 27.7851 93.0621 28.959 90.328 31.8436C89.9301 32.2634 89.5918 32.6419 89.5761 32.6847C89.4872 32.9292 92.1401 35.2255 92.7683 35.4477C93.4409 35.6859 94.7187 35.5125 95.098 35.1319C95.183 35.0469 95.291 34.9771 95.3386 34.9771C95.515 34.9771 96.3375 34.2068 96.7636 33.6424C97.7478 32.3388 97.7468 30.8802 96.761 29.8797C94.9264 28.0179 94.2758 27.4688 94.1866 27.7055ZM95.1938 29.9588C96.4946 31.0739 96.5008 31.8423 95.2194 33.2328C94.0458 34.5063 93.0975 34.5664 91.9329 33.4407L91.296 32.8249L92.368 31.6971C92.9577 31.077 93.6649 30.3246 93.9396 30.0251C94.5442 29.3658 94.5047 29.3679 95.1938 29.9588ZM67.7442 37.2037C69.755 37.6465 71.4547 38.2407 73.2739 39.137C73.9689 39.4795 73.9162 39.4481 75.3281 40.3615C77.671 41.8772 81.5942 45.9036 81.5942 46.7924C81.5942 46.9477 80.7984 46.9316 80.6707 46.7737C80.6128 46.7024 80.1945 46.1686 79.7405 45.5876C78.9333 44.5536 77.6314 43.1912 76.7689 42.4769L76.3361 42.1189L75.2961 42.8025C74.724 43.1787 74.2558 43.5041 74.2558 43.5256C74.2558 43.5474 74.4248 43.7678 74.6315 44.0156C75.4557 45.0045 76.4707 46.6433 76.365 46.8149C76.1542 47.1577 75.5979 46.8919 75.1935 46.2552C74.8415 45.7011 74.2552 44.8883 73.6302 44.088C73.4723 43.8857 73.4565 43.8891 72.6483 44.2923C72.1963 44.5178 71.6175 44.7758 71.3617 44.866C69.9638 45.3584 70.0028 45.3262 70.2191 45.8144C70.5883 46.6477 70.57 46.9041 70.1411 46.9018C69.7597 46.8995 69.6659 46.8134 69.5225 46.333C69.2958 45.5736 69.3757 45.5925 67.7382 45.9119C66.9289 46.0701 65.7522 46.2293 65.1235 46.2661C64.0127 46.3311 63.9786 46.3402 63.9197 46.5922C63.8277 46.9845 63.1592 46.9759 63.1135 46.5819L63.0822 46.3122L61.8215 46.2461C61.1282 46.2098 60.3515 46.13 60.0957 46.0685C58.0698 45.5821 57.6866 45.6065 57.5701 46.2295C57.4846 46.6869 57.2642 46.9033 56.8841 46.9033C56.5133 46.9033 56.4954 46.7291 56.782 45.9106L56.9828 45.3379L56.7561 45.2539C56.6316 45.2077 56.274 45.075 55.9613 44.9589C55.6487 44.8427 54.9861 44.5593 54.4892 44.3288L53.5859 43.9101L52.9836 44.6547C52.6523 45.0644 52.1988 45.7029 51.9758 46.0737C51.4983 46.8678 51.4619 46.8997 51.0322 46.9018C50.6296 46.9036 50.5107 46.7447 50.7316 46.4997C50.8223 46.3991 50.8968 46.2736 50.8968 46.2207C50.8968 46.1681 51.0598 45.8917 51.259 45.6068C51.4585 45.3216 51.6794 45.0006 51.75 44.893C51.8208 44.7857 52.0763 44.4504 52.3179 44.1481C52.7939 43.5529 52.8376 43.4305 52.606 43.3413C52.4823 43.2936 51.4164 42.5975 50.8446 42.1907C50.5373 41.9721 47.7715 44.7468 46.7624 46.2863C46.4033 46.8344 45.7679 47.1152 45.4986 46.845C45.4211 46.7675 45.9268 45.8663 46.0477 45.8663C46.0996 45.8663 46.1423 45.8162 46.1423 45.7551C46.1423 45.3148 49.4159 41.9322 50.6552 41.0916C50.7779 41.0084 51.1611 40.7419 51.5066 40.4995C51.852 40.2571 52.1818 40.0587 52.2391 40.0587C52.2967 40.0587 52.3438 40.0167 52.3438 39.9651C52.3438 39.3533 58.3463 37.2413 61.0259 36.9105C62.3577 36.7461 66.484 36.926 67.7442 37.2037ZM60.9742 37.7793C60.0848 37.9112 58.8523 38.1606 58.7923 38.2205C58.6827 38.3307 60.669 39.2262 61.4845 39.4344C63.5264 39.9558 66.2951 39.5277 67.9406 38.4368C68.286 38.2076 68.2876 38.2029 68.0439 38.1485C67.4915 38.0253 66.6269 37.8617 66.0904 37.7787C65.4008 37.6722 61.6938 37.6727 60.9742 37.7793ZM57.2016 38.6198C57.0027 38.6737 56.7468 38.7616 56.6331 38.8153C56.5195 38.8687 56.1706 39.0064 55.858 39.1207C54.9518 39.4523 53.1484 40.3932 52.2595 40.9983L51.4415 41.5555L51.7859 41.8181C53.1427 42.8526 53.3254 42.8785 54.1128 42.1476C55.4127 40.941 57.4334 39.5692 58.3316 39.283C58.4492 39.2457 58.5435 39.1832 58.5414 39.1443C58.5378 39.0743 57.6753 38.4946 57.6016 38.5125C57.5807 38.5176 57.4006 38.5659 57.2016 38.6198ZM68.9013 38.8352L68.4623 39.1738L69.2064 39.5231C69.6157 39.7152 70.0155 39.9376 70.0951 40.0175C70.1744 40.0971 70.2871 40.1624 70.3452 40.1624C70.4033 40.1624 70.7139 40.3613 71.0356 40.6042C71.3571 40.8472 71.7364 41.1235 71.8785 41.2187C72.0206 41.3136 72.4625 41.6962 72.8604 42.0691C73.7509 42.9029 73.7899 42.8985 75.2651 41.788L75.6028 41.5339L74.6966 40.9433C73.3785 40.0844 70.5845 38.7663 69.6535 38.5646C69.3989 38.5093 69.2581 38.5602 68.9013 38.8352ZM59.3721 39.7499C59.2869 39.8013 58.867 40.0009 58.4391 40.193C57.2156 40.7424 55.1264 42.2106 54.3722 43.0509C54.1683 43.278 54.8618 43.6944 56.1251 44.103C56.3476 44.1751 56.5768 44.271 56.6344 44.3164C57.0693 44.6589 57.3422 44.4888 57.8205 43.5764C58.4742 42.3294 59.1734 41.3177 59.8528 40.6358C60.1727 40.3151 60.4161 40.0411 60.3941 40.0268C60.3161 39.976 59.5716 39.6439 59.5494 39.6501C59.5373 39.6532 59.4574 39.6983 59.3721 39.7499ZM67.0036 39.8539L66.6248 40.0546L67.2274 40.6724C67.8235 41.284 69.0878 43.0903 69.0878 43.3309C69.0878 43.3996 69.1499 43.5075 69.2258 43.5705C69.3018 43.6337 69.4256 43.8728 69.5008 44.1017C69.5762 44.3306 69.6966 44.5181 69.7685 44.5181C69.9416 44.5181 71.3493 43.9648 72.1759 43.572L72.8348 43.2586L72.486 42.8925C71.5731 41.9345 69.3349 40.4279 68.2093 40.0141C67.9251 39.9096 67.6483 39.7834 67.5943 39.7339C67.4651 39.6154 67.446 39.6193 67.0036 39.8539ZM61.2326 40.535C60.3845 41.1183 59.1928 42.6955 58.4024 44.2801L58.1329 44.8201L58.52 44.887C58.7329 44.9241 59.3256 45.0441 59.8373 45.1541C60.3489 45.264 61.2907 45.383 61.9303 45.4185L63.093 45.4831V42.9783V40.4735L62.6538 40.4725C62.4122 40.4717 62.0517 40.4455 61.8527 40.4142C61.6047 40.375 61.4099 40.4129 61.2326 40.535ZM64.5401 40.4645L63.9716 40.5254L63.9439 43.004L63.916 45.4828L65.0292 45.4232C65.9506 45.3739 67.2209 45.1769 68.5452 44.8777C69.3935 44.6864 66.3269 40.3291 65.3845 40.3867C65.2326 40.396 64.8527 40.431 64.5401 40.4645ZM60.7073 48.7218C61.8626 48.8953 62.846 49.2046 63.9716 49.7493L64.6951 50.0993L64.7266 49.642L64.7582 49.1849H66.768H68.7778V52.3479V55.511H66.878H64.9786L64.3158 54.8589C62.9982 53.5629 61.6179 53.0184 59.4755 52.9494C58.2024 52.9087 58.0507 52.9232 57.7443 53.1174C57.1192 53.5131 57.384 54.1916 58.2675 54.4576C58.7476 54.6022 59.9153 54.945 60.9225 55.2369C65.3222 56.5117 65.9966 56.7619 66.9173 57.4604C67.2351 57.7015 67.9103 58.3709 68.2979 58.8296C70.4299 61.3517 69.4163 65.6708 66.3416 67.1663C65.8907 67.3856 65.4414 67.606 65.3429 67.6563C63.691 68.4999 59.5264 68.1512 57.0189 66.9591C56.4921 66.7087 56.0409 66.5039 56.0164 66.5039C55.9918 66.5039 55.9577 66.7722 55.9407 67.1002L55.9096 67.6965L53.8683 67.7245L51.827 67.7527V64.2762V60.8H53.6735H55.5197L55.812 61.2229C56.2078 61.7961 56.9959 62.492 57.6559 62.8505C59.6411 63.9293 63.5065 63.9752 63.5065 62.9198C63.5065 62.3896 63.3396 62.3201 58.8037 60.9558C58.2921 60.8018 57.5401 60.5638 57.1326 60.4269C56.7251 60.2898 56.3355 60.1778 56.267 60.1778C54.8991 60.1778 52.2898 57.8021 51.7676 56.0814C50.3482 51.4026 54.6996 47.8206 60.7073 48.7218ZM81.9547 48.719C85.3944 49.2847 88.4396 51.2992 89.0856 53.4368C89.1288 53.5794 89.2466 53.8828 89.3474 54.1109C90.1616 55.9528 90.1706 61.4699 89.3611 62.4987C89.311 62.5625 89.2115 62.8015 89.1404 63.0297C88.0352 66.5733 83.1805 68.7107 77.925 67.9674C76.3537 67.7452 74.1821 66.9068 73.2571 66.165C71.4749 64.7364 70.3349 62.8096 70.0832 60.8C70.0509 60.5433 69.9723 59.9286 69.9085 59.4342C69.6036 57.0731 70.4253 53.6362 71.6927 51.9723C73.6165 49.447 77.9762 48.0649 81.9547 48.719ZM50.5867 51.1035V53.4368H49.243H47.8994V58.2592V63.0815H49.2451H50.5906L50.5629 65.389L50.535 67.6965H44.5919H38.6488L38.6209 65.4435L38.593 63.1902L38.8276 63.1355C38.9568 63.1054 39.5643 63.0694 40.178 63.0554L41.2937 63.0297L41.2922 58.2592L41.2909 53.4887L39.9697 53.4368L38.6488 53.385L38.6209 51.2098C38.6054 50.0135 38.6155 48.9751 38.6434 48.9023C38.6837 48.7973 39.9144 48.7701 44.6402 48.7701H50.5867V51.1035ZM78.834 53.4817C77.6214 53.7765 77.2482 54.3181 76.9896 56.1594C76.6743 58.4026 76.9092 61.4007 77.4725 62.3219C78.3994 63.8378 81.8635 63.6602 82.674 62.0554C83.2567 60.9014 83.2632 56.0477 82.6839 54.7329C82.1598 53.5444 80.626 53.0459 78.834 53.4817ZM46.7578 70.3571C47.5038 71.4579 49.5459 73.6396 50.4707 74.3244L50.8151 74.5792L51.3027 74.2352C51.5709 74.0462 51.9265 73.8172 52.0929 73.727C52.2593 73.6365 52.5029 73.4771 52.6342 73.3726L52.8727 73.1828L52.3381 72.5136C51.8024 71.8437 51.3887 71.2277 50.8683 70.3257L50.5906 69.844L51.0182 69.803C51.2533 69.7805 51.4851 69.8105 51.5334 69.8699C51.7353 70.1188 52.3438 71.0675 52.3438 71.1336C52.3438 71.173 52.4128 71.279 52.497 71.3692C52.5815 71.4597 52.8849 71.8245 53.1714 72.1802L53.6926 72.8271L54.181 72.5694C54.8239 72.2305 55.8024 71.7929 55.9177 71.7929C56.1882 71.7929 57.0846 71.3301 57.0073 71.2303C56.89 71.0791 56.5815 70.1367 56.5815 69.9303C56.5815 69.8126 56.6649 69.7698 56.8657 69.7846C57.022 69.7963 57.2063 69.8095 57.275 69.8142C57.3437 69.8186 57.4574 70.0208 57.5275 70.2632C57.6815 70.7955 57.9158 71.1885 58.0352 71.1146C58.2742 70.9663 60.9081 70.5362 61.9303 70.4787L63.093 70.4131V70.1178C63.093 69.6718 63.8879 69.6625 63.9388 70.1077L63.9716 70.3928L65.1602 70.4706C65.814 70.5134 66.9866 70.6793 67.7659 70.8393L69.1832 71.1302L69.3938 70.6386C69.5098 70.3682 69.6046 70.074 69.6046 69.9848C69.6046 69.8116 69.6847 69.7885 70.1731 69.8214C70.592 69.8497 70.5899 69.9661 70.1529 70.9482C69.9638 71.3731 69.9832 71.3923 70.9483 71.7358C71.3746 71.8875 72.0666 72.1745 72.486 72.3734C72.9054 72.5722 73.2824 72.7447 73.3237 72.7566C73.4312 72.7874 74.3139 71.6811 74.9594 70.7068C75.5462 69.8214 75.6604 69.7333 76.1322 69.8028L76.432 69.8468L76.0588 70.5277C75.8537 70.9023 75.4222 71.5549 75.0999 71.978C74.7777 72.4011 74.4325 72.8543 74.3325 72.9852C74.1521 73.2214 74.3643 73.4569 75.0198 73.7493C75.0705 73.7719 75.3692 73.971 75.6831 74.1919C76.1684 74.5328 76.2793 74.573 76.418 74.4584C77.9718 73.1735 79.2015 71.8655 80.3624 70.2632C80.6544 69.8606 80.7208 69.8225 81.1348 69.8225C81.7291 69.8225 81.627 70.0501 80.2309 71.8398C79.1322 73.2487 77.0958 75.0895 75.3178 76.2816C74.3764 76.9126 73.7772 77.2432 71.9553 78.1363C69.7762 79.2045 65.6623 79.9704 62.783 79.8436C61.4124 79.7835 58.5251 79.3653 58.1618 79.1742C58.06 79.1208 57.7262 79.0241 57.4197 78.959C57.1133 78.8939 56.7179 78.7754 56.5412 78.6956C56.3644 78.6157 56.1034 78.5175 55.9613 78.4773C55.4443 78.3316 52.7032 77.0083 52.4107 76.7635C52.3456 76.7088 52.1061 76.5421 51.8787 76.393C49.7495 74.9966 48.0748 73.4496 46.5136 71.4364C45.3661 69.957 45.317 69.8437 45.8069 69.8017C46.3415 69.7556 46.356 69.7639 46.7578 70.3571ZM61.1292 71.3791C60.1678 71.5048 58.6065 71.8105 58.4189 71.9101C57.8975 72.1867 60.306 75.6057 61.4409 76.1999C61.6171 76.2922 61.9246 76.3179 62.3969 76.28L63.093 76.2237V73.749V71.2744L62.3954 71.2896C62.0117 71.2979 61.4419 71.3384 61.1292 71.3791ZM63.9439 73.7374L63.9716 76.2004L64.6853 76.2795C65.4987 76.3697 65.5253 76.3583 66.4163 75.5411C67.2705 74.7579 68.955 72.1437 68.7429 71.9306C68.5778 71.7651 65.4693 71.2863 64.5124 71.279L63.9163 71.2744L63.9439 73.7374ZM56.4781 72.4805C56.1086 72.6249 55.6202 72.8261 55.3928 72.9274C55.1655 73.0285 54.8283 73.1704 54.6435 73.2427C54.183 73.4221 54.1991 73.4563 55.1086 74.2391C56.2629 75.2326 57.0505 75.7537 58.2869 76.3425C59.7106 77.0205 59.7339 77.0264 60.1522 76.8273L60.521 76.6518L59.8019 75.8924C58.9745 75.0184 58.3742 74.1545 57.7995 73.0114C57.3445 72.1061 57.3895 72.1242 56.4781 72.4805ZM69.2992 72.9077C68.7207 74.0578 67.8953 75.2564 67.1816 75.9831L66.5101 76.6668L66.8848 76.8239C67.3369 77.0137 67.8574 76.8522 69.292 76.077C70.5018 75.4234 72.7054 73.7348 72.7054 73.4613C72.7054 73.3493 69.9863 72.2077 69.7191 72.2077C69.6819 72.2077 69.493 72.5227 69.2992 72.9077ZM52.7445 74.3137C52.3678 74.5528 51.9368 74.8419 51.7862 74.9562L51.5128 75.1639L52.2125 75.6259C53.0342 76.1688 55.1786 77.2795 55.9133 77.5429C56.1954 77.644 56.6443 77.8151 56.9107 77.923C57.5582 78.1851 57.7952 78.1685 58.2985 77.826L58.7236 77.5369L57.7099 77.0044C56.2686 76.2468 55.421 75.6606 54.3836 74.7031C53.8851 74.2432 53.4665 73.8696 53.4533 73.873C53.4399 73.8761 53.121 74.0744 52.7445 74.3137ZM72.9576 74.453C72.1948 75.1613 70.7808 76.2396 70.1982 76.5577C69.9568 76.6891 69.4452 76.959 69.061 77.1574L68.3623 77.5177L68.7909 77.8294C69.2212 78.1421 69.8359 78.1828 70.1679 77.9206C70.2276 77.8734 70.4625 77.7762 70.6899 77.7047C71.8168 77.3495 74.3808 76.0137 75.2454 75.3313L75.4878 75.14L75.2594 74.9305C75.1338 74.8151 74.8914 74.644 74.7209 74.5502C74.5503 74.4563 74.2219 74.2678 73.9912 74.1312L73.5718 73.8831L72.9576 74.453ZM61.4393 77.3344C60.5706 77.5719 59.3931 78.0656 59.0293 78.3453C58.3489 78.8677 64.2091 79.1794 66.6928 78.7526C67.3935 78.6323 68.0214 78.5335 68.0881 78.5333C68.2183 78.5328 67.6444 78.0251 67.5067 78.0189C67.4612 78.0168 67.2287 77.9201 66.9899 77.804C65.4951 77.077 63.1179 76.8758 61.4393 77.3344ZM42.45 80.8156C44.2865 81.505 44.8027 85.2783 43.3668 87.5158C42.2335 89.2817 39.0105 88.7468 39.0105 86.793C39.0105 86.3748 39.9847 86.3714 40.0893 86.7893C40.5222 88.5197 42.5622 87.865 42.9227 85.8798C43.0382 85.2439 43.0126 85.1749 42.7493 85.4142C41.6201 86.4393 39.3945 85.6556 39.003 84.0948C38.4317 81.8182 40.3245 80.0176 42.45 80.8156ZM48.6552 80.8677C50.381 81.7036 50.9128 85.5501 49.5849 87.5949C48.6262 89.0712 46.3229 88.9257 45.5022 87.3369C44.7922 85.9628 44.7697 82.7331 45.4648 81.9626C45.5531 81.8643 45.6255 81.7383 45.6255 81.6821C45.6255 80.91 47.6301 80.3712 48.6552 80.8677ZM54.7624 80.8706C57.1207 82.0458 56.8698 88.0953 54.4438 88.5518C52.2588 88.963 51.0567 87.5786 51.058 84.6525C51.0595 81.5364 52.7122 79.8491 54.7624 80.8706ZM60.6913 84.5229L60.6641 88.4378H60.1473H59.6305L59.6029 85.6636L59.5755 82.8895H58.6923H57.8094L57.8414 82.5052C57.8735 82.1215 57.8742 82.121 58.5117 82.0059C59.2688 81.869 59.4114 81.7653 59.7437 81.107C59.9724 80.6541 60.0292 80.6079 60.3572 80.6079H60.7184L60.6913 84.5229ZM70.2765 80.931C71.2165 81.4075 71.6509 82.4337 71.4245 83.6439C71.3294 84.1524 70.709 84.8998 70.1214 85.2138C68.2387 86.2192 67.8085 86.5195 67.5532 87.0051C67.3214 87.4455 67.3512 87.4526 69.4496 87.4526H71.4651V87.9711V88.4896H68.815H66.1651L66.2207 87.8736C66.3129 86.8549 67.0395 85.7829 67.9995 85.2493C68.1284 85.1778 68.4377 85.0077 68.6868 84.8716C69.9705 84.17 70.5413 83.4744 70.3852 82.8024C70.0002 81.1464 67.8274 81.1838 67.4959 82.8521C67.3072 83.8008 66.2165 83.8635 66.3579 82.9175C66.6439 81.0031 68.5307 80.0464 70.2765 80.931ZM76.0645 80.8545C78.309 81.9164 78.295 87.5093 76.0457 88.4523C74.1185 89.2604 72.541 87.8067 72.4199 85.1106C72.2664 81.7046 73.8795 79.8208 76.0645 80.8545ZM82.0076 84.5488V88.4896H81.4927H80.9774L80.95 85.7155L80.9224 82.9413L80.018 82.9113L79.1136 82.8814V82.5192C79.1136 82.1241 79.1395 82.1065 79.8673 82.0087C80.3888 81.9385 81.0774 81.456 81.0774 81.1607C81.0774 80.8135 81.2901 80.6079 81.6495 80.6079H82.0076V84.5488ZM89.4293 81.3079L89.3978 81.8006L87.7846 81.8291L86.1714 81.8576L86.0484 82.6069C85.9807 83.0188 85.9001 83.4583 85.8691 83.5833L85.8125 83.8104L86.2058 83.6092C88.2324 82.5724 90.443 84.6533 89.6911 86.8897C88.8807 89.299 84.9898 89.221 84.5345 86.7862L84.4629 86.4038L85.0094 86.4355C85.5291 86.4658 85.5619 86.4847 85.6743 86.8212C86.2014 88.3989 88.7259 87.7388 88.7259 86.0232C88.7259 84.4741 86.5758 83.6727 85.8009 84.9327C85.7105 85.08 84.9461 85.1197 84.8611 84.9815C84.8319 84.9343 84.9035 84.1993 85.02 83.3481C85.1363 82.4969 85.2536 81.6372 85.2805 81.4376C85.3074 81.2379 85.3479 81.0163 85.3707 80.945C85.4019 80.847 85.9079 80.8153 87.4363 80.8153H89.4608L89.4293 81.3079ZM40.6529 81.7946C39.7762 82.2916 39.7837 84.2768 40.6643 84.7342C41.9687 85.4119 43.2591 84.1596 42.8454 82.6178C42.6216 81.7837 41.449 81.3432 40.6529 81.7946ZM46.7901 81.9302C45.3805 83.2519 46.0074 87.6452 47.6071 87.6566C48.819 87.6651 49.4975 85.5635 49.0523 83.1801C48.7921 81.7863 47.6291 81.1436 46.7901 81.9302ZM53.119 81.7435C51.99 82.2102 51.797 86.1357 52.8484 87.2449C53.559 87.9944 54.436 87.788 54.9445 86.752C55.3166 85.9942 55.3081 83.3097 54.9311 82.4915C54.5797 81.7293 53.8662 81.4347 53.119 81.7435ZM74.217 81.9701C72.778 83.3217 73.4183 87.66 75.057 87.66C76.317 87.66 77.0544 85.037 76.3984 82.8895C76.0172 81.6427 75.0154 81.2203 74.217 81.9701ZM65.0052 83.3043V83.8747L64.4109 83.9058L63.8166 83.9369V83.3043V82.6717L64.4109 82.7028L65.0052 82.7339V83.3043ZM64.8933 87.2044C65.0075 87.2483 65.0569 87.4025 65.0569 87.7144C65.0569 88.4297 65.0041 88.4896 64.3739 88.4896H63.8166V87.8155V87.1414H64.2731C64.5243 87.1414 64.8034 87.1697 64.8933 87.2044ZM93.0851 92.8665L92.5352 93.3929L92.8104 94.2858C92.9618 94.7768 93.1207 95.2487 93.1636 95.3342C93.2714 95.5489 93.5125 96.5813 93.4657 96.6282C93.4448 96.6492 93.2419 96.5782 93.0148 96.4704C92.7877 96.3628 92.5683 96.273 92.5275 96.2712C92.4864 96.2692 92.2073 96.1564 91.9073 96.0205C91.6071 95.8847 91.2453 95.7397 91.1032 95.6985C90.9611 95.6575 90.743 95.5593 90.6182 95.4805C90.4153 95.3524 90.36 95.3643 90.0866 95.5951C89.4363 96.1439 89.1376 96.4618 89.2223 96.5142C89.3507 96.5938 92.2978 97.5956 92.9543 97.7827C93.7086 97.9977 94.036 98.2422 94.9251 99.2559L95.6817 100.118L96.1801 99.6259C96.5946 99.216 96.6571 99.1068 96.5522 98.9756C96.483 98.8888 96.0975 98.4532 95.6957 98.0073C94.8778 97.0996 94.8926 97.1361 94.2176 94.3353C93.6887 92.1409 93.7543 92.2259 93.0851 92.8665ZM36.4674 95.7587C34.3253 96.0337 32.453 99.1675 33.3333 101.005C34.2059 102.827 36.7749 103.503 38.0317 102.242C38.371 101.902 37.3077 101.137 36.8829 101.416C35.1979 102.524 33.6927 100.123 35.032 98.4631C35.109 98.3679 35.2979 98.1354 35.4519 97.9466C36.6891 96.4299 38.7462 96.8795 38.7563 98.6689C38.762 99.6554 39.6152 100.521 39.9201 99.8496C40.8369 97.8307 38.832 95.4553 36.4674 95.7587ZM85.8311 98.7236C85.5756 98.8737 85.3456 99.0143 85.3195 99.0363C85.2663 99.0812 85.6012 99.7112 86.7885 101.799C87.7676 103.521 87.7177 103.622 86.3487 102.691C85.9409 102.414 82.7454 100.52 82.6854 100.52C82.2797 100.52 81.4144 101.23 81.542 101.458C81.6203 101.598 81.7831 101.899 81.9035 102.127C82.0239 102.355 82.257 102.775 82.4213 103.06C82.5859 103.346 82.8087 103.742 82.9164 103.942C83.427 104.888 83.5105 105.034 83.5681 105.083C83.6022 105.111 83.8156 105.485 84.0428 105.912C84.8916 107.512 84.8898 107.511 85.327 107.174C85.4627 107.07 85.658 106.954 85.7616 106.916C85.9787 106.836 85.9265 106.552 85.6117 106.104C85.5053 105.952 85.4185 105.797 85.4185 105.759C85.4185 105.72 85.2226 105.354 84.9831 104.945C84.7435 104.536 84.4722 104.061 84.3805 103.89C84.2885 103.719 84.0634 103.311 83.8802 102.983C83.697 102.655 83.5748 102.386 83.6084 102.386C83.673 102.386 84.1836 102.663 84.8149 103.041C85.6634 103.549 86.4123 103.993 86.6071 104.103C86.7208 104.167 87.2182 104.461 87.7122 104.755L88.6107 105.291L89.1562 104.989C89.8983 104.577 89.9631 104.799 88.1582 101.585C86.2221 98.1361 86.4192 98.3783 85.8311 98.7236ZM45.0981 101.031C42.9392 101.454 41.4004 104.949 42.5446 106.831C42.7524 107.173 43.31 107.779 43.4162 107.779C43.4397 107.779 43.6374 107.892 43.8555 108.03C45.5859 109.126 47.6988 108.358 48.6851 106.275C49.8815 103.749 48.8508 101.534 46.2485 101.039C45.6508 100.925 45.641 100.925 45.0981 101.031ZM46.7014 102.427C47.7529 102.985 48.0469 103.904 47.5955 105.22C46.9976 106.964 45.7306 107.682 44.4883 106.981C42.2981 105.746 44.4836 101.249 46.7014 102.427ZM74.9847 103.485C74.6751 103.569 74.4028 103.656 74.3795 103.679C74.3565 103.703 74.2968 104.483 74.2472 105.413C74.1976 106.344 74.1111 107.595 74.055 108.194C73.9987 108.793 73.9227 109.719 73.8857 110.253L73.8186 111.223L74.1664 111.148C74.3576 111.107 74.5607 111.039 74.6175 110.996C74.6744 110.954 74.8488 110.888 75.0051 110.851C75.2813 110.784 75.2893 110.762 75.2893 110.063C75.2893 109.228 75.3165 109.204 76.7364 108.828C77.1627 108.715 77.6095 108.593 77.7291 108.556C77.9022 108.502 77.9971 108.568 78.1942 108.876C78.3304 109.09 78.5115 109.373 78.5968 109.507C78.7849 109.801 78.9095 109.806 79.6343 109.55C80.2617 109.328 80.2663 109.316 79.894 108.847C79.749 108.665 79.6304 108.471 79.6304 108.416C79.6304 108.36 79.5932 108.299 79.5477 108.28C79.4552 108.242 78.4971 106.924 77.2976 105.186C77.1599 104.987 76.9307 104.66 76.788 104.46C76.6454 104.261 76.4123 103.922 76.2697 103.709C75.9782 103.271 75.8557 103.25 74.9847 103.485ZM53.4497 104.953C53.2076 106.307 52.9903 107.584 52.7567 109.023C52.6505 109.679 52.5324 110.363 52.4942 110.544C52.4112 110.937 52.5748 111.057 53.2678 111.113L53.7267 111.149L53.9081 110.061C54.0078 109.462 54.166 108.482 54.2593 107.883C54.4463 106.681 54.6758 105.612 54.766 105.522C54.798 105.489 54.8244 105.754 54.8244 106.11C54.8244 106.467 54.8693 107.303 54.9241 107.969C54.9789 108.634 55.0525 109.672 55.0877 110.275L55.1518 111.37L55.6096 111.493C56.3445 111.691 56.5489 111.658 56.628 111.331C56.666 111.174 56.7843 110.859 56.891 110.631C56.998 110.403 57.176 109.983 57.2869 109.698C57.3975 109.412 57.7068 108.666 57.9737 108.038C58.2406 107.411 58.5039 106.746 58.5587 106.56C58.6812 106.146 58.9086 106.099 58.8122 106.509C58.7755 106.665 58.6585 107.354 58.5528 108.038C58.4468 108.723 58.2892 109.633 58.2021 110.061C58.1153 110.488 58.029 111.07 58.0104 111.353L57.9768 111.868L58.5427 111.995C58.8538 112.065 59.1187 112.112 59.1313 112.1C59.1773 112.054 59.4665 110.505 59.5799 109.698C59.644 109.241 59.7383 108.705 59.7897 108.505C59.8409 108.305 59.9553 107.605 60.0442 106.949C60.1329 106.293 60.2569 105.627 60.3194 105.468C60.469 105.09 60.4765 105.095 59.3732 104.916C58.2871 104.741 58.2275 104.763 58.0362 105.418C57.9654 105.662 57.8486 105.954 57.7768 106.068C57.705 106.182 57.5869 106.462 57.514 106.69C57.4409 106.918 57.3455 107.152 57.3016 107.209C57.2577 107.266 57.058 107.732 56.858 108.246C56.6577 108.759 56.4037 109.38 56.2936 109.625L56.0934 110.071L56.0295 109.677C55.9944 109.46 55.9143 108.256 55.8515 107.001C55.7109 104.187 55.7226 104.254 55.3649 104.249C55.2099 104.247 54.8037 104.178 54.4626 104.095C54.1215 104.013 53.7947 103.944 53.7365 103.943C53.6781 103.943 53.5492 104.397 53.4497 104.953ZM66.0429 104.982C65.4196 105.029 64.7569 105.097 64.57 105.132L64.23 105.196L64.2344 105.891C64.2411 106.93 64.6215 112.132 64.6969 112.219C64.7124 112.237 65.0122 112.219 65.3633 112.179L66.0013 112.106L65.9292 110.834L65.8569 109.561L66.568 109.501C68.3982 109.344 68.5925 109.284 69.1982 108.682C69.7263 108.157 69.7558 106.551 69.2506 105.82C68.6964 105.017 67.9935 104.833 66.0429 104.982ZM76.4105 106.214C77.3038 107.58 77.2991 107.508 76.5038 107.713C76.1485 107.805 75.7532 107.91 75.6253 107.945C75.3565 108.021 75.3359 107.783 75.4599 106.032C75.5433 104.853 75.5183 104.849 76.4105 106.214ZM67.8842 106.374C68.1165 106.59 68.1576 106.715 68.1576 107.204C68.1576 108.097 67.9576 108.237 66.5442 108.336L65.8096 108.387L65.7432 107.601C65.6134 106.059 65.5455 106.151 66.8248 106.132C67.5248 106.121 67.6406 106.147 67.8842 106.374Z" fill="#185DAB"/>
</svg>
