<svg width="136" height="21" viewBox="0 0 136 21" fill="none" xmlns="http://www.w3.org/2000/svg">
<path d="M8.32687 7.33705C8.32687 7.33705 7.20221 7.2218 7.20221 8.25405V12.8391H14.6292V14.2151C14.6292 14.2151 14.6513 14.9026 13.954 14.9026H7.20221V20.8636H15.3043C15.3043 20.8636 20.21 20.0837 20.2553 14.9026V7.33705H8.32687ZM20.0296 0H5.40142C0.111886 1.28361 0 5.75439 0 5.75439V20.8636H5.62712V7.10755C5.62712 5.93819 6.75177 5.73253 6.75177 5.73253H20.0306V0H20.0296ZM39.3416 16.5399C38.9558 16.8052 38.6703 16.9999 38.4687 17.1241C37.7472 17.5841 37.0595 17.9388 36.422 18.2219C35.4989 18.6114 34.6761 18.8061 33.9383 18.8061C31.4044 18.8061 29.3066 18.0093 27.6109 16.3978C25.9152 14.7864 25.078 12.7685 25.078 10.3255C25.078 7.9709 25.8332 5.93421 27.3601 4.19856C28.887 2.4639 30.7331 1.61345 32.9149 1.61345C33.8216 1.61345 34.7938 1.77242 35.8008 2.11021C37.1097 2.53444 38.1668 3.17227 39.006 4.00383L37.5456 5.66795C36.9254 5.049 36.1201 4.58801 35.1796 4.30486C34.4755 4.09225 33.7039 3.98694 32.8474 3.98694C31.3205 3.98694 30.028 4.62279 29.0047 5.88057C27.9813 7.15523 27.4614 8.6604 27.4614 10.4308C27.4614 12.1844 28.0478 13.618 29.2226 14.7695C30.3974 15.9199 31.8906 16.5041 33.7029 16.5041C34.4582 16.5041 35.2308 16.2558 36.0188 15.7789C36.6737 15.2652 37.0094 15.0169 37.0258 14.999V11.3697H32.1259L32.83 9.1035H39.3416V16.5399ZM54.1425 12.1128C54.1425 13.8654 53.5387 15.3884 52.3301 16.6631C51.1215 17.9378 49.6284 18.5935 47.8498 18.5935C46.2053 18.5935 44.7623 17.9556 43.52 16.6989C42.2777 15.4421 41.6739 13.919 41.6739 12.1307C41.6739 10.3603 42.2622 8.83724 43.4361 7.52681C44.6099 6.21637 46.0538 5.57953 47.7485 5.57953C49.6284 5.57953 51.1553 6.19948 52.3465 7.45627C53.5387 8.67828 54.1425 10.2361 54.1425 12.1128ZM51.843 12.1486C51.843 10.9623 51.4572 9.95295 50.6856 9.13827C49.9139 8.30571 48.9571 7.89838 47.8161 7.89838C46.7425 7.89838 45.8359 8.3236 45.0806 9.17404C44.3254 10.0235 43.956 10.9971 43.956 12.0949C43.956 13.2464 44.3418 14.2201 45.097 15.0347C45.8523 15.8494 46.7927 16.2736 47.9328 16.2736C48.9909 16.2736 49.8966 15.8663 50.6692 15.0516C51.4572 14.2369 51.844 13.2633 51.844 12.1486H51.843ZM68.7417 12.1128C68.7417 13.8654 68.1379 15.3884 66.9294 16.6631C65.7208 17.9378 64.2277 18.5935 62.4491 18.5935C60.8045 18.5935 59.3616 17.9556 58.1193 16.6989C56.8779 15.4421 56.2731 13.919 56.2731 12.1307C56.2731 10.3603 56.8615 8.83724 58.0354 7.52681C59.2102 6.21637 60.6531 5.57953 62.3478 5.57953C64.2277 5.57953 65.7546 6.19948 66.9458 7.45627C68.1379 8.67828 68.7417 10.2361 68.7417 12.1128ZM66.4423 12.1486C66.4423 10.9623 66.0565 9.95295 65.2848 9.13827C64.5132 8.30571 63.5564 7.89838 62.4153 7.89838C61.3418 7.89838 60.4351 8.3236 59.6799 9.17404C58.9247 10.0235 58.5552 10.9971 58.5552 12.0949C58.5552 13.2464 58.9411 14.2201 59.6973 15.0347C60.4515 15.8494 61.3919 16.2736 62.533 16.2736C63.5901 16.2736 64.4958 15.8663 65.2684 15.0516C66.0565 14.2369 66.4432 13.2633 66.4432 12.1486H66.4423ZM82.2511 18.2388L80.1368 18.5756V16.4684L79.6835 16.9989C79.2841 17.3842 78.8317 17.7066 78.3408 17.9556C77.6204 18.2979 76.8357 18.4733 76.0423 18.4693C74.3978 18.4693 72.9876 17.8493 71.8466 16.5916C70.7055 15.3338 70.1355 13.8475 70.1355 12.1128C70.1355 10.3245 70.7055 8.78458 71.8302 7.50892C72.9548 6.23326 74.3303 5.59642 75.9748 5.59642C76.9152 5.59642 77.737 5.75538 78.4247 6.0743C78.9118 6.30479 79.3314 6.60582 79.6835 6.97839C79.8011 7.13735 79.9188 7.31419 80.0365 7.47316V1.94926L82.2839 1.61246L82.2511 18.2388ZM80.2709 12.2718C80.2709 11.0329 79.8677 9.98772 79.0459 9.13827C78.2241 8.26995 77.3001 7.84572 76.2439 7.84572C75.0691 7.84572 74.1297 8.25306 73.4082 9.06773C72.7359 9.84565 72.3838 10.8024 72.3838 11.9181C72.3838 13.1749 72.7359 14.2191 73.441 15.0337C74.1451 15.8484 75.0354 16.2558 76.1263 16.2558C77.1998 16.2558 78.1402 15.8842 78.9794 15.1232C79.8349 14.3433 80.2718 13.3875 80.2718 12.2718H80.2709ZM94.1149 4.25221H87.8223V8.6604H92.7047V10.9266H87.8223V18.2219L85.3723 18.5935V1.96714H93.6278L94.1149 4.25221ZM99.1662 2.95866L97.6557 4.92382L96.2128 2.95866L97.7396 1.01139L99.1662 2.95866ZM98.7129 18.2388L96.4645 18.5577V6.25214L98.7129 5.89845V18.2398V18.2388ZM108.866 5.77426L107.808 8.28783C107.67 8.26602 107.529 8.2544 107.389 8.25306C107.171 8.25306 106.953 8.27094 106.734 8.30571C106.515 8.34049 106.281 8.4299 106.03 8.55409C105.56 8.7667 105.157 9.2267 104.805 9.91718C104.415 10.7008 104.214 11.5692 104.217 12.4496V18.2219L101.969 18.5935V6.25214L104.05 5.86268V8.4299C104.318 7.9868 104.603 7.54469 104.871 7.08469C105.257 6.62371 105.711 6.2879 106.214 6.09218C106.482 5.98687 106.969 5.89745 107.707 5.82692C108.412 5.77426 108.815 5.73849 108.866 5.77426ZM125.612 18.2388L123.364 18.5756V10.1298C123.364 9.34989 123.196 8.78359 122.86 8.4299C122.524 8.07522 122.021 7.89838 121.366 7.89838C120.578 7.89838 119.973 8.23518 119.571 8.90778C119.302 9.36777 119.151 9.86353 119.151 10.3593V18.2209L116.903 18.6461V10.1824C116.903 9.4393 116.735 8.87201 116.416 8.48355C116.08 8.0931 115.644 7.89838 115.073 7.89838H114.855C114.066 7.89838 113.495 8.23518 113.143 8.92566C112.875 9.43931 112.741 10.094 112.741 10.8908V18.2209L110.409 18.6461V6.25214L112.506 5.88057V7.45627C112.741 7.0837 112.975 6.78267 113.194 6.57105C113.798 5.98687 114.503 5.70273 115.291 5.70273C116.181 5.70273 116.835 5.8448 117.288 6.14583C117.674 6.39421 118.043 6.88897 118.413 7.59734C119.184 6.34056 120.275 5.70273 121.719 5.70273C123.094 5.70273 124.119 6.14583 124.789 7.04893C125.344 7.79207 125.612 8.8899 125.612 10.3245V18.2388ZM135.884 14.5032C135.884 15.6358 135.498 16.5747 134.727 17.3009C133.955 18.0441 132.981 18.3987 131.806 18.3987C130.917 18.3987 130.128 18.1861 129.406 17.7609C128.685 17.3367 128.149 16.8578 127.796 16.2915L129.374 14.84C129.49 15.0169 129.592 15.1579 129.692 15.2642C130.28 15.8842 130.984 16.2031 131.806 16.2031C132.377 16.2031 132.831 16.0441 133.149 15.7431C133.484 15.4421 133.636 15.0169 133.636 14.4674C133.636 13.8485 133.25 13.4233 132.478 13.1928C130.951 12.7149 130.128 12.4496 130.011 12.396C129.306 12.0244 128.803 11.635 128.483 11.1919C128.131 10.6782 127.947 10.0056 127.947 9.13827C127.947 8.07522 128.333 7.191 129.088 6.48263C129.843 5.77426 130.749 5.43746 131.789 5.43746C132.579 5.43746 133.317 5.61431 133.988 5.98687C134.659 6.35844 135.145 6.7479 135.431 7.20888L134.088 8.71305C133.887 8.50514 133.668 8.31566 133.434 8.14675C132.897 7.7573 132.377 7.56257 131.891 7.56257C131.42 7.56257 131.035 7.66888 130.733 7.88049C130.38 8.14675 130.195 8.53621 130.195 9.04985C130.195 9.54561 130.363 9.91718 130.716 10.1477C131.018 10.3424 131.656 10.555 132.663 10.7845C133.669 11.0329 134.441 11.4581 134.995 12.0602C135.616 12.697 135.884 13.4938 135.884 14.5032Z" fill="#3A7AF3"/>
</svg>
