<svg width="128" height="128" viewBox="0 0 128 128" fill="none" xmlns="http://www.w3.org/2000/svg">
<path fill-rule="evenodd" clip-rule="evenodd" d="M26.8186 57.5578C26.3771 57.6317 25.7134 57.8466 25.4336 58.0062C25.3234 58.0689 25.1334 58.1725 25.0109 58.236C24.7619 58.366 23.8883 59.2115 23.7861 59.4213C23.7506 59.4947 23.6476 59.6708 23.5574 59.8128C22.4759 61.5143 22.7986 64.8615 24.1483 65.9454C24.938 66.5792 26.3502 67.2137 27.8024 67.5868C30.0854 68.1737 31.4167 69.3051 31.2798 70.5421C31.126 71.9295 30.1583 72.6589 28.5497 72.5991C26.6939 72.53 25.7403 71.5307 25.727 69.6414L25.7227 69.0521H24.266H22.809V72.0101V74.9681H24.2326H25.656V74.2942V73.6203L26.0182 73.9878C26.8533 74.8355 27.7199 75.1992 29.0589 75.2641C32.7381 75.4427 35.0895 73.0537 34.777 69.4548C34.5504 66.8453 33.3744 65.8135 29.0368 64.4187C26.9195 63.7378 26.0942 62.7861 26.4975 61.4903C26.96 60.0045 29.2049 59.5918 30.3977 60.7734C31.0318 61.4011 31.3286 62.0236 31.4242 62.9243L31.4514 63.1803H32.8908H34.3302V60.5335V57.8866H32.9068H31.4832V58.4332V58.9796L31.1607 58.6641C30.2159 57.7396 28.4373 57.2864 26.8186 57.5578ZM61.0867 57.5325C56.7016 58.0273 54.1161 61.2928 54.1143 66.3385C54.1118 72.8468 58.3841 76.2831 64.8393 74.9644C65.2236 74.8856 65.474 74.8792 68.0976 74.8792H70.9398V73.5669V72.2548L69.9055 72.2559C68.9765 72.2572 67.4933 72.3429 67.2032 72.4123C67.1357 72.4283 67.1674 72.3982 67.2833 72.3357C67.9988 71.9498 68.9701 70.8565 69.4454 69.9019C69.7355 69.3192 69.8743 68.9178 70.0238 68.2289C70.2288 67.2857 70.2493 67.0743 70.2498 65.8936C70.2509 62.513 69.0707 60.1497 66.6027 58.5912C65.2962 57.7663 62.9707 57.3197 61.0867 57.5325ZM12.8003 59.1101V60.3333H13.8012H14.802V66.2939V72.2548H13.8012H12.8003V73.5669V74.8792H16.5147H20.2291V73.5669V72.2548H19.2058H18.1828V66.2939V60.3333H19.2058H20.2291V59.1101V57.8866H16.5147H12.8003V59.1101ZM37.4441 60.8004V63.7141H38.8453H40.2465V62.0236V60.3333H41.4918H42.7375V66.2939V72.2548H41.6253H40.5134V73.5669V74.8792H44.3834H48.2534V73.5669V72.2548H47.1413H46.0291V66.2939V60.3333H47.2526H48.4758V62.0236V63.7141H49.8991H51.3228V60.8004V57.8866H44.3834H37.4441V60.8004ZM73.1193 59.108V60.3333H74.098H75.0767V66.2939V72.2548H74.098H73.1193V73.5688V74.883L77.8012 74.8672C81.9402 74.8533 82.537 74.8429 82.9488 74.7762C85.7379 74.3246 86.963 72.8863 86.9726 70.0529C86.9803 67.7427 85.9709 66.4135 83.8288 65.9128C83.7237 65.888 83.7634 65.8648 84.1203 65.742C85.8703 65.1404 86.6665 63.6863 86.4652 61.4596C86.2963 59.5897 85.4945 58.572 83.875 58.1714C82.8175 57.9099 83.0148 57.9187 77.8679 57.9L73.1193 57.8826V59.108ZM88.3717 57.9453C87.516 58.1872 87.1021 59.1493 87.4359 60.1214C87.8515 61.332 89.5108 61.3574 90.0582 60.1617C90.6059 58.9652 89.5719 57.6067 88.3717 57.9453ZM89.139 58.3582C89.7913 58.6879 90.0241 59.5497 89.6138 60.1158L89.4766 60.305L89.3653 60.0856C89.304 59.965 89.2057 59.803 89.1468 59.7253C89.0405 59.586 89.0403 59.5844 89.1313 59.5555C89.3792 59.4768 89.4254 58.9593 89.2041 58.738C89.0939 58.6281 89.0582 58.6203 88.5764 58.6051L88.0656 58.5888V59.4611V60.3333H88.2657H88.4659V59.9967C88.4659 59.6682 88.4683 59.6607 88.566 59.6909C88.7176 59.7373 88.7483 59.7728 88.8876 60.0643L89.0162 60.3333H89.2135C89.4521 60.3333 89.4107 60.4254 89.111 60.5618C88.4651 60.8556 87.6673 60.25 87.6673 59.4659C87.6673 58.6436 88.4854 58.0276 89.139 58.3582ZM88.8412 58.9977C89.0819 59.0893 88.9517 59.3103 88.6573 59.3103H88.4659V59.1322C88.4659 58.9369 88.5767 58.8971 88.8412 58.9977ZM63.1349 60.135C64.9415 60.4595 66.1839 61.9096 66.6964 64.2922C66.8298 64.9135 66.8178 67.7245 66.6785 68.4171C66.2472 70.5627 65.0515 72.0384 63.4221 72.4363C61.4083 72.9282 59.4995 72.1721 58.5581 70.5093C57.0832 67.9044 57.3832 63.0586 59.1258 61.3446C59.9748 60.5094 60.5927 60.2196 61.8874 60.0485C62.1004 60.0205 62.746 60.0653 63.1349 60.135ZM81.4508 60.42C82.6312 60.7219 83.1768 61.5997 83.0014 62.9155C82.7911 64.4961 82.1794 64.8706 79.8069 64.8706H78.5018V62.6019V60.3333H79.8069C80.9549 60.3333 81.1529 60.3437 81.4508 60.42ZM81.6851 67.421C81.8578 67.4576 82.1402 67.5302 82.3126 67.5825C83.9238 68.072 83.9452 71.196 82.3422 71.9329C81.7313 72.2137 81.6472 72.2249 80.0031 72.2439L78.5018 72.261V69.7839V67.3065L79.9364 67.3306C80.9586 67.3476 81.4612 67.3735 81.6851 67.421ZM42.2661 80.7993C41.597 80.9114 41.2738 81.2501 41.0603 82.0633C40.9511 82.4792 40.9236 85.1156 41.0224 85.6883C41.2081 86.765 41.6309 87.1253 42.7153 87.1312C43.8381 87.1376 44.2764 86.6353 44.3679 85.2362L44.3968 84.799H43.8117H43.2267L43.2261 85.0993C43.2243 85.9318 42.8869 86.3583 42.4545 86.0751C42.1249 85.8589 42.0593 85.4452 42.0785 83.7045C42.0977 81.9731 42.1593 81.774 42.6755 81.774C43.003 81.774 43.141 81.9814 43.208 82.5752L43.2382 82.8416H43.8082H44.3781L44.3538 82.5192C44.25 81.1375 43.5739 80.5804 42.2661 80.7993ZM57.3723 81.3961V81.9075H57.9061H58.4399V81.3961V80.8844H57.9061H57.3723V81.3961ZM61.1139 80.9304C60.6428 80.9987 60.4507 81.2829 60.4096 81.9715L60.3842 82.397H60.2334H60.0826L60.0954 82.8307L60.108 83.2644L60.2521 83.2783L60.3962 83.2921L60.408 85.1465L60.4194 87.001L60.9645 87.0132L61.5092 87.0258V85.1588V83.2916L61.6984 83.278L61.8874 83.2644L61.9002 82.8307L61.9127 82.397H61.7091H61.5052L61.5183 82.0967L61.5316 81.7964L61.7206 81.8002L61.9095 81.8039V81.3443V80.8844L61.6317 80.89C61.4788 80.893 61.2458 80.9111 61.1139 80.9304ZM63.5555 81.3961V81.9075H64.0672H64.5785V81.3961V80.8844H64.0672H63.5555V81.3961ZM72.9858 81.7601V82.6358L72.8636 82.5216C72.2775 81.9731 71.4405 82.2614 71.2299 83.0845C71.1298 83.4755 71.1314 85.967 71.232 86.3145C71.4773 87.1627 72.4013 87.4429 72.8927 86.8181L72.9858 86.6996V86.8614V87.0231H73.4975H74.0091V83.9538V80.8844H73.4975H72.9858V81.7601ZM78.4129 81.3737V81.8632H79.0134H79.614V84.443V87.0231H80.1699H80.7259V84.443V81.8632H81.3264H81.9269V81.3737V80.8844H80.1699H78.4129V81.3737ZM54.2586 81.774V82.397H54.0806H53.9026V82.8195V83.242H54.0806H54.2586L54.2594 84.8546C54.2605 86.3433 54.2669 86.4813 54.3451 86.6535C54.4852 86.962 54.8714 87.0984 55.4402 87.0402L55.7266 87.0108V86.572V86.1335L55.6041 86.1327C55.3422 86.1314 55.3495 86.172 55.335 84.645L55.3214 83.242H55.524H55.7266V82.8195V82.397H55.5264H55.3262V81.774V81.1513H54.7924H54.2586V81.774ZM91.8913 81.774V82.397H91.6911H91.4909V82.8195V83.242H91.6911H91.8913L91.8915 84.81C91.8918 86.9831 91.9769 87.1477 93.0461 87.0423L93.3592 87.0116V86.5726V86.1335H93.245C92.9482 86.1335 92.9589 86.1885 92.9589 84.6416V83.242H93.159H93.3592V82.8195V82.397H93.159H92.9589V81.774V81.1513H92.4251H91.8913V81.774ZM46.9277 82.3372C46.2213 82.5536 46.0622 82.9238 46.0387 84.4064C46.004 86.6003 46.2813 87.0882 47.5638 87.0893C48.5105 87.0901 48.9041 86.7167 48.9895 85.7372L49.021 85.3771H48.4592H47.8974L47.8966 85.6107C47.8923 86.6292 47.1357 86.4613 47.1031 85.4348L47.0871 84.9325H48.0541H49.021L48.9983 84.1873C48.9628 83.0202 48.8342 82.6807 48.3306 82.4239C48.0065 82.2587 47.322 82.2165 46.9277 82.3372ZM67.3665 82.327C66.6355 82.5237 66.4468 82.9836 66.4473 84.5676C66.4479 86.568 66.7097 87.0482 67.8288 87.1026C68.8083 87.1501 69.301 86.722 69.3685 85.7647L69.396 85.3771H68.8836H68.3711L68.3421 85.6352C68.2289 86.6358 67.5232 86.4522 67.4789 85.4105L67.4586 84.9325H68.4261H69.3936L69.3717 84.1206C69.3456 83.1411 69.2895 82.9243 68.9837 82.6171C68.6605 82.2926 67.9612 82.1672 67.3665 82.327ZM83.828 82.3118C83.0247 82.501 82.8167 82.9689 82.8167 84.5874C82.8167 86.5472 83.0978 87.0343 84.2671 87.0994C85.2535 87.1544 85.7945 86.6358 85.7964 85.6331L85.7969 85.3771H85.2685H84.7397L84.7096 85.6593C84.6725 86.0057 84.5606 86.2035 84.3794 86.2435C84.0597 86.3137 83.9214 86.0769 83.8931 85.4105L83.8728 84.9325H84.8404H85.8079L85.7854 84.1206C85.7582 83.1283 85.7064 82.9249 85.4043 82.6228C85.0864 82.3049 84.4173 82.173 83.828 82.3118ZM88.4955 82.3124C87.8675 82.4039 87.4963 82.7381 87.4552 83.2478C87.3882 84.0848 87.5803 84.4329 88.4659 85.0766C89.1809 85.5963 89.2936 85.7804 89.1115 86.1325C88.8996 86.5422 88.4664 86.2518 88.4662 85.6998L88.4659 85.4217H87.9545H87.4429V85.7695C87.4429 86.7591 88.0749 87.2646 89.1238 87.1141C89.9194 86.9996 90.2611 86.5905 90.2576 85.7553C90.2552 85.1594 90.1052 84.9384 89.289 84.3293C88.5278 83.7611 88.3429 83.4984 88.555 83.2865C88.7961 83.0453 89.1377 83.2243 89.1769 83.6127L89.1999 83.8425L89.7515 83.855L90.303 83.8676L90.2765 83.5847C90.2053 82.8211 89.8604 82.4218 89.1764 82.3107C88.8569 82.259 88.8601 82.259 88.4955 82.3124ZM95.7971 82.3257C95.6823 82.3567 95.552 82.4092 95.508 82.4429C94.9633 82.8558 94.8712 83.1632 94.8725 84.5676C94.8744 86.6073 95.1848 87.1144 96.4285 87.1096C97.3232 87.1061 97.8041 86.591 97.8068 85.6331L97.8073 85.3771H97.3021H96.7969L96.7683 85.6512C96.7187 86.1255 96.5009 86.3446 96.2017 86.2205C95.9964 86.1357 95.9305 85.9566 95.9049 85.4126L95.8819 84.9325H96.8497H97.8172L97.7961 84.1206C97.7708 83.1293 97.719 82.9265 97.4147 82.6238C97.0763 82.2865 96.4029 82.1626 95.7971 82.3257ZM52.3679 82.3922C52.1731 82.4824 51.9948 82.6569 51.8857 82.864L51.8155 82.9975L51.8139 82.6972L51.812 82.397H51.3003H50.789V84.7099V87.0231H51.3228H51.8566V85.5664C51.8566 84.2684 51.8651 84.0926 51.9345 83.9538C52.0282 83.7661 52.3324 83.598 52.5777 83.598H52.7461V82.9529C52.7461 82.2197 52.7448 82.2179 52.3679 82.3922ZM101.153 82.4026C100.961 82.4973 100.81 82.6596 100.68 82.9086C100.611 83.0407 100.61 83.0388 100.61 82.7194L100.61 82.397H100.121H99.6313V84.7099V87.0231H100.143H100.654L100.655 85.5885C100.656 83.7491 100.685 83.6717 101.373 83.6092L101.633 83.5855V82.9468V82.3078H101.488C101.409 82.3081 101.258 82.3505 101.153 82.4026ZM57.3723 84.7099V87.0231H57.9061H58.4399V84.7099V82.397H57.9061H57.3723V84.7099ZM63.5555 84.7099V87.0231H64.0672H64.5785V84.7099V82.397H64.0672H63.5555V84.7099ZM68.2489 83.3396C68.3437 83.4523 68.3597 83.5158 68.3597 83.7792V84.0872H67.9089H67.4584L67.4797 83.7523C67.516 83.1888 67.9334 82.9647 68.2489 83.3396ZM84.638 83.3095C84.685 83.3565 84.7117 83.4899 84.7227 83.7328L84.7389 84.0872H84.3116H83.8843L83.8867 83.8315C83.8926 83.2393 84.2911 82.9625 84.638 83.3095ZM47.765 83.2425C47.8696 83.2985 47.9414 83.547 47.9417 83.8537L47.942 84.0872H47.5147H47.0874L47.1036 83.7269C47.1255 83.2484 47.3999 83.0471 47.765 83.2425ZM72.8235 83.3311C73.0192 83.5638 73.0667 85.6996 72.8836 86.0353C72.7189 86.3374 72.4478 86.3284 72.2924 86.0153C72.1675 85.7639 72.1624 83.507 72.2863 83.318C72.4029 83.1403 72.6682 83.1467 72.8235 83.3311ZM96.6509 83.2929C96.7488 83.3746 96.7638 83.4266 96.7779 83.7362L96.7937 84.0872H96.3383H95.883L95.9044 83.7523C95.938 83.2297 96.3039 83.0044 96.6509 83.2929Z" fill="#0C5CA4"/>
<path fill-rule="evenodd" clip-rule="evenodd" d="M111.842 25.6219C108.792 25.7233 105.652 25.9342 102.656 26.239C101.637 26.3425 101.169 26.3959 98.764 26.6834C97.4335 26.8424 96.1126 27.0143 95.6722 27.0859C93.0977 27.5036 92.0552 27.6888 89.9339 28.1043C89.2613 28.2362 88.6205 28.356 88.5105 28.371C88.0176 28.4377 85.4118 29.0454 83.5951 29.5176C82.9345 29.6889 82.184 29.8752 81.927 29.9313C81.4479 30.0353 80.0603 30.4309 78.6799 30.8566C76.8703 31.4144 76.5247 31.523 75.6994 31.7937C74.8114 32.0846 73.5949 32.5183 72.7635 32.8402C72.5065 32.9395 72.1916 33.0513 72.0635 33.0887C71.788 33.1687 70.3115 33.7604 69.1826 34.243C68.7422 34.4314 68.2818 34.6217 68.1595 34.666C67.8123 34.7917 67.1493 35.0973 65.2237 36.0192C65.0035 36.1246 64.6231 36.3061 64.3784 36.4225C64.1339 36.5389 63.5032 36.8647 62.9772 37.1468C62.4511 37.4292 61.8007 37.7743 61.5317 37.9139C61.2624 38.0535 60.8922 38.2587 60.7085 38.37C60.5252 38.4816 60.0448 38.7677 59.641 39.0063C58.7113 39.5559 57.3454 40.4059 57.2471 40.4961C57.1401 40.5944 56.6528 40.9181 56.5615 40.9517C56.4625 40.9878 55.8603 41.4044 55.1261 41.9443C54.808 42.1781 54.473 42.4181 54.3817 42.4773C54.2905 42.5363 53.8122 42.9001 53.3192 43.2852C52.826 43.6706 52.3704 44.0251 52.3063 44.0734C52.0704 44.2506 51.1128 45.0604 50.8064 45.3414C50.6323 45.501 50.382 45.7175 50.2501 45.8226C49.5503 46.3797 46.5974 49.3334 46.1303 49.9435C46.038 50.0642 45.8824 50.2443 45.7841 50.3439C45.3155 50.8198 43.5382 53.0478 43.5382 53.1594C43.5382 53.205 44.5585 53.216 48.7294 53.216H53.9205L54.4346 52.7155C56.1675 51.0293 57.8026 49.5715 59.4862 48.2116C59.8497 47.9181 60.2682 47.573 60.4163 47.4443C60.5644 47.3159 60.7021 47.2108 60.7222 47.2108C60.7577 47.2108 61.8071 46.417 61.92 46.3049C61.9974 46.2281 62.8002 45.6462 62.935 45.5696C62.9948 45.5355 63.2718 45.3374 63.5499 45.13C64.1433 44.6878 67.267 42.6033 67.559 42.4549C67.669 42.3991 67.9495 42.2286 68.1817 42.0759C68.684 41.7463 69.845 41.0406 70.0823 40.9205C70.1746 40.8741 70.5606 40.6563 70.9398 40.4366C72.0322 39.8043 72.5748 39.5017 73.0526 39.2585C73.2973 39.1342 73.7777 38.8803 74.1202 38.6949C74.4629 38.5094 75.1533 38.1555 75.6548 37.9086C77.4996 36.9998 78.6203 36.4572 78.9022 36.3363C79.4307 36.1094 80.3853 35.6829 80.9485 35.4219C81.2544 35.2802 81.7548 35.06 82.0604 34.9327C82.3663 34.8053 82.6356 34.6834 82.6588 34.6618C82.682 34.6399 82.7346 34.6223 82.7757 34.6223C82.8168 34.6223 83.168 34.4896 83.5564 34.3276C85.035 33.7111 86.015 33.319 86.5088 33.1471C86.7901 33.0489 87.6009 32.7526 88.3104 32.4887C90.5667 31.649 95.096 30.1568 96.3173 29.8507C96.4641 29.8138 97.0745 29.6398 97.6739 29.4642C99.551 28.9136 100.622 28.6285 102.612 28.1502C103.089 28.0355 103.889 27.8425 104.391 27.7216C106.224 27.2791 107.836 26.934 109.151 26.7023C109.432 26.6527 110.032 26.5417 110.485 26.4554C111.928 26.1808 114.943 25.6812 115.157 25.6812C115.181 25.6812 115.2 25.6612 115.2 25.6366C115.2 25.5963 112.909 25.5864 111.842 25.6219ZM32.0317 80.2074C31.9756 80.2429 31.7581 81.7071 31.6407 82.8417C31.6014 83.2209 31.531 83.8916 31.484 84.332C31.0153 88.7422 31.0321 93.9977 31.5288 98.2107C31.578 98.6265 31.6393 99.1769 31.6658 99.4339C31.7781 100.536 32.0851 102.281 32.1665 102.281C32.2036 102.281 32.2132 101.955 32.2025 101.069C32.1705 98.4192 32.4422 95.5626 33.0648 92.0053C33.174 91.3813 33.284 90.7408 33.3093 90.5817C33.4385 89.7735 34.0305 87.3939 34.5349 85.6569C34.6967 85.0994 34.8453 84.5632 34.8653 84.4655C34.9395 84.1022 35.4667 82.5321 35.9882 81.1204C36.254 80.4019 36.3074 80.2173 36.2559 80.1975C36.1577 80.1599 32.0915 80.1692 32.0317 80.2074ZM68.3296 83.8204C68.3296 83.9795 68.3376 84.0446 68.3474 83.965C68.3573 83.8855 68.3573 83.7553 68.3474 83.6757C68.3376 83.5962 68.3296 83.6613 68.3296 83.8204Z" fill="#D32C24"/>
<path fill-rule="evenodd" clip-rule="evenodd" d="M68.3252 85.5551C68.3252 85.6408 68.3343 85.6758 68.3455 85.6331C68.3567 85.5901 68.3567 85.5202 68.3455 85.4772C68.3343 85.4345 68.3252 85.4695 68.3252 85.5551Z" fill="#3C44A8"/>
<path fill-rule="evenodd" clip-rule="evenodd" d="M68.3252 85.5551C68.3252 85.6408 68.3343 85.6758 68.3455 85.6331C68.3567 85.5901 68.3567 85.5202 68.3455 85.4772C68.3343 85.4345 68.3252 85.4695 68.3252 85.5551Z" fill="#3C44A8"/>
<path fill-rule="evenodd" clip-rule="evenodd" d="M68.3252 85.5551C68.3252 85.6408 68.3343 85.6758 68.3455 85.6331C68.3567 85.5901 68.3567 85.5202 68.3455 85.4772C68.3343 85.4345 68.3252 85.4695 68.3252 85.5551Z" fill="#3C44A8"/>
</svg>
