<svg width="128" height="128" viewBox="0 0 128 128" fill="none" xmlns="http://www.w3.org/2000/svg">
<path d="M63.9998 15.2626C90.8824 15.2626 112.737 37.1175 112.737 64C112.737 90.8826 90.8824 112.738 63.9998 112.738C37.1172 112.738 15.2623 90.8826 15.2623 64C15.2623 37.1175 37.1172 15.2626 63.9998 15.2626ZM63.9998 12.8C35.7834 12.8 12.7998 35.7836 12.7998 64C12.7998 92.3191 35.7834 115.2 63.9998 115.2C92.2162 115.2 115.2 92.2165 115.2 64C115.302 35.7836 92.3188 12.8 63.9998 12.8Z" fill="#216FB5"/>
<path d="M21.2137 79.2881L20.7007 77.8516L27.6778 75.4917L28.1909 76.9282L21.2137 79.2881Z" fill="#216FB5"/>
<path d="M22.6502 74.4658C22.0346 74.2606 21.6242 73.8502 21.419 73.132C21.2138 72.1059 21.8294 71.1825 22.9581 70.9773L26.344 70.259L26.6518 71.5929L23.4711 72.3111C22.9581 72.3111 22.6502 72.7216 22.7529 73.3372C22.8555 73.9528 23.4711 74.2606 24.1893 74.158L27.0623 73.5424L27.3701 74.8763L22.2398 76.0049L21.932 74.6711L22.6502 74.4658Z" fill="#216FB5"/>
<path d="M21.111 70.3614L21.0084 69.6432H20.4953C19.2641 69.7458 18.6484 68.8223 18.6484 67.4885L19.6745 67.3859C19.6745 68.0015 19.7771 68.3093 20.3927 68.3093H20.8031L20.7005 67.3859L21.7266 67.1807L21.8292 68.1041L26.1386 67.5911L26.2412 69.0276L21.9318 69.5406L22.0344 70.2588L21.111 70.3614Z" fill="#216FB5"/>
<path d="M23.2655 66.5652C21.7264 66.5652 20.4951 65.4365 20.4951 63.7948C20.4951 62.1531 21.7264 61.0245 23.2655 61.1271C24.8045 61.1271 26.0358 62.2557 26.0358 63.8974C26.0358 65.4365 24.8045 66.5652 23.2655 66.5652ZM23.3681 62.4609C22.342 62.4609 21.6238 62.8714 21.6238 63.7948C21.6238 64.6157 22.342 65.1287 23.3681 65.1287C24.3941 65.1287 25.1124 64.7183 25.1124 63.7948C25.0097 62.974 24.3941 62.4609 23.3681 62.4609Z" fill="#216FB5"/>
<path d="M21.8293 58.7672C21.3162 58.3568 21.0084 57.9464 21.111 57.3308C21.111 57.2282 21.111 57.1256 21.2136 57.0229L22.4449 57.1256C22.2397 58.049 22.6501 58.7672 23.7788 58.8698L26.3439 59.1777L26.1387 60.5115L20.8032 59.9985L21.0084 58.6646L21.8293 58.7672Z" fill="#216FB5"/>
<path d="M21.2134 55.8942L21.6238 54.5603L22.342 54.7655C21.9316 54.3551 21.7264 53.7395 21.9316 53.0213C22.1368 52.4056 22.6499 51.9952 23.2655 51.8926C22.8551 51.3796 22.6499 50.7639 22.8551 50.1483C23.1629 49.1223 23.9837 48.7118 25.1124 49.0197L28.4983 49.9431L28.0879 51.277L24.9072 50.3535C24.2915 50.1483 23.9837 50.3535 23.7785 50.8665C23.5733 51.3796 23.9837 51.8926 24.5994 52.0978L27.5749 52.9186L27.1645 54.2525L23.9837 53.3291C23.3681 53.1239 23.0603 53.3291 22.8551 53.8421C22.7525 54.3551 23.0603 54.8682 23.6759 55.0734L26.6515 55.8942L26.241 57.2281L21.2134 55.8942Z" fill="#216FB5"/>
<path d="M29.6271 46.3519C29.8323 46.7623 29.9349 47.2753 29.6271 48.0961C29.1141 49.0196 28.2932 49.5326 27.3698 49.0196C26.3437 48.5066 26.4463 47.4805 26.7541 46.3519C27.062 45.531 27.1646 45.1206 26.7541 44.9154C26.4463 44.7102 26.0359 44.9154 25.8307 45.4284C25.5229 46.044 25.6255 46.4545 26.0359 46.6597L25.5229 47.7883C24.702 47.3779 24.2916 46.3519 24.9073 45.018C25.6255 43.5815 26.5489 43.3763 27.575 43.8893L29.9349 45.018C30.3453 45.2232 30.5505 45.2232 30.6531 45.1206L30.0375 46.3519C30.0375 46.5571 29.8323 46.4545 29.6271 46.3519ZM28.3958 45.8388L27.6776 45.531C27.6776 45.8388 27.575 46.1466 27.575 46.5571C27.3698 47.2753 27.3698 47.6857 27.8828 47.8909C28.2932 48.0961 28.601 47.8909 28.8063 47.4805C29.1141 46.6597 28.9089 46.044 28.3958 45.8388Z" fill="#216FB5"/>
<path d="M26.4465 42.3503L26.8569 41.7347L25.4204 40.9138L26.1386 39.7852L27.5751 40.606L28.0881 39.8878L28.909 40.4008L28.396 41.119L30.7559 42.5555C31.0637 42.7607 31.2689 42.6581 31.4741 42.3503C31.5767 42.2477 31.6793 42.0425 31.6793 42.0425L32.5002 42.5555C32.5002 42.5555 32.3976 42.8633 32.0897 43.2737C31.6793 43.8894 31.0637 44.2998 30.2429 43.7868L27.6777 42.1451L27.2673 42.7607L26.4465 42.3503Z" fill="#216FB5"/>
<path d="M26.9595 37.8357L27.7803 36.707L28.8064 37.4253L27.9855 38.5539L26.9595 37.8357ZM28.6012 39.067L29.422 37.9383L33.6288 41.0165L32.808 42.1451L28.6012 39.067Z" fill="#216FB5"/>
<path d="M31.8843 38.8618C30.7556 37.8358 30.5504 36.1941 31.6791 34.9628C32.8077 33.7316 34.4494 33.7315 35.5781 34.7576C36.7067 35.7837 36.9119 37.4253 35.7833 38.6566C34.7572 39.8879 33.1155 39.8879 31.8843 38.8618ZM34.6546 35.7837C33.9364 35.0654 33.0129 34.9628 32.4999 35.5784C31.8843 36.1941 32.0895 37.0149 32.9103 37.7332C33.6286 38.4514 34.4494 38.554 35.065 37.9384C35.5781 37.3227 35.3729 36.5019 34.6546 35.7837Z" fill="#216FB5"/>
<path d="M35.9887 31.8845C35.886 31.1663 36.0913 30.6532 36.7069 30.2428C37.5277 29.5246 38.6564 29.7298 39.3746 30.5506L41.5293 33.2184L40.5033 34.1418L38.4512 31.6793C38.0408 31.2689 37.6303 31.1663 37.1173 31.4741C36.6043 31.8845 36.6043 32.5001 37.1173 33.1158L39.0668 35.3731L38.0408 36.2965L34.6548 32.2949L35.6808 31.3715L35.9887 31.8845Z" fill="#216FB5"/>
<path d="M42.0424 30.0377L43.2737 29.3194C43.7867 30.0377 44.4023 30.1403 45.3258 29.6272C45.9414 29.2168 46.4544 28.7038 46.1466 28.0882C45.8388 27.4725 45.1205 27.6777 43.9919 27.9856C42.658 28.396 41.4268 28.6012 40.7085 27.2673C39.9903 26.0361 40.7085 24.8048 42.145 23.984C43.5815 23.1631 44.9153 23.3683 45.7362 24.5996L44.5049 25.3178C44.0945 24.7022 43.3763 24.7022 42.7606 25.01C42.0424 25.4204 41.7346 25.9335 42.0424 26.4465C42.3502 26.9595 42.8632 26.8569 43.8893 26.5491C45.3258 26.1387 46.6596 25.8309 47.3779 27.2673C48.0961 28.6012 47.4805 29.8325 45.9414 30.6533C44.2997 31.5767 42.8632 31.3715 42.0424 30.0377Z" fill="#216FB5"/>
<path d="M47.7881 26.5491C47.275 25.1126 47.8907 23.5735 49.3271 23.0605C50.9688 22.4449 52.2001 23.3683 52.8157 25.1126L49.2245 26.4465C49.635 27.1647 50.148 27.4725 50.9688 27.2673C51.4819 27.0621 51.6871 26.7543 51.6871 26.3439L53.0209 25.8308C53.1235 26.7543 52.6105 27.7803 51.3792 28.2934C49.635 28.909 48.3011 28.0882 47.7881 26.5491ZM48.9167 25.523L51.0714 24.7022C50.7636 24.0866 50.2506 23.7787 49.635 23.984C48.9167 24.3944 48.8141 24.9074 48.9167 25.523Z" fill="#216FB5"/>
<path d="M53.1237 24.7022C52.8159 23.1631 53.5341 21.7266 55.0732 21.4188C56.407 21.111 57.4331 21.7266 57.8435 22.8553L56.5096 23.0605C56.3044 22.6501 55.894 22.3423 55.381 22.4449C54.5602 22.6501 54.2523 23.3683 54.4575 24.2918C54.6628 25.2152 55.1758 25.8308 55.9966 25.6256C56.5096 25.523 56.9201 25.1126 56.8175 24.497L58.1513 24.1892C58.2539 25.3178 57.6383 26.3439 56.2018 26.6517C54.7654 27.1647 53.4315 26.2413 53.1237 24.7022Z" fill="#216FB5"/>
<path d="M62.2557 25.9335V25.3179C61.9479 25.8309 61.5375 26.1388 60.8193 26.1388C59.6906 26.2414 58.9724 25.5231 58.8698 24.3945L58.6646 20.9059L59.9984 20.8033L60.2036 24.0867C60.2036 24.7023 60.5114 25.0101 61.1271 25.0101C61.7427 25.0101 62.1531 24.3945 62.0505 23.7788L61.8453 20.8033L63.2818 20.7007L63.6922 25.9335H62.2557Z" fill="#216FB5"/>
<path d="M65.8468 21.5215C66.2572 20.9059 66.565 20.7007 67.1806 20.7007C67.2832 20.7007 67.3858 20.7007 67.4884 20.8033L67.3858 22.0346C66.4624 21.9319 65.8468 22.3424 65.7442 23.471L65.6416 26.0362L64.2051 25.9335L64.4103 20.7007L65.7442 20.8033L65.8468 21.5215Z" fill="#216FB5"/>
<path d="M68.412 20.9059L69.7459 21.0085L69.1303 26.2413L67.7964 26.1387L68.412 20.9059ZM68.6172 18.8538L70.0537 18.9564L69.9511 20.1876L68.6172 19.9824V18.8538Z" fill="#216FB5"/>
<path d="M70.6696 21.1111L71.2852 21.2137L71.593 19.572L72.9269 19.7772L72.6191 21.4189L73.5425 21.6241L73.3373 22.5476L72.4139 22.3424L72.0034 25.1127C71.9008 25.5231 72.106 25.6257 72.4139 25.7283C72.6191 25.7283 72.8243 25.8309 72.8243 25.8309L72.6191 26.857C72.6191 26.857 72.3112 26.857 71.7982 26.7544C71.1826 26.6518 70.4644 26.2414 70.6696 25.2153L71.2852 22.1372L70.4644 22.0345L70.6696 21.1111Z" fill="#216FB5"/>
<path d="M73.029 27.5752L73.542 27.6778C74.0551 27.8831 74.3629 27.6778 74.4655 27.2674C74.5681 26.9596 74.5681 26.6518 74.4655 25.8309L74.1577 21.8293L75.5941 22.2398L75.6967 24.7023C75.6967 25.2153 75.6967 25.9336 75.6967 25.9336C75.6967 25.9336 76.0046 25.3179 76.3124 24.9075L77.7488 22.8554L79.0827 23.2658L75.7993 27.8831C75.0811 28.9091 74.5681 29.2169 73.542 28.9091L72.7212 28.7039L73.029 27.5752Z" fill="#216FB5"/>
<path d="M82.8792 22.5476L84.7261 23.5737L83.8026 27.2674C83.5974 28.1909 83.2896 29.2169 83.2896 29.2169C83.2896 29.2169 84.0079 28.3961 84.6235 27.6779L87.2912 25.0101L89.1381 26.0362L85.6495 32.3977L84.4183 31.6795L86.4704 27.9857C86.7782 27.4727 87.2912 26.6518 87.2912 26.6518C87.2912 26.6518 86.7782 27.3701 86.3678 27.6779L83.187 30.8586L81.9558 30.1404L82.9818 25.7284C83.0844 25.2153 83.3922 24.3945 83.3922 24.3945C83.3922 24.3945 82.9818 25.2153 82.674 25.7284L80.6219 29.4222L79.3906 28.8065L82.8792 22.5476Z" fill="#216FB5"/>
<path d="M89.0355 34.4497C88.5225 34.5523 88.1121 34.5523 87.3939 34.0393C86.573 33.3211 86.3678 32.5002 86.9834 31.6794C87.7017 30.7559 88.6251 31.0637 89.6512 31.6794C90.3694 32.0898 90.7798 32.295 90.985 31.9872C91.1903 31.6794 91.1903 31.269 90.6772 30.9611C90.1642 30.5507 89.7538 30.5507 89.446 30.8585L88.5225 30.0377C89.1382 29.3195 90.1642 29.1142 91.3955 30.1403C92.6267 31.1664 92.6267 32.0898 91.9085 33.0132L90.2668 35.0654C90.0616 35.3732 89.959 35.5784 89.959 35.7836L88.9329 34.9627C88.7277 34.8601 88.8303 34.6549 89.0355 34.4497ZM89.7538 33.4237L90.2668 32.808C89.959 32.808 89.6512 32.6028 89.3434 32.3976C88.6251 32.0898 88.3173 31.9872 88.0095 32.3976C87.7017 32.808 87.8043 33.1159 88.2147 33.4237C88.8303 33.9367 89.446 33.8341 89.7538 33.4237Z" fill="#216FB5"/>
<path d="M94.3708 34.0393C95.089 33.9367 95.6021 34.0393 96.1151 34.5523C96.8333 35.3732 96.7307 36.3992 95.9099 37.2201L93.4474 39.58L92.5239 38.554L94.8838 36.2966C95.2943 35.8862 95.3969 35.3732 94.9864 34.9628C94.576 34.5523 93.8578 34.5523 93.3448 35.0654L91.19 37.1175L90.2666 36.0914L94.063 32.5002L94.9864 33.5263L94.3708 34.0393Z" fill="#216FB5"/>
<path d="M96.1156 42.3503C95.6026 42.3503 95.1922 42.2477 94.5765 41.5294C93.9609 40.606 93.9609 39.6825 94.7817 39.0669C95.7052 38.3487 96.526 38.9643 97.3469 39.7851C97.9625 40.4008 98.2703 40.7086 98.5781 40.5034C98.8859 40.2982 98.8859 39.8877 98.5781 39.3747C98.1677 38.8617 97.8599 38.7591 97.3469 38.9643L96.6286 37.9382C97.4495 37.4252 98.4755 37.5278 99.399 38.7591C100.322 40.093 100.117 41.0164 99.0912 41.7346L96.9364 43.2737C96.6286 43.4789 96.4234 43.6841 96.4234 43.8893L95.6026 42.7607C95.7052 42.6581 95.9104 42.4529 96.1156 42.3503ZM97.1417 41.632L97.7573 41.2216C97.4495 41.119 97.2443 40.8112 96.9364 40.606C96.4234 40.093 96.013 39.8877 95.6026 40.1956C95.1922 40.5034 95.2948 40.8112 95.5 41.2216C96.013 41.8372 96.7312 41.8372 97.1417 41.632Z" fill="#216FB5"/>
<path d="M96.5257 44.1971L97.1413 45.4284C96.9361 45.6336 96.8335 46.044 97.1413 46.6596C97.5518 47.3779 98.0648 47.4805 98.6804 47.1727L99.1934 46.8648C98.783 46.7622 98.3726 46.557 97.9622 45.9414C97.4492 44.9153 97.757 43.4789 99.0908 42.7606C100.527 42.0424 101.759 42.4528 102.374 43.5815C102.682 44.1971 102.682 44.7101 102.477 45.2232L102.99 45.018L103.605 46.2492L99.296 48.5065C98.6804 48.8143 98.0648 48.9169 97.5518 48.7117C96.9361 48.5065 96.5257 47.9935 96.1153 47.2753C95.4996 45.8388 95.7049 44.8127 96.5257 44.1971ZM100.938 46.044C101.656 45.7362 101.964 45.018 101.656 44.2997C101.348 43.6841 100.63 43.4789 99.8091 43.8893C98.9882 44.2997 98.783 44.9153 99.0908 45.6336C99.5013 46.4544 100.219 46.4544 100.938 46.044Z" fill="#216FB5"/>
<path d="M101.656 47.9936C103.093 47.4806 104.632 48.0962 105.145 49.5327C105.658 51.1744 104.837 52.4057 102.99 53.0213L101.759 49.4301C101.041 49.8405 100.733 50.3536 100.938 51.1744C101.143 51.6874 101.451 51.8926 101.862 51.8926L102.272 53.2265C101.348 53.3291 100.322 52.8161 99.8094 51.5848C99.2964 49.8405 100.117 48.5067 101.656 47.9936ZM102.58 49.1223L103.401 51.277C104.016 50.9692 104.324 50.4562 104.119 49.8405C103.811 49.2249 103.298 49.0197 102.58 49.1223Z" fill="#216FB5"/>
<path d="M106.273 53.2266L106.479 54.5604L105.76 54.663C106.273 54.8682 106.684 55.2787 106.889 55.9969C106.992 56.6125 106.684 57.2282 106.171 57.536C106.786 57.8438 107.197 58.2542 107.299 58.9725C107.505 60.1011 106.889 60.8193 105.76 61.0246L102.272 61.6402L102.067 60.3063L105.35 59.7933C105.966 59.6907 106.171 59.3829 106.068 58.8698C105.966 58.2542 105.453 58.049 104.734 58.1516L101.759 58.6646L101.554 57.3308L104.837 56.8177C105.453 56.7151 105.658 56.4073 105.555 55.8943C105.453 55.3813 104.94 55.0735 104.221 55.1761L101.246 55.6891L101.041 54.15L106.273 53.2266Z" fill="#216FB5"/>
<path d="M104.837 62.0505C106.376 62.0505 107.607 63.1791 107.607 64.7182C107.607 66.3599 106.273 67.2833 104.426 67.2833L104.529 63.487C103.708 63.5896 103.195 64 103.195 64.8208C103.195 65.3338 103.4 65.6417 103.811 65.8469V67.1807C102.887 66.9755 102.066 66.1547 102.169 64.8208C102.066 62.9739 103.298 61.9479 104.837 62.0505ZM105.35 63.3843V65.7443C105.965 65.7443 106.478 65.2312 106.478 64.6156C106.478 63.8974 106.068 63.5896 105.35 63.3843Z" fill="#216FB5"/>
<path d="M106.376 69.6433C106.889 70.1563 107.094 70.6693 106.991 71.3876C106.786 72.4136 105.863 73.0293 104.734 72.9266L101.348 72.311L101.553 70.9772L104.734 71.4902C105.247 71.5928 105.76 71.285 105.863 70.7719C105.965 70.1563 105.555 69.6433 104.837 69.5407L101.861 69.1303L102.066 67.7964L107.299 68.6172L107.094 69.9511L106.376 69.6433Z" fill="#216FB5"/>
<path d="M106.273 73.9527L106.068 74.6709L107.607 75.0813L107.299 76.4152L105.76 76.0048L105.555 76.8256L104.632 76.6204L104.837 75.7996L102.169 75.0813C101.759 74.9787 101.656 75.1839 101.553 75.4917C101.553 75.697 101.451 75.9022 101.451 75.9022L100.425 75.5944C100.425 75.5944 100.527 75.2865 100.63 74.7735C100.835 74.1579 101.246 73.4396 102.169 73.7475L105.145 74.5683L105.35 73.8501L106.273 73.9527Z" fill="#216FB5"/>
<path d="M43.9915 99.9119C44.9149 97.9624 46.7618 97.0389 48.7113 97.9624C50.353 98.6806 50.866 100.117 50.353 101.451L49.0191 100.835C49.2244 100.117 48.9165 99.5015 48.0957 99.091C46.8644 98.578 45.8384 99.2962 45.2228 100.528C44.6071 101.861 44.8123 103.093 45.941 103.606C46.7618 103.913 47.4801 103.708 47.8905 103.093L49.2244 103.708C48.9165 104.221 48.4035 104.734 47.7879 104.94C47.2749 105.145 46.5566 105.145 45.6332 104.632C43.7863 103.811 43.1707 101.861 43.9915 99.9119Z" fill="#216FB5"/>
<path d="M50.0452 103.606C50.4556 102.169 51.7895 101.246 53.2259 101.656C54.8676 102.066 55.278 103.606 54.8676 105.35L51.2764 104.324C51.1738 105.145 51.4816 105.76 52.1999 105.965C52.7129 106.068 53.1233 105.965 53.3285 105.658L54.6624 106.068C54.252 106.889 53.2259 107.402 51.9947 107.094C50.2504 106.478 49.6347 105.145 50.0452 103.606ZM51.5842 103.503L53.739 104.119C53.8416 103.503 53.6364 102.887 53.0207 102.785C52.3025 102.477 51.7895 102.887 51.5842 103.503Z" fill="#216FB5"/>
<path d="M57.3304 103.606C57.7408 103.093 58.1512 102.887 58.7668 102.99C58.8694 102.99 58.972 102.99 59.0746 103.093L58.8694 104.221C58.0486 104.016 57.3304 104.324 57.1251 105.453L56.7147 107.915L55.3809 107.71L56.2017 102.58L57.5356 102.785L57.3304 103.606Z" fill="#216FB5"/>
<path d="M59.2794 103.093L59.9976 103.195L60.1002 101.553L61.4341 101.656L61.3315 103.298L62.2549 103.4L62.1523 104.324L61.2289 104.119L61.0237 106.889C61.0237 107.299 61.2289 107.402 61.5367 107.402C61.7419 107.402 61.9471 107.402 61.9471 107.402L61.8445 108.428C61.8445 108.428 61.5367 108.428 61.0237 108.428C60.408 108.325 59.6898 108.018 59.6898 107.094L59.895 104.119L59.1768 104.016L59.2794 103.093Z" fill="#216FB5"/>
<path d="M62.8707 103.298H64.2045L64.1019 108.428H62.7681L62.8707 103.298ZM62.9733 101.348H64.3071V102.58H62.9733V101.348Z" fill="#216FB5"/>
<path d="M64.7178 103.4L65.436 103.298V102.887C65.3334 101.656 66.2569 101.143 67.5907 101.143L67.6933 102.169C67.0777 102.169 66.7699 102.272 66.7699 102.785V103.195L67.6933 103.093L67.7959 104.016L66.8725 104.119L67.1803 108.325L65.8464 108.428L65.5386 104.221L64.8204 104.324L64.7178 103.4ZM68.1037 101.143L69.4376 101.041L69.5402 102.272L68.2064 102.374L68.1037 101.143ZM68.309 103.093L69.6428 102.99L70.0532 108.12L68.7194 108.223L68.309 103.093Z" fill="#216FB5"/>
<path d="M70.669 105.452C70.3612 103.913 71.0794 102.579 72.5159 102.272C74.1575 101.861 75.2862 102.99 75.6966 104.734L72.0028 105.555C72.3106 106.273 72.8237 106.684 73.5419 106.478C74.0549 106.376 74.3628 106.068 74.3628 105.658L75.6966 105.35C75.6966 106.273 75.081 107.197 73.7471 107.505C72.208 107.915 71.0794 106.992 70.669 105.452ZM71.9002 104.632L74.1575 104.119C73.9523 103.503 73.4393 103.093 72.8237 103.298C72.1054 103.503 71.9002 103.913 71.9002 104.632Z" fill="#216FB5"/>
<path d="M76.2097 104.221C75.6966 102.682 76.1071 101.348 77.3383 100.938C78.0566 100.733 78.5696 100.835 78.98 101.143L78.0566 98.6805L79.2878 98.1675L81.853 104.939L80.6217 105.35L80.4165 104.734C80.3139 105.35 79.9035 105.76 79.2878 106.068C78.0566 106.479 76.8253 105.76 76.2097 104.221ZM79.6982 102.99C79.3904 102.066 78.7748 101.553 77.954 101.861C77.2357 102.169 77.1331 102.887 77.4409 103.811C77.7487 104.734 78.3644 105.145 78.98 104.939C79.9035 104.529 80.0061 103.811 79.6982 102.99Z" fill="#216FB5"/>
<path d="M63.9999 95.8075C46.557 95.8075 32.2949 81.5454 32.2949 63.9999C32.2949 46.4544 46.557 32.2949 63.9999 32.2949C81.4428 32.2949 95.7049 46.557 95.7049 63.9999C95.7049 81.4428 81.5454 95.8075 63.9999 95.8075Z" fill="#D7D8D2"/>
<path d="M63.9997 33.5262C80.827 33.5262 94.4735 47.1727 94.4735 64C94.4735 80.8272 80.827 94.4737 63.9997 94.4737C47.1725 94.4737 33.526 80.8272 33.526 64C33.526 47.2753 47.2751 33.5262 63.9997 33.5262ZM63.9997 31.0637C45.8386 31.0637 31.0635 45.8389 31.0635 64C31.0635 82.1611 45.8386 96.9363 63.9997 96.9363C82.1609 96.9363 96.936 82.1611 96.936 64C97.0386 45.8389 82.2635 31.0637 63.9997 31.0637Z" fill="#216FB5"/>
<path d="M84.9313 60.7166C84.9313 67.386 81.8531 73.3371 77.0307 77.1335C76.415 77.5439 75.902 77.9543 75.2864 78.3647C72.1056 80.3142 68.4118 81.5455 64.5128 81.6481C64.4102 81.6481 64.205 81.6481 64.1024 81.6481C63.9998 81.6481 63.7946 81.6481 63.692 81.6481C59.4852 81.5455 55.6888 80.3142 52.4054 78.0569C51.7898 77.6465 51.1742 77.1334 50.5585 76.723C46.0439 72.9266 43.0684 67.1807 43.0684 60.7166C43.0684 53.4316 46.8648 46.9675 52.508 43.1711C53.4315 42.5555 54.3549 42.0425 55.2784 41.6321C57.8435 40.5034 60.6138 39.7852 63.5894 39.7852C63.692 39.7852 63.8972 39.7852 63.9998 39.7852C64.1024 39.7852 64.3076 39.7852 64.4102 39.7852C67.1806 39.7852 69.8483 40.4008 72.3108 41.4268C73.2343 41.8373 74.1577 42.3503 75.0812 42.8633C81.0323 46.6597 84.9313 53.2264 84.9313 60.7166Z" stroke="white" stroke-width="0.185767" stroke-miterlimit="10"/>
<path d="M76.3119 43.6842C75.9015 44.1972 72.1051 48.1988 63.6915 48.1988C56.2013 48.1988 51.0711 45.1206 50.6606 44.6076C51.5841 43.992 54.3544 42.1451 55.3805 41.6321C57.9456 40.5034 60.716 39.7852 63.6915 39.7852C63.7941 39.7852 63.9993 39.7852 64.1019 39.7852C64.2045 39.7852 64.4097 39.7852 64.5123 39.7852C67.2827 39.7852 69.9504 40.4008 72.4129 41.4268C73.2338 41.9399 75.3885 43.1711 76.3119 43.6842Z" stroke="white" stroke-width="0.185767" stroke-miterlimit="10"/>
<path d="M64.4096 39.8877C67.18 39.8877 69.8477 40.5033 72.3102 41.5294C72.0024 41.7346 71.6946 41.9398 71.2842 42.145C70.3607 42.658 69.4373 43.0685 68.5138 43.4789C66.9748 43.9919 65.3331 44.2997 63.6914 44.2997C62.2549 44.2997 60.8184 44.0945 59.4846 43.6841C58.4585 43.3763 57.4325 42.9659 56.509 42.4528C56.0986 42.2476 55.7908 42.0424 55.3804 41.7346C57.9455 40.6059 60.7158 39.8877 63.6914 39.8877C63.794 39.8877 63.9992 39.8877 64.1018 39.8877C64.2044 39.8877 64.307 39.8877 64.4096 39.8877Z" stroke="white" stroke-width="0.185767" stroke-miterlimit="10"/>
<path d="M75.2862 78.3648C72.1055 80.3143 68.4117 81.5456 64.5127 81.6482C64.4101 81.6482 64.2049 81.6482 64.1023 81.6482C63.9997 81.6482 63.7945 81.6482 63.6918 81.6482C59.485 81.5456 55.6886 80.3143 52.4053 78.057C52.8157 77.544 53.3287 77.031 53.8417 76.6205C55.073 75.5945 56.4069 74.671 57.946 74.0554C59.6902 73.3372 61.6397 72.9268 63.6918 72.9268C65.9492 72.9268 68.1039 73.4398 70.0534 74.3632C71.4898 75.0815 72.8237 75.9023 73.9524 77.031C74.3628 77.4414 74.8758 77.9544 75.2862 78.3648Z" stroke="white" stroke-width="0.185767" stroke-miterlimit="10"/>
<path d="M78.1589 76.3126C77.5433 76.723 75.9016 78.0569 75.286 78.3647C72.1052 80.3142 68.4115 81.5455 64.5125 81.6481C64.4098 81.6481 64.2046 81.6481 64.102 81.6481C63.9994 81.6481 63.7942 81.6481 63.6916 81.6481C59.4848 81.5455 55.6884 80.3142 52.405 78.0569C51.7894 77.6465 50.3529 76.3126 49.7373 75.7996C50.1477 74.9788 55.1754 71.4902 57.0223 70.4641C58.9718 69.4381 61.2291 68.925 63.6916 68.925C66.3593 68.925 68.8219 69.6433 70.9766 70.7719C72.8235 71.9006 77.7485 75.5944 78.1589 76.3126Z" stroke="white" stroke-width="0.185767" stroke-miterlimit="10"/>
<path d="M63.9997 81.6481C68.3631 81.6481 71.9003 72.2767 71.9003 60.7166C71.9003 49.1565 68.3631 39.7852 63.9997 39.7852C59.6363 39.7852 56.0991 49.1565 56.0991 60.7166C56.0991 72.2767 59.6363 81.6481 63.9997 81.6481Z" stroke="white" stroke-width="0.185767" stroke-miterlimit="10"/>
<path d="M79.8011 60.7166C79.8011 66.1547 78.1594 71.1823 75.5943 74.9787C75.0813 75.697 74.5683 76.4152 73.9526 77.0308C71.3875 79.8012 68.0015 81.5455 64.4104 81.6481C64.3077 81.6481 64.1025 81.6481 63.9999 81.6481C63.8973 81.6481 63.6921 81.6481 63.5895 81.6481C59.7931 81.5455 56.4071 79.6986 53.7394 76.6204C53.1238 75.9022 52.6108 75.1839 52.0977 74.4657C49.6352 70.7719 48.1987 65.9495 48.1987 60.7166C48.1987 54.2525 50.456 48.404 53.9446 44.6076C54.6629 43.7868 55.5863 43.0685 56.4071 42.3503C58.5619 40.8112 61.0244 39.8878 63.5895 39.7852C63.6921 39.7852 63.8973 39.7852 63.9999 39.7852C64.1025 39.7852 64.3077 39.7852 64.4104 39.7852C66.8729 39.8878 69.2328 40.7086 71.2849 42.1451C72.2083 42.7607 73.0292 43.4789 73.7474 44.2998C77.4412 48.0962 79.8011 54.0473 79.8011 60.7166Z" stroke="white" stroke-width="0.185767" stroke-miterlimit="10"/>
<path d="M63.897 39.9905V81.5456" stroke="white" stroke-width="0.185767" stroke-miterlimit="10" stroke-linecap="round"/>
<path d="M86.2648 79.8012L70.9767 73.0293C66.3594 71.3876 61.3318 71.3876 56.7145 72.9267L41.529 80.7247L35.9883 55.9968C35.9883 51.1744 39.5795 47.2754 43.8889 47.2754C43.8889 47.2754 58.9718 49.0197 63.9995 49.0197C69.2324 49.0197 84.6231 47.5832 84.6231 47.5832C89.2404 47.5832 92.8316 51.79 92.8316 56.8177L86.2648 79.8012Z" fill="#D7D8D2"/>
<path d="M51.5846 82.8794C52.5081 82.1611 53.5341 81.6481 53.5341 80.7247C53.5341 80.0064 53.1237 79.596 52.5081 79.596C51.7898 79.596 51.3794 80.109 51.2768 81.1351H49.9429C49.9429 79.4934 50.7638 78.3647 52.5081 78.3647C54.1498 78.3647 54.9706 79.4934 54.9706 80.7247C54.9706 82.0585 54.0471 82.7768 53.1237 83.3924C52.5081 83.8028 51.8924 84.2132 51.6872 84.7263H55.0732V85.9575H49.8403C49.8403 84.3158 50.7638 83.495 51.5846 82.8794Z" fill="#216FB5"/>
<path d="M59.2801 79.6988H55.689V78.4675H60.9218V79.6988C59.588 81.0327 58.3567 83.1874 58.2541 85.8551H56.715C56.715 83.0848 58.1515 80.8274 59.2801 79.6988Z" fill="#216FB5"/>
<path d="M61.4346 82.0586C61.4346 79.6987 62.6658 78.2622 64.5127 78.2622C66.3596 78.2622 67.5909 79.6987 67.5909 82.0586C67.5909 84.4185 66.4622 85.855 64.5127 85.855C62.5632 85.9576 61.4346 84.4185 61.4346 82.0586ZM66.0518 82.0586C66.0518 80.5195 65.6414 79.4935 64.5127 79.4935C63.3841 79.4935 62.9736 80.5195 62.9736 82.0586C62.9736 83.5977 63.3841 84.6237 64.5127 84.6237C65.6414 84.6237 66.0518 83.7003 66.0518 82.0586Z" fill="#216FB5"/>
<path d="M68.2065 82.0586C68.2065 79.6987 69.4378 78.2622 71.2847 78.2622C73.1316 78.2622 74.3629 79.6987 74.3629 82.0586C74.3629 84.4185 73.2342 85.855 71.2847 85.855C69.3352 85.9576 68.2065 84.4185 68.2065 82.0586ZM72.7212 82.0586C72.7212 80.5195 72.3108 79.4935 71.1821 79.4935C70.0534 79.4935 69.643 80.5195 69.643 82.0586C69.643 83.5977 70.0534 84.6237 71.1821 84.6237C72.3108 84.6237 72.7212 83.7003 72.7212 82.0586Z" fill="#216FB5"/>
<path d="M76.5177 80.6221H74.876V79.6986C75.7994 79.6986 76.6203 79.2882 76.7229 78.3647H77.9541V85.7523H76.5177V80.6221Z" fill="#216FB5"/>
<path d="M50.8665 54.9709L50.2509 54.8683C49.6353 54.7657 48.7118 54.7657 48.3014 54.7657V67.0784C48.7118 67.0784 49.6353 67.0784 50.2509 66.9757L50.8665 66.8731V70.2591L45.7363 70.1565L40.606 70.2591L40.5034 66.6679L41.119 66.7705C41.7347 66.8731 42.6581 66.8731 43.0685 66.8731V54.5605C42.6581 54.5605 41.7347 54.5605 41.119 54.6631L40.5034 54.9709L40.606 51.585L45.7363 51.6876L50.8665 51.585V54.9709Z" fill="#216FB5"/>
<path d="M67.0781 57.536H63.7947C63.7947 57.3308 63.7947 57.1256 63.7947 56.9203C63.7947 55.4839 61.8452 54.4578 60.2035 54.4578C58.3566 54.4578 57.1254 54.9708 57.1254 55.7917C57.1254 59.2803 68.5146 57.7412 68.5146 65.334C68.5146 68.6173 65.539 70.3616 60.2035 70.3616C58.6645 70.3616 56.6124 69.746 55.2785 68.7199V70.4642L51.9951 70.3616V63.8975H55.5863C55.7915 65.9496 58.0488 67.1809 60.2035 67.1809C62.153 67.1809 63.1791 66.6678 63.1791 65.7444C63.1791 61.948 52.5081 63.4871 52.5081 56.5099C52.5081 53.1239 55.1759 51.2771 60.2035 51.2771C61.5374 51.2771 62.9739 51.6875 64.1025 52.4057V50.9692H67.0781V57.536Z" fill="#216FB5"/>
<path d="M78.2623 70.259C72.3112 70.259 69.0278 66.9756 69.0278 60.8193C69.0278 54.663 72.2086 51.3796 78.2623 51.3796C84.316 51.3796 87.4968 54.663 87.4968 60.8193C87.4968 66.9756 84.2134 70.259 78.2623 70.259ZM77.7493 54.4578C75.3894 54.4578 74.1581 56.7151 74.1581 60.8193C74.1581 64.9235 75.7998 67.1808 78.7753 67.1808C81.1352 67.1808 82.3665 64.9235 82.3665 60.8193C82.3665 56.7151 80.7248 54.4578 77.7493 54.4578Z" fill="#216FB5"/>
</svg>
