<svg width="30" height="9" viewBox="0 0 30 9" fill="none" xmlns="http://www.w3.org/2000/svg">
<path d="M7.6875 0.578125H9.0421V8.94131H7.6875V0.578125Z" fill="#17313B"/>
<path d="M13.7534 6.29079C13.7534 7.58649 12.6933 7.70429 12.3399 7.70429C11.5154 7.70429 11.3976 6.93864 11.3976 6.52637V3.28711H10.043V6.46748C10.043 7.23312 10.2786 7.93987 10.7497 8.35214C11.162 8.76441 11.692 8.9411 12.3399 8.9411C12.8111 8.9411 13.4 8.82331 13.7534 8.46993V8.9411H15.108V3.28711H13.7534V6.29079Z" fill="#17313B"/>
<path d="M17.7582 1.22559H16.4036V3.28694H15.4023V4.58264H16.4036V8.94092H17.7582V4.58264H18.7594V3.28694H17.7582V1.22559Z" fill="#17313B"/>
<path d="M23.001 7.23372C22.7065 7.46931 22.2943 7.64599 21.882 7.64599C20.9397 7.64599 20.2918 6.93925 20.2918 5.99691C20.2918 5.05458 20.9397 4.40673 21.882 4.40673C22.2943 4.40673 22.7065 4.52452 23.001 4.819L23.1777 4.99569L24.12 4.11225L23.8844 3.93556C23.3544 3.4644 22.6476 3.16992 21.882 3.16992C20.2329 3.16992 18.9961 4.40673 18.9961 6.05581C18.9961 7.70489 20.2329 8.9417 21.882 8.9417C22.6476 8.9417 23.3544 8.64722 23.8844 8.17606L24.12 7.99937L23.1777 7.05704L23.001 7.23372Z" fill="#17313B"/>
<path d="M28.8903 3.75849C28.478 3.34622 28.0657 3.16954 27.4179 3.16954C26.9467 3.16954 26.4756 3.28733 26.1222 3.6407V0.578125H24.7676V8.94131H26.1222V5.81984C26.1222 4.52414 27.0056 4.40635 27.359 4.40635C28.1835 4.40635 28.1246 5.17199 28.1246 5.58426V8.88242H29.4792V5.64316C29.4792 4.87751 29.3025 4.17076 28.8903 3.75849Z" fill="#17313B"/>
<path d="M21.8232 6.99795C22.3436 6.99795 22.7655 6.57605 22.7655 6.05561C22.7655 5.53518 22.3436 5.11328 21.8232 5.11328C21.3028 5.11328 20.8809 5.53518 20.8809 6.05561C20.8809 6.57605 21.3028 6.99795 21.8232 6.99795Z" fill="#EF4335"/>
<path d="M5.80303 6.87995C5.33186 7.35111 4.62512 7.64559 3.85947 7.64559C2.38708 7.64559 1.32696 6.46768 1.32696 4.87749C1.32696 3.28731 2.38708 2.1094 3.91837 2.1094C4.62512 2.1094 5.33186 2.40387 5.86193 2.93393L6.03861 3.11062L6.92205 2.22719L6.74536 2.0505C5.97972 1.28486 4.97849 0.872585 3.91837 0.872585C1.68033 0.813689 0.03125 2.58056 0.03125 4.87749C0.03125 7.17443 1.68033 8.9413 3.85947 8.9413C4.91959 8.9413 5.97972 8.52903 6.68647 7.76338L6.86315 7.5867L5.97972 6.70326L5.80303 6.87995Z" fill="#17313B"/>
</svg>
