<svg width="82" height="24" viewBox="0 0 82 24" fill="none" xmlns="http://www.w3.org/2000/svg">
<path d="M21.312 0H25.0826V23.2792H21.312V0Z" fill="#2C2929"/>
<path d="M38.1976 15.9019C38.1976 19.5085 35.2467 19.8364 34.2631 19.8364C31.968 19.8364 31.6401 17.7052 31.6401 16.5576V7.54102H27.8695V16.3937C27.8695 18.5249 28.5253 20.4921 29.8368 21.6397C30.9843 22.7873 32.4598 23.2791 34.2631 23.2791C35.5746 23.2791 37.214 22.9512 38.1976 21.9676V23.2791H41.9682V7.54102H38.1976V15.9019Z" fill="#2C2929"/>
<path d="M49.3454 1.80371H45.5748V7.54155H42.7878V11.1482H45.5748V23.2796H49.3454V11.1482H52.1323V7.54155H49.3454V1.80371Z" fill="#2C2929"/>
<path d="M63.9359 18.5251C63.1162 19.1809 61.9686 19.6727 60.8211 19.6727C58.198 19.6727 56.3947 17.7054 56.3947 15.0824C56.3947 12.4594 58.198 10.6561 60.8211 10.6561C61.9686 10.6561 63.1162 10.984 63.9359 11.8036L64.4277 12.2955L67.0507 9.83639L66.395 9.34457C64.9195 8.03307 62.9523 7.21338 60.8211 7.21338C56.2308 7.21338 52.7881 10.6561 52.7881 15.2463C52.7881 19.8366 56.2308 23.2793 60.8211 23.2793C62.9523 23.2793 64.9195 22.4596 66.395 21.1481L67.0507 20.6563L64.4277 18.0333L63.9359 18.5251Z" fill="#2C2929"/>
<path d="M80.3297 8.85266C79.1821 7.7051 78.0345 7.21328 76.2312 7.21328C74.9197 7.21328 73.6082 7.54115 72.6246 8.52478V0H68.854V23.2792H72.6246V14.5905C72.6246 10.9839 75.0837 10.656 76.0673 10.656C78.3624 10.656 78.1985 12.7872 78.1985 13.9347V23.1153H81.9691V14.0987C81.9691 11.9675 81.4772 10.0002 80.3297 8.85266Z" fill="#2C2929"/>
<path d="M60.8941 17.7138C62.3428 17.7138 63.5171 16.5394 63.5171 15.0908C63.5171 13.6421 62.3428 12.4678 60.8941 12.4678C59.4455 12.4678 58.2711 13.6421 58.2711 15.0908C58.2711 16.5394 59.4455 17.7138 60.8941 17.7138Z" fill="#EF4335"/>
<path d="M16.0659 17.5411C14.7544 18.8526 12.7872 19.6723 10.656 19.6723C6.55753 19.6723 3.60664 16.3935 3.60664 11.9672C3.60664 7.54088 6.55753 4.26211 10.8199 4.26211C12.7872 4.26211 14.7544 5.0818 16.2299 6.55725L16.7217 7.04906L19.1808 4.58999L18.689 4.09817C16.5578 1.96698 13.7708 0.819411 10.8199 0.819411C4.59027 0.655473 0 5.57362 0 11.9672C0 18.3608 4.59027 23.2789 10.656 23.2789C13.6069 23.2789 16.5578 22.1314 18.525 20.0002L19.0168 19.5084L16.5578 17.0493L16.0659 17.5411Z" fill="#2C2929"/>
</svg>
