<svg width="221" height="34" viewBox="0 0 221 34" fill="none" xmlns="http://www.w3.org/2000/svg">
<path d="M8.30206 5.02013H0V0H22.6083V5.02013H14.3062V26.6219H8.30206V5.02013Z" fill="black"/>
<path d="M63.3021 25.6331C62.7338 26.0641 62.0296 26.3937 61.1895 26.6219C60.3741 26.8248 59.5093 26.9262 58.5951 26.9262C56.2231 26.9262 54.3823 26.305 53.0728 25.0626C51.7879 23.8203 51.1455 21.9948 51.1455 19.5861V11.1812H48.0693V6.61745H51.1455V1.63535H56.9273V6.61745H61.8937V11.1812H56.9273V19.5101C56.9273 20.3721 57.1373 21.044 57.5574 21.5257C58.0021 21.9821 58.6198 22.2103 59.4105 22.2103C60.3247 22.2103 61.103 21.9567 61.7454 21.4497L63.3021 25.6331Z" fill="black"/>
<path d="M95.741 8.8613C96.4328 7.87248 97.3594 7.12453 98.5207 6.61745C99.7067 6.11037 101.066 5.85682 102.598 5.85682V11.3333C101.955 11.2826 101.523 11.2573 101.3 11.2573C99.6449 11.2573 98.3477 11.739 97.4088 12.7025C96.4699 13.6406 96.0004 15.0604 96.0004 16.962V26.6219H90.2186V6.16107H95.741V8.8613Z" fill="black"/>
<path d="M117.821 5.85682C119.675 5.85682 121.355 6.30052 122.862 7.18792C124.394 8.04996 125.592 9.27964 126.457 10.877C127.322 12.4489 127.754 14.2871 127.754 16.3915C127.754 18.4959 127.322 20.3468 126.457 21.9441C125.592 23.516 124.394 24.7457 122.862 25.6331C121.355 26.4952 119.675 26.9262 117.821 26.9262C115.276 26.9262 113.275 26.1022 111.817 24.4541V34H106.035V6.16107H111.558V8.51902C112.991 6.74422 115.079 5.85682 117.821 5.85682ZM116.821 22.0582C118.303 22.0582 119.514 21.5511 120.453 20.5369C121.417 19.4974 121.898 18.1156 121.898 16.3915C121.898 14.6674 121.417 13.2983 120.453 12.2841C119.514 11.2446 118.303 10.7248 116.821 10.7248C115.338 10.7248 114.115 11.2446 113.152 12.2841C112.213 13.2983 111.743 14.6674 111.743 16.3915C111.743 18.1156 112.213 19.4974 113.152 20.5369C114.115 21.5511 115.338 22.0582 116.821 22.0582Z" fill="black"/>
<path d="M151.157 16.4676C151.157 16.5436 151.12 17.0761 151.046 18.0649H135.961C136.233 19.3326 136.875 20.3341 137.888 21.0693C138.901 21.8046 140.162 22.1723 141.669 22.1723C142.706 22.1723 143.621 22.0201 144.411 21.7159C145.227 21.3863 145.98 20.8792 146.672 20.1946L149.748 23.6174C147.871 25.8233 145.128 26.9262 141.52 26.9262C139.272 26.9262 137.283 26.4825 135.553 25.5951C133.824 24.6823 132.49 23.4273 131.551 21.83C130.612 20.2327 130.142 18.4198 130.142 16.3915C130.142 14.3885 130.599 12.5884 131.514 10.9911C132.452 9.36838 133.725 8.11335 135.331 7.22595C136.962 6.3132 138.778 5.85682 140.779 5.85682C142.731 5.85682 144.498 6.28785 146.079 7.14989C147.661 8.01193 148.896 9.25429 149.785 10.877C150.7 12.4743 151.157 14.3378 151.157 16.4676ZM140.816 10.3445C139.507 10.3445 138.407 10.7248 137.518 11.4855C136.628 12.2461 136.085 13.2856 135.887 14.604H145.709C145.511 13.311 144.967 12.2841 144.078 11.5235C143.188 10.7375 142.101 10.3445 140.816 10.3445Z" fill="black"/>
<path d="M174.538 16.4676C174.538 16.5436 174.501 17.0761 174.427 18.0649H159.342C159.614 19.3326 160.257 20.3341 161.27 21.0693C162.283 21.8046 163.543 22.1723 165.05 22.1723C166.088 22.1723 167.002 22.0201 167.793 21.7159C168.608 21.3863 169.362 20.8792 170.054 20.1946L173.13 23.6174C171.252 25.8233 168.509 26.9262 164.902 26.9262C162.653 26.9262 160.664 26.4825 158.935 25.5951C157.205 24.6823 155.871 23.4273 154.932 21.83C153.993 20.2327 153.524 18.4198 153.524 16.3915C153.524 14.3885 153.981 12.5884 154.895 10.9911C155.834 9.36838 157.106 8.11335 158.712 7.22595C160.343 6.3132 162.159 5.85682 164.161 5.85682C166.113 5.85682 167.879 6.28785 169.461 7.14989C171.042 8.01193 172.277 9.25429 173.167 10.877C174.081 12.4743 174.538 14.3378 174.538 16.4676ZM164.198 10.3445C162.888 10.3445 161.789 10.7248 160.899 11.4855C160.01 12.2461 159.466 13.2856 159.268 14.604H169.09C168.892 13.311 168.349 12.2841 167.459 11.5235C166.57 10.7375 165.483 10.3445 164.198 10.3445Z" fill="black"/>
<path d="M183.91 8.8613C184.602 7.87248 185.528 7.12453 186.69 6.61745C187.876 6.11037 189.235 5.85682 190.767 5.85682V11.3333C190.124 11.2826 189.692 11.2573 189.469 11.2573C187.814 11.2573 186.517 11.739 185.578 12.7025C184.639 13.6406 184.169 15.0604 184.169 16.962V26.6219H178.388V6.16107H183.91V8.8613Z" fill="black"/>
<path d="M200.985 26.9262C199.33 26.9262 197.711 26.7233 196.13 26.3177C194.549 25.8867 193.288 25.3542 192.349 24.7204L194.277 20.4609C195.166 21.044 196.241 21.5257 197.501 21.906C198.761 22.261 199.997 22.4385 201.207 22.4385C203.654 22.4385 204.877 21.8173 204.877 20.5749C204.877 19.9918 204.543 19.5735 203.876 19.3199C203.209 19.0664 202.183 18.8509 200.8 18.6734C199.169 18.4198 197.822 18.1283 196.76 17.7987C195.697 17.4691 194.771 16.8859 193.98 16.0492C193.214 15.2125 192.831 14.0209 192.831 12.4743C192.831 11.1812 193.19 10.0403 193.906 9.05145C194.647 8.03729 195.71 7.2513 197.094 6.69351C198.502 6.13572 200.157 5.85682 202.06 5.85682C203.468 5.85682 204.864 6.02163 206.248 6.35123C207.656 6.65548 208.818 7.0865 209.732 7.6443L207.805 11.8658C206.05 10.8516 204.135 10.3445 202.06 10.3445C200.825 10.3445 199.898 10.522 199.28 10.877C198.663 11.2319 198.354 11.6883 198.354 12.2461C198.354 12.8799 198.687 13.3236 199.354 13.5772C200.021 13.8307 201.084 14.0716 202.542 14.2998C204.173 14.5787 205.507 14.8829 206.545 15.2125C207.582 15.5168 208.484 16.0872 209.25 16.9239C210.016 17.7606 210.399 18.9269 210.399 20.4228C210.399 21.6905 210.028 22.8188 209.287 23.8076C208.546 24.7964 207.459 25.5697 206.026 26.1275C204.617 26.66 202.937 26.9262 200.985 26.9262Z" fill="black"/>
<path d="M87.5744 15.7556C87.5744 12.5855 86.3472 9.54532 84.1627 7.30375C81.9783 5.06219 79.0155 3.80289 75.9261 3.80289C72.8368 3.80289 69.874 5.06219 67.6895 7.30375C65.5051 9.54532 64.2778 12.5855 64.2778 15.7556L69.8229 15.7556C69.8229 14.0946 70.4659 12.5016 71.6105 11.3272C72.7551 10.1527 74.3075 9.49283 75.9261 9.49283C77.5448 9.49283 79.0972 10.1527 80.2418 11.3272C81.3864 12.5016 82.0294 14.0946 82.0294 15.7556H87.5744Z" fill="#F7CC2F"/>
<path d="M64.2786 16.8428C64.2786 20.0129 65.5058 23.0531 67.6903 25.2947C69.8748 27.5362 72.8376 28.7955 75.9269 28.7955C79.0162 28.7955 81.979 27.5362 84.1635 25.2947C86.348 23.0531 87.5752 20.0129 87.5752 16.8428L82.0302 16.8428C82.0302 18.5038 81.3871 20.0968 80.2425 21.2713C79.098 22.4458 77.5456 23.1056 75.9269 23.1056C74.3082 23.1056 72.7558 22.4458 71.6112 21.2713C70.4667 20.0968 69.8236 18.5038 69.8236 16.8428L64.2786 16.8428Z" fill="#E2379D"/>
<path d="M22.9807 16.8428C22.9807 20.0129 24.208 23.0531 26.3925 25.2947C28.5769 27.5362 31.5397 28.7955 34.629 28.7955C37.7184 28.7955 40.6812 27.5362 42.8656 25.2947C45.0501 23.0531 46.2773 20.0129 46.2773 16.8428L40.7323 16.8428C40.7323 18.5038 40.0893 20.0968 38.9447 21.2713C37.8001 22.4458 36.2477 23.1056 34.629 23.1056C33.0104 23.1056 31.458 22.4458 30.3134 21.2713C29.1688 20.0968 28.5258 18.5038 28.5258 16.8428L22.9807 16.8428Z" fill="#E2379D"/>
<ellipse cx="217.294" cy="24.9922" rx="3.70628" ry="3.80313" fill="#F6CC2F"/>
</svg>
