<svg width="212" height="53" viewBox="0 0 212 53" fill="none" xmlns="http://www.w3.org/2000/svg">
<path d="M21.0309 47.381C22.9219 48.1305 24.9006 48.6366 26.9193 48.887C27.0631 48.6824 27.1843 48.4627 27.2807 48.2319C27.4386 47.8247 27.503 47.3872 27.469 46.9518C26.5618 46.8475 25.6616 46.6891 24.7733 46.4774C23.6689 46.8037 22.4139 47.1024 21.0083 47.3735" fill="#F49700"/>
<path d="M18.9601 44.1732C14.4841 41.6315 11.0318 37.6117 9.19494 32.8033C7.35811 27.9948 7.25123 22.6971 8.89263 17.8185C8.13964 17.939 7.43935 18.0594 6.69389 18.195C6.06344 20.3627 5.744 22.609 5.74512 24.8665C5.74662 28.8498 6.73162 32.7712 8.61267 36.2824C10.4937 39.7936 13.2126 42.786 16.528 44.994C17.281 44.753 18.0942 44.4744 18.9601 44.1507" fill="#F49700"/>
<path d="M29.9464 0.695406C25.3565 0.695667 20.8613 2.00032 16.9844 4.45734C13.1076 6.91435 10.0089 10.4225 8.04932 14.5731C8.87008 14.3622 9.72849 14.1589 10.617 13.9556C12.4849 10.6557 15.1669 7.88918 18.4074 5.91997C21.6479 3.95076 25.3389 2.84448 29.1283 2.70662C32.9177 2.56875 36.6792 3.40389 40.0543 5.13241C43.4293 6.86093 46.3053 9.4252 48.408 12.5807C50.5107 15.7362 51.77 19.3778 52.0659 23.1581C52.3618 26.9385 51.6843 30.7316 50.0982 34.1758C48.512 37.62 46.07 40.6005 43.0049 42.8331C39.9399 45.0656 36.3541 46.4758 32.5894 46.9292C32.5817 47.0655 32.5666 47.2012 32.5442 47.3358C32.5309 47.9052 32.4029 48.4661 32.1677 48.9849C38.3783 48.4249 44.1329 45.4886 48.2309 40.7885C52.3289 36.0883 54.4539 29.9874 54.1625 23.7584C53.8711 17.5294 51.1859 11.6535 46.6669 7.35643C42.148 3.05939 36.1445 0.673105 29.9087 0.695406" fill="#F49700"/>
<path d="M26.9271 38.7216C24.7434 36.4174 23.8398 34.6403 23.5461 33.3377H26.9421V32.3211H23.4256C23.4174 32.1706 23.4174 32.0198 23.4256 31.8693C23.465 31.4744 23.5857 31.0919 23.7801 30.7459C23.9745 30.3999 24.2384 30.0979 24.5551 29.8588L25.15 29.4899L24.4798 29.6856C22.5371 30.2579 21.37 31.1916 21.0085 32.5395C20.2555 35.3632 23.3805 38.8044 23.516 38.955C24.9316 40.5212 27.8909 44.3841 27.9135 44.4067C28.2977 45.0415 28.5373 45.7531 28.6154 46.491C28.6935 47.2289 28.6081 47.975 28.3653 48.6761C27.4918 50.8824 24.8864 51.8236 24.8639 51.8312L24.909 52.0194C31.4525 50.8975 31.3622 47.5015 31.3396 47.2304C32.0022 44.2787 27.1153 38.9475 26.9045 38.7216" fill="#474547"/>
<path d="M35.3228 23.6692H26.5053C26.4589 23.3704 26.4463 23.0673 26.4676 22.7656C26.4858 22.4685 26.5312 22.1736 26.6032 21.8846H34.2084V20.8606H26.9721C27.5845 19.6663 28.4475 18.6184 29.5022 17.7884L29.8862 17.4947L29.4495 17.5926C27.4144 17.9406 25.5727 19.0098 24.2614 20.6046C23.8852 21.0254 23.6006 21.5198 23.4256 22.0565C23.2506 22.5931 23.189 23.1603 23.2448 23.7219C23.5385 27.3815 28.0263 31.169 28.064 31.2067C29.0768 32.2544 29.8479 33.5112 30.323 34.8888H25.6318V35.9129H30.579C30.6237 36.1614 30.6464 36.4134 30.6467 36.6659C30.6215 36.9979 30.5506 37.3247 30.4359 37.6373H27.3788V38.6538H29.9314C26.799 43.5934 14.6155 46.7635 14.48 46.8012V46.9894C23.9602 46.2364 28.689 43.9775 30.9856 42.2305C33.4931 40.3254 33.734 38.6237 33.7415 38.571C35.2475 33.5033 28.6438 27.2761 28.576 27.2008C27.7731 26.4999 27.1419 25.624 26.7312 24.6406H35.2777L35.3228 23.6692Z" fill="#F49700"/>
<path d="M39.8559 21.1919C39.6451 17.6001 36.2792 15.6047 36.2566 15.5896C31.4977 12.0807 21.8895 12.9692 14.6683 14.3321C9.70133 15.2888 4.80161 16.5666 0 18.1573L0.0527093 18.3381C14.9695 15.0023 23.6214 15.1228 28.2523 15.8155C33.2673 16.5685 34.7808 18.1197 34.7958 18.1347C35.3206 18.4889 35.764 18.9507 36.0963 19.4895C36.4287 20.0283 36.6425 20.6318 36.7235 21.2597C36.8507 23.0576 36.4863 24.8562 35.6693 26.4629H29.2689V27.4794H35.1573C34.4601 28.8256 33.6462 30.1081 32.7251 31.3121L32.2507 31.907L32.8531 31.4552C37.6723 27.8559 40.0141 24.3997 39.8334 21.1693" fill="#474547"/>
<path d="M33.147 12.6529C33.8366 12.6529 34.5107 12.4479 35.0836 12.0639C35.6565 11.68 36.1023 11.1344 36.3645 10.4966C36.6266 9.85869 36.6933 9.1573 36.556 8.48146C36.4187 7.80563 36.0836 7.18585 35.5933 6.70086C35.103 6.21587 34.4796 5.88755 33.8023 5.7576C33.125 5.62765 32.4244 5.70194 31.7894 5.97102C31.1544 6.24011 30.6138 6.69185 30.2361 7.26888C29.8584 7.8459 29.6607 8.52216 29.6682 9.21176C29.6682 9.66825 29.7582 10.1203 29.9331 10.5419C30.108 10.9636 30.3644 11.3466 30.6876 11.669C31.0107 11.9914 31.3943 12.247 31.8163 12.421C32.2383 12.595 32.6905 12.6841 33.147 12.6831" fill="#F49700"/>
<path d="M62.1973 10.0476H83.9437V14.7086H75.3972V42.6672H70.7437V14.7086H62.1973" fill="#474547"/>
<path d="M94.0414 15.1378V42.6673H89.3804V16.7869" fill="#474547"/>
<path d="M89.3804 15.4842V10.0476H94.0414V13.8427" fill="#F49700"/>
<path d="M131.608 24.8514C131.668 25.4312 131.706 25.9357 131.706 26.3574C131.815 30.7459 130.192 35.001 127.188 38.202C125.746 39.776 123.984 41.0231 122.021 41.8596C120.057 42.696 117.937 43.1023 115.803 43.0513C111.375 43.0453 107.13 41.2853 103.997 38.1566C100.864 35.0278 99.0984 30.7852 99.0864 26.3574C99.0964 21.9323 100.858 17.6911 103.986 14.5614C107.115 11.4316 111.355 9.66796 115.78 9.65603C118.81 9.60609 121.785 10.4608 124.327 12.1108C126.844 13.7715 128.872 16.0748 130.2 18.7823L125.516 20.1452C124.609 18.3947 123.239 16.926 121.556 15.8983C119.828 14.8349 117.832 14.2864 115.803 14.3171C113.422 14.3196 111.096 15.0274 109.117 16.3509C107.139 17.6745 105.597 19.5545 104.685 21.7537C103.774 23.953 103.535 26.3728 103.998 28.7079C104.461 31.0429 105.605 33.1885 107.287 34.8738C108.39 36.0107 109.716 36.9094 111.18 37.5142C112.645 38.119 114.218 38.4171 115.803 38.3903C118.441 38.4787 121.018 37.5882 123.039 35.8903C124.985 34.2344 126.313 31.9675 126.804 29.4598H114.621V24.7987L131.608 24.8514Z" fill="#474547"/>
<path d="M155.388 14.7086H141.412V24.0231H153.061V28.6842H141.412V38.0062H155.388V42.6672H136.751V10.0476H155.388V14.7086Z" fill="#474547"/>
<path d="M184.898 42.6672H179.469L171.321 31.3723H166.261V42.6672H161.6V10.0476H171.698C175.809 10.0476 178.909 10.9863 180.997 12.8638C182.047 13.8306 182.871 15.0164 183.411 16.3372C183.951 17.6581 184.194 19.0815 184.122 20.5067C184.175 22.8873 183.471 25.2234 182.112 27.1782C180.755 29.0761 178.766 30.4272 176.502 30.9883L184.898 42.6672ZM166.261 14.7086V26.7565H173.204C174.843 26.8225 176.45 26.2869 177.722 25.2505C178.886 24.2465 179.471 22.7405 179.476 20.7326C179.476 18.6995 178.896 17.1784 177.752 16.2146C176.51 15.177 174.926 14.6399 173.309 14.7086H166.261Z" fill="#474547"/>
<path d="M211.93 42.3435H207.916L206.252 40.4987C204.188 41.9026 201.746 42.6482 199.249 42.6372C196.792 42.6386 194.389 41.9109 192.346 40.5461C190.302 39.1814 188.71 37.241 187.77 34.9706C186.83 32.7002 186.584 30.2019 187.065 27.792C187.546 25.3821 188.73 23.169 190.469 21.4329C192.207 19.6975 194.42 18.516 196.828 18.0375C199.237 17.559 201.734 17.805 204.002 18.7445C206.271 19.6839 208.211 21.2747 209.576 23.3159C210.942 25.3571 211.672 27.7571 211.674 30.2128C211.693 31.7494 211.404 33.2743 210.823 34.697C210.242 36.1198 209.382 37.4116 208.293 38.4957L211.93 42.3435ZM199.249 39.1659C200.88 39.1756 202.482 38.7296 203.873 37.8783L199.543 33.0968L203.413 33.2624L205.958 35.9807C207.425 34.4445 208.236 32.397 208.217 30.273C208.242 29.0838 208.024 27.902 207.576 26.8001C207.128 25.6983 206.46 24.6995 205.612 23.865C204.571 22.8124 203.285 22.0335 201.87 21.5976C200.455 21.1617 198.954 21.0823 197.501 21.3666C196.048 21.6508 194.688 22.2898 193.541 23.2268C192.395 24.1637 191.498 25.3695 190.93 26.7369C190.362 28.1043 190.141 29.5909 190.286 31.0644C190.431 32.5379 190.939 33.9527 191.763 35.1828C192.587 36.4129 193.702 37.4202 195.01 38.1151C196.317 38.81 197.776 39.171 199.257 39.1659" fill="#F49700"/>
</svg>
